<svg width="90" height="90" viewBox="0 0 90 90" fill="none" xmlns="http://www.w3.org/2000/svg">
<path d="M38.2883 72.2366C16.7053 50.6535 6.30999 26.0562 15.0696 17.2965C23.1727 9.19351 44.8269 17.4896 65.1121 35.8619C63.5457 34.091 61.905 32.3359 60.1784 30.6092C43.0185 13.4493 23.1859 4.02999 10.2738 5.72088C5.41489 6.35693 1.61948 10.1523 0.983089 15.0112C-0.707806 27.9234 8.71171 47.756 25.8716 64.9159C31.9922 71.0365 38.4522 76.1694 44.8172 80.166C45.5392 80.6194 46.2787 79.6132 45.6327 79.057C43.1644 76.9322 40.7075 74.6557 38.2883 72.2366Z" fill="#B9B1F0"/>
<path d="M51.711 17.7641C73.294 39.3472 83.6891 63.9447 74.9296 72.7042C66.8266 80.8072 45.1724 72.5111 24.8872 54.1389C26.4536 55.9097 28.0942 57.6648 29.8209 59.3915C46.9807 76.5514 66.8133 85.9709 79.7255 84.28C84.5844 83.6436 88.3798 79.8484 89.0158 74.9897C90.7067 62.0775 81.2872 42.2449 64.1273 25.085C58.0067 18.9644 51.5467 13.8314 45.1817 9.83485C44.4597 9.38151 43.7202 10.3877 44.3663 10.9439C46.8348 13.0685 49.2918 15.345 51.711 17.7641Z" fill="#B9B1F0"/>
<path d="M29.6726 58.0947L13.8829 73.8844C13.2662 74.5011 13.2662 75.5005 13.8829 76.1172C14.1912 76.4255 14.5953 76.5797 14.9993 76.5797C15.4032 76.5797 15.8073 76.4255 16.1156 76.1171L31.9053 60.3274L29.6726 58.0947Z" fill="#B9B1F0"/>
<path d="M30 59.9998C46.5686 76.5683 66.7157 83.284 75 74.9997C83.2842 66.7155 76.5684 46.5684 59.9998 29.9999C43.4312 13.4314 23.2841 6.71571 14.9999 15C6.71567 23.2842 13.4315 43.4313 30 59.9998Z" fill="#7364E1"/>
<path d="M33.9467 56.053C46.2428 68.3491 61.1595 73.3683 67.264 67.2638C73.3684 61.1593 68.3491 46.2427 56.053 33.9466C43.7568 21.6506 28.8402 16.6313 22.7357 22.7358C16.6312 28.8403 21.6506 43.7569 33.9467 56.053Z" fill="#5F559B"/>
<path d="M37.8945 52.1051C45.5159 59.7264 54.8754 62.7236 58.7995 58.7995C62.7237 54.8753 59.7264 45.5158 52.105 37.8945C44.4836 30.2731 35.124 27.2759 31.1999 31.2C27.2758 35.1242 30.273 44.4837 37.8945 52.1051Z" fill="#50418C"/>
<path d="M76.1163 13.8834C75.4996 13.2667 74.5002 13.2667 73.8835 13.8834L52.4319 35.3351C51.8153 35.9516 51.8153 36.9513 52.4319 37.5679C53.0484 38.1844 54.0482 38.1844 54.6647 37.5679L76.1163 16.1161C76.733 15.4994 76.733 14.5003 76.1163 13.8834Z" fill="#B9B1F0"/>
<path d="M58.7476 31.2521C58.1309 30.6354 57.1315 30.6354 56.5148 31.2521L52.4316 35.3352C51.8151 35.9517 51.8151 36.9515 52.4316 37.568C53.0482 38.1846 54.0479 38.1846 54.6645 37.568L58.7476 33.4849C59.3645 32.8679 59.3645 31.8688 58.7476 31.2521Z" fill="white"/>
<path d="M49.7364 40.2647C46.0082 36.5366 41.2189 35.2814 39.0392 37.4611C36.8595 39.6408 38.1147 44.4301 41.8428 48.1583C45.571 51.8864 50.3603 53.1417 52.54 50.9619C54.7198 48.7822 53.4645 43.9929 49.7364 40.2647Z" fill="#3C2364"/>
</svg>
