<svg width="50" height="75" viewBox="0 0 50 75" fill="none" xmlns="http://www.w3.org/2000/svg">
<path d="M28.8172 14.7637C30.9047 17.6861 32.0268 21.1876 32.0268 24.7788V28.2437C33.1268 28.2437 34.1953 27.8759 35.0624 27.1989C35.9295 26.522 36.5455 25.5745 36.8123 24.5073L37.162 23.1085L38.1107 24.247C39.6403 26.0825 40.4705 28.4004 40.4539 30.7896C40.4373 33.1788 39.5751 35.4849 38.0202 37.299C37.4375 37.9787 37.1328 38.8534 37.1671 39.7481C37.2013 40.6428 37.572 41.4916 38.2051 42.1248C38.5585 42.4782 38.9825 42.7532 39.4495 42.9316C39.9164 43.11 40.4157 43.188 40.9148 43.1603C41.4139 43.1327 41.9015 43 42.3459 42.7711C42.7902 42.5422 43.1813 42.2221 43.4935 41.8318L46.1486 38.5141L48.7162 44.9331C49.8805 48.8142 49.9723 52.938 48.9817 56.867C47.9911 60.796 45.9552 64.3835 43.0901 67.2487L42.7663 67.5725C38.356 71.9828 32.3744 74.4605 26.1373 74.4606H23.5175C19.4564 74.4606 15.4645 73.4089 11.9305 71.408C8.39648 69.4071 5.44085 66.5251 3.35141 63.0428C0.849472 58.8728 -0.298288 54.0298 0.0661517 49.1806C0.430592 44.3313 2.28931 39.7143 5.3864 35.9651L15.7794 23.3838C16.8036 22.1441 17.4618 20.6434 17.6801 19.0502C17.8984 17.4571 17.6681 15.8346 17.0151 14.3651C16.1866 12.5011 16.0437 10.4041 16.6118 8.44496C17.1799 6.48578 18.4223 4.79052 20.1195 3.65884L25.6077 0V4.74863C25.6077 8.3399 26.7298 11.8414 28.8172 14.7637Z" fill="#E82F3E"/>
<path d="M35.0881 65.7006L35.0995 65.6892C37.0963 63.6771 38.5209 61.1692 39.2268 58.4237C39.9326 55.6782 39.8942 52.7942 39.1154 50.0685L35.3807 53.8034C35.0282 54.1559 34.6098 54.4356 34.1493 54.6263C33.6887 54.8171 33.1951 54.9153 32.6967 54.9153C32.1982 54.9153 31.7046 54.8171 31.244 54.6263C30.7835 54.4356 30.3651 54.1559 30.0126 53.8034C29.3427 53.1337 28.9475 52.2378 28.9045 51.2915C28.8614 50.3453 29.1738 49.4171 29.7801 48.6894C31.0286 47.1912 31.8134 45.3615 32.0382 43.4242C32.2631 41.4869 31.9183 39.5261 31.0461 37.7817L24.9936 25.6763L24.0628 35.9146C23.9512 37.1425 23.5927 38.3353 23.0089 39.4212C22.425 40.5072 21.6278 41.4641 20.6651 42.2344L15.3737 46.4676C13.9692 47.5912 12.8354 49.0164 12.0562 50.6375C11.2771 52.2587 10.8725 54.0343 10.8726 55.833V57.2899C10.8726 59.0481 11.2591 60.7848 12.0049 62.377C12.7506 63.9692 13.8373 65.378 15.1879 66.5036C17.3746 68.3258 20.1381 69.311 22.9844 69.2829L26.6943 69.2461C29.8497 69.2146 32.8656 67.9407 35.0881 65.7006Z" fill="#EA9D2D"/>
<path d="M3.78307 26.9599C3.44258 26.9599 3.11604 26.8247 2.87529 26.5839C2.63453 26.3431 2.49927 26.0166 2.49927 25.6761V23.1085C2.49927 22.768 2.63453 22.4415 2.87529 22.2007C3.11604 21.96 3.44258 21.8247 3.78307 21.8247C4.12356 21.8247 4.4501 21.96 4.69086 22.2007C4.93162 22.4415 5.06687 22.768 5.06687 23.1085V25.6761C5.06687 26.0166 4.93162 26.3431 4.69086 26.5839C4.4501 26.8247 4.12356 26.9599 3.78307 26.9599Z" fill="#FF6268"/>
<path d="M7.63439 20.541C7.2939 20.541 6.96736 20.4057 6.7266 20.165C6.48584 19.9242 6.35059 19.5977 6.35059 19.2572V16.6896C6.35059 16.3491 6.48584 16.0225 6.7266 15.7818C6.96736 15.541 7.2939 15.4058 7.63439 15.4058C7.97487 15.4058 8.30142 15.541 8.54218 15.7818C8.78294 16.0225 8.91819 16.3491 8.91819 16.6896V19.2572C8.91819 19.5977 8.78294 19.9242 8.54218 20.165C8.30142 20.4057 7.97487 20.541 7.63439 20.541Z" fill="#E82F3E"/>
<path d="M2.49914 15.4057C2.15865 15.4057 1.83211 15.2705 1.59135 15.0297C1.35059 14.7889 1.21533 14.4624 1.21533 14.1219V11.5543C1.21533 11.2138 1.35059 10.8873 1.59135 10.6465C1.83211 10.4058 2.15865 10.2705 2.49914 10.2705C2.83962 10.2705 3.16616 10.4058 3.40692 10.6465C3.64768 10.8873 3.78294 11.2138 3.78294 11.5543V14.1219C3.78294 14.4624 3.64768 14.7889 3.40692 15.0297C3.16616 15.2705 2.83962 15.4057 2.49914 15.4057Z" fill="#961B20"/>
<path d="M47.4322 30.8115C47.0918 30.8115 46.7652 30.6762 46.5245 30.4355C46.2837 30.1947 46.1484 29.8682 46.1484 29.5277V26.9601C46.1484 26.6196 46.2837 26.293 46.5245 26.0523C46.7652 25.8115 47.0918 25.6763 47.4322 25.6763C47.7727 25.6763 48.0993 25.8115 48.34 26.0523C48.5808 26.293 48.716 26.6196 48.716 26.9601V29.5277C48.716 29.8682 48.5808 30.1947 48.34 30.4355C48.0993 30.6762 47.7727 30.8115 47.4322 30.8115Z" fill="#E82F3E"/>
<path d="M43.5809 21.8247C43.2404 21.8247 42.9139 21.6894 42.6731 21.4486C42.4324 21.2079 42.2971 20.8813 42.2971 20.5409V17.9733C42.2971 17.6328 42.4324 17.3062 42.6731 17.0655C42.9139 16.8247 43.2404 16.6895 43.5809 16.6895C43.9214 16.6895 44.2479 16.8247 44.4887 17.0655C44.7295 17.3062 44.8647 17.6328 44.8647 17.9733V20.5409C44.8647 20.8813 44.7295 21.2079 44.4887 21.4486C44.2479 21.6894 43.9214 21.8247 43.5809 21.8247Z" fill="#FF6268"/>
<path d="M48.7162 17.9732C48.3757 17.9732 48.0491 17.838 47.8084 17.5972C47.5676 17.3564 47.4324 17.0299 47.4324 16.6894V12.838C47.4324 12.4975 47.5676 12.171 47.8084 11.9302C48.0491 11.6895 48.3757 11.5542 48.7162 11.5542C49.0567 11.5542 49.3832 11.6895 49.624 11.9302C49.8647 12.171 50 12.4975 50 12.838V16.6894C50 17.0299 49.8647 17.3564 49.624 17.5972C49.3832 17.838 49.0567 17.9732 48.7162 17.9732Z" fill="#E82F3E"/>
</svg>
