<svg width="96" height="54" viewBox="0 0 96 54" fill="none" xmlns="http://www.w3.org/2000/svg">
<path d="M89.8396 0C93.245 0.0182292 95.9999 2.84893 95.9999 6.33838V20.5999L92.9032 22.1845V11.0607C92.9032 9.32777 91.5305 7.92316 89.8373 7.92316C89.8203 7.92297 89.8064 0.0335806 89.8064 0.0335806C89.8064 0.0151596 89.8218 0 89.8396 0Z" fill="#1F1D20"/>
<path d="M6.16031 0C2.75494 0.0182292 0 2.84893 0 6.33837V20.5999L3.09675 22.1845V11.0607C3.09675 9.32776 4.46944 7.92316 6.16256 7.92316C6.17962 7.92297 6.1935 0.0335806 6.1935 0.0335806C6.1935 0.0151596 6.17812 0 6.16031 0Z" fill="#1F1D20"/>
<path d="M57.2903 20.5996C54.4823 20.5996 52.1313 22.5208 51.3728 25.1427C51.337 25.2667 51.2284 25.3536 51.1021 25.3536H44.8979C44.7715 25.3536 44.6629 25.2669 44.6271 25.1427C43.8689 22.5208 41.5176 20.5996 38.7096 20.5996H3.09685L1.02686 28.5226C1.02686 31.1482 3.27179 31.7353 5.83735 31.7353H8.0626L7.89722 42.8874C7.89722 48.1383 12.0567 52.3949 17.1875 52.3949H29.4194L38.7104 50.7071C41.3444 48.6816 43.3266 45.8157 44.2773 42.4988C44.764 40.8004 46.2599 39.6149 47.9892 39.6149H48.0001C49.7337 39.6149 51.2356 40.8012 51.7242 42.5034C53.6104 49.0768 59.5472 53.8765 66.5807 53.8765H80.5163C85.6472 53.8765 89.8065 49.6197 89.8065 44.3689V33.2768H91.3549C93.9203 33.2768 96 31.1484 96 28.523V20.6H57.2903V20.5996Z" fill="#1F1D20"/>
<path d="M37.1613 28.0894H15.3609C14.5057 28.0894 13.8125 28.7988 13.8125 29.6739V44.3686L15.4839 47.5378H29.4194C34.5504 47.5378 38.7097 43.2811 38.7097 38.0302V30.1072L37.1613 28.0894Z" fill="#C3DDFF"/>
<path d="M82.0643 28.5229H60.4373C59.5821 28.5229 58.8889 29.2324 58.8889 30.1075V38.0305L60.3868 45.1172C62.0305 46.6228 64.201 47.5383 66.5803 47.5383H80.5159C82.2261 47.5383 83.6126 46.1193 83.6126 44.3691V30.1075C83.6126 29.2324 82.9195 28.5229 82.0643 28.5229Z" fill="#FF8086"/>
<path d="M9.29024 44.369V33.2769C9.29024 31.5265 7.90368 30.1077 6.1935 30.1077H4.64512C3.78994 30.1077 3.09675 29.3983 3.09675 28.5231V20.6001H0V28.5231C0 31.1484 2.07975 33.2769 4.64512 33.2769H6.1935V44.369C6.1935 49.62 10.353 53.8766 15.4837 53.8766H29.4193C32.9038 53.8766 36.1232 52.6953 38.7103 50.7074H15.4839C12.0632 50.7076 9.29024 47.8698 9.29024 44.369Z" fill="#1F1D20"/>
<path d="M29.4193 30.1077H38.7096V28.5231C38.7096 27.6479 38.0164 26.9385 37.1612 26.9385H13.9356C13.0804 26.9385 12.3872 27.6479 12.3872 28.5231V44.3692C12.3872 46.1194 13.7738 47.5384 15.484 47.5384V44.3692C15.484 36.4927 21.723 30.1077 29.4193 30.1077Z" fill="#A4CCFF"/>
<path d="M82.0645 26.9385H58.8387C57.9835 26.9385 57.2903 27.6479 57.2903 28.5231V38.0306C57.2903 40.8429 58.4905 43.3758 60.387 45.1164V44.369C60.387 36.4927 66.6261 30.1075 74.3226 30.1075H83.6128V28.5229C83.6128 27.6479 82.9196 26.9385 82.0645 26.9385Z" fill="#E5646E"/>
<path d="M47.9998 28.5232C46.2895 28.5232 44.9031 27.1042 44.9031 25.354H51.0966C51.0966 27.1042 49.7102 28.5232 47.9998 28.5232Z" fill="#4B3F4E"/>
</svg>
