<svg width="57" height="81" viewBox="0 0 57 81" fill="none" xmlns="http://www.w3.org/2000/svg">
<path d="M32.4778 80.0308C30.3843 80.3182 28.2471 80.4674 26.0754 80.4674C22.5431 80.4674 19.1036 80.0745 15.7969 79.3269C16.3971 43.4277 26.2718 26.5049 26.2718 26.5049H32.9071C27.5541 42.5019 31.1591 71.1129 32.4778 80.0308Z" fill="#C06100"/>
<path d="M32.4219 79.647C32.4419 79.7798 32.4601 79.9072 32.4782 80.0308C30.3847 80.3182 28.2475 80.4674 26.0758 80.4674H26.074V26.8687C26.2031 26.6267 26.274 26.5049 26.274 26.5049H32.9075C28.9078 38.4567 29.9082 57.4495 31.2214 70.0125C31.6416 74.0267 32.0926 77.3862 32.4219 79.647Z" fill="#9A4C00"/>
<path d="M24.832 26.8284C24.832 26.8284 49.2252 18.3108 52.561 43.2554L25.7273 30.8154L24.832 26.8284Z" fill="#007F40"/>
<path d="M29.4764 26.2745C29.4764 26.2745 6.32497 14.3549 0 38.6082L26.0756 30.9771L27.729 30.2222L29.4764 26.2745Z" fill="#36CD90"/>
<path d="M25.9387 24.9026C25.9387 24.9026 39.9044 1.58662 57.0001 18.6491L30.2451 29.3823L25.9387 24.9026Z" fill="#00A753"/>
<path d="M44.6806 0.0758402L30.3443 29.1813L30.2441 29.3827L26.0767 30.9773L26.0745 30.9749L1.61206 11.4935C13.7793 4.45024 21.8049 10.3109 26.0745 17.3887C26.8999 8.87812 30.306 -0.963467 44.6806 0.0758402Z" fill="#00A753"/>
<path d="M44.6805 0.0758402L30.3443 29.1813L30.2441 29.3827L26.0766 30.9773L26.0745 30.9749V17.3885C26.8999 8.87812 30.3059 -0.963467 44.6805 0.0758402Z" fill="#008C4A"/>
</svg>
