<svg width="186" height="186" viewBox="0 0 186 186" fill="none" xmlns="http://www.w3.org/2000/svg">
<g filter="url(#filter0_d)">
<g clip-path="url(#clip0)">
<rect x="23" y="23" width="140" height="140" rx="30" fill="#9BDCEA"/>
<path d="M142.687 39.724C144.087 37.68 143.471 31.198 138.879 26.606C134.287 22.014 127.021 24.758 124.025 27.614C122.807 23.904 112.461 20.474 104.425 25.584C96.3889 30.694 102.087 37.4 102.087 37.4C102.087 37.4 99.7069 32.15 94.0089 35.79C88.3109 39.43 87.6949 55.138 93.3929 54.27C105.993 52.338 119.209 76.264 119.209 76.264C113.357 90.712 126.895 83.992 126.895 83.992C126.895 83.992 134.609 89.592 140.279 83.992C146.845 77.384 142.603 70.986 142.603 70.986C142.603 70.986 149.001 70.986 153.061 61.606C158.311 49.286 151.087 35.132 142.687 39.724Z" fill="#263238"/>
<path d="M77.7689 132.586C77.4749 133.3 77.2789 133.762 77.0269 134.294C76.7749 134.826 76.5509 135.316 76.3129 135.82C75.8229 136.814 75.2909 137.766 74.7589 138.718C73.6949 140.622 72.5749 142.47 71.3709 144.318C68.9599 147.888 66.3077 151.288 63.4329 154.496C60.5407 157.682 57.4248 160.658 54.1089 163.4C52.4149 164.716 50.7349 166.116 48.9569 167.264L46.3389 169.056L45.6669 169.504L44.8409 170.022C44.2669 170.358 43.6649 170.708 42.9089 171.072C41.9112 171.545 40.8501 171.87 39.7589 172.038C38.6875 172.198 37.5943 172.126 36.5529 171.828C35.0383 171.389 33.7163 170.452 32.8009 169.168C32.1707 168.278 31.7452 167.26 31.5549 166.186C31.4441 165.558 31.3926 164.92 31.4009 164.282C31.4243 163.429 31.5321 162.58 31.7229 161.748C32.2897 159.415 33.1015 157.148 34.1449 154.986C35.9591 151.165 38.0361 147.474 40.3609 143.94C42.6321 140.443 45.0806 137.065 47.6969 133.818C49.0969 132.194 50.4969 130.626 52.0369 129.086C52.8381 128.288 53.6791 127.531 54.5569 126.818C55.6188 125.946 56.8027 125.234 58.0709 124.704L60.7449 130.766C60.2385 131.191 59.7701 131.66 59.3449 132.166C58.7548 132.814 58.1988 133.491 57.6789 134.196C56.5869 135.596 55.5509 137.234 54.5429 138.858C52.5074 142.117 50.6384 145.476 48.9429 148.924C47.217 152.292 45.6839 155.756 44.3509 159.298C43.7566 160.794 43.3157 162.347 43.0349 163.932C43.0035 164.08 43.0035 164.232 43.0349 164.38C43.066 164.247 43.066 164.108 43.0349 163.974C42.928 163.398 42.6936 162.852 42.3489 162.378C41.7194 161.505 40.8185 160.865 39.7869 160.558C39.2348 160.387 38.6527 160.335 38.0789 160.404C37.5469 160.488 37.6449 160.488 37.7569 160.404C38.3729 160.082 40.2349 158.57 41.6349 157.492C42.4049 156.918 43.1049 156.316 43.7909 155.7L45.8909 153.88C48.5939 151.35 51.1595 148.677 53.5769 145.872C55.963 143.043 58.1654 140.064 60.1709 136.954C61.2069 135.428 62.1589 133.846 63.0549 132.25C63.5029 131.466 63.9369 130.654 64.3429 129.87C64.5529 129.464 64.7629 129.072 64.9449 128.694L65.4349 127.672L77.7689 132.586Z" fill="#7F3E3B"/>
<path d="M56.0829 143.352L68.6829 155.084C68.6829 155.084 84.4609 145.914 88.2829 140.16C92.1049 134.406 94.8209 130.892 90.7049 124.312C86.5889 117.732 77.2229 117.004 68.7109 122.912C60.1989 128.82 62.0329 130.444 56.0829 143.352Z" fill="#407BFF"/>
<path d="M60.9829 139.544C58.9109 138.424 56.9929 139.012 55.1449 140.664C53.2969 142.316 51.8549 143.744 54.3049 145.606C58.2562 149.133 61.9566 152.932 65.3789 156.974C66.1769 158.192 71.5529 155.392 72.3789 153.53C73.2049 151.668 63.7269 141.014 60.9829 139.544Z" fill="#407BFF"/>
<path opacity="0.3" d="M60.9829 139.544C58.9109 138.424 56.9929 139.012 55.1449 140.664C53.2969 142.316 51.8549 143.744 54.3049 145.606C58.2562 149.133 61.9566 152.932 65.3789 156.974C66.1769 158.192 71.5529 155.392 72.3789 153.53C73.2049 151.668 63.7269 141.014 60.9829 139.544Z" fill="white"/>
<path d="M61.0809 137.416C61.5709 148.714 63.5169 167.768 68.7389 199.912H121.841C121.043 180.732 120.119 167.922 127.147 134.266C127.534 132.425 127.528 130.523 127.131 128.684C126.734 126.845 125.954 125.111 124.842 123.593C123.73 122.076 122.311 120.809 120.677 119.877C119.043 118.944 117.231 118.366 115.359 118.18C113.245 117.956 111.005 117.788 108.695 117.676C100.674 117.101 92.6219 117.101 84.6009 117.676C81.9969 117.914 79.2949 118.236 76.7329 118.6C72.2517 119.229 68.1656 121.505 65.2717 124.984C62.3779 128.463 60.8838 132.895 61.0809 137.416Z" fill="#407BFF"/>
<path opacity="0.2" d="M79.6869 138.536L71.1189 146.04C71.5669 154.566 86.9389 156.19 95.2409 155.84C103.543 155.49 113.035 153.04 117.907 148.364C122.779 143.688 122.779 139.348 121.225 131.942C119.671 124.536 112.335 122.254 106.301 126.958C100.267 131.662 88.6329 135.82 79.6869 138.536Z" fill="black"/>
<path d="M106.287 90.5298C104.761 98.2858 103.249 112.496 108.667 117.676C102.14 119.598 95.7348 121.912 89.4868 124.606C88.1125 124.009 86.9272 123.048 86.0587 121.826C85.1903 120.605 84.6717 119.17 84.5588 117.676C93.1968 115.604 92.9588 109.192 91.4748 103.158L106.287 90.5298Z" fill="#7F3E3B"/>
<path d="M89.4869 124.606C90.6517 124.116 91.7015 123.389 92.5694 122.47C93.4372 121.552 94.1039 120.463 94.5269 119.272L95.9969 123.206L89.4869 124.606Z" fill="#263238"/>
<path d="M94.5689 119.272C94.9689 121.621 94.7518 124.033 93.9388 126.272C99.0348 126.174 112.349 122.786 112.965 117.508C111.238 116.576 109.602 115.484 108.079 114.246C103.879 116.645 99.3156 118.343 94.5689 119.272Z" fill="white"/>
<path d="M89.4869 124.606C88.9602 123.778 88.653 122.829 88.5942 121.849C88.5354 120.87 88.727 119.891 89.1509 119.006L83.8309 122.128L89.4869 124.606Z" fill="#263238"/>
<path d="M89.1928 118.978C89.1928 118.978 84.6289 122.31 85.9869 126.244C80.8909 126.146 77.5869 122.044 78.5109 117.998C79.7429 116.752 84.9929 116.794 84.9929 116.794C84.9929 116.794 84.6009 117.732 89.1928 118.978Z" fill="white"/>
<path opacity="0.2" d="M100.281 95.6821L91.5169 103.158C91.8865 104.534 92.1348 105.939 92.2589 107.358C95.5629 106.882 100.113 103.256 100.463 99.7981C100.644 98.4261 100.583 97.0328 100.281 95.6821Z" fill="black"/>
<path d="M81.8849 59.9261C78.0909 64.4761 81.5349 77.0061 87.3309 69.4881C93.1269 61.9701 85.1889 55.9641 81.8849 59.9261Z" fill="#263238"/>
<path d="M114.491 76.3059C111.467 88.9059 110.445 94.3099 102.983 99.7419C91.7829 107.904 77.2089 101.464 76.4809 88.2059C75.8229 76.2779 80.8769 57.6579 94.0229 54.7459C106.959 51.9319 117.487 63.6779 114.491 76.3059Z" fill="#7F3E3B"/>
<path d="M87.2889 55.166C81.0869 57.14 83.3269 62.012 89.7809 61.354C89.7809 61.354 95.3809 66.17 106.861 64.056C102.507 66.562 103.683 72.134 107.575 72.638C104.411 76.376 109.227 77.902 106.917 81.038C104.607 84.174 111.117 82.55 112.601 81.038C115.821 80.24 109.507 88.878 108.975 93.456C116.801 91.062 116.101 86.792 119.853 83.11C123.605 79.428 125.901 70.244 122.863 63.202C121.39 60.0477 119.266 57.2408 116.631 54.9655C113.996 52.6902 110.91 50.998 107.575 50C102.381 48.642 86.0289 46.724 87.2889 55.166Z" fill="#263238"/>
<path d="M97.6769 76.432C97.4949 77.482 96.7949 78.224 96.1089 78.098C95.4229 77.972 95.0309 77.034 95.2129 75.998C95.3949 74.962 96.0949 74.22 96.7809 74.346C97.4669 74.472 97.8869 75.396 97.6769 76.432Z" fill="#263238"/>
<path d="M84.8669 74.332C84.6849 75.368 83.9849 76.11 83.3129 75.998C82.6409 75.886 82.2349 74.934 82.4169 73.898C82.5989 72.862 83.2989 72.106 83.9709 72.232C84.6429 72.358 85.0629 73.324 84.8669 74.332Z" fill="#263238"/>
<path d="M84.2649 72.372L81.8989 71.21C81.8989 71.21 82.8369 73.38 84.2649 72.372Z" fill="#263238"/>
<path d="M88.0869 76.6978C86.7467 78.9016 85.107 80.9087 83.2149 82.6617C83.6726 83.1443 84.2311 83.52 84.8506 83.762C85.4701 84.0039 86.1353 84.1063 86.7989 84.0617L88.0869 76.6978Z" fill="#630F0F"/>
<path d="M92.1189 88.906C91.5275 88.9068 90.9372 88.8553 90.3549 88.752C90.3144 88.7447 90.2758 88.7294 90.2413 88.7071C90.2067 88.6849 90.1769 88.656 90.1535 88.6222C90.1301 88.5884 90.1136 88.5503 90.1049 88.5102C90.0962 88.47 90.0955 88.4285 90.1029 88.388C90.1102 88.3476 90.1255 88.309 90.1478 88.2744C90.17 88.2399 90.1989 88.21 90.2327 88.1866C90.2665 88.1632 90.3046 88.1467 90.3448 88.138C90.3849 88.1294 90.4264 88.1287 90.4669 88.136C91.7546 88.3899 93.0838 88.3385 94.3481 87.986C95.6123 87.6335 96.7764 86.9896 97.7469 86.106C97.8046 86.0488 97.8826 86.0166 97.9639 86.0166C98.0452 86.0166 98.1232 86.0488 98.1809 86.106C98.2391 86.1661 98.2716 86.2464 98.2716 86.33C98.2716 86.4136 98.2391 86.494 98.1809 86.554C96.5381 88.0888 94.3669 88.9313 92.1189 88.906Z" fill="#263238"/>
<path d="M115.485 84.3137C115.036 85.31 114.381 86.1996 113.563 86.9236C112.745 87.6477 111.782 88.1897 110.739 88.5137C108.065 89.2557 106.749 86.3297 107.505 83.3617C108.191 80.6877 110.389 77.0757 113.105 77.6637C115.821 78.2517 116.717 81.6957 115.485 84.3137Z" fill="#7F3E3B"/>
<path d="M101.513 68.7321C101.432 68.7526 101.348 68.7557 101.266 68.7412C101.184 68.7267 101.106 68.695 101.037 68.6481C100.392 68.2144 99.6552 67.9378 98.8845 67.8405C98.1137 67.7433 97.3309 67.8281 96.5989 68.0881C96.5254 68.1221 96.4458 68.1413 96.3649 68.1445C96.2839 68.1478 96.2031 68.1351 96.127 68.1072C96.051 68.0792 95.9812 68.0366 95.9216 67.9816C95.8621 67.9267 95.8139 67.8606 95.7799 67.787C95.7459 67.7135 95.7267 67.634 95.7234 67.553C95.7201 67.4721 95.7328 67.3913 95.7608 67.3152C95.7887 67.2392 95.8314 67.1694 95.8863 67.1098C95.9412 67.0502 96.0074 67.0021 96.0809 66.968C96.9974 66.6174 97.9849 66.4928 98.9597 66.6049C99.9345 66.717 100.868 67.0625 101.681 67.612C101.75 67.6549 101.81 67.7111 101.858 67.7774C101.905 67.8437 101.939 67.9187 101.957 67.9981C101.975 68.0776 101.978 68.1598 101.964 68.2401C101.95 68.3205 101.921 68.3972 101.877 68.466C101.791 68.5948 101.662 68.689 101.513 68.7321Z" fill="#263238"/>
<path d="M80.1069 66.2119C80.0533 66.1537 80.0121 66.0852 79.9856 66.0106C79.9592 65.9361 79.948 65.8569 79.9529 65.7779C79.9547 65.697 79.9725 65.6173 80.0051 65.5432C80.0377 65.4692 80.0847 65.4023 80.1432 65.3464C80.2017 65.2905 80.2706 65.2467 80.3461 65.2174C80.4215 65.1882 80.502 65.1741 80.5829 65.1759C81.5663 65.1742 82.5355 65.41 83.4082 65.8634C84.2808 66.3168 85.031 66.9743 85.5949 67.7799C85.6391 67.8489 85.6691 67.926 85.6831 68.0067C85.6972 68.0874 85.6949 68.1701 85.6766 68.2499C85.6583 68.3298 85.6243 68.4052 85.5765 68.4717C85.5287 68.5382 85.4681 68.5946 85.3983 68.6374C85.3285 68.6802 85.2508 68.7087 85.1698 68.7211C85.0889 68.7336 85.0062 68.7298 84.9268 68.7099C84.8473 68.69 84.7726 68.6545 84.707 68.6054C84.6415 68.5563 84.5863 68.4946 84.5449 68.4239C84.0859 67.7981 83.4848 67.2902 82.7911 66.9422C82.0974 66.5941 81.331 66.4158 80.5549 66.4219C80.47 66.4182 80.3868 66.3977 80.3099 66.3617C80.233 66.3257 80.164 66.2748 80.1069 66.2119Z" fill="#263238"/>
<path d="M97.0609 74.4439L94.6949 73.2959C94.6949 73.2959 95.6329 75.4659 97.0609 74.4439Z" fill="#263238"/>
<path d="M100.785 144.472C98.2929 144.57 96.0949 144.57 93.7849 144.472C91.4749 144.374 89.2069 144.346 86.9109 144.22C82.3329 143.954 77.7549 143.464 73.1769 142.82C68.5655 142.185 63.9941 141.287 59.4849 140.132C54.8509 138.973 50.3224 137.428 45.9469 135.512C45.4009 135.274 44.8409 134.994 44.2949 134.742L43.4689 134.35C43.2029 134.21 42.7829 133.986 42.4749 133.79C42.1532 133.585 41.8446 133.361 41.5509 133.118C40.5662 132.295 39.7406 131.298 39.1149 130.178C38.6541 129.338 38.2744 128.457 37.9809 127.546C37.2288 124.84 36.8936 122.036 36.9869 119.23C37.1074 114.496 37.6225 109.78 38.5269 105.132C40.2369 96.2364 42.5761 87.4737 45.5269 78.9097L51.9249 80.5897C51.2529 84.8737 50.5249 89.2417 50.0209 93.5677C49.5169 97.8937 48.9009 102.22 48.6209 106.504C48.2174 110.635 48.1098 114.789 48.2989 118.936C48.3518 120.569 48.6394 122.186 49.1529 123.738C49.2051 123.881 49.2757 124.018 49.3629 124.144C49.3629 124.144 49.3629 123.99 49.0549 123.738C48.8981 123.599 48.724 123.481 48.5369 123.388L49.2369 123.682C49.6989 123.864 50.1469 124.06 50.6369 124.228C58.4832 126.989 66.6261 128.821 74.8989 129.688C79.0989 130.22 83.3829 130.5 87.6529 130.752C89.7809 130.878 91.8529 130.962 94.0649 131.004C96.2769 131.046 98.3909 131.088 100.337 131.004L100.785 144.472Z" fill="#7F3E3B"/>
<path d="M69.9569 129.828L71.5809 146.628C71.5809 146.628 102.843 156.792 119.069 148.266C125.173 145.06 125.131 142.12 125.831 134.392C126.531 126.664 122.429 121.092 112.391 123.668C102.353 126.244 95.7169 126.622 69.9569 129.828Z" fill="#407BFF"/>
<path d="M72.9809 129.898C72.0149 127.756 70.1809 127.098 67.6469 127.266C65.1129 127.434 63.1669 127.728 63.9929 130.682C64.9982 135.882 65.6484 141.144 65.9389 146.432C65.8269 147.832 71.8049 148.91 73.5969 147.93C75.3889 146.95 74.2689 132.726 72.9809 129.898Z" fill="#407BFF"/>
<path opacity="0.3" d="M72.9809 129.898C72.0149 127.756 70.1809 127.098 67.6469 127.266C65.1129 127.434 63.1669 127.728 63.9929 130.682C64.9982 135.882 65.6484 141.144 65.9389 146.432C65.8269 147.832 71.8049 148.91 73.5969 147.93C75.3889 146.95 74.2689 132.726 72.9809 129.898Z" fill="white"/>
<path d="M63.7269 123.108L56.3769 124.186C55.6742 124.287 55.036 124.651 54.5916 125.205C54.1471 125.758 53.9295 126.46 53.9829 127.168V127.826C54.0313 128.52 54.3362 129.171 54.8383 129.652C55.3404 130.134 56.0036 130.411 56.6989 130.43L64.7769 130.668C65.2432 130.684 65.7059 130.582 66.1231 130.373C66.5402 130.165 66.8986 129.855 67.1657 129.472C67.4327 129.09 67.6 128.647 67.6522 128.183C67.7045 127.72 67.6401 127.25 67.4649 126.818L66.6809 124.844C66.4503 124.268 66.0351 123.786 65.5004 123.471C64.9658 123.157 64.342 123.029 63.7269 123.108Z" fill="#7F3E3B"/>
<path d="M45.9889 76.0541L49.5589 67.2061L59.7789 78.8821C59.7789 78.8821 53.6609 84.8601 47.3749 85.7561L46.5209 84.216C45.8294 82.9813 45.4227 81.6075 45.3306 80.1953C45.2386 78.7831 45.4635 77.3681 45.9889 76.0541Z" fill="#7F3E3B"/>
<path d="M59.8909 67.668L62.6909 71.868C63.2637 72.7494 63.4852 73.8137 63.3115 74.8505C63.1379 75.8873 62.5817 76.8213 61.7529 77.468L59.8349 78.952L49.6149 67.276L55.5789 65.96C56.3859 65.7898 57.2252 65.8611 57.992 66.1648C58.7588 66.4685 59.4192 66.9913 59.8909 67.668Z" fill="#7F3E3B"/>
<path d="M118.957 84.0201C117.725 79.5401 109.703 62.8101 101.989 56.3421C94.2749 49.8741 92.1889 50.3781 91.1389 49.6641C91.1849 49.2642 91.3208 48.8798 91.5362 48.5396C91.7516 48.1995 92.041 47.9124 92.3829 47.6997C92.7248 47.4871 93.1102 47.3543 93.5106 47.3115C93.9109 47.2686 94.3157 47.3167 94.6949 47.4521C96.7949 45.6881 100.127 46.5981 101.625 47.3121C108.582 50.5981 114.589 55.5987 119.083 61.8441C124.263 68.9981 125.831 73.3801 125.215 76.9361C124.599 80.4921 123.199 80.5341 123.199 80.5341C123.199 80.5341 124.081 84.3001 118.957 84.0201Z" fill="#407BFF"/>
<path d="M118.887 81.3323C118.605 81.06 118.241 80.8878 117.851 80.8423C118.279 81.834 118.653 82.8482 118.971 83.8803C119.28 83.5231 119.444 83.0622 119.428 82.5898C119.413 82.1174 119.219 81.6683 118.887 81.3323Z" fill="white"/>
<path d="M92.2869 47.7319C92.317 48.1601 92.501 48.5629 92.8049 48.8659C92.9804 49.0416 93.1888 49.181 93.4182 49.2761C93.6476 49.3711 93.8935 49.4201 94.1419 49.4201C94.3902 49.4201 94.6361 49.3711 94.8655 49.2761C95.0949 49.181 95.3033 49.0416 95.4789 48.8659C95.7501 48.5941 95.9307 48.2451 95.9959 47.8666C96.061 47.4882 96.0076 47.0988 95.8429 46.752C95.4418 46.9144 95.065 47.1311 94.7229 47.396C94.318 47.2629 93.8881 47.224 93.466 47.2822C93.0439 47.3404 92.6406 47.4943 92.2869 47.7319Z" fill="white"/>
<path d="M101.289 52.1C101.113 51.9244 100.905 51.785 100.676 51.6899C100.446 51.5948 100.2 51.5459 99.9519 51.5459C99.7035 51.5459 99.4576 51.5948 99.2282 51.6899C98.9988 51.785 98.7904 51.9244 98.6149 52.1C98.2978 52.4282 98.1132 52.862 98.0969 53.318C98.8389 53.85 99.6649 54.466 100.589 55.208C100.852 55.1183 101.091 54.9699 101.289 54.774C101.465 54.5985 101.604 54.3901 101.699 54.1607C101.794 53.9313 101.843 53.6854 101.843 53.437C101.843 53.1887 101.794 52.9428 101.699 52.7134C101.604 52.484 101.465 52.2756 101.289 52.1Z" fill="white"/>
<path d="M107.141 57.9521C106.965 57.7764 106.757 57.637 106.528 57.542C106.298 57.4469 106.052 57.3979 105.804 57.3979C105.556 57.3979 105.31 57.4469 105.08 57.542C104.851 57.637 104.642 57.7764 104.467 57.9521C104.334 58.0922 104.226 58.253 104.145 58.4281C104.901 59.2401 105.671 60.1081 106.413 61.0601C106.684 60.9707 106.933 60.8225 107.141 60.6261C107.317 60.4506 107.456 60.2421 107.551 60.0127C107.646 59.7833 107.695 59.5374 107.695 59.2891C107.695 59.0407 107.646 58.7949 107.551 58.5654C107.456 58.336 107.317 58.1276 107.141 57.9521Z" fill="white"/>
<path d="M111.649 67.0241C112.693 67.0241 113.539 66.178 113.539 65.1341C113.539 64.0903 112.693 63.2441 111.649 63.2441C110.605 63.2441 109.759 64.0903 109.759 65.1341C109.759 66.178 110.605 67.0241 111.649 67.0241Z" fill="white"/>
<path d="M117.501 72.862C118.545 72.862 119.391 72.0158 119.391 70.972C119.391 69.9282 118.545 69.082 117.501 69.082C116.457 69.082 115.611 69.9282 115.611 70.972C115.611 72.0158 116.457 72.862 117.501 72.862Z" fill="white"/>
<path d="M122.009 75.48C121.833 75.6556 121.694 75.864 121.599 76.0934C121.504 76.3228 121.455 76.5687 121.455 76.817C121.455 77.0653 121.504 77.3112 121.599 77.5406C121.694 77.77 121.833 77.9785 122.009 78.154C122.184 78.3296 122.393 78.4689 122.622 78.5639C122.852 78.6589 123.098 78.7078 123.346 78.7078C123.594 78.7078 123.84 78.6589 124.069 78.5639C124.299 78.4689 124.507 78.3296 124.683 78.154C124.848 77.9752 124.985 77.7722 125.089 77.552V77.342C125.207 76.9425 125.189 76.5149 125.037 76.1269C124.885 75.7388 124.609 75.4123 124.251 75.1989C123.893 74.9855 123.474 74.8972 123.061 74.9481C122.647 74.999 122.262 75.1862 121.967 75.48H122.009Z" fill="white"/>
<path d="M104.467 48.9219C104.777 49.2339 105.19 49.4229 105.629 49.4539L104.299 48.6699C104.347 48.7591 104.403 48.8435 104.467 48.9219Z" fill="white"/>
<path d="M110.305 54.7317C110.641 55.0641 111.09 55.2574 111.562 55.273C112.035 55.2886 112.496 55.1253 112.853 54.8157C111.887 53.9477 110.949 53.1637 110.053 52.4497C109.834 52.8035 109.74 53.2205 109.785 53.6342C109.831 54.0478 110.014 54.4342 110.305 54.7317Z" fill="white"/>
<path d="M116.157 60.6256C116.445 60.9102 116.819 61.0928 117.221 61.1459C117.622 61.199 118.03 61.1195 118.383 60.9196C117.613 59.9116 116.843 58.9736 116.059 58.1196C115.763 58.4758 115.61 58.9288 115.628 59.3914C115.646 59.854 115.834 60.2936 116.157 60.6256Z" fill="white"/>
<path d="M122.009 66.4639C122.084 66.5324 122.169 66.5891 122.261 66.6319C122.037 66.2539 121.757 65.8339 121.505 65.4419C121.565 65.826 121.74 66.1827 122.009 66.4639Z" fill="white"/>
<path d="M112.979 69.642C112.676 69.3461 112.281 69.1633 111.859 69.124C112.377 70.006 112.881 70.874 113.357 71.756C113.518 71.4073 113.568 71.0176 113.5 70.6396C113.433 70.2615 113.251 69.9133 112.979 69.642Z" fill="white"/>
<path d="M118.887 78.1541C119.063 77.9785 119.202 77.7701 119.297 77.5407C119.392 77.3113 119.441 77.0654 119.441 76.817C119.441 76.5687 119.392 76.3228 119.297 76.0934C119.202 75.864 119.063 75.6556 118.887 75.48C118.531 75.1286 118.05 74.9316 117.55 74.9316C117.049 74.9316 116.569 75.1286 116.213 75.48C116.001 75.7003 115.847 75.9697 115.765 76.264C116.157 77.076 116.535 77.846 116.871 78.574C117.211 78.7083 117.583 78.74 117.942 78.6654C118.3 78.5908 118.628 78.413 118.887 78.1541Z" fill="white"/>
<path d="M121.687 83.614C122.2 83.3651 122.622 82.9602 122.891 82.4572C123.16 81.9543 123.263 81.3791 123.185 80.814C122.863 80.8246 122.55 80.9196 122.277 81.0894C122.004 81.2593 121.78 81.4981 121.628 81.7818C121.476 82.0655 121.402 82.3842 121.412 82.7058C121.423 83.0273 121.517 83.3406 121.687 83.614Z" fill="white"/>
<path d="M98.4749 46.4722C98.1973 46.8281 98.0585 47.2728 98.0842 47.7235C98.11 48.1742 98.2986 48.6002 98.6149 48.9222C98.7904 49.0978 98.9989 49.2372 99.2283 49.3323C99.4577 49.4274 99.7036 49.4763 99.9519 49.4763C100.2 49.4763 100.446 49.4274 100.676 49.3323C100.905 49.2372 101.113 49.0978 101.289 48.9222C101.485 48.7234 101.633 48.4829 101.723 48.2186C101.813 47.9543 101.841 47.6731 101.807 47.3962L101.625 47.3122C100.632 46.8504 99.5659 46.5662 98.4749 46.4722Z" fill="white"/>
<path d="M107.141 54.7317C107.405 54.4673 107.585 54.1306 107.658 53.764C107.73 53.3974 107.693 53.0175 107.55 52.6722C107.407 52.327 107.165 52.0319 106.854 51.8243C106.543 51.6167 106.178 51.5059 105.804 51.5059C105.43 51.5059 105.065 51.6167 104.754 51.8243C104.443 52.0319 104.201 52.327 104.058 52.6722C103.915 53.0175 103.877 53.3974 103.95 53.764C104.023 54.1306 104.203 54.4673 104.467 54.7317C104.642 54.9074 104.851 55.0468 105.08 55.1418C105.31 55.2369 105.556 55.2859 105.804 55.2859C106.052 55.2859 106.298 55.2369 106.528 55.1418C106.757 55.0468 106.965 54.9074 107.141 54.7317Z" fill="white"/>
<path d="M111.649 61.1721C112.693 61.1721 113.539 60.3259 113.539 59.2821C113.539 58.2383 112.693 57.3921 111.649 57.3921C110.605 57.3921 109.759 58.2383 109.759 59.2821C109.759 60.3259 110.605 61.1721 111.649 61.1721Z" fill="white"/>
<path d="M117.501 67.0241C118.545 67.0241 119.391 66.178 119.391 65.1341C119.391 64.0903 118.545 63.2441 117.501 63.2441C116.457 63.2441 115.611 64.0903 115.611 65.1341C115.611 66.178 116.457 67.0241 117.501 67.0241Z" fill="white"/>
<path d="M122.009 69.6421C121.833 69.8176 121.694 70.026 121.599 70.2555C121.504 70.4849 121.455 70.7308 121.455 70.9791C121.455 71.2274 121.504 71.4733 121.599 71.7027C121.694 71.9321 121.833 72.1406 122.009 72.3161C122.365 72.6675 122.845 72.8645 123.346 72.8645C123.846 72.8645 124.327 72.6675 124.683 72.3161L124.795 72.1341C124.476 71.1064 124.078 70.1048 123.605 69.1381C123.318 69.0906 123.024 69.1115 122.747 69.1991C122.469 69.2866 122.217 69.4384 122.009 69.6421Z" fill="white"/>
<path opacity="0.4" d="M101.625 47.3261C100.713 46.8529 99.7145 46.5681 98.6898 46.4887C97.6652 46.4093 96.6351 46.537 95.6609 46.8641C96.8229 49.4681 100.435 51.4281 103.193 51.8341C103.892 50.9863 104.467 50.0436 104.901 49.0341C103.277 48.0821 102.087 47.5361 101.625 47.3261Z" fill="black"/>
<path opacity="0.4" d="M119.083 61.844C116.251 57.9212 112.816 54.4718 108.905 51.624C107.398 51.5813 105.891 51.6609 104.397 51.862C104.397 55.502 108.275 61.83 114.715 63.216C116.491 63.6162 118.33 63.6495 120.119 63.314C119.797 62.838 119.447 62.348 119.083 61.844Z" fill="black"/>
<path d="M103.193 51.8201C99.8609 50.6301 95.6049 46.3461 96.8649 42.2861C98.1249 38.2261 102.927 37.2461 102.927 37.2461C102.927 37.2461 102.199 40.1441 103.235 41.5861C104.271 43.0281 106.035 47.5501 105.503 48.7821C104.888 49.904 104.11 50.9279 103.193 51.8201Z" fill="#407BFF"/>
<path d="M101.639 55.432C100.911 53.318 101.891 48.278 106.161 47.998C110.431 47.718 109.087 49.846 109.087 49.846L101.639 55.432Z" fill="#407BFF"/>
<path d="M104.705 53.542C105.797 57.014 111.453 61.844 118.019 61.2C119.848 61.0834 121.627 60.5481 123.217 59.6354C124.807 58.7227 126.166 57.457 127.189 55.936C127.189 55.936 122.555 56.23 120.553 54.998C118.551 53.766 111.943 51.4 109.927 51.694C108.123 52.1137 106.371 52.7335 104.705 53.542Z" fill="#407BFF"/>
<path d="M101.639 55.4318C102.017 53.2338 106.091 48.2218 109.969 50.0418C113.847 51.8618 111.999 53.0098 109.969 53.9058C107.276 54.7956 104.473 55.3091 101.639 55.4318Z" fill="#407BFF"/>
<path d="M105.167 55.0677C105.25 54.6099 105.206 54.1382 105.041 53.7032C104.877 53.2681 104.596 52.8862 104.231 52.5984C103.865 52.3106 103.428 52.1278 102.967 52.0695C102.505 52.0112 102.036 52.0797 101.611 52.2677C101.341 53.2861 101.341 54.3573 101.611 55.3757C101.611 55.3757 103.235 55.3477 105.167 55.0677Z" fill="white"/>
<path d="M113.623 58.0779C113.331 57.9075 113.008 57.7965 112.673 57.7514C112.338 57.7063 111.997 57.728 111.671 57.8152C111.344 57.9024 111.038 58.0534 110.77 58.2594C110.502 58.4655 110.277 58.7226 110.109 59.0159C110.054 59.1145 110.007 59.2176 109.969 59.3239C111.451 60.1937 113.078 60.7911 114.771 61.0879C114.95 60.5304 114.934 59.9285 114.725 59.3813C114.517 58.8341 114.128 58.3744 113.623 58.0779Z" fill="white"/>
<path d="M97.1729 41.4879L97.2849 41.5719C97.7756 41.8503 98.3444 41.9589 98.9031 41.8809C99.4619 41.8029 99.9792 41.5426 100.375 41.1405C100.771 40.7384 101.023 40.217 101.092 39.6571C101.161 39.0972 101.043 38.5301 100.757 38.0439C99.205 38.7505 97.9407 39.9655 97.1729 41.4879Z" fill="white"/>
<path d="M125.635 57.812C126.232 57.2564 126.754 56.6258 127.189 55.936C127.189 55.936 126.279 55.936 125.103 55.936C125.034 56.6064 125.224 57.2779 125.635 57.812Z" fill="white"/>
<path d="M102.815 48.2922C103.037 47.9116 103.157 47.4801 103.164 47.0395C103.17 46.5989 103.063 46.1641 102.852 45.7771C102.642 45.39 102.335 45.0638 101.961 44.83C101.588 44.5961 101.16 44.4626 100.72 44.4422C100.28 44.4218 99.8421 44.5153 99.4487 44.7136C99.0552 44.912 98.7195 45.2084 98.4741 45.5744C98.2286 45.9403 98.0817 46.3634 98.0475 46.8027C98.0133 47.242 98.093 47.6827 98.2789 48.0822C98.5583 48.4482 98.8574 48.7987 99.1749 49.1322L99.3149 49.2302C99.6058 49.4003 99.9276 49.511 100.262 49.5559C100.596 49.6008 100.935 49.579 101.261 49.4918C101.586 49.4046 101.891 49.2536 102.158 49.0477C102.425 48.8418 102.648 48.585 102.815 48.2922Z" fill="white"/>
<path d="M110.053 50.084C109.616 50.1265 109.197 50.2806 108.837 50.5314C108.477 50.7822 108.187 51.1213 107.996 51.5163C107.804 51.9113 107.717 52.3488 107.744 52.787C107.77 53.2252 107.908 53.6492 108.145 54.0186C108.383 54.3879 108.711 54.6901 109.098 54.8961C109.486 55.1022 109.92 55.2052 110.359 55.1953C110.798 55.1854 111.227 55.0629 111.605 54.8396C111.982 54.6163 112.297 54.2996 112.517 53.92C112.836 53.3598 112.931 52.6995 112.783 52.072L112.209 51.932C112.139 51.4 111.523 50.798 110.053 50.084Z" fill="white"/>
<path d="M122.205 59.548C122.46 59.1102 122.58 58.6064 122.549 58.1004C122.518 57.5945 122.338 57.109 122.031 56.7056C121.724 56.3022 121.304 55.9989 120.825 55.834C120.346 55.6692 119.828 55.6503 119.338 55.7797C118.848 55.9091 118.407 56.181 118.072 56.5609C117.736 56.9409 117.521 57.4118 117.453 57.9142C117.385 58.4166 117.468 58.9277 117.691 59.3831C117.914 59.8384 118.267 60.2173 118.705 60.472C119.13 60.7168 119.615 60.8381 120.105 60.822C120.469 60.724 120.819 60.612 121.141 60.5C121.584 60.2975 121.955 59.9656 122.205 59.548Z" fill="white"/>
</g>
</g>
<defs>
<filter id="filter0_d" x="0" y="0" width="186" height="186" filterUnits="userSpaceOnUse" color-interpolation-filters="sRGB">
<feFlood flood-opacity="0" result="BackgroundImageFix"/>
<feColorMatrix in="SourceAlpha" type="matrix" values="0 0 0 0 0 0 0 0 0 0 0 0 0 0 0 0 0 0 127 0"/>
<feOffset/>
<feGaussianBlur stdDeviation="11.5"/>
<feColorMatrix type="matrix" values="0 0 0 0 0 0 0 0 0 0 0 0 0 0 0 0 0 0 0.25 0"/>
<feBlend mode="normal" in2="BackgroundImageFix" result="effect1_dropShadow"/>
<feBlend mode="normal" in="SourceGraphic" in2="effect1_dropShadow" result="shape"/>
</filter>
<clipPath id="clip0">
<rect x="23" y="23" width="140" height="140" rx="30" fill="white"/>
</clipPath>
</defs>
</svg>
