<svg width="75" height="75" viewBox="0 0 75 75" fill="none" xmlns="http://www.w3.org/2000/svg">
<g clip-path="url(#clip0)">
<rect width="75" height="75" rx="37.5" fill="#9BDCEA"/>
<path d="M48.6043 46.1646C55.3018 47.5821 55.6393 50.3121 54.2818 51.7071C52.7818 53.2071 48.1543 51.7071 48.1543 51.7071L48.6043 46.1646Z" fill="#263238"/>
<path d="M26.9592 61.4871C26.4792 62.4321 25.9392 63.5346 25.4592 64.5846C24.9792 65.6346 24.4617 66.7071 23.9592 67.7796C22.9917 69.9171 22.0692 72.0696 21.2142 74.2221C20.3592 76.3746 19.5717 78.5196 18.9117 80.6196C18.2753 82.5293 17.7987 84.4885 17.4867 86.4771L17.3817 84.5571C17.5842 85.9071 17.8092 87.2646 18.0567 88.5996C18.3042 89.9346 18.5817 91.2696 18.8967 92.5746C19.2117 93.8796 19.5342 95.1846 19.9017 96.4446C20.0892 97.0671 20.2767 97.6896 20.4792 98.2821L20.7792 99.1521L20.9217 99.5496C20.9217 99.6546 21.0417 99.8421 21.0117 99.8046C21.3849 100.52 21.6124 101.302 21.6806 102.106C21.7489 102.91 21.6568 103.72 21.4095 104.488C21.1622 105.256 20.7648 105.967 20.2402 106.581C19.7157 107.194 19.0745 107.697 18.354 108.06C17.6335 108.423 16.8479 108.64 16.0431 108.697C15.2382 108.754 14.4299 108.65 13.6654 108.392C12.9008 108.134 12.1952 107.727 11.5894 107.194C10.9836 106.661 10.4898 106.013 10.1367 105.287L9.76917 104.537L9.47666 103.937L8.95919 102.79C8.62919 102.04 8.32167 101.29 8.02917 100.54C7.44417 99.0396 6.91917 97.5846 6.43167 96.0996C5.94417 94.6146 5.49418 93.0996 5.06668 91.6521C4.63918 90.2046 4.26418 88.6521 3.89668 87.1896C3.77178 86.7 3.72618 86.1936 3.76167 85.6896V85.2846C4.00757 82.4081 4.50956 79.5593 5.26167 76.7721C5.92167 74.1696 6.67917 71.6721 7.51167 69.2271C8.34417 66.7821 9.19917 64.3746 10.1142 61.9971C10.5642 60.8121 11.0367 59.6271 11.5167 58.4496C11.9967 57.2721 12.4692 56.1246 13.0167 54.8646C13.4034 53.9072 13.9783 53.0372 14.7073 52.3061C15.4363 51.5749 16.3046 50.9975 17.2608 50.6079C18.217 50.2184 19.2416 50.0247 20.274 50.0383C21.3065 50.0519 22.3256 50.2725 23.2713 50.6871C24.2169 51.1016 25.0697 51.7018 25.7792 52.4519C26.4887 53.202 27.0404 54.0868 27.4018 55.054C27.7632 56.0212 27.9268 57.0511 27.883 58.0827C27.8392 59.1142 27.5888 60.1265 27.1467 61.0596C27.0942 61.2096 27.0417 61.3596 26.9592 61.4871Z" fill="#407BFF"/>
<path opacity="0.2" d="M26.9592 61.4871C26.4792 62.4321 25.9392 63.5346 25.4592 64.5846C24.9792 65.6346 24.4617 66.7071 23.9592 67.7796C22.9917 69.9171 22.0692 72.0696 21.2142 74.2221C20.3592 76.3746 19.5717 78.5196 18.9117 80.6196C18.2753 82.5293 17.7987 84.4885 17.4867 86.4771L17.3817 84.5571C17.5842 85.9071 17.8092 87.2646 18.0567 88.5996C18.3042 89.9346 18.5817 91.2696 18.8967 92.5746C19.2117 93.8796 19.5342 95.1846 19.9017 96.4446C20.0892 97.0671 20.2767 97.6896 20.4792 98.2821L20.7792 99.1521L20.9217 99.5496C20.9217 99.6546 21.0417 99.8421 21.0117 99.8046C21.3849 100.52 21.6124 101.302 21.6806 102.106C21.7489 102.91 21.6568 103.72 21.4095 104.488C21.1622 105.256 20.7648 105.967 20.2402 106.581C19.7157 107.194 19.0745 107.697 18.354 108.06C17.6335 108.423 16.8479 108.64 16.0431 108.697C15.2382 108.754 14.4299 108.65 13.6654 108.392C12.9008 108.134 12.1952 107.727 11.5894 107.194C10.9836 106.661 10.4898 106.013 10.1367 105.287L9.76917 104.537L9.47666 103.937L8.95919 102.79C8.62919 102.04 8.32167 101.29 8.02917 100.54C7.44417 99.0396 6.91917 97.5846 6.43167 96.0996C5.94417 94.6146 5.49418 93.0996 5.06668 91.6521C4.63918 90.2046 4.26418 88.6521 3.89668 87.1896C3.77178 86.7 3.72618 86.1936 3.76167 85.6896V85.2846C4.00757 82.4081 4.50956 79.5593 5.26167 76.7721C5.92167 74.1696 6.67917 71.6721 7.51167 69.2271C8.34417 66.7821 9.19917 64.3746 10.1142 61.9971C10.5642 60.8121 11.0367 59.6271 11.5167 58.4496C11.9967 57.2721 12.4692 56.1246 13.0167 54.8646C13.4034 53.9072 13.9783 53.0372 14.7073 52.3061C15.4363 51.5749 16.3046 50.9975 17.2608 50.6079C18.217 50.2184 19.2416 50.0247 20.274 50.0383C21.3065 50.0519 22.3256 50.2725 23.2713 50.6871C24.2169 51.1016 25.0697 51.7018 25.7792 52.4519C26.4887 53.202 27.0404 54.0868 27.4018 55.054C27.7632 56.0212 27.9268 57.0511 27.883 58.0827C27.8392 59.1142 27.5888 60.1265 27.1467 61.0596C27.0942 61.2096 27.0417 61.3596 26.9592 61.4871Z" fill="black"/>
<path d="M47.6667 49.9594C39.3453 49.0572 30.9528 49.022 22.6242 49.8544C19.8282 50.1454 17.2242 51.4125 15.2696 53.4329C13.315 55.4533 12.135 58.0978 11.9367 60.9019C11.0217 74.7994 15.0867 88.5769 15.0717 110.567C18.7092 114.707 37.7667 116.327 53.5617 111.144C55.9092 101.394 53.5617 84.7369 57.0267 62.2069C57.2536 60.7831 57.1887 59.3281 56.8359 57.9301C56.483 56.5322 55.8496 55.2207 54.9742 54.0751C54.0987 52.9296 52.9995 51.974 51.7433 51.2665C50.4871 50.559 49.1001 50.1143 47.6667 49.9594Z" fill="white"/>
<path d="M42.2668 32.7319L31.6768 41.1619C33.0493 44.9119 33.4768 48.9244 27.0718 50.5069C25.3843 52.6894 26.3218 55.8319 30.5593 58.1794C37.4743 56.5144 41.3893 54.5944 43.8943 50.8669C42.9793 48.0244 41.3968 37.9144 42.2668 32.7319Z" fill="#FFC3BD"/>
<path opacity="0.2" d="M37.9541 36.167L31.6841 41.1545C32.0278 42.0155 32.2792 42.9105 32.4341 43.8245C34.9166 43.997 38.3366 41.522 38.4341 39.3245C38.4679 38.2515 38.3052 37.1814 37.9541 36.167Z" fill="black"/>
<path d="M27.9791 17.3047C22.2041 22.4872 25.5941 25.6072 25.1291 28.5547C28.4441 26.8072 31.4966 21.4972 27.9791 17.3047Z" fill="#FFD700"/>
<path d="M43.7666 26.8819C42.8141 33.4444 42.5891 37.3294 38.9741 40.3819C33.5366 45.0094 25.6466 41.2369 24.6116 34.5094C23.6891 28.4494 25.4066 18.7594 32.1116 16.7119C33.5915 16.2667 35.1602 16.2043 36.6708 16.5304C38.1814 16.8566 39.5846 17.5606 40.749 18.5767C41.9135 19.5928 42.8011 20.8876 43.3288 22.3402C43.8566 23.7927 44.0072 25.3553 43.7666 26.8819Z" fill="#FFC3BD"/>
<path d="M41.9741 31.5696C37.6916 31.1196 39.2216 29.0796 39.8291 27.3921C40.4366 25.7046 38.0816 23.4546 38.4491 22.0146C36.1541 21.2646 34.5341 20.7471 34.1291 19.6671C32.0066 20.7471 25.6016 23.0496 23.2091 19.6671C20.8166 16.2846 22.1516 10.2396 28.8941 11.6346C33.2216 12.5346 36.9866 14.5371 38.6441 13.0896C40.3016 11.6421 44.1116 12.5496 45.1616 15.6996C46.2116 18.8496 51.4766 18.0846 50.3441 21.1971C49.2116 24.3096 46.5116 23.7696 46.5116 23.7696C46.5116 23.7696 46.7516 30.3546 41.9741 31.5696Z" fill="#FFD700"/>
<path d="M27.649 34.8022C27.649 34.8022 29.9665 34.0522 36.469 33.5347C35.719 35.6272 34.309 37.4047 30.979 37.6447C30.5675 37.7137 30.1458 37.6917 29.7436 37.5803C29.3415 37.4689 28.9686 37.2708 28.6512 36.9999C28.3338 36.729 28.0796 36.3918 27.9065 36.0121C27.7334 35.6324 27.6455 35.2195 27.649 34.8022Z" fill="#263238"/>
<path d="M32.509 35.9195C31.1995 35.9579 29.935 36.4065 28.894 37.202C29.5199 37.5788 30.2541 37.7346 30.979 37.6445C32.2866 37.6076 33.5491 37.1588 34.5865 36.362C33.9639 35.9841 33.2316 35.8282 32.509 35.9195Z" fill="#FF5652"/>
<path d="M27.9492 34.7196C28.1367 35.1396 28.3242 35.5596 28.9767 35.6496C30.9159 35.4878 32.8378 35.1616 34.7217 34.6746C35.0369 34.6183 35.334 34.4875 35.5884 34.2931C35.8428 34.0987 36.0471 33.8464 36.1842 33.5571C33.413 33.7279 30.6595 34.1166 27.9492 34.7196Z" fill="white"/>
<path d="M45.6192 30.9172C45.396 31.6355 45.0324 32.3023 44.5497 32.8791C44.0669 33.4558 43.4744 33.9311 42.8067 34.2772C41.0067 35.1922 39.6942 33.6847 39.8442 31.7797C39.9792 30.0697 41.0817 27.5272 43.0542 27.3997C43.4856 27.3782 43.9155 27.4643 44.3053 27.6504C44.6951 27.8365 45.0324 28.1166 45.2869 28.4656C45.5413 28.8146 45.705 29.2214 45.763 29.6494C45.821 30.0774 45.7716 30.5131 45.6192 30.9172Z" fill="#FFC3BD"/>
<path d="M34.3108 27.3321C34.2658 27.8721 33.9433 28.2771 33.5608 28.2471C33.1783 28.2171 32.9608 27.7521 33.0058 27.2196C33.0508 26.6871 33.3733 26.2671 33.7559 26.3046C34.1384 26.3421 34.3558 26.7996 34.3108 27.3321Z" fill="#263238"/>
<path d="M28.3108 27.3313C28.2658 27.8713 27.9433 28.2838 27.5608 28.2463C27.1783 28.2088 26.9608 27.7513 27.0058 27.2188C27.0508 26.6863 27.3733 26.2738 27.7558 26.3038C28.1383 26.3338 28.3558 26.7988 28.3108 27.3313Z" fill="#263238"/>
<path d="M29.4418 27.6919C28.6618 29.2733 27.6674 30.7396 26.4868 32.0494C27.3643 33.0244 29.0143 32.7619 29.0143 32.7619L29.4418 27.6919Z" fill="#FF5652"/>
<path d="M35.5542 25.4121C35.6057 25.4265 35.6602 25.4265 35.7117 25.4121C35.7502 25.3965 35.7853 25.3734 35.8148 25.3442C35.8443 25.3149 35.8678 25.2801 35.8838 25.2418C35.8999 25.2035 35.9082 25.1623 35.9082 25.1208C35.9083 25.0792 35.9001 25.038 35.8842 24.9996C35.7062 24.5274 35.4191 24.104 35.0463 23.7638C34.6736 23.4236 34.2257 23.1763 33.7392 23.0421C33.6577 23.0267 33.5734 23.044 33.5046 23.0904C33.4358 23.1367 33.388 23.2083 33.3717 23.2896C33.363 23.3305 33.3625 23.3728 33.3702 23.4139C33.3779 23.455 33.3938 23.4941 33.4168 23.529C33.4399 23.5639 33.4696 23.5939 33.5044 23.6172C33.5391 23.6405 33.5782 23.6566 33.6192 23.6646C34.0013 23.7784 34.3518 23.9791 34.6433 24.251C34.9348 24.523 35.1593 24.8588 35.2992 25.2321C35.323 25.2813 35.3589 25.3236 35.4035 25.355C35.4481 25.3865 35.4999 25.4062 35.5542 25.4121Z" fill="#263238"/>
<path d="M24.4166 24.5645C24.4689 24.5611 24.5197 24.5458 24.5652 24.5198C24.6107 24.4938 24.6496 24.4578 24.6791 24.4146C24.8736 24.068 25.1492 23.7737 25.4823 23.5569C25.8153 23.34 26.196 23.2071 26.5916 23.1695C26.6752 23.1695 26.7553 23.1364 26.8144 23.0773C26.8734 23.0182 26.9066 22.9381 26.9066 22.8545C26.9066 22.771 26.8734 22.6909 26.8144 22.6318C26.7553 22.5727 26.6752 22.5396 26.5916 22.5396C26.0948 22.5757 25.614 22.7309 25.1897 22.992C24.7655 23.253 24.4103 23.6123 24.1541 24.0396C24.1326 24.0754 24.1184 24.1152 24.1124 24.1566C24.1064 24.198 24.1087 24.2401 24.1192 24.2806C24.1296 24.3211 24.1481 24.3591 24.1734 24.3924C24.1987 24.4257 24.2304 24.4536 24.2666 24.4746C24.3063 24.5192 24.3586 24.5506 24.4166 24.5645Z" fill="#263238"/>
<path d="M44.6367 48.4819C43.6242 48.3694 42.8742 47.5894 41.2542 49.2319C39.6342 50.8744 36.2517 55.3594 34.9392 62.6194C33.5142 71.6461 32.7621 80.7662 32.6892 89.9044C32.7792 96.6544 31.8641 109.344 34.4891 116.064C34.6737 116.307 34.9138 116.502 35.1891 116.632C35.4645 116.763 35.7671 116.825 36.0717 116.814C36.0717 116.814 35.0741 92.5519 36.4766 78.6844C37.8791 64.8169 44.6367 48.4819 44.6367 48.4819Z" fill="#263238"/>
<path d="M44.8166 48.1147C41.4791 48.1147 37.4141 54.5272 35.8166 63.8647C34.2191 73.2022 33.7241 86.9122 33.7391 92.7247C33.7541 98.5372 33.3416 106.345 34.1516 109.412C34.9616 112.48 35.0141 117.332 36.4016 117.782C37.7891 118.232 52.0391 116.627 56.3666 109.412C55.7366 104.005 57.4316 92.4172 56.8841 87.5422C56.3366 82.6672 58.8041 69.0022 58.6241 62.0422C58.4441 55.0822 55.9991 48.1147 44.8166 48.1147Z" fill="#407BFF"/>
<path opacity="0.2" d="M57.7917 74.0869L50.6892 65.7544C50.4342 71.9494 55.9393 87.3994 57.0043 90.2569C57.0199 89.3481 56.9848 88.4392 56.8992 87.5344C56.5767 84.8569 57.1842 79.5094 57.7917 74.0869Z" fill="black"/>
<path d="M36.6493 56.6645C36.3568 52.967 39.8518 46.097 43.2343 44.867C46.6168 43.637 50.9743 44.5895 50.6443 48.917C43.4593 52.1645 38.9593 56.6195 36.6493 56.6645Z" fill="#263238"/>
<path d="M25.2868 116.087C26.8393 116.087 26.7868 115.142 26.1343 110.837C25.4818 106.532 24.4768 92.4322 24.5218 88.6447C24.5668 84.8572 25.0318 58.7797 26.2168 55.2247C27.7168 50.7247 28.4668 49.9747 27.2968 49.8922C26.6922 49.8383 26.0855 49.9691 25.5568 50.2672C25.5568 50.2672 21.8068 69.2947 22.1743 89.0497C22.5418 108.805 25.2868 116.087 25.2868 116.087Z" fill="#263238"/>
<path d="M25.2717 49.2769C25.5 49.2706 25.7261 49.322 25.9292 49.4263C26.1323 49.5307 26.3058 49.6845 26.4337 49.8737C26.5615 50.0629 26.6396 50.2812 26.6607 50.5086C26.6817 50.7359 26.6451 50.9649 26.5542 51.1744C24.0417 56.8069 23.1642 68.6044 23.5542 85.8694C23.9742 105.444 25.8642 114.009 25.8867 116.942C21.7542 117.534 15.0792 115.007 13.7292 111.692C12.3792 108.377 10.1592 90.1894 10.5417 84.4144C10.9242 78.6394 9.5442 64.8544 11.9067 58.3294C14.1267 52.2019 13.7592 49.5544 25.2717 49.2769Z" fill="#407BFF"/>
<path d="M27.1167 52.6371C27.8142 50.1096 32.0592 49.6896 32.3667 46.1871C25.6542 44.5521 24.5142 47.4096 22.6167 49.3971C23.5542 53.2446 25.6167 58.9221 25.6167 58.9221C25.6167 58.9221 26.3442 55.4421 27.1167 52.6371Z" fill="#263238"/>
<path d="M56.9067 53.6646L58.0842 55.4271L59.1867 57.1371C59.9117 58.2821 60.6242 59.4371 61.3242 60.6021C62.7267 62.9271 64.0767 65.2896 65.3592 67.7421C66.6417 70.1946 67.8642 72.7146 68.9592 75.4221C69.5067 76.7871 70.0242 78.1971 70.4592 79.7196C70.9711 81.3728 71.3276 83.0701 71.5242 84.7896V85.0371C71.5317 85.1745 71.5317 85.3122 71.5242 85.4496C71.5107 88.3057 71.2396 91.1547 70.7142 93.9621C70.221 96.6343 69.5571 99.2722 68.7267 101.86C67.9167 104.41 66.9792 106.877 65.9442 109.292C65.4442 110.497 64.8967 111.695 64.3017 112.885C64.0167 113.477 63.7242 114.07 63.4167 114.662L63.0417 115.54L62.5092 116.515C61.7522 117.901 60.4857 118.938 58.9776 119.407C57.4695 119.876 55.8381 119.74 54.4284 119.028C53.0187 118.316 51.9413 117.083 51.4241 115.591C50.9068 114.099 50.9902 112.464 51.6567 111.032L51.7917 110.665L52.4442 109.27C52.6692 108.76 52.8867 108.25 53.1042 107.77C53.5392 106.735 53.9517 105.685 54.3417 104.627C55.1155 102.534 55.7838 100.404 56.3442 98.2446C56.8979 96.1511 57.3162 94.0242 57.5967 91.8771C57.8667 89.8666 57.9496 87.8354 57.8442 85.8096L57.8967 86.4771C57.7319 85.6337 57.496 84.8057 57.1917 84.0021C56.8467 83.0571 56.4417 82.0521 55.9467 81.0396C54.9942 78.9996 53.8467 76.9146 52.6167 74.8446C51.3867 72.7746 50.0517 70.7121 48.6717 68.6721C47.9817 67.6721 47.2792 66.6721 46.5642 65.6721L45.4842 64.1721L44.4267 62.7546L44.3142 62.6046C43.6778 61.7958 43.2095 60.868 42.9369 59.8756C42.6644 58.8832 42.5931 57.8463 42.7272 56.8259C42.8613 55.8055 43.1982 54.8223 43.718 53.934C44.2377 53.0458 44.9299 52.2705 45.7538 51.6537C46.5776 51.0369 47.5165 50.5912 48.5152 50.3427C49.5139 50.0941 50.5522 50.0479 51.5691 50.2066C52.5859 50.3653 53.5607 50.7258 54.4362 51.2668C55.3116 51.8079 56.07 52.5186 56.6667 53.3571L56.9067 53.6646Z" fill="#407BFF"/>
<path d="M45.0416 69.5269C44.8766 72.1144 42.9566 74.2369 40.7366 74.2669C38.5166 74.2969 36.8666 72.2194 37.0241 69.6319C37.1816 67.0444 39.1166 64.9219 41.3291 64.8919C43.5416 64.8619 45.2216 66.9394 45.0416 69.5269Z" fill="white"/>
<g clip-path="url(#clip1)">
<rect width="75" height="75" rx="37.5" fill="#9BDCEA"/>
<path d="M48.6043 46.1646C55.3018 47.5821 55.6393 50.3121 54.2818 51.7071C52.7818 53.2071 48.1543 51.7071 48.1543 51.7071L48.6043 46.1646Z" fill="#263238"/>
<path d="M26.9592 61.4871C26.4792 62.4321 25.9392 63.5346 25.4592 64.5846C24.9792 65.6346 24.4617 66.7071 23.9592 67.7796C22.9917 69.9171 22.0692 72.0696 21.2142 74.2221C20.3592 76.3746 19.5717 78.5196 18.9117 80.6196C18.2753 82.5293 17.7987 84.4885 17.4867 86.4771L17.3817 84.5571C17.5842 85.9071 17.8092 87.2646 18.0567 88.5996C18.3042 89.9346 18.5817 91.2696 18.8967 92.5746C19.2117 93.8796 19.5342 95.1846 19.9017 96.4446C20.0892 97.0671 20.2767 97.6896 20.4792 98.2821L20.7792 99.1521L20.9217 99.5496C20.9217 99.6546 21.0417 99.8421 21.0117 99.8046C21.3849 100.52 21.6124 101.302 21.6806 102.106C21.7489 102.91 21.6568 103.72 21.4095 104.488C21.1622 105.256 20.7648 105.967 20.2402 106.581C19.7157 107.194 19.0745 107.697 18.354 108.06C17.6335 108.423 16.8479 108.64 16.0431 108.697C15.2382 108.754 14.4299 108.65 13.6654 108.392C12.9008 108.134 12.1952 107.727 11.5894 107.194C10.9836 106.661 10.4898 106.013 10.1367 105.287L9.76917 104.537L9.47666 103.937L8.95919 102.79C8.62919 102.04 8.32167 101.29 8.02917 100.54C7.44417 99.0396 6.91917 97.5846 6.43167 96.0996C5.94417 94.6146 5.49418 93.0996 5.06668 91.6521C4.63918 90.2046 4.26418 88.6521 3.89668 87.1896C3.77178 86.7 3.72618 86.1936 3.76167 85.6896V85.2846C4.00757 82.4081 4.50956 79.5593 5.26167 76.7721C5.92167 74.1696 6.67917 71.6721 7.51167 69.2271C8.34417 66.7821 9.19917 64.3746 10.1142 61.9971C10.5642 60.8121 11.0367 59.6271 11.5167 58.4496C11.9967 57.2721 12.4692 56.1246 13.0167 54.8646C13.4034 53.9072 13.9783 53.0372 14.7073 52.3061C15.4363 51.5749 16.3046 50.9975 17.2608 50.6079C18.217 50.2184 19.2416 50.0247 20.274 50.0383C21.3065 50.0519 22.3256 50.2725 23.2713 50.6871C24.2169 51.1016 25.0697 51.7018 25.7792 52.4519C26.4887 53.202 27.0404 54.0868 27.4018 55.054C27.7632 56.0212 27.9268 57.0511 27.883 58.0827C27.8392 59.1142 27.5888 60.1265 27.1467 61.0596C27.0942 61.2096 27.0417 61.3596 26.9592 61.4871Z" fill="#407BFF"/>
<path opacity="0.2" d="M26.9592 61.4871C26.4792 62.4321 25.9392 63.5346 25.4592 64.5846C24.9792 65.6346 24.4617 66.7071 23.9592 67.7796C22.9917 69.9171 22.0692 72.0696 21.2142 74.2221C20.3592 76.3746 19.5717 78.5196 18.9117 80.6196C18.2753 82.5293 17.7987 84.4885 17.4867 86.4771L17.3817 84.5571C17.5842 85.9071 17.8092 87.2646 18.0567 88.5996C18.3042 89.9346 18.5817 91.2696 18.8967 92.5746C19.2117 93.8796 19.5342 95.1846 19.9017 96.4446C20.0892 97.0671 20.2767 97.6896 20.4792 98.2821L20.7792 99.1521L20.9217 99.5496C20.9217 99.6546 21.0417 99.8421 21.0117 99.8046C21.3849 100.52 21.6124 101.302 21.6806 102.106C21.7489 102.91 21.6568 103.72 21.4095 104.488C21.1622 105.256 20.7648 105.967 20.2402 106.581C19.7157 107.194 19.0745 107.697 18.354 108.06C17.6335 108.423 16.8479 108.64 16.0431 108.697C15.2382 108.754 14.4299 108.65 13.6654 108.392C12.9008 108.134 12.1952 107.727 11.5894 107.194C10.9836 106.661 10.4898 106.013 10.1367 105.287L9.76917 104.537L9.47666 103.937L8.95919 102.79C8.62919 102.04 8.32167 101.29 8.02917 100.54C7.44417 99.0396 6.91917 97.5846 6.43167 96.0996C5.94417 94.6146 5.49418 93.0996 5.06668 91.6521C4.63918 90.2046 4.26418 88.6521 3.89668 87.1896C3.77178 86.7 3.72618 86.1936 3.76167 85.6896V85.2846C4.00757 82.4081 4.50956 79.5593 5.26167 76.7721C5.92167 74.1696 6.67917 71.6721 7.51167 69.2271C8.34417 66.7821 9.19917 64.3746 10.1142 61.9971C10.5642 60.8121 11.0367 59.6271 11.5167 58.4496C11.9967 57.2721 12.4692 56.1246 13.0167 54.8646C13.4034 53.9072 13.9783 53.0372 14.7073 52.3061C15.4363 51.5749 16.3046 50.9975 17.2608 50.6079C18.217 50.2184 19.2416 50.0247 20.274 50.0383C21.3065 50.0519 22.3256 50.2725 23.2713 50.6871C24.2169 51.1016 25.0697 51.7018 25.7792 52.4519C26.4887 53.202 27.0404 54.0868 27.4018 55.054C27.7632 56.0212 27.9268 57.0511 27.883 58.0827C27.8392 59.1142 27.5888 60.1265 27.1467 61.0596C27.0942 61.2096 27.0417 61.3596 26.9592 61.4871Z" fill="black"/>
<path d="M47.6667 49.9594C39.3453 49.0572 30.9528 49.022 22.6242 49.8544C19.8282 50.1454 17.2242 51.4125 15.2696 53.4329C13.315 55.4533 12.135 58.0978 11.9367 60.9019C11.0217 74.7994 15.0867 88.5769 15.0717 110.567C18.7092 114.707 37.7667 116.327 53.5617 111.144C55.9092 101.394 53.5617 84.7369 57.0267 62.2069C57.2536 60.7831 57.1887 59.3281 56.8359 57.9301C56.483 56.5322 55.8496 55.2207 54.9742 54.0751C54.0987 52.9296 52.9995 51.974 51.7433 51.2665C50.4871 50.559 49.1001 50.1143 47.6667 49.9594Z" fill="white"/>
<path d="M42.2668 32.7319L31.6768 41.1619C33.0493 44.9119 33.4768 48.9244 27.0718 50.5069C25.3843 52.6894 26.3218 55.8319 30.5593 58.1794C37.4743 56.5144 41.3893 54.5944 43.8943 50.8669C42.9793 48.0244 41.3968 37.9144 42.2668 32.7319Z" fill="#FFC3BD"/>
<path opacity="0.2" d="M37.9541 36.167L31.6841 41.1545C32.0278 42.0155 32.2792 42.9105 32.4341 43.8245C34.9166 43.997 38.3366 41.522 38.4341 39.3245C38.4679 38.2515 38.3052 37.1814 37.9541 36.167Z" fill="black"/>
<path d="M27.9791 17.3047C22.2041 22.4872 25.5941 25.6072 25.1291 28.5547C28.4441 26.8072 31.4966 21.4972 27.9791 17.3047Z" fill="#FFD700"/>
<path d="M43.7666 26.8819C42.8141 33.4444 42.5891 37.3294 38.9741 40.3819C33.5366 45.0094 25.6466 41.2369 24.6116 34.5094C23.6891 28.4494 25.4066 18.7594 32.1116 16.7119C33.5915 16.2667 35.1602 16.2043 36.6708 16.5304C38.1814 16.8566 39.5846 17.5606 40.749 18.5767C41.9135 19.5928 42.8011 20.8876 43.3288 22.3402C43.8566 23.7927 44.0072 25.3553 43.7666 26.8819Z" fill="#FFC3BD"/>
<path d="M41.9741 31.5696C37.6916 31.1196 39.2216 29.0796 39.8291 27.3921C40.4366 25.7046 38.0816 23.4546 38.4491 22.0146C36.1541 21.2646 34.5341 20.7471 34.1291 19.6671C32.0066 20.7471 25.6016 23.0496 23.2091 19.6671C20.8166 16.2846 22.1516 10.2396 28.8941 11.6346C33.2216 12.5346 36.9866 14.5371 38.6441 13.0896C40.3016 11.6421 44.1116 12.5496 45.1616 15.6996C46.2116 18.8496 51.4766 18.0846 50.3441 21.1971C49.2116 24.3096 46.5116 23.7696 46.5116 23.7696C46.5116 23.7696 46.7516 30.3546 41.9741 31.5696Z" fill="#FFD700"/>
<path d="M27.649 34.8022C27.649 34.8022 29.9665 34.0522 36.469 33.5347C35.719 35.6272 34.309 37.4047 30.979 37.6447C30.5675 37.7137 30.1458 37.6917 29.7436 37.5803C29.3415 37.4689 28.9686 37.2708 28.6512 36.9999C28.3338 36.729 28.0796 36.3918 27.9065 36.0121C27.7334 35.6324 27.6455 35.2195 27.649 34.8022Z" fill="#263238"/>
<path d="M32.509 35.9195C31.1995 35.9579 29.935 36.4065 28.894 37.202C29.5199 37.5788 30.2541 37.7346 30.979 37.6445C32.2866 37.6076 33.5491 37.1588 34.5865 36.362C33.9639 35.9841 33.2316 35.8282 32.509 35.9195Z" fill="#FF5652"/>
<path d="M27.9492 34.7196C28.1367 35.1396 28.3242 35.5596 28.9767 35.6496C30.9159 35.4878 32.8378 35.1616 34.7217 34.6746C35.0369 34.6183 35.334 34.4875 35.5884 34.2931C35.8428 34.0987 36.0471 33.8464 36.1842 33.5571C33.413 33.7279 30.6595 34.1166 27.9492 34.7196Z" fill="white"/>
<path d="M45.6192 30.9172C45.396 31.6355 45.0324 32.3023 44.5497 32.8791C44.0669 33.4558 43.4744 33.9311 42.8067 34.2772C41.0067 35.1922 39.6942 33.6847 39.8442 31.7797C39.9792 30.0697 41.0817 27.5272 43.0542 27.3997C43.4856 27.3782 43.9155 27.4643 44.3053 27.6504C44.6951 27.8365 45.0324 28.1166 45.2869 28.4656C45.5413 28.8146 45.705 29.2214 45.763 29.6494C45.821 30.0774 45.7716 30.5131 45.6192 30.9172Z" fill="#FFC3BD"/>
<path d="M34.3108 27.3321C34.2658 27.8721 33.9433 28.2771 33.5608 28.2471C33.1783 28.2171 32.9608 27.7521 33.0058 27.2196C33.0508 26.6871 33.3733 26.2671 33.7559 26.3046C34.1384 26.3421 34.3558 26.7996 34.3108 27.3321Z" fill="#263238"/>
<path d="M28.3108 27.3313C28.2658 27.8713 27.9433 28.2838 27.5608 28.2463C27.1783 28.2088 26.9608 27.7513 27.0058 27.2188C27.0508 26.6863 27.3733 26.2738 27.7558 26.3038C28.1383 26.3338 28.3558 26.7988 28.3108 27.3313Z" fill="#263238"/>
<path d="M29.4418 27.6919C28.6618 29.2733 27.6674 30.7396 26.4868 32.0494C27.3643 33.0244 29.0143 32.7619 29.0143 32.7619L29.4418 27.6919Z" fill="#FF5652"/>
<path d="M35.5542 25.4121C35.6057 25.4265 35.6602 25.4265 35.7117 25.4121C35.7502 25.3965 35.7853 25.3734 35.8148 25.3442C35.8443 25.3149 35.8678 25.2801 35.8838 25.2418C35.8999 25.2035 35.9082 25.1623 35.9082 25.1208C35.9083 25.0792 35.9001 25.038 35.8842 24.9996C35.7062 24.5274 35.4191 24.104 35.0463 23.7638C34.6736 23.4236 34.2257 23.1763 33.7392 23.0421C33.6577 23.0267 33.5734 23.044 33.5046 23.0904C33.4358 23.1367 33.388 23.2083 33.3717 23.2896C33.363 23.3305 33.3625 23.3728 33.3702 23.4139C33.3779 23.455 33.3938 23.4941 33.4168 23.529C33.4399 23.5639 33.4696 23.5939 33.5044 23.6172C33.5391 23.6405 33.5782 23.6566 33.6192 23.6646C34.0013 23.7784 34.3518 23.9791 34.6433 24.251C34.9348 24.523 35.1593 24.8588 35.2992 25.2321C35.323 25.2813 35.3589 25.3236 35.4035 25.355C35.4481 25.3865 35.4999 25.4062 35.5542 25.4121Z" fill="#263238"/>
<path d="M24.4166 24.5645C24.4689 24.5611 24.5197 24.5458 24.5652 24.5198C24.6107 24.4938 24.6496 24.4578 24.6791 24.4146C24.8736 24.068 25.1492 23.7737 25.4823 23.5569C25.8153 23.34 26.196 23.2071 26.5916 23.1695C26.6752 23.1695 26.7553 23.1364 26.8144 23.0773C26.8734 23.0182 26.9066 22.9381 26.9066 22.8545C26.9066 22.771 26.8734 22.6909 26.8144 22.6318C26.7553 22.5727 26.6752 22.5396 26.5916 22.5396C26.0948 22.5757 25.614 22.7309 25.1897 22.992C24.7655 23.253 24.4103 23.6123 24.1541 24.0396C24.1326 24.0754 24.1184 24.1152 24.1124 24.1566C24.1064 24.198 24.1087 24.2401 24.1192 24.2806C24.1296 24.3211 24.1481 24.3591 24.1734 24.3924C24.1987 24.4257 24.2304 24.4536 24.2666 24.4746C24.3063 24.5192 24.3586 24.5506 24.4166 24.5645Z" fill="#263238"/>
<path d="M44.6367 48.4819C43.6242 48.3694 42.8742 47.5894 41.2542 49.2319C39.6342 50.8744 36.2517 55.3594 34.9392 62.6194C33.5142 71.6461 32.7621 80.7662 32.6892 89.9044C32.7792 96.6544 31.8641 109.344 34.4891 116.064C34.6737 116.307 34.9138 116.502 35.1891 116.632C35.4645 116.763 35.7671 116.825 36.0717 116.814C36.0717 116.814 35.0741 92.5519 36.4766 78.6844C37.8791 64.8169 44.6367 48.4819 44.6367 48.4819Z" fill="#263238"/>
<path d="M44.8166 48.1147C41.4791 48.1147 37.4141 54.5272 35.8166 63.8647C34.2191 73.2022 33.7241 86.9122 33.7391 92.7247C33.7541 98.5372 33.3416 106.345 34.1516 109.412C34.9616 112.48 35.0141 117.332 36.4016 117.782C37.7891 118.232 52.0391 116.627 56.3666 109.412C55.7366 104.005 57.4316 92.4172 56.8841 87.5422C56.3366 82.6672 58.8041 69.0022 58.6241 62.0422C58.4441 55.0822 55.9991 48.1147 44.8166 48.1147Z" fill="#407BFF"/>
<path opacity="0.2" d="M57.7917 74.0869L50.6892 65.7544C50.4342 71.9494 55.9393 87.3994 57.0043 90.2569C57.0199 89.3481 56.9848 88.4392 56.8992 87.5344C56.5767 84.8569 57.1842 79.5094 57.7917 74.0869Z" fill="black"/>
<path d="M36.6493 56.6645C36.3568 52.967 39.8518 46.097 43.2343 44.867C46.6168 43.637 50.9743 44.5895 50.6443 48.917C43.4593 52.1645 38.9593 56.6195 36.6493 56.6645Z" fill="#263238"/>
<path d="M25.2868 116.087C26.8393 116.087 26.7868 115.142 26.1343 110.837C25.4818 106.532 24.4768 92.4322 24.5218 88.6447C24.5668 84.8572 25.0318 58.7797 26.2168 55.2247C27.7168 50.7247 28.4668 49.9747 27.2968 49.8922C26.6922 49.8383 26.0855 49.9691 25.5568 50.2672C25.5568 50.2672 21.8068 69.2947 22.1743 89.0497C22.5418 108.805 25.2868 116.087 25.2868 116.087Z" fill="#263238"/>
<path d="M25.2717 49.2769C25.5 49.2706 25.7261 49.322 25.9292 49.4263C26.1323 49.5307 26.3058 49.6845 26.4337 49.8737C26.5615 50.0629 26.6396 50.2812 26.6607 50.5086C26.6817 50.7359 26.6451 50.9649 26.5542 51.1744C24.0417 56.8069 23.1642 68.6044 23.5542 85.8694C23.9742 105.444 25.8642 114.009 25.8867 116.942C21.7542 117.534 15.0792 115.007 13.7292 111.692C12.3792 108.377 10.1592 90.1894 10.5417 84.4144C10.9242 78.6394 9.5442 64.8544 11.9067 58.3294C14.1267 52.2019 13.7592 49.5544 25.2717 49.2769Z" fill="#407BFF"/>
<path d="M27.1167 52.6371C27.8142 50.1096 32.0592 49.6896 32.3667 46.1871C25.6542 44.5521 24.5142 47.4096 22.6167 49.3971C23.5542 53.2446 25.6167 58.9221 25.6167 58.9221C25.6167 58.9221 26.3442 55.4421 27.1167 52.6371Z" fill="#263238"/>
<path d="M56.9067 53.6646L58.0842 55.4271L59.1867 57.1371C59.9117 58.2821 60.6242 59.4371 61.3242 60.6021C62.7267 62.9271 64.0767 65.2896 65.3592 67.7421C66.6417 70.1946 67.8642 72.7146 68.9592 75.4221C69.5067 76.7871 70.0242 78.1971 70.4592 79.7196C70.9711 81.3728 71.3276 83.0701 71.5242 84.7896V85.0371C71.5317 85.1745 71.5317 85.3122 71.5242 85.4496C71.5107 88.3057 71.2396 91.1547 70.7142 93.9621C70.221 96.6343 69.5571 99.2722 68.7267 101.86C67.9167 104.41 66.9792 106.877 65.9442 109.292C65.4442 110.497 64.8967 111.695 64.3017 112.885C64.0167 113.477 63.7242 114.07 63.4167 114.662L63.0417 115.54L62.5092 116.515C61.7522 117.901 60.4857 118.938 58.9776 119.407C57.4695 119.876 55.8381 119.74 54.4284 119.028C53.0187 118.316 51.9413 117.083 51.4241 115.591C50.9068 114.099 50.9902 112.464 51.6567 111.032L51.7917 110.665L52.4442 109.27C52.6692 108.76 52.8867 108.25 53.1042 107.77C53.5392 106.735 53.9517 105.685 54.3417 104.627C55.1155 102.534 55.7838 100.404 56.3442 98.2446C56.8979 96.1511 57.3162 94.0242 57.5967 91.8771C57.8667 89.8666 57.9496 87.8354 57.8442 85.8096L57.8967 86.4771C57.7319 85.6337 57.496 84.8057 57.1917 84.0021C56.8467 83.0571 56.4417 82.0521 55.9467 81.0396C54.9942 78.9996 53.8467 76.9146 52.6167 74.8446C51.3867 72.7746 50.0517 70.7121 48.6717 68.6721C47.9817 67.6721 47.2792 66.6721 46.5642 65.6721L45.4842 64.1721L44.4267 62.7546L44.3142 62.6046C43.6778 61.7958 43.2095 60.868 42.9369 59.8756C42.6644 58.8832 42.5931 57.8463 42.7272 56.8259C42.8613 55.8055 43.1982 54.8223 43.718 53.934C44.2377 53.0458 44.9299 52.2705 45.7538 51.6537C46.5776 51.0369 47.5165 50.5912 48.5152 50.3427C49.5139 50.0941 50.5522 50.0479 51.5691 50.2066C52.5859 50.3653 53.5607 50.7258 54.4362 51.2668C55.3116 51.8079 56.07 52.5186 56.6667 53.3571L56.9067 53.6646Z" fill="#407BFF"/>
<path d="M45.0416 69.5269C44.8766 72.1144 42.9566 74.2369 40.7366 74.2669C38.5166 74.2969 36.8666 72.2194 37.0241 69.6319C37.1816 67.0444 39.1166 64.9219 41.3291 64.8919C43.5416 64.8619 45.2216 66.9394 45.0416 69.5269Z" fill="white"/>
<g clip-path="url(#clip2)">
<rect width="75" height="75" rx="37.5" fill="#9BDCEA"/>
<path d="M48.6043 46.1646C55.3018 47.5821 55.6393 50.3121 54.2818 51.7071C52.7818 53.2071 48.1543 51.7071 48.1543 51.7071L48.6043 46.1646Z" fill="#263238"/>
<path d="M26.9592 61.4871C26.4792 62.4321 25.9392 63.5346 25.4592 64.5846C24.9792 65.6346 24.4617 66.7071 23.9592 67.7796C22.9917 69.9171 22.0692 72.0696 21.2142 74.2221C20.3592 76.3746 19.5717 78.5196 18.9117 80.6196C18.2753 82.5293 17.7987 84.4885 17.4867 86.4771L17.3817 84.5571C17.5842 85.9071 17.8092 87.2646 18.0567 88.5996C18.3042 89.9346 18.5817 91.2696 18.8967 92.5746C19.2117 93.8796 19.5342 95.1846 19.9017 96.4446C20.0892 97.0671 20.2767 97.6896 20.4792 98.2821L20.7792 99.1521L20.9217 99.5496C20.9217 99.6546 21.0417 99.8421 21.0117 99.8046C21.3849 100.52 21.6124 101.302 21.6806 102.106C21.7489 102.91 21.6568 103.72 21.4095 104.488C21.1622 105.256 20.7648 105.967 20.2402 106.581C19.7157 107.194 19.0745 107.697 18.354 108.06C17.6335 108.423 16.8479 108.64 16.0431 108.697C15.2382 108.754 14.4299 108.65 13.6654 108.392C12.9008 108.134 12.1952 107.727 11.5894 107.194C10.9836 106.661 10.4898 106.013 10.1367 105.287L9.76917 104.537L9.47666 103.937L8.95919 102.79C8.62919 102.04 8.32167 101.29 8.02917 100.54C7.44417 99.0396 6.91917 97.5846 6.43167 96.0996C5.94417 94.6146 5.49418 93.0996 5.06668 91.6521C4.63918 90.2046 4.26418 88.6521 3.89668 87.1896C3.77178 86.7 3.72618 86.1936 3.76167 85.6896V85.2846C4.00757 82.4081 4.50956 79.5593 5.26167 76.7721C5.92167 74.1696 6.67917 71.6721 7.51167 69.2271C8.34417 66.7821 9.19917 64.3746 10.1142 61.9971C10.5642 60.8121 11.0367 59.6271 11.5167 58.4496C11.9967 57.2721 12.4692 56.1246 13.0167 54.8646C13.4034 53.9072 13.9783 53.0372 14.7073 52.3061C15.4363 51.5749 16.3046 50.9975 17.2608 50.6079C18.217 50.2184 19.2416 50.0247 20.274 50.0383C21.3065 50.0519 22.3256 50.2725 23.2713 50.6871C24.2169 51.1016 25.0697 51.7018 25.7792 52.4519C26.4887 53.202 27.0404 54.0868 27.4018 55.054C27.7632 56.0212 27.9268 57.0511 27.883 58.0827C27.8392 59.1142 27.5888 60.1265 27.1467 61.0596C27.0942 61.2096 27.0417 61.3596 26.9592 61.4871Z" fill="#407BFF"/>
<path opacity="0.2" d="M26.9592 61.4871C26.4792 62.4321 25.9392 63.5346 25.4592 64.5846C24.9792 65.6346 24.4617 66.7071 23.9592 67.7796C22.9917 69.9171 22.0692 72.0696 21.2142 74.2221C20.3592 76.3746 19.5717 78.5196 18.9117 80.6196C18.2753 82.5293 17.7987 84.4885 17.4867 86.4771L17.3817 84.5571C17.5842 85.9071 17.8092 87.2646 18.0567 88.5996C18.3042 89.9346 18.5817 91.2696 18.8967 92.5746C19.2117 93.8796 19.5342 95.1846 19.9017 96.4446C20.0892 97.0671 20.2767 97.6896 20.4792 98.2821L20.7792 99.1521L20.9217 99.5496C20.9217 99.6546 21.0417 99.8421 21.0117 99.8046C21.3849 100.52 21.6124 101.302 21.6806 102.106C21.7489 102.91 21.6568 103.72 21.4095 104.488C21.1622 105.256 20.7648 105.967 20.2402 106.581C19.7157 107.194 19.0745 107.697 18.354 108.06C17.6335 108.423 16.8479 108.64 16.0431 108.697C15.2382 108.754 14.4299 108.65 13.6654 108.392C12.9008 108.134 12.1952 107.727 11.5894 107.194C10.9836 106.661 10.4898 106.013 10.1367 105.287L9.76917 104.537L9.47666 103.937L8.95919 102.79C8.62919 102.04 8.32167 101.29 8.02917 100.54C7.44417 99.0396 6.91917 97.5846 6.43167 96.0996C5.94417 94.6146 5.49418 93.0996 5.06668 91.6521C4.63918 90.2046 4.26418 88.6521 3.89668 87.1896C3.77178 86.7 3.72618 86.1936 3.76167 85.6896V85.2846C4.00757 82.4081 4.50956 79.5593 5.26167 76.7721C5.92167 74.1696 6.67917 71.6721 7.51167 69.2271C8.34417 66.7821 9.19917 64.3746 10.1142 61.9971C10.5642 60.8121 11.0367 59.6271 11.5167 58.4496C11.9967 57.2721 12.4692 56.1246 13.0167 54.8646C13.4034 53.9072 13.9783 53.0372 14.7073 52.3061C15.4363 51.5749 16.3046 50.9975 17.2608 50.6079C18.217 50.2184 19.2416 50.0247 20.274 50.0383C21.3065 50.0519 22.3256 50.2725 23.2713 50.6871C24.2169 51.1016 25.0697 51.7018 25.7792 52.4519C26.4887 53.202 27.0404 54.0868 27.4018 55.054C27.7632 56.0212 27.9268 57.0511 27.883 58.0827C27.8392 59.1142 27.5888 60.1265 27.1467 61.0596C27.0942 61.2096 27.0417 61.3596 26.9592 61.4871Z" fill="black"/>
<path d="M47.6667 49.9594C39.3453 49.0572 30.9528 49.022 22.6242 49.8544C19.8282 50.1454 17.2242 51.4125 15.2696 53.4329C13.315 55.4533 12.135 58.0978 11.9367 60.9019C11.0217 74.7994 15.0867 88.5769 15.0717 110.567C18.7092 114.707 37.7667 116.327 53.5617 111.144C55.9092 101.394 53.5617 84.7369 57.0267 62.2069C57.2536 60.7831 57.1887 59.3281 56.8359 57.9301C56.483 56.5322 55.8496 55.2207 54.9742 54.0751C54.0987 52.9296 52.9995 51.974 51.7433 51.2665C50.4871 50.559 49.1001 50.1143 47.6667 49.9594Z" fill="white"/>
<path d="M42.2668 32.7319L31.6768 41.1619C33.0493 44.9119 33.4768 48.9244 27.0718 50.5069C25.3843 52.6894 26.3218 55.8319 30.5593 58.1794C37.4743 56.5144 41.3893 54.5944 43.8943 50.8669C42.9793 48.0244 41.3968 37.9144 42.2668 32.7319Z" fill="#FFC3BD"/>
<path opacity="0.2" d="M37.9541 36.167L31.6841 41.1545C32.0278 42.0155 32.2792 42.9105 32.4341 43.8245C34.9166 43.997 38.3366 41.522 38.4341 39.3245C38.4679 38.2515 38.3052 37.1814 37.9541 36.167Z" fill="black"/>
<path d="M27.9791 17.3047C22.2041 22.4872 25.5941 25.6072 25.1291 28.5547C28.4441 26.8072 31.4966 21.4972 27.9791 17.3047Z" fill="#FFD700"/>
<path d="M43.7666 26.8819C42.8141 33.4444 42.5891 37.3294 38.9741 40.3819C33.5366 45.0094 25.6466 41.2369 24.6116 34.5094C23.6891 28.4494 25.4066 18.7594 32.1116 16.7119C33.5915 16.2667 35.1602 16.2043 36.6708 16.5304C38.1814 16.8566 39.5846 17.5606 40.749 18.5767C41.9135 19.5928 42.8011 20.8876 43.3288 22.3402C43.8566 23.7927 44.0072 25.3553 43.7666 26.8819Z" fill="#FFC3BD"/>
<path d="M41.9741 31.5696C37.6916 31.1196 39.2216 29.0796 39.8291 27.3921C40.4366 25.7046 38.0816 23.4546 38.4491 22.0146C36.1541 21.2646 34.5341 20.7471 34.1291 19.6671C32.0066 20.7471 25.6016 23.0496 23.2091 19.6671C20.8166 16.2846 22.1516 10.2396 28.8941 11.6346C33.2216 12.5346 36.9866 14.5371 38.6441 13.0896C40.3016 11.6421 44.1116 12.5496 45.1616 15.6996C46.2116 18.8496 51.4766 18.0846 50.3441 21.1971C49.2116 24.3096 46.5116 23.7696 46.5116 23.7696C46.5116 23.7696 46.7516 30.3546 41.9741 31.5696Z" fill="#FFD700"/>
<path d="M27.649 34.8022C27.649 34.8022 29.9665 34.0522 36.469 33.5347C35.719 35.6272 34.309 37.4047 30.979 37.6447C30.5675 37.7137 30.1458 37.6917 29.7436 37.5803C29.3415 37.4689 28.9686 37.2708 28.6512 36.9999C28.3338 36.729 28.0796 36.3918 27.9065 36.0121C27.7334 35.6324 27.6455 35.2195 27.649 34.8022Z" fill="#263238"/>
<path d="M32.509 35.9195C31.1995 35.9579 29.935 36.4065 28.894 37.202C29.5199 37.5788 30.2541 37.7346 30.979 37.6445C32.2866 37.6076 33.5491 37.1588 34.5865 36.362C33.9639 35.9841 33.2316 35.8282 32.509 35.9195Z" fill="#FF5652"/>
<path d="M27.9492 34.7196C28.1367 35.1396 28.3242 35.5596 28.9767 35.6496C30.9159 35.4878 32.8378 35.1616 34.7217 34.6746C35.0369 34.6183 35.334 34.4875 35.5884 34.2931C35.8428 34.0987 36.0471 33.8464 36.1842 33.5571C33.413 33.7279 30.6595 34.1166 27.9492 34.7196Z" fill="white"/>
<path d="M45.6192 30.9172C45.396 31.6355 45.0324 32.3023 44.5497 32.8791C44.0669 33.4558 43.4744 33.9311 42.8067 34.2772C41.0067 35.1922 39.6942 33.6847 39.8442 31.7797C39.9792 30.0697 41.0817 27.5272 43.0542 27.3997C43.4856 27.3782 43.9155 27.4643 44.3053 27.6504C44.6951 27.8365 45.0324 28.1166 45.2869 28.4656C45.5413 28.8146 45.705 29.2214 45.763 29.6494C45.821 30.0774 45.7716 30.5131 45.6192 30.9172Z" fill="#FFC3BD"/>
<path d="M34.3108 27.3321C34.2658 27.8721 33.9433 28.2771 33.5608 28.2471C33.1783 28.2171 32.9608 27.7521 33.0058 27.2196C33.0508 26.6871 33.3733 26.2671 33.7559 26.3046C34.1384 26.3421 34.3558 26.7996 34.3108 27.3321Z" fill="#263238"/>
<path d="M28.3108 27.3313C28.2658 27.8713 27.9433 28.2838 27.5608 28.2463C27.1783 28.2088 26.9608 27.7513 27.0058 27.2188C27.0508 26.6863 27.3733 26.2738 27.7558 26.3038C28.1383 26.3338 28.3558 26.7988 28.3108 27.3313Z" fill="#263238"/>
<path d="M29.4418 27.6919C28.6618 29.2733 27.6674 30.7396 26.4868 32.0494C27.3643 33.0244 29.0143 32.7619 29.0143 32.7619L29.4418 27.6919Z" fill="#FF5652"/>
<path d="M35.5542 25.4121C35.6057 25.4265 35.6602 25.4265 35.7117 25.4121C35.7502 25.3965 35.7853 25.3734 35.8148 25.3442C35.8443 25.3149 35.8678 25.2801 35.8838 25.2418C35.8999 25.2035 35.9082 25.1623 35.9082 25.1208C35.9083 25.0792 35.9001 25.038 35.8842 24.9996C35.7062 24.5274 35.4191 24.104 35.0463 23.7638C34.6736 23.4236 34.2257 23.1763 33.7392 23.0421C33.6577 23.0267 33.5734 23.044 33.5046 23.0904C33.4358 23.1367 33.388 23.2083 33.3717 23.2896C33.363 23.3305 33.3625 23.3728 33.3702 23.4139C33.3779 23.455 33.3938 23.4941 33.4168 23.529C33.4399 23.5639 33.4696 23.5939 33.5044 23.6172C33.5391 23.6405 33.5782 23.6566 33.6192 23.6646C34.0013 23.7784 34.3518 23.9791 34.6433 24.251C34.9348 24.523 35.1593 24.8588 35.2992 25.2321C35.323 25.2813 35.3589 25.3236 35.4035 25.355C35.4481 25.3865 35.4999 25.4062 35.5542 25.4121Z" fill="#263238"/>
<path d="M24.4166 24.5645C24.4689 24.5611 24.5197 24.5458 24.5652 24.5198C24.6107 24.4938 24.6496 24.4578 24.6791 24.4146C24.8736 24.068 25.1492 23.7737 25.4823 23.5569C25.8153 23.34 26.196 23.2071 26.5916 23.1695C26.6752 23.1695 26.7553 23.1364 26.8144 23.0773C26.8734 23.0182 26.9066 22.9381 26.9066 22.8545C26.9066 22.771 26.8734 22.6909 26.8144 22.6318C26.7553 22.5727 26.6752 22.5396 26.5916 22.5396C26.0948 22.5757 25.614 22.7309 25.1897 22.992C24.7655 23.253 24.4103 23.6123 24.1541 24.0396C24.1326 24.0754 24.1184 24.1152 24.1124 24.1566C24.1064 24.198 24.1087 24.2401 24.1192 24.2806C24.1296 24.3211 24.1481 24.3591 24.1734 24.3924C24.1987 24.4257 24.2304 24.4536 24.2666 24.4746C24.3063 24.5192 24.3586 24.5506 24.4166 24.5645Z" fill="#263238"/>
<path d="M44.6367 48.4819C43.6242 48.3694 42.8742 47.5894 41.2542 49.2319C39.6342 50.8744 36.2517 55.3594 34.9392 62.6194C33.5142 71.6461 32.7621 80.7662 32.6892 89.9044C32.7792 96.6544 31.8641 109.344 34.4891 116.064C34.6737 116.307 34.9138 116.502 35.1891 116.632C35.4645 116.763 35.7671 116.825 36.0717 116.814C36.0717 116.814 35.0741 92.5519 36.4766 78.6844C37.8791 64.8169 44.6367 48.4819 44.6367 48.4819Z" fill="#263238"/>
<path d="M44.8166 48.1147C41.4791 48.1147 37.4141 54.5272 35.8166 63.8647C34.2191 73.2022 33.7241 86.9122 33.7391 92.7247C33.7541 98.5372 33.3416 106.345 34.1516 109.412C34.9616 112.48 35.0141 117.332 36.4016 117.782C37.7891 118.232 52.0391 116.627 56.3666 109.412C55.7366 104.005 57.4316 92.4172 56.8841 87.5422C56.3366 82.6672 58.8041 69.0022 58.6241 62.0422C58.4441 55.0822 55.9991 48.1147 44.8166 48.1147Z" fill="#407BFF"/>
<path opacity="0.2" d="M57.7917 74.0869L50.6892 65.7544C50.4342 71.9494 55.9393 87.3994 57.0043 90.2569C57.0199 89.3481 56.9848 88.4392 56.8992 87.5344C56.5767 84.8569 57.1842 79.5094 57.7917 74.0869Z" fill="black"/>
<path d="M36.6493 56.6645C36.3568 52.967 39.8518 46.097 43.2343 44.867C46.6168 43.637 50.9743 44.5895 50.6443 48.917C43.4593 52.1645 38.9593 56.6195 36.6493 56.6645Z" fill="#263238"/>
<path d="M25.2868 116.087C26.8393 116.087 26.7868 115.142 26.1343 110.837C25.4818 106.532 24.4768 92.4322 24.5218 88.6447C24.5668 84.8572 25.0318 58.7797 26.2168 55.2247C27.7168 50.7247 28.4668 49.9747 27.2968 49.8922C26.6922 49.8383 26.0855 49.9691 25.5568 50.2672C25.5568 50.2672 21.8068 69.2947 22.1743 89.0497C22.5418 108.805 25.2868 116.087 25.2868 116.087Z" fill="#263238"/>
<path d="M25.2717 49.2769C25.5 49.2706 25.7261 49.322 25.9292 49.4263C26.1323 49.5307 26.3058 49.6845 26.4337 49.8737C26.5615 50.0629 26.6396 50.2812 26.6607 50.5086C26.6817 50.7359 26.6451 50.9649 26.5542 51.1744C24.0417 56.8069 23.1642 68.6044 23.5542 85.8694C23.9742 105.444 25.8642 114.009 25.8867 116.942C21.7542 117.534 15.0792 115.007 13.7292 111.692C12.3792 108.377 10.1592 90.1894 10.5417 84.4144C10.9242 78.6394 9.5442 64.8544 11.9067 58.3294C14.1267 52.2019 13.7592 49.5544 25.2717 49.2769Z" fill="#407BFF"/>
<path d="M27.1167 52.6371C27.8142 50.1096 32.0592 49.6896 32.3667 46.1871C25.6542 44.5521 24.5142 47.4096 22.6167 49.3971C23.5542 53.2446 25.6167 58.9221 25.6167 58.9221C25.6167 58.9221 26.3442 55.4421 27.1167 52.6371Z" fill="#263238"/>
<path d="M56.9067 53.6646L58.0842 55.4271L59.1867 57.1371C59.9117 58.2821 60.6242 59.4371 61.3242 60.6021C62.7267 62.9271 64.0767 65.2896 65.3592 67.7421C66.6417 70.1946 67.8642 72.7146 68.9592 75.4221C69.5067 76.7871 70.0242 78.1971 70.4592 79.7196C70.9711 81.3728 71.3276 83.0701 71.5242 84.7896V85.0371C71.5317 85.1745 71.5317 85.3122 71.5242 85.4496C71.5107 88.3057 71.2396 91.1547 70.7142 93.9621C70.221 96.6343 69.5571 99.2722 68.7267 101.86C67.9167 104.41 66.9792 106.877 65.9442 109.292C65.4442 110.497 64.8967 111.695 64.3017 112.885C64.0167 113.477 63.7242 114.07 63.4167 114.662L63.0417 115.54L62.5092 116.515C61.7522 117.901 60.4857 118.938 58.9776 119.407C57.4695 119.876 55.8381 119.74 54.4284 119.028C53.0187 118.316 51.9413 117.083 51.4241 115.591C50.9068 114.099 50.9902 112.464 51.6567 111.032L51.7917 110.665L52.4442 109.27C52.6692 108.76 52.8867 108.25 53.1042 107.77C53.5392 106.735 53.9517 105.685 54.3417 104.627C55.1155 102.534 55.7838 100.404 56.3442 98.2446C56.8979 96.1511 57.3162 94.0242 57.5967 91.8771C57.8667 89.8666 57.9496 87.8354 57.8442 85.8096L57.8967 86.4771C57.7319 85.6337 57.496 84.8057 57.1917 84.0021C56.8467 83.0571 56.4417 82.0521 55.9467 81.0396C54.9942 78.9996 53.8467 76.9146 52.6167 74.8446C51.3867 72.7746 50.0517 70.7121 48.6717 68.6721C47.9817 67.6721 47.2792 66.6721 46.5642 65.6721L45.4842 64.1721L44.4267 62.7546L44.3142 62.6046C43.6778 61.7958 43.2095 60.868 42.9369 59.8756C42.6644 58.8832 42.5931 57.8463 42.7272 56.8259C42.8613 55.8055 43.1982 54.8223 43.718 53.934C44.2377 53.0458 44.9299 52.2705 45.7538 51.6537C46.5776 51.0369 47.5165 50.5912 48.5152 50.3427C49.5139 50.0941 50.5522 50.0479 51.5691 50.2066C52.5859 50.3653 53.5607 50.7258 54.4362 51.2668C55.3116 51.8079 56.07 52.5186 56.6667 53.3571L56.9067 53.6646Z" fill="#407BFF"/>
<path d="M45.0416 69.5269C44.8766 72.1144 42.9566 74.2369 40.7366 74.2669C38.5166 74.2969 36.8666 72.2194 37.0241 69.6319C37.1816 67.0444 39.1166 64.9219 41.3291 64.8919C43.5416 64.8619 45.2216 66.9394 45.0416 69.5269Z" fill="white"/>
<g clip-path="url(#clip3)">
<rect width="75" height="75" rx="37.5" fill="#9BDCEA"/>
<path d="M64.1179 8.95926C64.8679 7.86426 64.5379 4.39177 62.0779 1.93177C59.6179 -0.528231 55.7254 0.941764 54.1204 2.47176C53.4679 0.484264 47.9254 -1.35323 43.6204 1.38427C39.3154 4.12177 42.3679 7.71427 42.3679 7.71427C42.3679 7.71427 41.0929 4.90177 38.0404 6.85177C34.9879 8.80177 34.6579 17.2168 37.7104 16.7518C44.4604 15.7168 51.5404 28.5343 51.5404 28.5343C48.4054 36.2743 55.6579 32.6743 55.6579 32.6743C55.6579 32.6743 59.7904 35.6743 62.8279 32.6743C66.3454 29.1343 64.0729 25.7068 64.0729 25.7068C64.0729 25.7068 67.5004 25.7068 69.6754 20.6818C72.4879 14.0818 68.6179 6.49926 64.1179 8.95926Z" fill="#263238"/>
<path d="M29.3405 58.7069C29.183 59.0894 29.078 59.3369 28.943 59.6219C28.808 59.9069 28.688 60.1694 28.5605 60.4394C28.298 60.9719 28.013 61.4819 27.728 61.9919C27.158 63.0119 26.558 64.0019 25.913 64.9919C24.6214 66.9042 23.2005 68.7259 21.6605 70.4444C20.1111 72.1512 18.4419 73.7453 16.6655 75.2144C15.758 75.9194 14.858 76.6694 13.9055 77.2844L12.503 78.2444L12.143 78.4844L11.7005 78.7619C11.393 78.9419 11.0705 79.1294 10.6655 79.3244C10.131 79.5776 9.56254 79.7519 8.97796 79.8419C8.404 79.9274 7.81838 79.889 7.26047 79.7294C6.44909 79.4943 5.74084 78.9922 5.25046 78.3044C4.91285 77.8276 4.68491 77.2821 4.58296 76.7069C4.52364 76.3702 4.49601 76.0287 4.50046 75.6869C4.51299 75.2298 4.57078 74.7751 4.67297 74.3294C4.97659 73.0795 5.41151 71.8653 5.97047 70.7069C6.94238 68.6598 8.05505 66.6826 9.30047 64.7894C10.5172 62.9161 11.8289 61.1062 13.2305 59.3669C13.9805 58.4969 14.7305 57.6569 15.5555 56.8319C15.9847 56.4043 16.4352 55.9988 16.9055 55.6169C17.4744 55.1496 18.1086 54.768 18.788 54.4844L20.2205 57.7319C19.9492 57.9596 19.6982 58.2106 19.4705 58.4819C19.1544 58.8287 18.8565 59.1917 18.578 59.5694C17.993 60.3194 17.438 61.1969 16.898 62.0669C15.8075 63.8126 14.8063 65.6124 13.898 67.4594C12.9734 69.2638 12.1521 71.1193 11.438 73.0169C11.1196 73.8184 10.8834 74.6502 10.733 75.4994C10.7162 75.5785 10.7162 75.6603 10.733 75.7394C10.7496 75.6678 10.7496 75.5934 10.733 75.5219C10.6757 75.2131 10.5501 74.9209 10.3655 74.6669C10.0282 74.1992 9.5456 73.8564 8.99297 73.6919C8.69719 73.6002 8.38537 73.5721 8.07797 73.6094C7.79297 73.6544 7.84547 73.6544 7.90547 73.6094C8.23547 73.4369 9.23297 72.6269 9.98297 72.0494C10.3955 71.7419 10.7705 71.4194 11.138 71.0894L12.263 70.1144C13.711 68.7588 15.0855 67.3268 16.3805 65.8244C17.6587 64.3089 18.8386 62.7131 19.913 61.0469C20.468 60.2294 20.978 59.3819 21.458 58.5269C21.698 58.1069 21.9305 57.6719 22.148 57.2519C22.2605 57.0344 22.373 56.8244 22.4705 56.6219L22.733 56.0744L29.3405 58.7069Z" fill="#7F3E3B"/>
<path d="M17.7229 64.4745L24.4729 70.7595C24.4729 70.7595 32.9254 65.847 34.9729 62.7645C37.0204 59.682 38.4754 57.7995 36.2704 54.2745C34.0654 50.7495 29.0479 50.3595 24.4879 53.5245C19.9279 56.6895 20.9104 57.5595 17.7229 64.4745Z" fill="#407BFF"/>
<path d="M20.348 62.4345C19.238 61.8345 18.2105 62.1495 17.2205 63.0345C16.2305 63.9195 15.458 64.6845 16.7705 65.682C18.8873 67.5715 20.8696 69.6064 22.703 71.772C23.1305 72.4245 26.0105 70.9245 26.453 69.927C26.8955 68.9295 21.818 63.222 20.348 62.4345Z" fill="#407BFF"/>
<path opacity="0.3" d="M20.348 62.4345C19.238 61.8345 18.2105 62.1495 17.2205 63.0345C16.2305 63.9195 15.458 64.6845 16.7705 65.682C18.8873 67.5715 20.8696 69.6064 22.703 71.772C23.1305 72.4245 26.0105 70.9245 26.453 69.927C26.8955 68.9295 21.818 63.222 20.348 62.4345Z" fill="white"/>
<path d="M20.4004 61.2942C20.6629 67.3467 21.7054 77.5542 24.5029 94.7742H52.9504C52.5229 84.4992 52.0279 77.6367 55.7929 59.6067C56 58.6203 55.9971 57.6014 55.7843 56.6163C55.5716 55.6312 55.1537 54.7019 54.558 53.889C53.9623 53.0761 53.202 52.3977 52.3267 51.8981C51.4515 51.3984 50.4808 51.0888 49.4779 50.9892C48.3454 50.8692 47.1454 50.7792 45.9079 50.7192C41.6109 50.4113 37.2974 50.4113 33.0004 50.7192C31.6054 50.8467 30.1579 51.0192 28.7854 51.2142C26.3847 51.5512 24.1958 52.7705 22.6455 54.6342C21.0952 56.4979 20.2948 58.8723 20.4004 61.2942Z" fill="#407BFF"/>
<path opacity="0.2" d="M30.3681 61.8944L25.7781 65.9144C26.0181 70.4819 34.2531 71.3519 38.7006 71.1644C43.1481 70.9769 48.2331 69.6644 50.8431 67.1594C53.4531 64.6544 53.4531 62.3294 52.6206 58.3619C51.7881 54.3944 47.8581 53.1719 44.6256 55.6919C41.3931 58.2119 35.1606 60.4394 30.3681 61.8944Z" fill="black"/>
<path d="M44.618 36.1768C43.8005 40.3318 42.9905 47.9443 45.893 50.7193C42.3964 51.7488 38.9652 52.9885 35.618 54.4318C34.8818 54.1118 34.2468 53.597 33.7816 52.9428C33.3163 52.2886 33.0385 51.5198 32.978 50.7193C37.6055 49.6093 37.478 46.1743 36.683 42.9418L44.618 36.1768Z" fill="#7F3E3B"/>
<path d="M35.6179 54.4317C36.2419 54.1693 36.8043 53.7797 37.2692 53.2877C37.7341 52.7957 38.0913 52.2121 38.3179 51.5742L39.1054 53.6817L35.6179 54.4317Z" fill="#263238"/>
<path d="M38.3404 51.5743C38.5548 52.8325 38.4384 54.1247 38.0029 55.3243C40.7329 55.2718 47.8654 53.4568 48.1954 50.6293C47.2702 50.1299 46.3939 49.5449 45.5779 48.8818C43.3279 50.167 40.8833 51.0765 38.3404 51.5743Z" fill="white"/>
<path d="M35.6179 54.4316C35.3357 53.988 35.1712 53.4798 35.1397 52.9549C35.1082 52.4301 35.2108 51.9059 35.4379 51.4316L32.5879 53.1041L35.6179 54.4316Z" fill="#263238"/>
<path d="M35.4604 51.4167C35.4604 51.4167 33.0155 53.2017 33.743 55.3092C31.0129 55.2567 29.243 53.0592 29.738 50.8917C30.398 50.2242 33.2104 50.2467 33.2104 50.2467C33.2104 50.2467 33.0004 50.7492 35.4604 51.4167Z" fill="white"/>
<path opacity="0.2" d="M41.4006 38.9365L36.7056 42.9415C36.9036 43.6785 37.0366 44.4313 37.1031 45.1915C38.8731 44.9365 41.3106 42.994 41.4981 41.1415C41.5953 40.4065 41.5623 39.6601 41.4006 38.9365Z" fill="black"/>
<path d="M31.5455 19.7816C29.513 22.2191 31.358 28.9316 34.463 24.9041C37.568 20.8766 33.3155 17.6591 31.5455 19.7816Z" fill="#263238"/>
<path d="M49.0131 28.5569C47.3931 35.3069 46.8456 38.2019 42.8481 41.1119C36.8481 45.4844 29.0406 42.0344 28.6506 34.9319C28.2981 28.5419 31.0056 18.5669 38.0481 17.0069C44.9781 15.4994 50.6181 21.7919 49.0131 28.5569Z" fill="#7F3E3B"/>
<path d="M34.4404 17.2317C31.1179 18.2892 32.3179 20.8993 35.7754 20.5468C35.7754 20.5468 38.7754 23.1268 44.9254 21.9943C42.5929 23.3368 43.2229 26.3217 45.3079 26.5918C43.6129 28.5942 46.1929 29.4117 44.9554 31.0917C43.7179 32.7717 47.2054 31.9018 48.0004 31.0917C49.7254 30.6642 46.3429 35.2918 46.0579 37.7443C50.2504 36.4618 49.8754 34.1742 51.8854 32.2017C53.8954 30.2292 55.1254 25.3093 53.4979 21.5368C52.7087 19.847 51.571 18.3432 50.1595 17.1243C48.748 15.9054 47.0946 14.9989 45.3079 14.4643C42.5254 13.7368 33.7654 12.7092 34.4404 17.2317Z" fill="#263238"/>
<path d="M40.0054 28.6245C39.9079 29.187 39.5329 29.5845 39.1654 29.517C38.7979 29.4495 38.5879 28.947 38.6854 28.392C38.7829 27.837 39.158 27.4395 39.5255 27.507C39.893 27.5745 40.1179 28.0695 40.0054 28.6245Z" fill="#263238"/>
<path d="M33.1429 27.4995C33.0454 28.0545 32.6704 28.452 32.3104 28.392C31.9504 28.332 31.7329 27.822 31.8304 27.267C31.9279 26.712 32.3029 26.307 32.6629 26.3745C33.0229 26.442 33.2479 26.9595 33.1429 27.4995Z" fill="#263238"/>
<path d="M32.8205 26.4492L31.553 25.8267C31.553 25.8267 32.0555 26.9892 32.8205 26.4492Z" fill="#263238"/>
<path d="M34.8681 28.7666C34.1501 29.9472 33.2717 31.0225 32.2581 31.9616C32.5032 32.2201 32.8024 32.4214 33.1343 32.551C33.4662 32.6806 33.8226 32.7355 34.1781 32.7116L34.8681 28.7666Z" fill="#630F0F"/>
<path d="M37.028 35.3067C36.7112 35.3071 36.395 35.2795 36.083 35.2242C36.0613 35.2203 36.0407 35.2121 36.0222 35.2002C36.0036 35.1882 35.9877 35.1728 35.9751 35.1547C35.9626 35.1366 35.9537 35.1162 35.9491 35.0946C35.9444 35.0731 35.9441 35.0509 35.948 35.0292C35.952 35.0075 35.9601 34.9868 35.9721 34.9683C35.984 34.9498 35.9994 34.9338 36.0176 34.9213C36.0357 34.9088 36.0561 34.8999 36.0776 34.8953C36.0991 34.8906 36.1213 34.8903 36.143 34.8942C36.8328 35.0302 37.545 35.0027 38.2222 34.8138C38.8995 34.625 39.5231 34.28 40.043 33.8067C40.0739 33.776 40.1157 33.7588 40.1593 33.7588C40.2028 33.7588 40.2446 33.776 40.2755 33.8067C40.3067 33.8389 40.3241 33.8819 40.3241 33.9267C40.3241 33.9715 40.3067 34.0145 40.2755 34.0467C39.3955 34.8689 38.2323 35.3202 37.028 35.3067Z" fill="#263238"/>
<path d="M49.5455 32.8466C49.3052 33.3803 48.9543 33.8569 48.516 34.2447C48.0777 34.6326 47.562 34.923 47.003 35.0966C45.5705 35.4941 44.8655 33.9266 45.2705 32.3366C45.638 30.9041 46.8155 28.9691 48.2705 29.2841C49.7255 29.5991 50.2055 31.4441 49.5455 32.8466Z" fill="#7F3E3B"/>
<path d="M42.0605 24.4993C42.0173 24.5103 41.9721 24.512 41.9282 24.5042C41.8842 24.4965 41.8424 24.4795 41.8055 24.4543C41.4603 24.222 41.0653 24.0738 40.6524 24.0217C40.2395 23.9696 39.8202 24.015 39.428 24.1543C39.3886 24.1725 39.346 24.1828 39.3027 24.1846C39.2593 24.1863 39.216 24.1795 39.1752 24.1646C39.1345 24.1496 39.0971 24.1267 39.0652 24.0973C39.0333 24.0679 39.0075 24.0325 38.9893 23.9931C38.971 23.9537 38.9608 23.9111 38.959 23.8677C38.9573 23.8243 38.9641 23.781 38.979 23.7403C38.994 23.6996 39.0169 23.6622 39.0463 23.6303C39.0757 23.5984 39.1111 23.5725 39.1505 23.5543C39.6415 23.3665 40.1705 23.2997 40.6927 23.3598C41.215 23.4198 41.715 23.6049 42.1505 23.8993C42.1877 23.9223 42.2199 23.9524 42.2453 23.9879C42.2707 24.0234 42.2888 24.0636 42.2986 24.1062C42.3083 24.1487 42.3096 24.1928 42.3022 24.2358C42.2948 24.2788 42.2789 24.32 42.2555 24.3568C42.2093 24.4258 42.1403 24.4763 42.0605 24.4993Z" fill="#263238"/>
<path d="M30.5929 23.1493C30.5642 23.1181 30.5421 23.0814 30.5279 23.0415C30.5137 23.0015 30.5078 22.9591 30.5104 22.9168C30.5113 22.8735 30.5208 22.8308 30.5383 22.7911C30.5558 22.7514 30.5809 22.7156 30.6123 22.6856C30.6436 22.6557 30.6806 22.6322 30.721 22.6165C30.7614 22.6009 30.8045 22.5933 30.8479 22.5943C31.3747 22.5934 31.8939 22.7197 32.3614 22.9626C32.8289 23.2055 33.2308 23.5577 33.5329 23.9893C33.5565 24.0263 33.5726 24.0676 33.5801 24.1108C33.5876 24.154 33.5865 24.1983 33.5767 24.2411C33.5668 24.2839 33.5486 24.3243 33.523 24.3599C33.4974 24.3956 33.4649 24.4257 33.4275 24.4487C33.3901 24.4716 33.3485 24.4869 33.3051 24.4935C33.2618 24.5002 33.2175 24.4982 33.1749 24.4875C33.1324 24.4769 33.0923 24.4578 33.0572 24.4315C33.0221 24.4052 32.9926 24.3722 32.9704 24.3343C32.7245 23.9991 32.4025 23.727 32.0308 23.5405C31.6592 23.3541 31.2486 23.2585 30.8329 23.2618C30.7874 23.2598 30.7428 23.2489 30.7016 23.2295C30.6604 23.2102 30.6235 23.183 30.5929 23.1493Z" fill="#263238"/>
<path d="M39.6755 27.5593L38.408 26.9443C38.408 26.9443 38.9105 28.1068 39.6755 27.5593Z" fill="#263238"/>
<path d="M41.6705 65.0742C40.3355 65.1267 39.158 65.1267 37.9205 65.0742C36.683 65.0217 35.468 65.0067 34.238 64.9392C31.7855 64.7967 29.333 64.5342 26.8805 64.1892C24.4102 63.8489 21.9612 63.3681 19.5455 62.7492C17.0631 62.1284 14.6371 61.3005 12.293 60.2742C12.0005 60.1467 11.7005 59.9967 11.408 59.8617L10.9655 59.6517C10.823 59.5767 10.598 59.4567 10.433 59.3517C10.2607 59.242 10.0954 59.1218 9.93803 58.9917C9.41055 58.5507 8.96826 58.0169 8.63303 57.4167C8.38618 56.967 8.18277 56.4949 8.02554 56.0067C7.62263 54.5574 7.44306 53.0551 7.49303 51.5517C7.55761 49.0156 7.83357 46.4894 8.31804 43.9992C9.23412 39.2338 10.4873 34.5395 12.068 29.9517L15.4955 30.8517C15.1355 33.1467 14.7455 35.4867 14.4755 37.8042C14.2055 40.1217 13.8755 42.4392 13.7255 44.7342C13.5094 46.9472 13.4518 49.1729 13.553 51.3942C13.5814 52.2692 13.7355 53.1355 14.0105 53.9667C14.0385 54.0437 14.0763 54.1168 14.123 54.1842C14.123 54.1842 14.123 54.1017 13.958 53.9667C13.8741 53.8924 13.7808 53.8293 13.6805 53.7792L14.0555 53.9367C14.303 54.0342 14.543 54.1392 14.8055 54.2292C19.0089 55.7084 23.3712 56.6901 27.803 57.1542C30.053 57.4392 32.348 57.5892 34.6355 57.7242C35.7755 57.7917 36.8855 57.8367 38.0705 57.8592C39.2555 57.8817 40.388 57.9042 41.4305 57.8592L41.6705 65.0742Z" fill="#7F3E3B"/>
<path d="M25.1555 57.229L26.0255 66.229C26.0255 66.229 42.773 71.674 51.4655 67.1065C54.7355 65.389 54.713 63.814 55.088 59.674C55.463 55.534 53.2655 52.549 47.888 53.929C42.5105 55.309 38.9555 55.5115 25.1555 57.229Z" fill="#407BFF"/>
<path d="M26.7756 57.2666C26.2581 56.1191 25.2756 55.7666 23.9181 55.8566C22.5606 55.9466 21.5181 56.1041 21.9606 57.6866C22.4991 60.4722 22.8474 63.2912 23.0031 66.1241C22.9431 66.8741 26.1456 67.4516 27.1056 66.9266C28.0656 66.4016 27.4656 58.7816 26.7756 57.2666Z" fill="#407BFF"/>
<path opacity="0.3" d="M26.7756 57.2666C26.2581 56.1191 25.2756 55.7666 23.9181 55.8566C22.5606 55.9466 21.5181 56.1041 21.9606 57.6866C22.4991 60.4722 22.8474 63.2912 23.0031 66.1241C22.9431 66.8741 26.1456 67.4516 27.1056 66.9266C28.0656 66.4016 27.4656 58.7816 26.7756 57.2666Z" fill="white"/>
<path d="M21.818 53.6293L17.8805 54.2068C17.504 54.2609 17.1622 54.4559 16.9241 54.7525C16.686 55.0491 16.5694 55.425 16.598 55.8043V56.1568C16.6239 56.5285 16.7873 56.8772 17.0563 57.1351C17.3252 57.393 17.6805 57.5415 18.053 57.5518L22.3805 57.6793C22.6303 57.6876 22.8782 57.6333 23.1016 57.5215C23.3251 57.4096 23.5171 57.2437 23.6602 57.0388C23.8033 56.8339 23.8929 56.5965 23.9209 56.3482C23.9488 56.0998 23.9144 55.8484 23.8205 55.6168L23.4005 54.5593C23.2769 54.2509 23.0545 53.9923 22.7681 53.824C22.4817 53.6557 22.1475 53.5872 21.818 53.6293Z" fill="#7F3E3B"/>
<path d="M12.3155 28.4216L14.228 23.6816L19.703 29.9366C19.703 29.9366 16.4255 33.1391 13.058 33.6191L12.6005 32.7941C12.2301 32.1327 12.0122 31.3967 11.9629 30.6402C11.9136 29.8836 12.0341 29.1256 12.3155 28.4216Z" fill="#7F3E3B"/>
<path d="M19.7631 23.9292L21.2631 26.1792C21.5699 26.6514 21.6886 27.2216 21.5956 27.777C21.5025 28.3324 21.2046 28.8328 20.7606 29.1792L19.7331 29.9742L14.2581 23.7192L17.4531 23.0142C17.8854 22.9231 18.335 22.9612 18.7458 23.124C19.1566 23.2867 19.5104 23.5667 19.7631 23.9292Z" fill="#7F3E3B"/>
<path d="M51.4054 32.6894C50.7454 30.2894 46.4479 21.3269 42.3154 17.8619C38.1829 14.3969 37.0654 14.6669 36.5029 14.2844C36.5276 14.0702 36.6004 13.8642 36.7158 13.682C36.8312 13.4998 36.9862 13.346 37.1694 13.2321C37.3525 13.1181 37.559 13.047 37.7735 13.0241C37.9879 13.0011 38.2048 13.0269 38.4079 13.0994C39.5329 12.1544 41.3179 12.6419 42.1204 13.0244C45.8474 14.7848 49.0657 17.4637 51.4729 20.8094C54.2479 24.6419 55.0879 26.9894 54.7579 28.8944C54.4279 30.7994 53.6779 30.8219 53.6779 30.8219C53.6779 30.8219 54.1504 32.8394 51.4054 32.6894Z" fill="#407BFF"/>
<path d="M51.368 31.2493C51.2167 31.1034 51.0217 31.0112 50.813 30.9868C51.0422 31.5181 51.2425 32.0614 51.413 32.6143C51.5788 32.423 51.6663 32.1761 51.658 31.923C51.6496 31.6699 51.5461 31.4293 51.368 31.2493Z" fill="white"/>
<path d="M37.1179 13.2491C37.1341 13.4785 37.2326 13.6942 37.3954 13.8566C37.4894 13.9507 37.6011 14.0254 37.724 14.0763C37.8469 14.1273 37.9786 14.1535 38.1117 14.1535C38.2447 14.1535 38.3764 14.1273 38.4993 14.0763C38.6222 14.0254 38.7339 13.9507 38.8279 13.8566C38.9732 13.711 39.07 13.524 39.1049 13.3213C39.1398 13.1185 39.1112 12.91 39.0229 12.7241C38.8081 12.8111 38.6062 12.9272 38.4229 13.0691C38.206 12.9978 37.9758 12.977 37.7496 13.0082C37.5234 13.0394 37.3074 13.1218 37.1179 13.2491Z" fill="white"/>
<path d="M41.9405 15.5893C41.8464 15.4952 41.7348 15.4206 41.6119 15.3696C41.489 15.3187 41.3573 15.2925 41.2242 15.2925C41.0912 15.2925 40.9595 15.3187 40.8366 15.3696C40.7137 15.4206 40.602 15.4952 40.508 15.5893C40.3381 15.7651 40.2392 15.9975 40.2305 16.2418C40.628 16.5268 41.0705 16.8568 41.5655 17.2543C41.7065 17.2063 41.8347 17.1268 41.9405 17.0218C42.0346 16.9278 42.1092 16.8162 42.1602 16.6933C42.2111 16.5704 42.2373 16.4386 42.2373 16.3056C42.2373 16.1726 42.2111 16.0408 42.1602 15.9179C42.1092 15.795 42.0346 15.6834 41.9405 15.5893Z" fill="white"/>
<path d="M45.0755 18.7241C44.9814 18.63 44.8698 18.5553 44.7469 18.5044C44.624 18.4535 44.4922 18.4272 44.3592 18.4272C44.2262 18.4272 44.0944 18.4535 43.9715 18.5044C43.8486 18.5553 43.737 18.63 43.643 18.7241C43.572 18.7992 43.5138 18.8853 43.4705 18.9791C43.8755 19.4141 44.288 19.8791 44.6855 20.3891C44.831 20.3412 44.9641 20.2618 45.0755 20.1566C45.1696 20.0626 45.2442 19.9509 45.2952 19.828C45.3461 19.7051 45.3723 19.5734 45.3723 19.4404C45.3723 19.3073 45.3461 19.1756 45.2952 19.0527C45.2442 18.9298 45.1696 18.8181 45.0755 18.7241Z" fill="white"/>
<path d="M47.4905 23.5841C48.0497 23.5841 48.503 23.1308 48.503 22.5716C48.503 22.0124 48.0497 21.5591 47.4905 21.5591C46.9313 21.5591 46.478 22.0124 46.478 22.5716C46.478 23.1308 46.9313 23.5841 47.4905 23.5841Z" fill="white"/>
<path d="M50.6255 26.7115C51.1847 26.7115 51.638 26.2582 51.638 25.699C51.638 25.1398 51.1847 24.6865 50.6255 24.6865C50.0663 24.6865 49.613 25.1398 49.613 25.699C49.613 26.2582 50.0663 26.7115 50.6255 26.7115Z" fill="white"/>
<path d="M53.0403 28.1142C52.9463 28.2083 52.8717 28.32 52.8208 28.4429C52.7698 28.5658 52.7437 28.6975 52.7437 28.8305C52.7437 28.9635 52.7698 29.0952 52.8208 29.2181C52.8717 29.341 52.9463 29.4527 53.0403 29.5468C53.1344 29.6408 53.2461 29.7154 53.3689 29.7663C53.4918 29.8172 53.6236 29.8434 53.7566 29.8434C53.8896 29.8434 54.0213 29.8172 54.1442 29.7663C54.2671 29.7154 54.3788 29.6408 54.4728 29.5468C54.5613 29.4509 54.6347 29.3422 54.6903 29.2243V29.1117C54.7536 28.8977 54.7439 28.6687 54.6626 28.4608C54.5813 28.2529 54.4331 28.078 54.2414 27.9636C54.0497 27.8493 53.8253 27.802 53.6038 27.8293C53.3823 27.8566 53.1761 27.9568 53.0178 28.1142H53.0403Z" fill="white"/>
<path d="M43.643 13.887C43.8092 14.0541 44.0303 14.1553 44.2655 14.172L43.553 13.752C43.5786 13.7997 43.6087 13.8449 43.643 13.887Z" fill="white"/>
<path d="M46.7704 16.9994C46.9505 17.1774 47.1911 17.281 47.4441 17.2893C47.6972 17.2977 47.9441 17.2102 48.1354 17.0444C47.6179 16.5794 47.1154 16.1594 46.6354 15.7769C46.5181 15.9664 46.4676 16.1898 46.4921 16.4114C46.5166 16.633 46.6146 16.84 46.7704 16.9994Z" fill="white"/>
<path d="M49.9054 20.157C50.06 20.3094 50.26 20.4073 50.4753 20.4357C50.6905 20.4641 50.9091 20.4215 51.0979 20.3145C50.6854 19.7745 50.2729 19.272 49.8529 18.8145C49.6945 19.0053 49.6122 19.2479 49.6219 19.4958C49.6316 19.7436 49.7325 19.9791 49.9054 20.157Z" fill="white"/>
<path d="M53.0405 23.2843C53.0806 23.321 53.1262 23.3514 53.1755 23.3743C53.0555 23.1718 52.9055 22.9468 52.7705 22.7368C52.8025 22.9426 52.8967 23.1337 53.0405 23.2843Z" fill="white"/>
<path d="M48.203 24.987C48.0407 24.8285 47.8289 24.7305 47.603 24.7095C47.8805 25.182 48.1505 25.647 48.4055 26.1195C48.4918 25.9327 48.5186 25.7239 48.4824 25.5214C48.4461 25.3189 48.3486 25.1323 48.203 24.987Z" fill="white"/>
<path d="M51.3681 29.5466C51.4622 29.4526 51.5368 29.3409 51.5878 29.218C51.6387 29.0951 51.6649 28.9634 51.6649 28.8304C51.6649 28.6973 51.6387 28.5656 51.5878 28.4427C51.5368 28.3198 51.4622 28.2081 51.3681 28.1141C51.1772 27.9259 50.9199 27.8203 50.6518 27.8203C50.3837 27.8203 50.1264 27.9259 49.9356 28.1141C49.8221 28.2321 49.7396 28.3764 49.6956 28.5341C49.9056 28.9691 50.1081 29.3816 50.2881 29.7716C50.4704 29.8435 50.6698 29.8605 50.8617 29.8205C51.0536 29.7806 51.2296 29.6853 51.3681 29.5466Z" fill="white"/>
<path d="M52.8679 32.4717C53.1429 32.3384 53.3686 32.1215 53.5127 31.852C53.6569 31.5826 53.7121 31.2744 53.6704 30.9717C53.4981 30.9774 53.3303 31.0282 53.184 31.1193C53.0376 31.2103 52.9177 31.3382 52.8364 31.4902C52.7551 31.6422 52.7152 31.8129 52.7207 31.9851C52.7262 32.1574 52.777 32.3252 52.8679 32.4717Z" fill="white"/>
<path d="M40.4329 12.5742C40.2841 12.7649 40.2098 13.0031 40.2235 13.2446C40.2373 13.486 40.3384 13.7142 40.5079 13.8867C40.6019 13.9808 40.7135 14.0555 40.8364 14.1064C40.9593 14.1574 41.0911 14.1836 41.2241 14.1836C41.3571 14.1836 41.4889 14.1574 41.6118 14.1064C41.7347 14.0555 41.8463 13.9808 41.9403 13.8867C42.0453 13.7803 42.1248 13.6514 42.1729 13.5098C42.221 13.3682 42.2363 13.2176 42.2179 13.0692L42.1203 13.0242C41.5884 12.7769 41.0173 12.6246 40.4329 12.5742Z" fill="white"/>
<path d="M45.0754 16.9991C45.2169 16.8575 45.3133 16.6771 45.3523 16.4807C45.3913 16.2843 45.3712 16.0808 45.2945 15.8958C45.2179 15.7109 45.0881 15.5528 44.9216 15.4416C44.7551 15.3304 44.5594 15.271 44.3592 15.271C44.159 15.271 43.9632 15.3304 43.7968 15.4416C43.6303 15.5528 43.5005 15.7109 43.4238 15.8958C43.3472 16.0808 43.3271 16.2843 43.3661 16.4807C43.4051 16.6771 43.5014 16.8575 43.6429 16.9991C43.737 17.0933 43.8486 17.1679 43.9715 17.2188C44.0944 17.2698 44.2261 17.296 44.3592 17.296C44.4922 17.296 44.624 17.2698 44.7468 17.2188C44.8697 17.1679 44.9814 17.0933 45.0754 16.9991Z" fill="white"/>
<path d="M47.4905 20.4493C48.0497 20.4493 48.503 19.996 48.503 19.4368C48.503 18.8776 48.0497 18.4243 47.4905 18.4243C46.9313 18.4243 46.478 18.8776 46.478 19.4368C46.478 19.996 46.9313 20.4493 47.4905 20.4493Z" fill="white"/>
<path d="M50.6255 23.5841C51.1847 23.5841 51.638 23.1308 51.638 22.5716C51.638 22.0124 51.1847 21.5591 50.6255 21.5591C50.0663 21.5591 49.613 22.0124 49.613 22.5716C49.613 23.1308 50.0663 23.5841 50.6255 23.5841Z" fill="white"/>
<path d="M53.0405 24.9869C52.9464 25.0809 52.8717 25.1926 52.8208 25.3155C52.7699 25.4384 52.7437 25.5701 52.7437 25.7032C52.7437 25.8362 52.7699 25.9679 52.8208 26.0908C52.8717 26.2137 52.9464 26.3254 53.0405 26.4194C53.2314 26.6077 53.4887 26.7132 53.7568 26.7132C54.0248 26.7132 54.2822 26.6077 54.473 26.4194L54.533 26.3219C54.362 25.7714 54.1488 25.2348 53.8955 24.7169C53.7418 24.6915 53.5843 24.7026 53.4357 24.7496C53.2871 24.7965 53.1517 24.8778 53.0405 24.9869Z" fill="white"/>
<path opacity="0.4" d="M42.1205 13.0317C41.6318 12.7781 41.0971 12.6256 40.5482 12.5831C39.9993 12.5405 39.4475 12.6089 38.9255 12.7842C39.548 14.1792 41.483 15.2292 42.9605 15.4467C43.335 14.9925 43.6431 14.4875 43.8755 13.9467C43.0055 13.4367 42.368 13.1442 42.1205 13.0317Z" fill="black"/>
<path opacity="0.4" d="M51.473 20.8091C49.956 18.7076 48.1157 16.8597 46.0205 15.3341C45.2133 15.3112 44.4057 15.3539 43.6055 15.4616C43.6055 17.4116 45.683 20.8016 49.133 21.5441C50.0843 21.7585 51.0695 21.7764 52.028 21.5966C51.8555 21.3416 51.668 21.0791 51.473 20.8091Z" fill="black"/>
<path d="M42.9603 15.4393C41.1753 14.8018 38.8954 12.5068 39.5704 10.3318C40.2454 8.15683 42.8179 7.63184 42.8179 7.63184C42.8179 7.63184 42.4279 9.18433 42.9829 9.95683C43.5379 10.7293 44.4828 13.1518 44.1978 13.8118C43.8686 14.4128 43.4515 14.9614 42.9603 15.4393Z" fill="#407BFF"/>
<path d="M42.128 17.374C41.738 16.2415 42.263 13.5415 44.5505 13.3915C46.838 13.2415 46.118 14.3815 46.118 14.3815L42.128 17.374Z" fill="#407BFF"/>
<path d="M43.7705 16.3618C44.3555 18.2218 47.3855 20.8093 50.903 20.4643C51.8831 20.4018 52.8358 20.1151 53.6875 19.6261C54.5392 19.1372 55.2673 18.4592 55.8155 17.6443C55.8155 17.6443 53.333 17.8018 52.2605 17.1418C51.188 16.4818 47.648 15.2143 46.568 15.3718C45.6016 15.5967 44.6632 15.9287 43.7705 16.3618Z" fill="#407BFF"/>
<path d="M42.1279 17.3745C42.3304 16.197 44.5129 13.512 46.5904 14.487C48.6679 15.462 47.6779 16.077 46.5904 16.557C45.1477 17.0337 43.646 17.3088 42.1279 17.3745Z" fill="#407BFF"/>
<path d="M44.0179 17.1795C44.0623 16.9342 44.0391 16.6815 43.9507 16.4485C43.8624 16.2154 43.7123 16.0108 43.5164 15.8567C43.3206 15.7025 43.0865 15.6045 42.8393 15.5733C42.592 15.5421 42.3409 15.5788 42.1129 15.6795C41.9682 16.225 41.9682 16.7989 42.1129 17.3445C42.1129 17.3445 42.9829 17.3295 44.0179 17.1795Z" fill="white"/>
<path d="M48.5481 18.7917C48.3917 18.7004 48.2187 18.6409 48.0392 18.6168C47.8597 18.5926 47.6772 18.6042 47.5022 18.6509C47.3272 18.6976 47.1632 18.7785 47.0196 18.8889C46.876 18.9993 46.7557 19.137 46.6656 19.2942C46.6361 19.347 46.611 19.4022 46.5906 19.4592C47.3848 19.9251 48.2561 20.2452 49.1631 20.4042C49.2591 20.1055 49.2505 19.783 49.1387 19.4899C49.0269 19.1968 48.8186 18.9505 48.5481 18.7917Z" fill="white"/>
<path d="M39.7354 9.90408L39.7954 9.94908C40.0582 10.0982 40.363 10.1564 40.6623 10.1146C40.9616 10.0728 41.2388 9.93338 41.4508 9.71797C41.6627 9.50257 41.7977 9.22322 41.8347 8.92327C41.8717 8.62331 41.8086 8.31954 41.6553 8.05908C40.824 8.4376 40.1467 9.08846 39.7354 9.90408Z" fill="white"/>
<path d="M54.9829 18.649C55.3026 18.3514 55.5824 18.0136 55.8154 17.644C55.8154 17.644 55.3279 17.644 54.6979 17.644C54.6608 18.0032 54.7628 18.3629 54.9829 18.649Z" fill="white"/>
<path d="M42.758 13.5493C42.877 13.3454 42.9413 13.1143 42.9448 12.8783C42.9483 12.6422 42.8909 12.4093 42.7781 12.2019C42.6653 11.9946 42.5009 11.8198 42.3008 11.6946C42.1007 11.5693 41.8717 11.4977 41.6359 11.4868C41.4001 11.4759 41.1655 11.526 40.9547 11.6322C40.7439 11.7385 40.5641 11.8973 40.4326 12.0933C40.3011 12.2894 40.2224 12.516 40.2041 12.7514C40.1858 12.9867 40.2285 13.2228 40.328 13.4368C40.4777 13.6329 40.6379 13.8207 40.808 13.9993L40.883 14.0518C41.0389 14.143 41.2113 14.2023 41.3902 14.2263C41.5691 14.2504 41.7511 14.2387 41.9254 14.192C42.0998 14.1452 42.2632 14.0644 42.4061 13.9541C42.549 13.8437 42.6687 13.7062 42.758 13.5493Z" fill="white"/>
<path d="M46.6356 14.5093C46.4015 14.5321 46.1772 14.6146 45.9843 14.7489C45.7913 14.8833 45.6361 15.065 45.5335 15.2766C45.4309 15.4882 45.3844 15.7226 45.3984 15.9573C45.4125 16.1921 45.4866 16.4192 45.6137 16.6171C45.7408 16.8149 45.9166 16.9768 46.1242 17.0872C46.3318 17.1976 46.5644 17.2528 46.7994 17.2475C47.0345 17.2422 47.2643 17.1766 47.4668 17.0569C47.6692 16.9373 47.8375 16.7677 47.9556 16.5643C48.1266 16.2642 48.1775 15.9104 48.0981 15.5743L47.7905 15.4993C47.7531 15.2143 47.4231 14.8918 46.6356 14.5093Z" fill="white"/>
<path d="M53.1454 19.5793C53.2822 19.3448 53.3464 19.0749 53.3298 18.8039C53.3133 18.5328 53.2167 18.2728 53.0522 18.0566C52.8878 17.8405 52.663 17.678 52.4062 17.5897C52.1494 17.5014 51.8721 17.4913 51.6096 17.5606C51.347 17.6299 51.1109 17.7756 50.9311 17.9791C50.7514 18.1827 50.636 18.435 50.5997 18.7041C50.5634 18.9732 50.6078 19.2471 50.7271 19.491C50.8465 19.7349 51.0356 19.9379 51.2704 20.0743C51.498 20.2055 51.7578 20.2704 52.0204 20.2618C52.2154 20.2093 52.4029 20.1493 52.5754 20.0893C52.8125 19.9809 53.0113 19.8031 53.1454 19.5793Z" fill="white"/>
</g>
</g>
</g>
</g>
<defs>
<clipPath id="clip0">
<rect width="75" height="75" rx="37.5" fill="white"/>
</clipPath>
<clipPath id="clip1">
<rect width="75" height="75" rx="37.5" fill="white"/>
</clipPath>
<clipPath id="clip2">
<rect width="75" height="75" rx="37.5" fill="white"/>
</clipPath>
<clipPath id="clip3">
<rect width="75" height="75" rx="37.5" fill="white"/>
</clipPath>
</defs>
</svg>
