<svg width="33" height="30" viewBox="0 0 33 30" fill="none" xmlns="http://www.w3.org/2000/svg">
<path d="M32.0809 11.3366C31.8703 10.7028 31.2926 10.2525 30.6092 10.1926L21.3256 9.37216L17.6546 1.00959C17.3839 0.396717 16.7674 0 16.0825 0C15.3976 0 14.7812 0.396717 14.5105 1.01102L10.8395 9.37216L1.55438 10.1926C0.872161 10.254 0.295953 10.7028 0.0841694 11.3366C-0.127614 11.9705 0.0679727 12.6658 0.584057 13.1041L7.60138 19.0938L5.53213 27.9651C5.38072 28.6173 5.64085 29.2916 6.19693 29.6828C6.49583 29.893 6.84553 30 7.19818 30C7.50223 30 7.80383 29.9202 8.07451 29.7626L16.0825 25.1045L24.0876 29.7626C24.6734 30.1056 25.4118 30.0743 25.9667 29.6828C26.523 29.2904 26.7829 28.6159 26.6314 27.9651L24.5622 19.0938L31.5795 13.1053C32.0956 12.6658 32.2927 11.9717 32.0809 11.3366Z" fill="white"/>
</svg>
