<svg width="29" height="29" viewBox="0 0 29 29" fill="none" xmlns="http://www.w3.org/2000/svg">
<path d="M3.02081 0H25.9791C27.6475 0 29 1.35246 29 3.02081V25.9791C29 27.6475 27.6475 29 25.9792 29H3.02081C1.35246 29 0 27.6475 0 25.9792V3.02081C0 1.35246 1.35246 0 3.02081 0Z" fill="white"/>
<path d="M22.3544 8.45831H24.771C25.1047 8.45831 25.3752 8.1878 25.3752 7.85413V4.22913C25.3752 3.89552 25.1047 3.625 24.771 3.625H22.3543C18.6839 3.625 15.7085 6.60044 15.7085 10.2708V13.2916H12.6877C12.354 13.2916 12.0835 13.5621 12.0835 13.8958V17.5208C12.0835 17.8545 12.354 18.125 12.6877 18.125H15.7085V29H20.5418V18.125H23.5627C23.8226 18.1248 24.0533 17.9584 24.1354 17.7118L25.3437 14.0867C25.4492 13.7702 25.278 13.4281 24.9615 13.3226C24.9001 13.3022 24.8357 13.2917 24.771 13.2916H20.5418V10.2708C20.5419 9.2698 21.3533 8.45831 22.3544 8.45831Z" fill="#4267B2"/>
</svg>
