<svg width="29" height="29" viewBox="0 0 29 29" fill="none" xmlns="http://www.w3.org/2000/svg">
<path d="M23.8285 25.528C21.3137 27.652 18.0512 29 14.4998 29C9.21523 29 4.57631 26.0887 2.06152 21.8407L3.003 17.5007L7.17617 16.726C8.14473 19.8525 11.0673 22.1465 14.4998 22.1465C16.165 22.1465 17.7113 21.6198 18.9857 20.6852L22.9959 21.2969L23.8285 25.528Z" fill="white"/>
<path d="M23.8287 25.5279L22.9961 21.2968L18.9859 20.6851C17.7115 21.6197 16.1652 22.1464 14.5 22.1464V29C18.0514 29 21.3139 27.6519 23.8287 25.5279Z" fill="white"/>
<path d="M6.85352 14.5C6.85352 15.2816 6.97246 16.0293 7.17637 16.726L2.06172 21.8407C0.787305 19.6997 0 17.1848 0 14.5C0 11.8152 0.787305 9.30044 2.06172 7.15942L6.16664 7.8659L7.17637 12.2741C6.97246 12.9707 6.85352 13.7184 6.85352 14.5Z" fill="white"/>
<path d="M29 14.5C29 18.9179 26.9553 22.8771 23.8287 25.5279L18.9859 20.6852C19.9714 19.9714 20.8041 19.0199 21.3479 17.8984H14.5C14.0242 17.8984 13.6504 17.5246 13.6504 17.0488V11.9512C13.6504 11.4753 14.0242 11.1016 14.5 11.1016H27.9125C28.3203 11.1016 28.6771 11.3904 28.7451 11.7982C28.915 12.6818 29 13.5994 29 14.5Z" fill="white"/>
<path d="M21.3479 17.8984C20.8042 19.0199 19.9714 19.9714 18.986 20.6852L23.8287 25.5279C26.9553 22.8771 29 18.918 29 14.5C29 13.5994 28.915 12.6818 28.7451 11.7982C28.6771 11.3904 28.3203 11.1016 27.9124 11.1016H14.5V17.8984H21.3479Z" fill="white"/>
<path d="M24.0664 4.04975C24.0834 4.28764 23.9814 4.50859 23.8285 4.67846L20.1922 8.29779C19.9034 8.60365 19.4276 8.63764 19.0878 8.38276C17.7453 7.38027 16.165 6.85352 14.4998 6.85352C11.0673 6.85352 8.14473 9.1474 7.17617 12.274L2.06152 7.15938C4.57631 2.91133 9.21523 0 14.4998 0C17.8813 0 21.1777 1.24609 23.7605 3.42104C23.9475 3.57402 24.0494 3.81186 24.0664 4.04975Z" fill="white"/>
<path d="M19.0879 8.38276C19.4277 8.6377 19.9035 8.60365 20.1923 8.29779L23.8287 4.67846C23.9816 4.50859 24.0836 4.2877 24.0666 4.04975C24.0495 3.8118 23.9476 3.57402 23.7607 3.42104C21.1779 1.24609 17.8814 0 14.5 0V6.85352C16.1652 6.85352 17.7455 7.38027 19.0879 8.38276Z" fill="white"/>
</svg>
