<svg width="362" height="54" viewBox="0 0 362 54" fill="none" xmlns="http://www.w3.org/2000/svg">
<g filter="url(#filter0_d)">
<rect x="4.58838" y="0.342041" width="353" height="45" rx="8" fill="white"/>
</g>
<path d="M127.858 28.38V30.342H118.408V17.742H127.606V19.704H120.748V22.98H126.832V24.906H120.748V28.38H127.858ZM135.705 20.622C136.917 20.622 137.889 20.976 138.621 21.684C139.353 22.392 139.719 23.442 139.719 24.834V30.342H137.469V25.122C137.469 24.282 137.271 23.652 136.875 23.232C136.479 22.8 135.915 22.584 135.183 22.584C134.355 22.584 133.701 22.836 133.221 23.34C132.741 23.832 132.501 24.546 132.501 25.482V30.342H130.251V20.73H132.393V21.972C132.765 21.528 133.233 21.192 133.797 20.964C134.361 20.736 134.997 20.622 135.705 20.622ZM148.351 29.82C148.087 30.036 147.763 30.198 147.379 30.306C147.007 30.414 146.611 30.468 146.191 30.468C145.135 30.468 144.319 30.192 143.743 29.64C143.167 29.088 142.879 28.284 142.879 27.228V22.602H141.295V20.802H142.879V18.606H145.129V20.802H147.703V22.602H145.129V27.174C145.129 27.642 145.243 28.002 145.471 28.254C145.699 28.494 146.029 28.614 146.461 28.614C146.965 28.614 147.385 28.482 147.721 28.218L148.351 29.82ZM152.344 22.134C152.992 21.126 154.132 20.622 155.764 20.622V22.764C155.572 22.728 155.398 22.71 155.242 22.71C154.366 22.71 153.682 22.968 153.19 23.484C152.698 23.988 152.452 24.72 152.452 25.68V30.342H150.202V20.73H152.344V22.134ZM161.292 20.622C162.708 20.622 163.788 20.964 164.532 21.648C165.288 22.32 165.666 23.34 165.666 24.708V30.342H163.542V29.172C163.266 29.592 162.87 29.916 162.354 30.144C161.85 30.36 161.238 30.468 160.518 30.468C159.798 30.468 159.168 30.348 158.628 30.108C158.088 29.856 157.668 29.514 157.368 29.082C157.08 28.638 156.936 28.14 156.936 27.588C156.936 26.724 157.254 26.034 157.89 25.518C158.538 24.99 159.552 24.726 160.932 24.726H163.416V24.582C163.416 23.91 163.212 23.394 162.804 23.034C162.408 22.674 161.814 22.494 161.022 22.494C160.482 22.494 159.948 22.578 159.42 22.746C158.904 22.914 158.466 23.148 158.106 23.448L157.224 21.81C157.728 21.426 158.334 21.132 159.042 20.928C159.75 20.724 160.5 20.622 161.292 20.622ZM160.986 28.83C161.55 28.83 162.048 28.704 162.48 28.452C162.924 28.188 163.236 27.816 163.416 27.336V26.22H161.094C159.798 26.22 159.15 26.646 159.15 27.498C159.15 27.906 159.312 28.23 159.636 28.47C159.96 28.71 160.41 28.83 160.986 28.83ZM170.696 22.134C171.344 21.126 172.484 20.622 174.116 20.622V22.764C173.924 22.728 173.75 22.71 173.594 22.71C172.718 22.71 172.034 22.968 171.542 23.484C171.05 23.988 170.804 24.72 170.804 25.68V30.342H168.554V20.73H170.696V22.134ZM185.497 30.468C184.501 30.468 183.607 30.258 182.815 29.838C182.023 29.418 181.405 28.836 180.961 28.092C180.517 27.336 180.295 26.484 180.295 25.536C180.295 24.588 180.517 23.742 180.961 22.998C181.405 22.254 182.017 21.672 182.797 21.252C183.589 20.832 184.489 20.622 185.497 20.622C186.445 20.622 187.273 20.814 187.981 21.198C188.701 21.582 189.241 22.134 189.601 22.854L187.873 23.862C187.597 23.418 187.249 23.088 186.829 22.872C186.421 22.644 185.971 22.53 185.479 22.53C184.639 22.53 183.943 22.806 183.391 23.358C182.839 23.898 182.563 24.624 182.563 25.536C182.563 26.448 182.833 27.18 183.373 27.732C183.925 28.272 184.627 28.542 185.479 28.542C185.971 28.542 186.421 28.434 186.829 28.218C187.249 27.99 187.597 27.654 187.873 27.21L189.601 28.218C189.229 28.938 188.683 29.496 187.963 29.892C187.255 30.276 186.433 30.468 185.497 30.468ZM195.725 30.468C194.753 30.468 193.877 30.258 193.097 29.838C192.317 29.418 191.705 28.836 191.261 28.092C190.829 27.336 190.613 26.484 190.613 25.536C190.613 24.588 190.829 23.742 191.261 22.998C191.705 22.254 192.317 21.672 193.097 21.252C193.877 20.832 194.753 20.622 195.725 20.622C196.709 20.622 197.591 20.832 198.371 21.252C199.151 21.672 199.757 22.254 200.189 22.998C200.633 23.742 200.855 24.588 200.855 25.536C200.855 26.484 200.633 27.336 200.189 28.092C199.757 28.836 199.151 29.418 198.371 29.838C197.591 30.258 196.709 30.468 195.725 30.468ZM195.725 28.542C196.553 28.542 197.237 28.266 197.777 27.714C198.317 27.162 198.587 26.436 198.587 25.536C198.587 24.636 198.317 23.91 197.777 23.358C197.237 22.806 196.553 22.53 195.725 22.53C194.897 22.53 194.213 22.806 193.673 23.358C193.145 23.91 192.881 24.636 192.881 25.536C192.881 26.436 193.145 27.162 193.673 27.714C194.213 28.266 194.897 28.542 195.725 28.542ZM215.139 20.622C216.351 20.622 217.311 20.976 218.019 21.684C218.727 22.38 219.081 23.43 219.081 24.834V30.342H216.831V25.122C216.831 24.282 216.645 23.652 216.273 23.232C215.901 22.8 215.367 22.584 214.671 22.584C213.915 22.584 213.309 22.836 212.853 23.34C212.397 23.832 212.169 24.54 212.169 25.464V30.342H209.919V25.122C209.919 24.282 209.733 23.652 209.361 23.232C208.989 22.8 208.455 22.584 207.759 22.584C206.991 22.584 206.379 22.83 205.923 23.322C205.479 23.814 205.257 24.528 205.257 25.464V30.342H203.007V20.73H205.149V21.954C205.509 21.522 205.959 21.192 206.499 20.964C207.039 20.736 207.639 20.622 208.299 20.622C209.019 20.622 209.655 20.76 210.207 21.036C210.771 21.3 211.215 21.696 211.539 22.224C211.935 21.72 212.445 21.33 213.069 21.054C213.693 20.766 214.383 20.622 215.139 20.622ZM235.751 23.898H237.965V28.92C237.317 29.436 236.561 29.832 235.697 30.108C234.833 30.384 233.945 30.522 233.033 30.522C231.749 30.522 230.591 30.246 229.559 29.694C228.527 29.13 227.717 28.356 227.129 27.372C226.541 26.388 226.247 25.278 226.247 24.042C226.247 22.806 226.541 21.696 227.129 20.712C227.717 19.728 228.527 18.96 229.559 18.408C230.603 17.844 231.773 17.562 233.069 17.562C234.125 17.562 235.085 17.736 235.949 18.084C236.813 18.432 237.539 18.942 238.127 19.614L236.651 21.054C235.691 20.094 234.533 19.614 233.177 19.614C232.289 19.614 231.497 19.8 230.801 20.172C230.117 20.544 229.577 21.066 229.181 21.738C228.797 22.41 228.605 23.178 228.605 24.042C228.605 24.882 228.797 25.638 229.181 26.31C229.577 26.982 230.117 27.51 230.801 27.894C231.497 28.278 232.283 28.47 233.159 28.47C234.143 28.47 235.007 28.254 235.751 27.822V23.898ZM245.155 30.468C244.183 30.468 243.307 30.258 242.527 29.838C241.747 29.418 241.135 28.836 240.691 28.092C240.259 27.336 240.043 26.484 240.043 25.536C240.043 24.588 240.259 23.742 240.691 22.998C241.135 22.254 241.747 21.672 242.527 21.252C243.307 20.832 244.183 20.622 245.155 20.622C246.139 20.622 247.021 20.832 247.801 21.252C248.581 21.672 249.187 22.254 249.619 22.998C250.063 23.742 250.285 24.588 250.285 25.536C250.285 26.484 250.063 27.336 249.619 28.092C249.187 28.836 248.581 29.418 247.801 29.838C247.021 30.258 246.139 30.468 245.155 30.468ZM245.155 28.542C245.983 28.542 246.667 28.266 247.207 27.714C247.747 27.162 248.017 26.436 248.017 25.536C248.017 24.636 247.747 23.91 247.207 23.358C246.667 22.806 245.983 22.53 245.155 22.53C244.327 22.53 243.643 22.806 243.103 23.358C242.575 23.91 242.311 24.636 242.311 25.536C242.311 26.436 242.575 27.162 243.103 27.714C243.643 28.266 244.327 28.542 245.155 28.542ZM256.756 30.468C255.784 30.468 254.908 30.258 254.128 29.838C253.348 29.418 252.736 28.836 252.292 28.092C251.86 27.336 251.644 26.484 251.644 25.536C251.644 24.588 251.86 23.742 252.292 22.998C252.736 22.254 253.348 21.672 254.128 21.252C254.908 20.832 255.784 20.622 256.756 20.622C257.74 20.622 258.622 20.832 259.402 21.252C260.182 21.672 260.788 22.254 261.22 22.998C261.664 23.742 261.886 24.588 261.886 25.536C261.886 26.484 261.664 27.336 261.22 28.092C260.788 28.836 260.182 29.418 259.402 29.838C258.622 30.258 257.74 30.468 256.756 30.468ZM256.756 28.542C257.584 28.542 258.268 28.266 258.808 27.714C259.348 27.162 259.618 26.436 259.618 25.536C259.618 24.636 259.348 23.91 258.808 23.358C258.268 22.806 257.584 22.53 256.756 22.53C255.928 22.53 255.244 22.806 254.704 23.358C254.176 23.91 253.912 24.636 253.912 25.536C253.912 26.436 254.176 27.162 254.704 27.714C255.244 28.266 255.928 28.542 256.756 28.542ZM273.578 20.73V28.884C273.578 32.268 271.85 33.96 268.394 33.96C267.47 33.96 266.594 33.84 265.766 33.6C264.938 33.372 264.254 33.036 263.714 32.592L264.722 30.9C265.142 31.248 265.67 31.524 266.306 31.728C266.954 31.944 267.608 32.052 268.268 32.052C269.324 32.052 270.098 31.812 270.59 31.332C271.082 30.852 271.328 30.12 271.328 29.136V28.632C270.944 29.052 270.476 29.37 269.924 29.586C269.372 29.802 268.766 29.91 268.106 29.91C267.194 29.91 266.366 29.718 265.622 29.334C264.89 28.938 264.308 28.386 263.876 27.678C263.456 26.97 263.246 26.16 263.246 25.248C263.246 24.336 263.456 23.532 263.876 22.836C264.308 22.128 264.89 21.582 265.622 21.198C266.366 20.814 267.194 20.622 268.106 20.622C268.802 20.622 269.432 20.736 269.996 20.964C270.572 21.192 271.052 21.54 271.436 22.008V20.73H273.578ZM268.448 28.002C269.3 28.002 269.996 27.75 270.536 27.246C271.088 26.73 271.364 26.064 271.364 25.248C271.364 24.444 271.088 23.79 270.536 23.286C269.996 22.782 269.3 22.53 268.448 22.53C267.584 22.53 266.876 22.782 266.324 23.286C265.784 23.79 265.514 24.444 265.514 25.248C265.514 26.064 265.784 26.73 266.324 27.246C266.876 27.75 267.584 28.002 268.448 28.002ZM276.536 16.986H278.786V30.342H276.536V16.986ZM290.775 25.59C290.775 25.746 290.763 25.968 290.739 26.256H283.197C283.329 26.964 283.671 27.528 284.223 27.948C284.787 28.356 285.483 28.56 286.311 28.56C287.367 28.56 288.237 28.212 288.921 27.516L290.127 28.902C289.695 29.418 289.149 29.808 288.489 30.072C287.829 30.336 287.085 30.468 286.257 30.468C285.201 30.468 284.271 30.258 283.467 29.838C282.663 29.418 282.039 28.836 281.595 28.092C281.163 27.336 280.947 26.484 280.947 25.536C280.947 24.6 281.157 23.76 281.577 23.016C282.009 22.26 282.603 21.672 283.359 21.252C284.115 20.832 284.967 20.622 285.915 20.622C286.851 20.622 287.685 20.832 288.417 21.252C289.161 21.66 289.737 22.242 290.145 22.998C290.565 23.742 290.775 24.606 290.775 25.59ZM285.915 22.422C285.195 22.422 284.583 22.638 284.079 23.07C283.587 23.49 283.287 24.054 283.179 24.762H288.633C288.537 24.066 288.243 23.502 287.751 23.07C287.259 22.638 286.647 22.422 285.915 22.422Z" fill="black"/>
<path d="M60.4169 33.87C57.9021 35.994 54.6396 37.3421 51.0882 37.3421C45.8036 37.3421 41.1647 34.4308 38.6499 30.1827L39.5914 25.8428L43.7645 25.0681C44.7331 28.1946 47.6557 30.4886 51.0882 30.4886C52.7534 30.4886 54.2997 29.9618 55.5741 29.0272L59.5843 29.639L60.4169 33.87Z" fill="#59C36A"/>
<path d="M60.4171 33.8699L59.5845 29.6389L55.5743 29.0272C54.2999 29.9617 52.7536 30.4885 51.0884 30.4885V37.342C54.6398 37.342 57.9022 35.994 60.4171 33.8699Z" fill="#00A66C"/>
<path d="M43.4419 22.8421C43.4419 23.6237 43.5608 24.3713 43.7647 25.0681L38.6501 30.1827C37.3757 28.0417 36.5884 25.5268 36.5884 22.8421C36.5884 20.1573 37.3757 17.6425 38.6501 15.5015L42.755 16.2079L43.7647 20.6161C43.5608 21.3127 43.4419 22.0604 43.4419 22.8421Z" fill="#FFDA2D"/>
<path d="M65.5884 22.842C65.5884 27.26 63.5437 31.2192 60.4171 33.87L55.5743 29.0272C56.5598 28.3135 57.3925 27.3619 57.9362 26.2405H51.0884C50.6125 26.2405 50.2388 25.8666 50.2388 25.3909V20.2932C50.2388 19.8174 50.6125 19.4436 51.0884 19.4436H64.5009C64.9087 19.4436 65.2655 19.7324 65.3335 20.1402C65.5034 21.0239 65.5884 21.9414 65.5884 22.842Z" fill="#4086F4"/>
<path d="M57.9363 26.2405C57.3925 27.3619 56.5598 28.3135 55.5744 29.0272L60.4171 33.87C63.5437 31.2192 65.5884 27.26 65.5884 22.842C65.5884 21.9414 65.5034 21.0239 65.3334 20.1402C65.2655 19.7324 64.9086 19.4436 64.5008 19.4436H51.0884V26.2405H57.9363Z" fill="#4175DF"/>
<path d="M60.6548 12.3918C60.6718 12.6297 60.5698 12.8506 60.4169 13.0205L56.7806 16.6398C56.4918 16.9457 56.016 16.9797 55.6761 16.7248C54.3336 15.7223 52.7534 15.1956 51.0882 15.1956C47.6557 15.1956 44.7331 17.4894 43.7646 20.6161L38.6499 15.5014C41.1647 11.2534 45.8036 8.34204 51.0882 8.34204C54.4696 8.34204 57.7661 9.58813 60.3489 11.7631C60.5358 11.9161 60.6378 12.1539 60.6548 12.3918Z" fill="#FF641A"/>
<path d="M55.6763 16.7248C56.0161 16.9797 56.4918 16.9457 56.7807 16.6398L60.417 13.0205C60.57 12.8506 60.672 12.6297 60.6549 12.3918C60.6379 12.1538 60.536 11.9161 60.3491 11.7631C57.7663 9.58813 54.4698 8.34204 51.0884 8.34204V15.1956C52.7536 15.1956 54.3338 15.7223 55.6763 16.7248Z" fill="#F03800"/>
<defs>
<filter id="filter0_d" x="0.588379" y="0.342041" width="361" height="53" filterUnits="userSpaceOnUse" color-interpolation-filters="sRGB">
<feFlood flood-opacity="0" result="BackgroundImageFix"/>
<feColorMatrix in="SourceAlpha" type="matrix" values="0 0 0 0 0 0 0 0 0 0 0 0 0 0 0 0 0 0 127 0"/>
<feOffset dy="4"/>
<feGaussianBlur stdDeviation="2"/>
<feColorMatrix type="matrix" values="0 0 0 0 0 0 0 0 0 0 0 0 0 0 0 0 0 0 0.25 0"/>
<feBlend mode="normal" in2="BackgroundImageFix" result="effect1_dropShadow"/>
<feBlend mode="normal" in="SourceGraphic" in2="effect1_dropShadow" result="shape"/>
</filter>
</defs>
</svg>
