<svg width="500" height="451" viewBox="0 0 500 451" fill="none" xmlns="http://www.w3.org/2000/svg">
<path d="M500 396.458H0V396.763H500V396.458Z" fill="#EBEBEB"/>
<path d="M449.891 407.985H358.991V408.289H449.891V407.985Z" fill="#EBEBEB"/>
<path d="M331.217 404.698H306.327V405.002H331.217V404.698Z" fill="#EBEBEB"/>
<path d="M388.095 419.233H349.505V419.537H388.095V419.233Z" fill="#EBEBEB"/>
<path d="M75.0956 449.698H52.4556V450.003H75.0956V449.698Z" fill="#EBEBEB"/>
<path d="M110.874 417.193H83.9844V417.497H110.874V417.193Z" fill="#EBEBEB"/>
<path d="M225.167 412.083H178.327V412.388H225.167V412.083Z" fill="#EBEBEB"/>
<path d="M237.016 342.447H43.9256C42.4129 342.444 40.9631 341.714 39.8945 340.418C38.8258 339.121 38.2256 337.365 38.2256 335.533V6.85379C38.2388 5.0326 38.8448 3.29125 39.912 2.00796C40.9793 0.724683 42.4216 0.00311979 43.9256 0H237.016C238.53 0 239.982 0.728473 241.053 2.02516C242.124 3.32185 242.726 5.08054 242.726 6.91433V335.533C242.726 337.367 242.124 339.125 241.053 340.422C239.982 341.719 238.53 342.447 237.016 342.447ZM43.9256 0.242184C42.4792 0.245392 41.093 0.943383 40.0712 2.18295C39.0495 3.42252 38.4756 5.10238 38.4756 6.85379V335.533C38.4756 337.284 39.0495 338.964 40.0712 340.204C41.093 341.443 42.4792 342.141 43.9256 342.144H237.016C238.463 342.141 239.85 341.444 240.873 340.204C241.897 338.965 242.473 337.285 242.476 335.533V6.85379C242.473 5.10126 241.897 3.42144 240.873 2.18221C239.85 0.942989 238.463 0.245385 237.016 0.242184H43.9256Z" fill="#EBEBEB"/>
<path d="M453.309 342.447H260.209C258.695 342.444 257.245 341.715 256.174 340.418C255.104 339.122 254.502 337.366 254.499 335.533V6.85379C254.515 5.0315 255.123 3.29015 256.192 2.00721C257.261 0.72426 258.704 0.00308577 260.209 0H453.309C454.811 0.00630221 456.251 0.729273 457.316 2.01221C458.381 3.29515 458.986 5.03469 458.999 6.85379V335.533C458.999 337.362 458.4 339.117 457.334 340.413C456.267 341.709 454.82 342.441 453.309 342.447ZM260.209 0.242184C258.762 0.245385 257.375 0.942989 256.351 2.18221C255.328 3.42144 254.752 5.10126 254.749 6.85379V335.533C254.752 337.285 255.328 338.965 256.351 340.204C257.375 341.444 258.762 342.141 260.209 342.144H453.309C454.756 342.141 456.144 341.444 457.167 340.204C458.19 338.965 458.766 337.285 458.769 335.533V6.85379C458.766 5.10126 458.19 3.42144 457.167 2.18221C456.144 0.942989 454.756 0.245385 453.309 0.242184H260.209Z" fill="#EBEBEB"/>
<path d="M426.214 389.579H444.964V263.619H426.214V389.579Z" fill="#F0F0F0"/>
<path d="M234.806 396.458L441.336 396.458V389.568L234.806 389.568V396.458Z" fill="#F0F0F0"/>
<path d="M426.216 263.602H231.236V389.562H426.216V263.602Z" fill="#F5F5F5"/>
<path d="M428.14 263.602H447.3V257.596H428.14V263.602Z" fill="#F0F0F0"/>
<path d="M428.154 257.595H228.864V263.601H428.154V257.595Z" fill="#FAFAFA"/>
<path d="M419.472 309.059H238.002V276.219H419.472V309.059ZM239.222 307.57H418.222V277.781H239.222V307.57Z" fill="#E0E0E0"/>
<path d="M419.472 376.958H238.002V318.168H419.472V376.958ZM239.222 375.383H418.222V319.681H239.222V375.383Z" fill="#E0E0E0"/>
<path d="M264.08 281.869H393.36C394.276 281.869 395.02 280.969 395.02 279.859V278.987C395.02 277.877 394.276 276.977 393.36 276.977H264.08C263.163 276.977 262.42 277.877 262.42 278.987V279.859C262.42 280.969 263.163 281.869 264.08 281.869Z" fill="#E0E0E0"/>
<path d="M264.08 323.826H393.36C394.276 323.826 395.02 322.926 395.02 321.816V320.944C395.02 319.834 394.276 318.934 393.36 318.934H264.08C263.163 318.934 262.42 319.834 262.42 320.944V321.816C262.42 322.926 263.163 323.826 264.08 323.826Z" fill="#E0E0E0"/>
<path d="M57.1167 428.955H64.9067L64.9067 268.63H57.1167L57.1167 428.955Z" fill="#E6E6E6"/>
<path d="M54.6486 428.955H60.0586L60.0586 268.63H54.6486L54.6486 428.955Z" fill="#F0F0F0"/>
<path d="M145.659 236.128H52.9785V247.716H145.659V236.128Z" fill="#F0F0F0"/>
<path d="M149.123 396.458H156.913L156.913 247.733H149.123L149.123 396.458Z" fill="#E6E6E6"/>
<path d="M146.69 396.458H152.1L152.1 247.733H146.69L146.69 396.458Z" fill="#F0F0F0"/>
<path d="M198.439 396.458H206.229L206.229 247.733H198.439L198.439 396.458Z" fill="#E6E6E6"/>
<path d="M195.971 396.458H201.381L201.381 247.733H195.971L195.971 396.458Z" fill="#F0F0F0"/>
<path d="M106.398 396.458H114.188L114.188 247.733H106.398L106.398 396.458Z" fill="#E6E6E6"/>
<path d="M103.965 396.458H109.375L109.375 247.733H103.965L103.965 396.458Z" fill="#F0F0F0"/>
<path d="M145.649 247.716H206.229V236.127H145.649V247.716Z" fill="#E6E6E6"/>
<path d="M137.808 146.482H62.9185L69.5485 76.2852H131.178L137.808 146.482Z" fill="#EBEBEB"/>
<path d="M104.446 146.484H96.2959V236.129H104.446V146.484Z" fill="#F5F5F5"/>
<path d="M117 236.124H83.7402C83.7402 234.988 84.1132 233.897 84.7771 233.093C85.441 232.289 86.3414 231.838 87.2802 231.838H113.43C113.898 231.833 114.361 231.94 114.794 232.154C115.227 232.367 115.621 232.682 115.953 233.08C116.285 233.479 116.548 233.953 116.728 234.476C116.908 234.998 117 235.558 117 236.124Z" fill="#F0F0F0"/>
<path d="M104.446 154.246L96.2959 149.536V146.484H104.446V154.246Z" fill="#E0E0E0"/>
<path d="M135.394 235.876H170.564L174.914 178.031H139.744L135.394 235.876Z" fill="#E6E6E6"/>
<path d="M133.58 235.876H168.75L173.1 178.031H137.93L133.58 235.876Z" fill="#F0F0F0"/>
<path d="M163.924 229.465L167.314 184.431H142.724L139.334 229.465H163.924Z" fill="white"/>
<path d="M424.775 194.388H353.385L339.495 254.292H410.885L424.775 194.388Z" fill="#E6E6E6"/>
<path d="M410.906 254.29L410.626 257.596H339.216L339.506 254.29H410.906Z" fill="#E6E6E6"/>
<path d="M422.588 194.388H351.188L337.298 254.292H408.698L422.588 194.388Z" fill="#F0F0F0"/>
<path d="M407.898 250.382L419.388 198.507C419.548 197.768 419.238 197.126 418.718 197.126H353.078C352.816 197.164 352.57 197.301 352.376 197.519C352.182 197.736 352.05 198.023 351.998 198.337L340.518 250.176C340.348 250.915 340.658 251.557 341.178 251.557H406.818C407.078 251.525 407.323 251.394 407.517 251.183C407.711 250.972 407.845 250.691 407.898 250.382Z" fill="white"/>
<path d="M390.085 254.29L389.795 257.596H311.175L311.465 254.29H390.085Z" fill="#F0F0F0"/>
<path d="M439.577 38.0685H266.357V167.528H439.577V38.0685Z" fill="#F0F0F0"/>
<path d="M434.655 44.0325H271.275V161.588H434.655V44.0325Z" fill="white"/>
<path d="M439.566 167.542H441.336V38.0824H439.566V167.542Z" fill="#E6E6E6"/>
<path d="M250.008 449.827C357.09 449.827 443.898 443.944 443.898 436.688C443.898 429.431 357.09 423.549 250.008 423.549C142.925 423.549 56.1177 429.431 56.1177 436.688C56.1177 443.944 142.925 449.827 250.008 449.827Z" fill="#F5F5F5"/>
<path d="M210.425 34.8231C215.092 30.0025 221.135 26.8455 228.555 25.3521C235.975 23.8587 243.819 24.8066 252.085 28.1957C260.325 31.5849 267.862 37.7054 274.695 46.5574C281.049 54.7904 285.342 63.4142 287.575 72.4287C289.803 80.7647 290.007 89.6523 288.165 98.1142C286.415 105.958 282.69 113.017 277.465 118.391C273.747 122.437 269.211 125.331 264.275 126.806C259.868 128.08 255.319 128.565 250.785 128.245C246.432 127.92 238.879 127.057 228.125 125.657C225.608 125.339 223.077 125.176 220.545 125.169C218.811 125.156 217.082 125.386 215.395 125.854C214.057 126.25 212.757 126.802 211.515 127.502C210.315 128.187 208.285 129.452 205.405 131.321C199.485 135.522 194.339 134.787 189.965 129.116C188.879 127.774 188.032 126.197 187.474 124.473C186.916 122.75 186.658 120.916 186.715 119.076C186.829 115.338 188.522 111.768 191.795 108.363C198.463 100.948 207.393 96.9067 216.625 97.1276C221.881 97.3312 227.124 97.8426 232.335 98.6597C237.875 99.4374 241.965 99.9249 244.605 100.087C247.226 100.261 249.855 100.007 252.415 99.3329C254.969 98.6762 257.33 97.2557 259.265 95.2125C261.158 93.3049 262.675 90.9454 263.71 88.2953C264.746 85.6452 265.276 82.7668 265.265 79.8569C265.345 73.6667 263.345 67.9137 259.265 62.5978C254.445 56.3535 249.542 53.1694 244.555 53.0456C239.569 52.9218 233.632 54.5854 226.745 58.0364C219.739 61.8512 214.155 61.0774 209.995 55.7151C208.811 54.2421 207.905 52.4984 207.335 50.5958C206.766 48.6931 206.544 46.6733 206.685 44.6656C206.715 42.8191 207.061 40.9981 207.703 39.3083C208.346 37.6186 209.271 36.094 210.425 34.8231ZM162.085 159.815C159.472 156.52 158.013 152.211 157.995 147.733C157.935 143.152 159.639 139.055 163.105 135.441C164.532 133.91 166.217 132.738 168.053 132.001C169.89 131.264 171.838 130.977 173.775 131.158C175.737 131.296 177.655 131.891 179.414 132.908C181.174 133.925 182.738 135.343 184.015 137.078C185.328 138.727 186.342 140.666 186.996 142.779C187.651 144.893 187.933 147.137 187.826 149.379C187.718 151.621 187.224 153.816 186.372 155.832C185.52 157.848 184.327 159.644 182.865 161.115C179.445 164.667 175.779 166.183 171.865 165.665C168.084 165.223 164.589 163.132 162.085 159.815Z" fill="#407BFF"/>
<g opacity="0.5">
<path opacity="0.5" d="M299.855 112.64C301.26 108.768 303.588 105.442 306.565 103.053C310.065 100.159 314.151 98.3679 318.425 97.8535C323.405 97.2317 328.438 98.0863 333.055 100.337C337.417 102.21 341.355 105.206 344.575 109.1C347.366 112.47 349.303 116.666 350.175 121.229C350.98 125.494 350.666 129.94 349.275 133.997C348.332 136.972 346.756 139.623 344.695 141.703C342.85 143.545 340.772 145.048 338.535 146.16C336.389 147.22 332.592 148.915 327.145 151.244C325.872 151.786 324.626 152.414 323.415 153.124C322.582 153.599 321.803 154.191 321.095 154.889C320.533 155.447 320.023 156.074 319.575 156.757C319.145 157.419 318.435 158.591 317.445 160.239C315.445 163.907 312.829 164.99 309.595 163.489C308.797 163.15 308.065 162.63 307.44 161.961C306.815 161.292 306.311 160.486 305.955 159.589C305.599 158.54 305.434 157.416 305.472 156.289C305.51 155.162 305.749 154.057 306.175 153.043C307.833 147.635 311.271 143.211 315.735 140.74C318.291 139.359 320.904 138.127 323.565 137.049C326.375 135.888 328.435 134.972 329.735 134.322C331.025 133.672 332.23 132.817 333.315 131.78C334.402 130.75 335.239 129.41 335.745 127.892C336.257 126.451 336.495 124.9 336.441 123.343C336.388 121.786 336.045 120.261 335.435 118.873C334.097 115.818 331.793 113.481 329.005 112.35C325.405 110.702 322.405 110.543 320.005 111.874C317.091 113.674 314.541 116.175 312.525 119.21C309.952 122.994 307.112 124.154 304.005 122.692C303.134 122.314 302.34 121.729 301.674 120.976C301.008 120.223 300.484 119.317 300.135 118.316C299.767 117.439 299.552 116.485 299.504 115.511C299.456 114.536 299.575 113.561 299.855 112.64ZM302.585 185.994C300.653 185.144 299.063 183.489 298.125 181.352C297.645 180.228 297.385 178.995 297.365 177.74C297.344 176.486 297.563 175.242 298.005 174.098C298.366 172.962 298.926 171.927 299.651 171.057C300.376 170.188 301.25 169.504 302.215 169.049C303.184 168.569 304.227 168.321 305.28 168.321C306.334 168.321 307.376 168.569 308.345 169.049C309.315 169.472 310.202 170.118 310.953 170.947C311.703 171.776 312.303 172.771 312.716 173.874C313.129 174.977 313.348 176.166 313.358 177.368C313.368 178.571 313.17 179.764 312.775 180.876C312.43 182.068 311.861 183.156 311.111 184.063C310.361 184.97 309.447 185.673 308.435 186.122C306.541 186.938 304.451 186.893 302.585 185.994Z" fill="#407BFF"/>
</g>
<g opacity="0.1">
<path opacity="0.1" d="M367.114 105.803C366.21 104.151 365.728 102.235 365.724 100.278C365.691 97.9592 366.18 95.6706 367.144 93.6391C368.257 91.2731 369.871 89.2756 371.834 87.8358C373.605 86.3888 375.636 85.4283 377.774 85.0269C379.626 84.6785 381.526 84.9274 383.264 85.7466C384.892 86.5118 386.286 87.8257 387.264 89.5187C387.999 90.7244 388.46 92.1256 388.604 93.5927C388.719 94.8984 388.665 96.2168 388.444 97.5041C388.224 98.7499 387.778 100.886 387.104 103.911C386.952 104.623 386.832 105.344 386.744 106.07C386.628 106.964 386.689 107.877 386.924 108.739C387.034 109.111 387.234 109.738 387.534 110.62C387.717 110.981 387.836 111.381 387.884 111.796C387.933 112.211 387.91 112.633 387.817 113.038C387.724 113.443 387.562 113.822 387.342 114.154C387.122 114.486 386.848 114.764 386.534 114.972C385.883 115.503 385.078 115.711 384.294 115.552C383.852 115.437 383.436 115.215 383.073 114.901C382.709 114.587 382.407 114.188 382.184 113.73C381.48 112.572 380.983 111.262 380.724 109.877C380.517 108.676 380.493 107.443 380.654 106.232C380.87 104.73 381.154 103.243 381.504 101.775C381.864 100.208 382.104 99.0594 382.234 98.2934C382.36 97.5287 382.397 96.748 382.344 95.972C382.287 95.2149 382.063 94.4874 381.694 93.8596C381.353 93.2527 380.903 92.7384 380.375 92.3519C379.847 91.9653 379.253 91.7155 378.634 91.6195C377.26 91.4022 375.867 91.8189 374.754 92.7802C374.123 93.1872 373.571 93.742 373.134 94.4092C372.697 95.0765 372.384 95.8418 372.214 96.6568C372.04 98.4304 372.194 100.227 372.664 101.926C373.234 104.073 372.864 105.64 371.574 106.65C371.22 106.937 370.819 107.135 370.395 107.233C369.972 107.331 369.536 107.326 369.114 107.219C368.716 107.151 368.334 106.99 367.99 106.747C367.647 106.504 367.349 106.183 367.114 105.803ZM392.064 123.979C391.271 124.608 390.307 124.877 389.354 124.733C388.851 124.65 388.371 124.437 387.949 124.11C387.526 123.782 387.173 123.349 386.914 122.841C386.635 122.382 386.441 121.859 386.344 121.308C386.248 120.757 386.251 120.188 386.354 119.638C386.451 119.08 386.644 118.55 386.92 118.079C387.197 117.609 387.552 117.207 387.964 116.899C388.36 116.578 388.808 116.355 389.281 116.241C389.754 116.127 390.241 116.126 390.714 116.237C391.19 116.339 391.642 116.553 392.043 116.867C392.444 117.18 392.785 117.586 393.044 118.059C393.346 118.529 393.555 119.07 393.657 119.643C393.759 120.217 393.751 120.809 393.634 121.379C393.41 122.443 392.85 123.371 392.064 123.979Z" fill="#407BFF"/>
</g>
<path d="M185.783 429.003L178.223 426.728L182.733 406.66L190.293 408.935L185.783 429.003Z" fill="#FFC3BD"/>
<path d="M178.128 424.412L186.568 427.511C186.638 427.531 186.704 427.568 186.762 427.618C186.82 427.668 186.868 427.731 186.905 427.804C186.941 427.877 186.965 427.957 186.974 428.04C186.983 428.123 186.977 428.208 186.958 428.289L185.178 435.891C185.053 436.29 184.8 436.618 184.472 436.806C184.145 436.994 183.767 437.028 183.418 436.901C180.498 435.74 179.148 435.067 175.418 433.697C173.128 432.862 167.608 430.97 164.418 429.809C161.228 428.648 162.418 425.166 163.808 425.387C170.228 426.165 173.958 425.538 176.628 424.458C177.11 424.251 177.637 424.235 178.128 424.412Z" fill="#263238"/>
<path opacity="0.2" d="M190.3 408.952L182.74 406.677L180.42 417.019L187.98 419.294L190.3 408.952Z" fill="black"/>
<path d="M209.335 203.735C209.335 203.735 195.495 280.072 191.815 305.061C187.815 332.43 179.025 410.786 179.025 410.786L191.875 416.207C191.875 416.207 211.985 333.115 215.035 306.802C221.425 281.082 237.615 203.735 237.615 203.735H209.335Z" fill="#407BFF"/>
<path opacity="0.3" d="M227.103 228.649C222.613 241.161 220.983 263.945 221.763 277.571C225.323 261.484 229.273 243.111 232.333 228.719C231.343 224.761 229.983 220.606 227.103 228.649Z" fill="black"/>
<path d="M191.619 417.967L177.839 413.348L178.359 406.581L194.759 411.932L191.619 417.967Z" fill="#263238"/>
<path d="M175.053 424.898C175.735 425.125 176.435 425.269 177.143 425.327C177.178 425.334 177.215 425.328 177.247 425.309C177.28 425.291 177.306 425.26 177.323 425.223C177.342 425.19 177.352 425.152 177.352 425.113C177.352 425.073 177.342 425.035 177.323 425.002C177.133 424.724 175.483 422.321 174.453 422.391C174.334 422.396 174.219 422.436 174.117 422.507C174.016 422.578 173.932 422.678 173.873 422.797C173.771 422.964 173.709 423.16 173.693 423.363C173.677 423.567 173.708 423.772 173.783 423.958C174.092 424.441 174.544 424.776 175.053 424.898ZM176.753 424.898C175.313 424.701 174.343 424.294 174.103 423.737C174.056 423.617 174.039 423.484 174.053 423.353C174.067 423.222 174.112 423.098 174.183 422.994C174.211 422.935 174.251 422.885 174.3 422.849C174.349 422.812 174.405 422.791 174.463 422.786C175.003 422.762 176.063 423.935 176.753 424.875V424.898Z" fill="#407BFF"/>
<path d="M177.091 425.328H177.181C177.211 425.322 177.239 425.309 177.263 425.289C177.288 425.269 177.308 425.242 177.321 425.211C177.321 425.107 178.241 422.751 177.721 421.66C177.65 421.52 177.555 421.4 177.441 421.306C177.327 421.212 177.198 421.147 177.061 421.114C176.911 421.064 176.751 421.072 176.604 421.137C176.458 421.202 176.334 421.32 176.251 421.474C175.801 422.333 176.411 424.492 177.011 425.258C177.031 425.29 177.059 425.315 177.091 425.328ZM177.091 421.544C177.16 421.568 177.224 421.608 177.279 421.662C177.334 421.716 177.379 421.782 177.411 421.857C177.592 422.816 177.49 423.817 177.121 424.701C176.651 423.842 176.291 422.24 176.591 421.683C176.591 421.579 176.741 421.462 177.001 421.521L177.091 421.544Z" fill="#407BFF"/>
<path d="M220.052 138.355C219.382 140.235 218.742 141.907 218.052 143.625C217.362 145.342 216.622 147.025 215.872 148.708C214.352 152.063 212.752 155.37 210.992 158.597C207.49 165.304 203.254 171.456 198.392 176.901L198.212 177.11C197.956 177.376 197.674 177.606 197.372 177.795C196.539 178.316 195.624 178.635 194.682 178.735C194.142 178.779 193.601 178.779 193.062 178.735C192.255 178.674 191.453 178.546 190.662 178.352C189.242 178.003 187.982 177.574 186.742 177.121C184.282 176.216 181.992 175.113 179.742 173.999C177.492 172.885 175.272 171.678 173.092 170.366C170.912 169.055 168.772 167.743 166.652 166.258C166.16 165.909 165.792 165.369 165.613 164.733C165.433 164.098 165.456 163.409 165.675 162.791C165.894 162.173 166.296 161.665 166.809 161.361C167.322 161.056 167.911 160.973 168.472 161.127C173.112 162.427 177.742 163.878 182.302 165.166C184.572 165.828 186.842 166.408 189.022 166.896C190.049 167.137 191.087 167.312 192.132 167.418C192.525 167.445 192.919 167.445 193.312 167.418C193.462 167.418 193.522 167.418 193.482 167.418C193.126 167.429 192.78 167.554 192.482 167.778L191.482 168.672C193.416 166.186 195.21 163.558 196.852 160.802C198.532 157.982 200.122 154.999 201.652 152.005C203.182 149.01 204.652 145.865 206.042 142.719C207.432 139.574 208.812 136.336 210.042 133.306L210.102 133.155C210.692 131.616 211.784 130.412 213.139 129.808C214.494 129.204 216 129.25 217.327 129.934C218.653 130.619 219.69 131.888 220.21 133.46C220.731 135.033 220.692 136.781 220.102 138.32L220.052 138.355Z" fill="#FFC3BD"/>
<path d="M218.519 126.069C212.079 126.278 207.659 134.391 203.439 144.5C206.674 150.991 211.31 156.391 216.889 160.169C216.889 160.169 233.809 125.57 218.519 126.069Z" fill="#E0E0E0"/>
<path d="M166.34 166.298L160.54 164.58L165.06 157.837C165.06 157.837 170.06 158.754 171.96 163.64L169.9 165.346C169.4 165.792 168.824 166.108 168.209 166.273C167.595 166.437 166.958 166.446 166.34 166.298Z" fill="#FFC3BD"/>
<path d="M159.122 157.694L160.242 156.533C160.7 156.067 161.285 155.803 161.894 155.789C162.503 155.774 163.097 156.008 163.572 156.452L165.052 157.833L160.532 164.576L158.682 161.234C158.376 160.681 158.251 160.019 158.332 159.368C158.413 158.718 158.693 158.123 159.122 157.694Z" fill="#FFC3BD"/>
<path d="M253.453 427.965H245.543L243.653 407.514H251.563L253.453 427.965Z" fill="#FFC3BD"/>
<path d="M244.835 426.942H253.725C253.872 426.932 254.016 426.99 254.127 427.103C254.237 427.216 254.305 427.375 254.315 427.545L254.745 435.392C254.737 435.813 254.587 436.215 254.327 436.51C254.068 436.805 253.719 436.97 253.355 436.97C250.265 436.9 248.785 436.703 244.875 436.703C242.475 436.703 235.875 436.982 232.525 436.982C229.175 436.982 229.295 433.314 230.705 432.989C237.015 431.492 241.235 429.437 243.475 427.487C243.864 427.137 244.342 426.945 244.835 426.942Z" fill="#263238"/>
<path opacity="0.2" d="M251.563 407.514H243.653L244.633 418.065H252.543L251.563 407.514Z" fill="black"/>
<path d="M224.819 203.732C224.819 203.732 226.569 280.476 227.819 305.767C229.219 333.46 241.069 415.507 241.069 415.507H255.569C255.569 415.507 252.389 332.415 249.989 305.244C250.989 275.485 251.649 203.709 251.649 203.709L224.819 203.732Z" fill="#407BFF"/>
<path d="M256.129 415.511H239.689L238.909 409.372L256.569 409.72L256.129 415.511Z" fill="#263238"/>
<path d="M242.047 428.471C242.758 428.453 243.465 428.348 244.157 428.158C244.191 428.15 244.222 428.131 244.245 428.101C244.269 428.072 244.283 428.035 244.287 427.995C244.296 427.956 244.295 427.915 244.282 427.877C244.27 427.839 244.247 427.807 244.217 427.786C243.967 427.6 241.727 425.883 240.757 426.312C240.649 426.358 240.552 426.436 240.477 426.538C240.402 426.639 240.35 426.761 240.327 426.892C240.264 427.091 240.253 427.306 240.293 427.512C240.334 427.718 240.426 427.906 240.557 428.053C240.995 428.394 241.523 428.542 242.047 428.471ZM243.647 427.867C242.227 428.181 241.187 428.123 240.817 427.716C240.741 427.619 240.688 427.5 240.665 427.372C240.643 427.243 240.65 427.109 240.687 426.985C240.696 426.921 240.72 426.861 240.755 426.81C240.79 426.759 240.835 426.72 240.887 426.695C241.407 426.463 242.727 427.206 243.647 427.867Z" fill="#407BFF"/>
<path d="M244.121 428.17H244.211C244.238 428.151 244.261 428.126 244.278 428.096C244.295 428.066 244.307 428.031 244.311 427.996C244.311 427.891 244.491 425.349 243.691 424.514C243.589 424.4 243.465 424.316 243.329 424.267C243.194 424.219 243.051 424.208 242.911 424.235C242.757 424.237 242.607 424.299 242.486 424.41C242.365 424.522 242.279 424.676 242.241 424.85C242.061 425.814 243.241 427.659 244.031 428.181L244.121 428.17ZM243.001 424.583C243.075 424.581 243.149 424.596 243.218 424.628C243.287 424.66 243.349 424.708 243.401 424.769C243.839 425.612 244.022 426.6 243.921 427.578C243.231 426.928 242.441 425.523 242.561 424.897C242.561 424.769 242.651 424.63 242.921 424.595L243.001 424.583Z" fill="#407BFF"/>
<path d="M212.684 131.982C213.11 130.479 213.878 129.137 214.905 128.098C215.933 127.058 217.183 126.359 218.524 126.074C220.478 125.545 222.458 125.157 224.454 124.913C230.449 124.529 236.458 124.529 242.454 124.913C245.594 125.076 248.794 125.505 251.344 125.923H251.434C252.089 126.011 252.722 126.254 253.294 126.635C253.865 127.017 254.364 127.529 254.76 128.142C255.156 128.754 255.44 129.453 255.595 130.197C255.751 130.941 255.774 131.714 255.664 132.469C253.667 144.297 252.361 156.267 251.754 168.299C251.134 185.778 251.974 199.498 251.674 203.711H209.354C206.784 161.08 210.104 141.696 212.684 131.982Z" fill="#E0E0E0"/>
<path d="M245.315 98.9039C246.053 99.5226 246.64 100.353 247.019 101.314C247.397 102.276 247.555 103.334 247.475 104.387C247.395 105.44 247.082 106.451 246.564 107.321C246.047 108.191 245.344 108.89 244.525 109.35C246.235 112.635 241.685 118.438 237.105 114.793C232.525 111.149 238.995 95.8049 245.315 98.9039Z" fill="#263238"/>
<path d="M226.355 95.3776C225.727 95.3992 225.105 95.231 224.549 94.8895C223.994 94.548 223.524 94.0449 223.186 93.4295C222.849 92.8141 222.654 92.1075 222.623 91.3788C222.591 90.6501 222.723 89.9243 223.005 89.2725C220.875 88.3092 221.255 82.9121 225.095 82.6799C228.935 82.4478 230.915 94.0196 226.355 95.3776Z" fill="#263238"/>
<path d="M225.126 129.476C224.84 129.171 224.627 128.785 224.508 128.356C224.389 127.927 224.368 127.469 224.448 127.027C224.528 126.586 224.705 126.176 224.962 125.839C225.22 125.501 225.548 125.246 225.916 125.101C229.776 123.452 230.476 120.203 230.166 116.663C230.077 115.667 229.937 114.679 229.746 113.703L236.296 107.633L241.116 103.176C239.916 108.979 238.576 119.088 241.116 124.207C241.401 124.742 241.511 125.379 241.426 126C241.342 126.622 241.069 127.188 240.656 127.596C238.996 129.302 235.596 131.507 229.996 131.159C227.426 131.008 225.996 130.324 225.126 129.476Z" fill="#FFC3BD"/>
<path d="M210.488 132.187C210.965 130.516 211.806 129.016 212.929 127.832C214.052 126.649 215.419 125.822 216.898 125.432C218.796 125.082 220.709 124.849 222.628 124.735C222.829 124.702 223.033 124.727 223.223 124.808C223.413 124.889 223.583 125.024 223.717 125.2C223.851 125.376 223.945 125.588 223.99 125.817C224.036 126.046 224.032 126.285 223.978 126.511C220.628 140.95 215.848 169.839 217.328 205.622C217.335 205.845 217.303 206.067 217.233 206.274C217.163 206.482 217.058 206.671 216.923 206.83C216.788 206.988 216.627 207.113 216.449 207.197C216.271 207.281 216.08 207.322 215.888 207.317H207.488C207.124 207.324 206.771 207.169 206.502 206.885C206.232 206.6 206.066 206.206 206.038 205.785C203.508 162.062 207.978 140.277 210.488 132.187Z" fill="#263238"/>
<path d="M251.119 125.054C248.43 124.607 245.723 124.321 243.009 124.196C242.517 124.154 242.029 124.315 241.63 124.651C241.231 124.986 240.948 125.475 240.829 126.029C237.719 141.93 234.949 177.261 234.829 205.686C234.833 205.902 234.873 206.116 234.948 206.314C235.023 206.512 235.131 206.691 235.266 206.841C235.4 206.991 235.559 207.109 235.733 207.187C235.907 207.266 236.092 207.304 236.279 207.299H251.279C251.65 207.309 252.01 207.149 252.281 206.854C252.552 206.558 252.713 206.152 252.729 205.721C252.829 199.999 252.149 186.593 252.729 169.949C253.283 158.089 254.566 146.29 256.569 134.642C257.089 131.38 254.089 125.542 251.119 125.054Z" fill="#263238"/>
<path d="M256.358 130.098C259.568 135.716 262.488 141.345 265.248 147.253C266.608 150.213 267.948 153.219 269.158 156.376C269.758 157.954 270.348 159.568 270.898 161.274C271.504 163.119 271.972 165.022 272.298 166.961C272.544 168.374 272.598 169.823 272.458 171.255C272.294 172.415 272.036 173.553 271.688 174.656C271.117 176.454 270.418 178.193 269.598 179.856C268.126 182.871 266.486 185.771 264.688 188.538C261.229 193.895 257.446 198.961 253.368 203.696C252.896 204.244 252.268 204.572 251.602 204.618C250.936 204.663 250.279 204.423 249.756 203.943C249.232 203.463 248.879 202.777 248.763 202.014C248.648 201.252 248.777 200.467 249.128 199.808V199.738C252.038 194.295 254.978 188.747 257.638 183.245C258.958 180.506 260.218 177.72 261.228 175.028C262.238 172.335 262.978 169.387 262.458 169.306C262.139 168.071 261.751 166.861 261.298 165.684C260.798 164.361 260.228 162.991 259.628 161.634C258.408 158.906 257.098 156.132 255.728 153.404C252.988 147.926 250.068 142.401 247.178 137.051V136.981C246.391 135.568 246.121 133.85 246.425 132.206C246.73 130.561 247.585 129.125 248.803 128.212C250.02 127.299 251.5 126.985 252.917 127.339C254.333 127.693 255.571 128.685 256.358 130.098Z" fill="#FFC3BD"/>
<path d="M250.142 124.898C256.582 124.758 259.993 131.084 264.213 141.147C259.433 151.419 250.312 155.864 250.312 155.864C250.312 155.864 237.482 125.153 250.142 124.898Z" fill="#E0E0E0"/>
<path d="M246.839 199.505L243.129 200.874L249.999 206.933C249.999 206.933 255.619 203.544 253.859 200.468L252.719 199.876C250.864 198.926 248.773 198.794 246.839 199.505Z" fill="#FFC3BD"/>
<path d="M241.046 206.191L245.216 211.054C245.351 211.207 245.511 211.325 245.687 211.402C245.864 211.479 246.052 211.512 246.24 211.5C246.428 211.488 246.612 211.431 246.78 211.333C246.948 211.234 247.096 211.096 247.216 210.927L249.986 206.934L243.116 200.875L240.976 204.276C240.778 204.547 240.676 204.895 240.689 205.25C240.702 205.604 240.829 205.94 241.046 206.191Z" fill="#FFC3BD"/>
<path opacity="0.2" d="M229.737 113.745C229.928 114.721 230.068 115.709 230.157 116.705C232.637 117.436 236.157 114.14 236.487 111.342C236.529 110.115 236.462 108.886 236.287 107.675L229.737 113.745Z" fill="black"/>
<path d="M245.232 94.9349C243.542 103.501 242.942 108.608 238.402 112.426C236.916 113.687 235.17 114.468 233.34 114.691C231.51 114.913 229.662 114.568 227.984 113.692C226.306 112.816 224.858 111.439 223.788 109.701C222.718 107.964 222.064 105.929 221.892 103.802C221.312 95.7706 224.172 83.1078 232.252 80.8561C240.332 78.6044 246.922 86.3576 245.232 94.9349Z" fill="#FFC3BD"/>
<path d="M241.793 102.43C239.653 102.558 237.373 93.7949 242.093 89.5701C241.343 90.046 239.293 89.1755 239.653 87.5389C238.263 88.2121 232.183 87.922 233.653 85.0551C230.563 85.9837 223.823 84.4284 223.103 81.0044C222.383 77.5804 225.863 77.4644 226.403 77.917C224.873 75.4332 224.903 71.7887 228.963 70.4656C233.023 69.1424 239.143 75.9555 239.143 75.9555C238.503 74.1565 240.753 72.7056 243.083 74.2493C245.413 75.793 246.503 80.1803 246.503 80.1803C246.503 78.8572 251.943 80.633 249.363 86.181C252.033 87.3416 253.253 88.9898 253.083 91.8566C252.913 94.7235 251.223 94.886 251.223 94.886C251.581 95.9181 251.63 97.0596 251.364 98.1282C251.097 99.1969 250.53 100.131 249.753 100.782C246.983 103.37 244.563 100.329 241.793 102.43Z" fill="#263238"/>
<path d="M246.048 103.093C245.108 104.69 243.719 105.86 242.118 106.401C240.058 107.039 239.358 104.904 240.198 102.675C240.958 100.667 242.938 97.9048 244.878 98.253C246.818 98.6012 247.208 101.097 246.048 103.093Z" fill="#FFC3BD"/>
<path d="M233.002 94.5848C232.902 95.2812 232.482 95.8035 232.072 95.7454C231.662 95.6874 231.402 95.0607 231.502 94.3527C231.602 93.6446 232.022 93.192 232.432 93.192C232.842 93.192 233.052 93.8768 233.002 94.5848Z" fill="#263238"/>
<path d="M225.668 93.0415C225.568 93.7495 225.158 94.2718 224.748 94.2021C224.338 94.1325 224.078 93.5173 224.178 92.8093C224.278 92.1013 224.688 91.6487 225.098 91.6487C225.508 91.6487 225.768 92.3451 225.668 93.0415Z" fill="#263238"/>
<path d="M228.55 94.6219C227.484 96.6645 226.182 98.5274 224.68 100.158C225.069 100.583 225.531 100.906 226.037 101.106C226.542 101.306 227.078 101.379 227.61 101.319L228.55 94.6219Z" fill="#ED847E"/>
<path d="M228.913 104.778C229.64 104.873 230.377 104.799 231.079 104.56C231.781 104.321 232.435 103.921 233.003 103.385C233.036 103.344 233.054 103.29 233.054 103.234C233.054 103.178 233.036 103.124 233.003 103.083C232.967 103.047 232.921 103.027 232.873 103.027C232.825 103.027 232.779 103.047 232.743 103.083C232.119 103.658 231.391 104.061 230.613 104.262C229.835 104.463 229.028 104.457 228.253 104.244C228.229 104.237 228.205 104.236 228.181 104.24C228.157 104.245 228.134 104.255 228.113 104.27C228.092 104.285 228.075 104.305 228.061 104.329C228.047 104.352 228.038 104.378 228.033 104.406C228.027 104.433 228.026 104.461 228.03 104.488C228.034 104.515 228.043 104.541 228.056 104.564C228.07 104.587 228.087 104.607 228.107 104.621C228.127 104.636 228.15 104.646 228.173 104.65C228.417 104.714 228.664 104.756 228.913 104.778Z" fill="#263238"/>
<path d="M233.285 89.7544C233.225 89.7731 233.17 89.809 233.125 89.8589C233.091 89.8969 233.063 89.9427 233.044 89.9936C233.025 90.0445 233.015 90.0994 233.015 90.1548C233.015 90.2103 233.025 90.2652 233.044 90.3161C233.063 90.367 233.091 90.4128 233.125 90.4508C233.515 90.9562 234.004 91.3447 234.55 91.5832C235.097 91.8217 235.686 91.9031 236.265 91.8204C236.313 91.8149 236.36 91.7979 236.402 91.7705C236.444 91.7431 236.481 91.7058 236.51 91.6611C236.539 91.6165 236.56 91.5653 236.571 91.5108C236.583 91.4563 236.584 91.3997 236.575 91.3445C236.567 91.2888 236.549 91.2356 236.523 91.188C236.497 91.1403 236.463 91.0991 236.423 91.0668C236.383 91.0344 236.338 91.0115 236.29 90.9995C236.243 90.9874 236.193 90.9863 236.145 90.9963C235.687 91.0433 235.225 90.9625 234.799 90.7606C234.373 90.5587 233.995 90.2416 233.695 89.8357C233.64 89.7798 233.573 89.7426 233.5 89.7283C233.428 89.714 233.354 89.723 233.285 89.7544Z" fill="#263238"/>
<path d="M223.618 87.6513C223.673 87.6798 223.733 87.6945 223.793 87.6945C223.854 87.6945 223.913 87.6798 223.968 87.6513C224.395 87.4042 224.864 87.2689 225.341 87.2549C225.817 87.2408 226.291 87.3484 226.728 87.5701C226.814 87.6262 226.914 87.6418 227.009 87.6137C227.105 87.5856 227.187 87.5159 227.238 87.4192C227.282 87.3185 227.291 87.2023 227.263 87.0944C227.235 86.9865 227.172 86.8951 227.088 86.8389C226.548 86.5383 225.957 86.3822 225.358 86.3822C224.759 86.3822 224.168 86.5383 223.628 86.8389C223.585 86.861 223.545 86.8935 223.513 86.9343C223.481 86.9752 223.456 87.0235 223.441 87.076C223.426 87.1286 223.421 87.1842 223.425 87.2394C223.43 87.2945 223.445 87.3479 223.468 87.396C223.491 87.4989 223.544 87.5893 223.618 87.6513Z" fill="#263238"/>
</svg>
