<svg width="362" height="315" viewBox="0 0 362 315" fill="none" xmlns="http://www.w3.org/2000/svg">
<g filter="url(#filter0_d)">
<circle cx="242.749" cy="215.413" r="87.7184" transform="rotate(0.0676731 242.749 215.413)" fill="url(#paint0_linear)"/>
<g filter="url(#filter1_d)">
<path d="M332.103 162.184C325.616 151.807 318.392 141.715 311.759 133.768C306.738 127.751 299.474 119.879 293.384 116.549C288.558 113.909 280.919 111.733 272.948 110.728C267.935 110.096 258.767 109.449 253.683 112.218C249.229 114.643 247.163 123.607 246.327 128.733C244.992 136.921 244.816 147.97 248.711 152.159C250.727 154.327 253.7 155.475 257.31 155.478C257.315 155.478 257.321 155.478 257.326 155.478C262.974 155.48 269.444 152.607 273.426 148.329C274.951 146.689 275.631 146.857 279.175 148.646C282.313 150.231 286.61 152.402 292.836 151.718C292.874 151.713 292.902 151.713 292.918 151.713C293.056 151.83 293.835 152.661 294.228 156.808C294.549 160.202 294.517 164.718 294.483 169.499C294.415 179.245 294.339 189.964 296.805 198.356C293.331 196.688 288.72 194.891 283.299 193.772C272.411 191.524 256.179 191.718 239.798 204.908C237.692 203.151 233.786 200.254 228.676 198.063C218.301 193.616 207.957 194.226 198.761 199.831C193.346 203.131 189.043 208.363 186.318 214.962C183.814 221.026 182.729 227.944 183.181 234.968C184.112 249.442 191.401 261.42 202.203 266.229C212.025 270.602 233.191 272.382 251.665 272.403C265.207 272.419 277.303 271.491 282.421 269.947C289.613 267.776 306.859 261.022 322.515 252.136C343.453 240.253 354.38 228.754 354.993 217.959C355.918 201.663 337.706 171.148 332.103 162.184Z" fill="url(#paint1_linear)"/>
<path d="M355.022 216.747C355.024 214.463 354.712 212.184 354.254 209.95C350.825 193.144 336.88 169.828 332.101 162.183C325.615 151.807 318.39 141.715 311.758 133.768C306.736 127.751 299.472 119.879 293.383 116.548C288.557 113.908 280.917 111.732 272.946 110.728C270.309 110.396 266.523 110.059 262.787 110.218C270.18 111.298 277.142 113.358 281.649 115.824C287.738 119.154 295.002 127.027 300.024 133.043C306.656 140.99 313.881 151.082 320.367 161.459C325.971 170.423 344.182 200.938 343.258 217.235C343.182 218.572 342.947 219.92 342.555 221.278C341.253 225.787 338.346 229.655 334.527 232.382C330.818 235.029 326.593 237.7 321.852 240.391C306.196 249.276 288.951 256.03 281.758 258.201C276.64 259.745 264.544 260.674 251.002 260.658C232.529 260.636 211.363 258.856 201.541 254.484C192.128 250.293 185.385 240.658 183.189 228.673C183.049 230.748 183.043 232.853 183.18 234.969C184.111 249.442 191.4 261.421 202.202 266.23C208.488 269.028 219.423 270.763 231.324 271.657C236.511 272.044 241.711 272.27 246.913 272.359C248.496 272.386 250.08 272.402 251.664 272.404C265.206 272.42 277.302 271.491 282.42 269.947C289.612 267.776 306.858 261.022 322.514 252.137C343.452 240.253 354.379 228.755 354.992 217.96C355.014 217.556 355.022 217.151 355.022 216.747Z" fill="url(#paint2_linear)"/>
</g>
</g>
<g filter="url(#filter2_d)">
<ellipse cx="158.584" cy="144.202" rx="95.9384" ry="95.4316" transform="rotate(0.433296 158.584 144.202)" fill="#B57A44"/>
<g filter="url(#filter3_d)">
<path d="M245.183 103.986L249.944 99.3213C250.362 98.9186 250.695 98.4376 250.925 97.906C251.155 97.3744 251.277 96.8028 251.284 96.2242C251.29 95.6455 251.182 95.0712 250.964 94.5345C250.747 93.9977 250.425 93.5091 250.016 93.0968C249.608 92.6845 249.122 92.3566 248.586 92.1322C248.049 91.9078 247.474 91.7912 246.892 91.7891C246.31 91.7871 245.734 91.8996 245.196 92.1203C244.658 92.341 244.17 92.6654 243.759 93.0748L238.803 97.9299C230.552 91.0655 220.737 86.3144 210.215 84.0911L210.292 74.0015L214.699 74.0348C215.867 74.0437 216.992 73.5903 217.825 72.7744C218.657 71.9586 219.13 70.847 219.139 69.6844L219.249 55.0719C219.258 53.9092 218.802 52.7907 217.982 51.9623C217.162 51.1339 216.044 50.6636 214.875 50.6548L179.619 50.3881C178.45 50.3793 177.326 50.8327 176.493 51.6485C175.66 52.4644 175.188 53.5759 175.179 54.7386L175.068 69.3511C175.06 70.5138 175.515 71.6323 176.336 72.4607C177.156 73.289 178.273 73.7594 179.442 73.7682L183.849 73.8015L183.773 83.8911C173.219 85.955 163.333 90.5572 154.979 97.296L150.098 92.3665C149.693 91.9509 149.209 91.6191 148.675 91.3904C148.141 91.1616 147.566 91.0403 146.984 91.0336C146.402 91.0268 145.825 91.1347 145.285 91.351C144.746 91.5673 144.255 91.8877 143.84 92.2938C143.426 92.6999 143.096 93.1836 142.871 93.717C142.645 94.2504 142.528 94.823 142.526 95.4017C142.524 95.9804 142.637 96.5538 142.859 97.0888C143.081 97.6237 143.407 98.1097 143.819 98.5187L148.509 103.255C136.989 115.318 130.515 131.288 130.401 147.926C130.127 184.184 159.559 213.906 196.01 214.182C232.46 214.458 262.338 185.183 262.613 148.925C262.75 132.288 256.519 116.222 245.183 103.986ZM183.96 59.189L210.402 59.389L210.358 65.234L183.916 65.034L183.96 59.189ZM192.663 73.8682L201.478 73.9348L201.41 82.8521C199.954 82.745 198.485 82.6802 197.004 82.669C195.523 82.6578 194.054 82.7004 192.596 82.7855L192.663 73.8682ZM196.076 205.414C164.485 205.175 138.978 179.416 139.215 147.992C139.453 116.568 165.347 91.1977 196.938 91.4366C228.529 91.6755 254.036 117.435 253.798 148.859C253.561 180.283 227.667 205.653 196.076 205.414Z" fill="#C9905B"/>
<path d="M196.873 100.204C170.142 100.002 148.232 121.47 148.031 148.059C147.83 174.648 169.413 196.445 196.144 196.647C222.874 196.849 244.785 175.382 244.986 148.792C245.187 122.203 223.604 100.406 196.873 100.204ZM235.959 144.34L200.949 144.075L201.212 109.25C210.141 110.325 218.439 114.38 224.751 120.754C231.062 127.128 235.013 135.443 235.959 144.34ZM196.21 187.879C186.073 187.802 176.351 183.867 169.039 176.882C161.728 169.897 157.382 160.393 156.894 150.321C156.406 140.25 159.813 130.375 166.416 122.724C173.019 115.074 182.316 110.228 192.398 109.183L192.101 148.392C192.092 149.555 192.548 150.673 193.369 151.502C194.189 152.33 195.306 152.801 196.475 152.809L235.893 153.107C234.724 162.739 230.034 171.606 222.715 178.018C215.397 184.431 205.963 187.941 196.21 187.879Z" fill="#C9905B"/>
<path d="M126.229 117.206L96.8485 116.983C95.6796 116.975 94.5552 117.428 93.7225 118.244C92.8898 119.06 92.417 120.171 92.4083 121.334C92.3995 122.497 92.8553 123.615 93.6756 124.443C94.4959 125.272 95.6133 125.742 96.7821 125.751L126.162 125.973C127.331 125.982 128.456 125.529 129.288 124.713C130.121 123.897 130.594 122.785 130.603 121.623C130.611 120.46 130.156 119.342 129.335 118.513C128.515 117.685 127.398 117.215 126.229 117.206Z" fill="#C9905B"/>
<path d="M124.458 156.649C124.467 155.486 124.011 154.367 123.191 153.539C122.37 152.711 121.253 152.24 120.084 152.231L90.7039 152.009C89.5351 152 88.4107 152.454 87.578 153.27C86.7453 154.085 86.2725 155.197 86.2637 156.36C86.2549 157.522 86.7108 158.641 87.5311 159.469C88.3513 160.298 89.4688 160.768 90.6376 160.777L120.018 160.999C121.187 161.008 122.311 160.554 123.144 159.739C123.977 158.923 124.449 157.811 124.458 156.649Z" fill="#C9905B"/>
<path d="M122.892 169.789L102.326 169.633C101.157 169.625 100.033 170.078 99.2 170.894C98.3673 171.71 97.8946 172.821 97.8858 173.984C97.877 175.147 98.3329 176.265 99.1531 177.093C99.9734 177.922 101.091 178.392 102.26 178.401L122.826 178.557C123.995 178.565 125.119 178.112 125.952 177.296C126.785 176.48 127.257 175.369 127.266 174.206C127.275 173.043 126.819 171.925 125.999 171.097C125.178 170.268 124.061 169.798 122.892 169.789Z" fill="#C9905B"/>
<path d="M124.591 139.114C124.599 137.951 124.143 136.832 123.323 136.004C122.503 135.176 121.385 134.705 120.217 134.697L82.0223 134.408C80.8535 134.399 79.729 134.852 78.8963 135.668C78.0636 136.484 77.5909 137.595 77.5821 138.758C77.5733 139.921 78.0292 141.039 78.8494 141.868C79.6697 142.696 80.7872 143.166 81.956 143.175L120.15 143.464C121.319 143.473 122.444 143.019 123.276 142.204C124.109 141.388 124.582 140.276 124.591 139.114Z" fill="#C9905B"/>
</g>
</g>
<circle cx="100.673" cy="100.673" r="100" transform="rotate(-0.386833 100.673 100.673)" fill="url(#paint3_linear)"/>
<g filter="url(#filter4_d)">
<path d="M45.1729 141.782C45.7627 144.383 47.347 146.476 49.4315 147.755C51.5072 149.029 54.0781 149.495 56.655 148.853L103.809 137.108C108.975 135.821 112.209 130.57 111.032 125.378C109.855 120.184 104.713 117.02 99.5499 118.307L52.3963 130.052C47.2304 131.338 43.997 136.59 45.1729 141.782Z" fill="url(#paint4_linear)"/>
<path d="M67.4395 118.397C72.0515 121.226 78.1261 119.713 81.007 115.018C83.8879 110.322 82.485 104.221 77.8725 101.392C73.2606 98.5621 67.1859 100.075 64.305 104.771C61.4241 109.466 62.8276 115.567 67.4395 118.397Z" fill="url(#paint5_linear)"/>
<path d="M78.3331 165.755C82.9452 168.585 89.0196 167.072 91.9006 162.376C94.7816 157.68 93.3782 151.579 88.766 148.75C84.1539 145.92 78.0795 147.433 75.1986 152.129C72.3176 156.825 73.721 162.925 78.3331 165.755Z" fill="url(#paint6_linear)"/>
</g>
<g filter="url(#filter5_d)">
<path d="M142.971 49.3608C139.164 45.6183 133.046 45.6687 129.303 49.4757C125.56 53.2814 125.611 59.4004 129.418 63.1436L139.877 73.4284L129.558 83.8535C125.803 87.6477 125.834 93.767 129.628 97.5218C131.529 99.4033 134.014 100.334 136.492 100.318C138.96 100.301 141.423 99.3449 143.296 97.4521L153.66 86.9815L164.165 97.3112C166.064 99.1786 168.538 100.101 171.006 100.085C173.485 100.068 175.957 99.1034 177.833 97.1963C181.576 93.3906 181.524 87.2715 177.718 83.5284L167.259 73.2435L177.578 62.8184C181.333 59.0242 181.302 52.905 177.508 49.1502C173.713 45.3947 167.594 45.4257 163.84 49.2199L153.476 59.6904L142.971 49.3608Z" fill="url(#paint7_linear)"/>
</g>
<g filter="url(#filter6_d)">
<path d="M55.3309 67.4902L55.2416 54.2505L68.5534 54.1606C73.3738 54.1281 77.2554 50.1937 77.2228 45.3733C77.1903 40.553 73.2559 36.6714 68.4356 36.7039L55.1237 36.7938L55.0343 23.5541C55.0018 18.7337 51.0674 14.8522 46.247 14.8847C41.4267 14.9172 37.5451 18.8516 37.5776 23.672L37.667 36.9117L24.3552 37.0016C19.5348 37.0341 15.6532 40.9684 15.6858 45.7888C15.7183 50.6092 19.6527 54.4908 24.473 54.4582L37.7849 54.3683L37.8743 67.608C37.9068 72.4284 41.8412 76.31 46.6615 76.2774C51.4819 76.2449 55.3635 72.3105 55.3309 67.4902Z" fill="url(#paint8_linear)"/>
</g>
<g filter="url(#filter7_d)">
<path d="M189.188 147.769L145.107 148.067C140.287 148.099 136.405 152.034 136.438 156.854C136.47 161.674 140.405 165.556 145.225 165.523L189.305 165.226C194.126 165.193 198.007 161.259 197.975 156.438C197.942 151.618 194.008 147.736 189.188 147.769Z" fill="url(#paint9_linear)"/>
</g>
<defs>
<filter id="filter0_d" x="148.848" y="109.068" width="212.384" height="205.312" filterUnits="userSpaceOnUse" color-interpolation-filters="sRGB">
<feFlood flood-opacity="0" result="BackgroundImageFix"/>
<feColorMatrix in="SourceAlpha" type="matrix" values="0 0 0 0 0 0 0 0 0 0 0 0 0 0 0 0 0 0 127 0"/>
<feOffset dy="5.0657"/>
<feGaussianBlur stdDeviation="3.03942"/>
<feColorMatrix type="matrix" values="0 0 0 0 0 0 0 0 0 0 0 0 0 0 0 0 0 0 0.25 0"/>
<feBlend mode="normal" in2="BackgroundImageFix" result="effect1_dropShadow"/>
<feBlend mode="normal" in="SourceGraphic" in2="effect1_dropShadow" result="shape"/>
</filter>
<filter id="filter1_d" x="178.981" y="109.068" width="180.225" height="170.55" filterUnits="userSpaceOnUse" color-interpolation-filters="sRGB">
<feFlood flood-opacity="0" result="BackgroundImageFix"/>
<feColorMatrix in="SourceAlpha" type="matrix" values="0 0 0 0 0 0 0 0 0 0 0 0 0 0 0 0 0 0 127 0"/>
<feOffset dy="3.03942"/>
<feGaussianBlur stdDeviation="2.02628"/>
<feColorMatrix type="matrix" values="0 0 0 0 0 0 0 0 0 0 0 0 0 0 0 0 0 0 0.25 0"/>
<feBlend mode="normal" in2="BackgroundImageFix" result="effect1_dropShadow"/>
<feBlend mode="normal" in="SourceGraphic" in2="effect1_dropShadow" result="shape"/>
</filter>
<filter id="filter2_d" x="43.9268" y="31.0477" width="223.427" height="214.309" filterUnits="userSpaceOnUse" color-interpolation-filters="sRGB">
<feFlood flood-opacity="0" result="BackgroundImageFix"/>
<feColorMatrix in="SourceAlpha" type="matrix" values="0 0 0 0 0 0 0 0 0 0 0 0 0 0 0 0 0 0 127 0"/>
<feOffset dx="-7" dy="-6"/>
<feGaussianBlur stdDeviation="5.5"/>
<feColorMatrix type="matrix" values="0 0 0 0 0 0 0 0 0 0 0 0 0 0 0 0 0 0 0.25 0"/>
<feBlend mode="normal" in2="BackgroundImageFix" result="effect1_dropShadow"/>
<feBlend mode="normal" in="SourceGraphic" in2="effect1_dropShadow" result="shape"/>
</filter>
<filter id="filter3_d" x="72.3718" y="43.1188" width="196.159" height="175.014" filterUnits="userSpaceOnUse" color-interpolation-filters="sRGB">
<feFlood flood-opacity="0" result="BackgroundImageFix"/>
<feColorMatrix in="SourceAlpha" type="matrix" values="0 0 0 0 0 0 0 0 0 0 0 0 0 0 0 0 0 0 127 0"/>
<feOffset dy="-1.72567"/>
<feGaussianBlur stdDeviation="2.58851"/>
<feColorMatrix type="matrix" values="0 0 0 0 0 0 0 0 0 0 0 0 0 0 0 0 0 0 0.25 0"/>
<feBlend mode="normal" in2="BackgroundImageFix" result="effect1_dropShadow"/>
<feBlend mode="normal" in="SourceGraphic" in2="effect1_dropShadow" result="shape"/>
</filter>
<filter id="filter4_d" x="32.9617" y="96.2682" width="90.2811" height="91.2944" filterUnits="userSpaceOnUse" color-interpolation-filters="sRGB">
<feFlood flood-opacity="0" result="BackgroundImageFix"/>
<feColorMatrix in="SourceAlpha" type="matrix" values="0 0 0 0 0 0 0 0 0 0 0 0 0 0 0 0 0 0 127 0"/>
<feOffset dy="8.34204"/>
<feGaussianBlur stdDeviation="4.17102"/>
<feColorMatrix type="matrix" values="0 0 0 0 0 0 0 0 0 0 0 0 0 0 0 0 0 0 0.25 0"/>
<feBlend mode="normal" in2="BackgroundImageFix" result="effect1_dropShadow"/>
<feBlend mode="normal" in="SourceGraphic" in2="effect1_dropShadow" result="shape"/>
</filter>
<filter id="filter5_d" x="118.122" y="46.2888" width="70.8918" height="70.7783" filterUnits="userSpaceOnUse" color-interpolation-filters="sRGB">
<feFlood flood-opacity="0" result="BackgroundImageFix"/>
<feColorMatrix in="SourceAlpha" type="matrix" values="0 0 0 0 0 0 0 0 0 0 0 0 0 0 0 0 0 0 127 0"/>
<feOffset dy="8.34204"/>
<feGaussianBlur stdDeviation="4.17102"/>
<feColorMatrix type="matrix" values="0 0 0 0 0 0 0 0 0 0 0 0 0 0 0 0 0 0 0.25 0"/>
<feBlend mode="normal" in2="BackgroundImageFix" result="effect1_dropShadow"/>
<feBlend mode="normal" in="SourceGraphic" in2="effect1_dropShadow" result="shape"/>
</filter>
<filter id="filter6_d" x="7.13647" y="14.677" width="78.6356" height="78.4923" filterUnits="userSpaceOnUse" color-interpolation-filters="sRGB">
<feFlood flood-opacity="0" result="BackgroundImageFix"/>
<feColorMatrix in="SourceAlpha" type="matrix" values="0 0 0 0 0 0 0 0 0 0 0 0 0 0 0 0 0 0 127 0"/>
<feOffset dy="8.34204"/>
<feGaussianBlur stdDeviation="4.17102"/>
<feColorMatrix type="matrix" values="0 0 0 0 0 0 0 0 0 0 0 0 0 0 0 0 0 0 0.25 0"/>
<feBlend mode="normal" in2="BackgroundImageFix" result="effect1_dropShadow"/>
<feBlend mode="normal" in="SourceGraphic" in2="effect1_dropShadow" result="shape"/>
</filter>
<filter id="filter7_d" x="128.037" y="147.71" width="78.339" height="34.5562" filterUnits="userSpaceOnUse" color-interpolation-filters="sRGB">
<feFlood flood-opacity="0" result="BackgroundImageFix"/>
<feColorMatrix in="SourceAlpha" type="matrix" values="0 0 0 0 0 0 0 0 0 0 0 0 0 0 0 0 0 0 127 0"/>
<feOffset dy="8.34204"/>
<feGaussianBlur stdDeviation="4.17102"/>
<feColorMatrix type="matrix" values="0 0 0 0 0 0 0 0 0 0 0 0 0 0 0 0 0 0 0.25 0"/>
<feBlend mode="normal" in2="BackgroundImageFix" result="effect1_dropShadow"/>
<feBlend mode="normal" in="SourceGraphic" in2="effect1_dropShadow" result="shape"/>
</filter>
<linearGradient id="paint0_linear" x1="242.749" y1="292.606" x2="253.275" y2="138.221" gradientUnits="userSpaceOnUse">
<stop stop-color="#AB4146"/>
<stop offset="1" stop-color="#CC6368"/>
</linearGradient>
<linearGradient id="paint1_linear" x1="282.933" y1="118.311" x2="270.493" y2="272.545" gradientUnits="userSpaceOnUse">
<stop stop-color="#E4777C"/>
<stop offset="1" stop-color="#FF464F"/>
</linearGradient>
<linearGradient id="paint2_linear" x1="282.931" y1="118.311" x2="270.491" y2="272.545" gradientUnits="userSpaceOnUse">
<stop stop-color="#E4777C"/>
<stop offset="1" stop-color="#FF464F"/>
</linearGradient>
<linearGradient id="paint3_linear" x1="100.673" y1="119.134" x2="100.673" y2="200.673" gradientUnits="userSpaceOnUse">
<stop stop-color="#4F53BF"/>
<stop offset="1" stop-color="#8F91CE"/>
</linearGradient>
<linearGradient id="paint4_linear" x1="19.9595" y1="108.917" x2="63.9435" y2="156.658" gradientUnits="userSpaceOnUse">
<stop stop-color="#A4A6EE"/>
<stop offset="1" stop-color="#5357C0"/>
</linearGradient>
<linearGradient id="paint5_linear" x1="56.0296" y1="96.3593" x2="67.4395" y2="118.397" gradientUnits="userSpaceOnUse">
<stop stop-color="#A4A6EE"/>
<stop offset="1" stop-color="#5357C0"/>
</linearGradient>
<linearGradient id="paint6_linear" x1="88.766" y1="148.75" x2="78.3331" y2="165.755" gradientUnits="userSpaceOnUse">
<stop stop-color="#A4A6EE"/>
<stop offset="1" stop-color="#5357C0"/>
</linearGradient>
<linearGradient id="paint7_linear" x1="104.786" y1="26.029" x2="153.749" y2="100.201" gradientUnits="userSpaceOnUse">
<stop stop-color="#A4A6EE"/>
<stop offset="1" stop-color="#5357C0"/>
</linearGradient>
<linearGradient id="paint8_linear" x1="46.247" y1="14.8847" x2="68.9957" y2="80.1172" gradientUnits="userSpaceOnUse">
<stop stop-color="#A4A6EE"/>
<stop offset="1" stop-color="#4F53BF" stop-opacity="0"/>
<stop offset="1" stop-color="#5357C0"/>
</linearGradient>
<linearGradient id="paint9_linear" x1="158.567" y1="130.283" x2="167.265" y2="165.375" gradientUnits="userSpaceOnUse">
<stop stop-color="#A4A6EE"/>
<stop offset="1" stop-color="#5357C0"/>
</linearGradient>
</defs>
</svg>
