<svg width="414" height="466" viewBox="0 0 414 466" fill="none" xmlns="http://www.w3.org/2000/svg">
<path d="M226.092 465.507C115.583 465.507 25.9975 459.596 25.9975 452.303C25.9975 445.011 115.583 439.1 226.092 439.1C336.601 439.1 426.187 445.011 426.187 452.303C426.187 459.596 336.601 465.507 226.092 465.507Z" fill="#F5F5F5"/>
<path d="M249.344 27.4355C306.218 45.5173 355.692 87.7887 377.304 139.602C389.575 169.036 393.38 205.483 379.711 233.983C366.238 262.04 341.744 276.838 310.541 286.45C276.206 297.023 244.918 306.17 222.576 333.488C197.608 364.034 187.243 398.363 143.709 412.322C112.167 422.396 74.8738 418.091 45.5718 400.974C27.3498 390.325 11.8236 374.193 6.99722 355.135C2.53945 337.567 7.46385 319.553 14.5693 303.273C24.7296 279.905 43.0439 254 38.0186 227.065C29.6566 182.288 0.625582 143.796 41.7853 79.4041C73.6563 29.5876 132.188 7.79703 193.983 15.5268C212.798 17.816 231.342 21.8051 249.344 27.4355Z" fill="#263238" fill-opacity="0.85"/>
<path d="M127.602 361.71C127.52 362.52 127.19 363.288 126.656 363.916C126.121 364.544 125.405 365.003 124.599 365.237C123.792 365.47 122.93 365.466 122.123 365.226C121.316 364.986 120.6 364.52 120.064 363.888C119.529 363.256 119.198 362.485 119.115 361.674C119.031 360.862 119.199 360.046 119.595 359.329C119.992 358.611 120.601 358.025 121.344 357.644C122.087 357.262 122.932 357.103 123.771 357.186C124.329 357.241 124.87 357.402 125.365 357.659C125.859 357.917 126.296 358.265 126.652 358.685C127.008 359.105 127.275 359.589 127.438 360.108C127.601 360.627 127.657 361.171 127.602 361.71Z" fill="white"/>
<path d="M313.258 139.957C313.173 140.768 312.814 141.534 312.226 142.157C311.637 142.781 310.846 143.235 309.952 143.462C309.058 143.688 308.101 143.678 307.203 143.431C306.305 143.184 305.505 142.712 304.905 142.075C304.305 141.438 303.932 140.664 303.833 139.852C303.734 139.039 303.913 138.224 304.347 137.509C304.782 136.795 305.453 136.213 306.275 135.837C307.097 135.462 308.034 135.31 308.967 135.4C309.586 135.459 310.189 135.625 310.74 135.886C311.291 136.148 311.78 136.5 312.178 136.923C312.577 137.347 312.877 137.832 313.063 138.353C313.248 138.874 313.314 139.419 313.258 139.957Z" fill="white"/>
<path d="M86.6376 107.392C86.5551 108.204 86.1975 108.97 85.6102 109.596C85.0229 110.221 84.2323 110.676 83.3383 110.904C82.4443 111.133 81.4872 111.123 80.5882 110.877C79.6891 110.632 78.8884 110.16 78.2874 109.524C77.6865 108.887 77.3123 108.113 77.2122 107.3C77.1121 106.487 77.2906 105.671 77.725 104.956C78.1595 104.241 78.8305 103.659 79.6531 103.283C80.4756 102.907 81.4128 102.754 82.3459 102.844C82.9651 102.903 83.5675 103.067 84.1185 103.328C84.6696 103.588 85.1585 103.94 85.5571 104.362C85.9558 104.785 86.2565 105.27 86.4419 105.79C86.6273 106.31 86.6938 106.854 86.6376 107.392Z" fill="white"/>
<path d="M186.749 13.598C186.66 14.4905 186.297 15.3362 185.705 16.0278C185.112 16.7195 184.318 17.2261 183.422 17.4836C182.525 17.7411 181.568 17.7378 180.67 17.4742C179.772 17.2106 178.975 16.6985 178.378 16.0028C177.781 15.3071 177.413 14.4589 177.319 13.5657C177.224 12.6725 177.409 11.7744 177.849 10.985C178.289 10.1956 178.965 9.55041 179.791 9.13109C180.616 8.71177 181.555 8.53715 182.488 8.62935C183.737 8.75278 184.888 9.34531 185.687 10.2769C186.485 11.2084 186.867 12.4028 186.749 13.598Z" fill="white"/>
<path d="M63.6382 173.869C63.5518 174.762 63.1901 175.609 62.599 176.302C62.0079 176.995 61.2141 177.504 60.3179 177.763C59.4218 178.022 58.4638 178.02 57.5652 177.758C56.6665 177.495 55.8678 176.984 55.2701 176.288C54.6724 175.593 54.3026 174.745 54.2076 173.851C54.1126 172.957 54.2967 172.059 54.7365 171.269C55.1763 170.479 55.8521 169.833 56.6782 169.413C57.5043 168.993 58.4435 168.819 59.377 168.911C59.9952 168.971 60.5958 169.146 61.1445 169.428C61.6933 169.709 62.1794 170.091 62.5751 170.552C62.9708 171.012 63.2684 171.542 63.4508 172.111C63.6332 172.68 63.6969 173.278 63.6382 173.869Z" fill="white"/>
<path d="M81.5858 47.5183C81.5011 48.3289 81.1419 49.0946 80.5534 49.7183C79.9649 50.3421 79.1737 50.796 78.2797 51.0227C77.3857 51.2494 76.4291 51.2387 75.5308 50.9919C74.6326 50.7451 73.833 50.2733 73.2332 49.6362C72.6334 48.9991 72.2602 48.2253 72.161 47.4126C72.0617 46.5999 72.2407 45.7847 72.6754 45.0702C73.1101 44.3558 73.7811 43.774 74.6033 43.3985C75.4255 43.023 76.3621 42.8706 77.2948 42.9607C77.915 43.0193 78.5183 43.1838 79.07 43.4449C79.6218 43.706 80.1111 44.0584 80.5098 44.4819C80.9086 44.9054 81.2089 45.3917 81.3935 45.9128C81.5782 46.4339 81.6436 46.9795 81.5858 47.5183Z" fill="white"/>
<path d="M190.729 201.347C193.758 206.079 188.106 210.532 183.888 206.741C180.91 202.013 186.551 197.559 190.729 201.347Z" fill="white"/>
<path d="M165.512 337.559C165.596 336.424 166.723 335.583 168.028 335.68C169.333 335.777 170.322 336.776 170.238 337.911C170.153 339.046 169.027 339.887 167.722 339.79C166.417 339.693 165.428 338.694 165.512 337.559Z" fill="white"/>
<path d="M167.21 242.039C167.612 242.466 167.806 243.012 167.75 243.555C167.693 244.099 167.391 244.596 166.908 244.938C166.426 245.28 165.804 245.438 165.179 245.377C164.553 245.317 163.976 245.043 163.573 244.616C163.374 244.404 163.224 244.161 163.131 243.901C163.039 243.641 163.005 243.369 163.033 243.099C163.061 242.83 163.15 242.57 163.294 242.332C163.439 242.095 163.636 241.886 163.875 241.717C164.113 241.548 164.389 241.422 164.686 241.346C164.983 241.271 165.295 241.248 165.604 241.278C165.914 241.307 166.215 241.39 166.491 241.521C166.766 241.652 167.01 241.828 167.21 242.039Z" fill="white"/>
<path d="M258.835 229.673C262.192 234.883 255.935 239.769 251.259 235.606C247.901 230.397 254.16 225.499 258.835 229.673Z" fill="white"/>
<path d="M234.494 270.185C234.896 270.612 235.09 271.158 235.034 271.701C234.977 272.245 234.675 272.742 234.193 273.084C233.71 273.426 233.088 273.584 232.463 273.523C231.837 273.463 231.26 273.189 230.858 272.762C230.455 272.335 230.261 271.789 230.317 271.245C230.374 270.702 230.677 270.204 231.159 269.863C231.641 269.521 232.263 269.363 232.889 269.424C233.514 269.484 234.091 269.758 234.494 270.185Z" fill="white"/>
<path d="M130.691 154.012C130.649 154.418 130.47 154.801 130.176 155.114C129.882 155.427 129.487 155.654 129.04 155.768C128.592 155.882 128.113 155.877 127.664 155.754C127.214 155.63 126.814 155.394 126.514 155.076C126.213 154.757 126.027 154.369 125.977 153.963C125.928 153.556 126.018 153.148 126.236 152.79C126.454 152.433 126.79 152.142 127.202 151.955C127.614 151.768 128.083 151.692 128.55 151.738C129.174 151.8 129.749 152.074 130.15 152.5C130.551 152.926 130.746 153.47 130.691 154.012Z" fill="white"/>
<path d="M202.528 133.722C202.489 134.128 202.312 134.513 202.019 134.827C201.727 135.141 201.332 135.37 200.884 135.486C200.437 135.601 199.958 135.597 199.507 135.475C199.057 135.353 198.655 135.117 198.354 134.799C198.053 134.48 197.865 134.093 197.815 133.685C197.764 133.278 197.854 132.87 198.072 132.512C198.29 132.154 198.626 131.863 199.038 131.675C199.45 131.487 199.92 131.412 200.387 131.458C201.009 131.519 201.583 131.791 201.984 132.215C202.385 132.639 202.581 133.181 202.528 133.722Z" fill="white"/>
<path d="M289.68 226.987C289.641 227.394 289.463 227.778 289.171 228.092C288.878 228.406 288.483 228.636 288.036 228.751C287.588 228.867 287.109 228.863 286.659 228.741C286.208 228.618 285.807 228.383 285.505 228.064C285.204 227.746 285.016 227.358 284.966 226.951C284.916 226.544 285.005 226.135 285.223 225.777C285.441 225.419 285.777 225.128 286.19 224.94C286.602 224.753 287.071 224.677 287.538 224.723C288.16 224.785 288.734 225.057 289.135 225.481C289.536 225.905 289.732 226.446 289.68 226.987Z" fill="white"/>
<path d="M247.033 174.235C246.992 174.641 246.813 175.024 246.519 175.337C246.225 175.65 245.83 175.877 245.382 175.991C244.935 176.105 244.456 176.1 244.007 175.977C243.557 175.854 243.157 175.618 242.856 175.299C242.556 174.98 242.37 174.592 242.32 174.186C242.271 173.779 242.361 173.371 242.579 173.014C242.797 172.656 243.133 172.365 243.545 172.178C243.957 171.991 244.426 171.915 244.893 171.961C245.516 172.023 246.092 172.297 246.493 172.723C246.894 173.149 247.088 173.693 247.033 174.235Z" fill="white"/>
<path d="M98.0965 336.728C98.0552 337.134 97.8763 337.518 97.5824 337.83C97.2885 338.143 96.8928 338.371 96.4456 338.484C95.9983 338.598 95.5196 338.593 95.0699 338.47C94.6203 338.347 94.22 338.111 93.9198 337.792C93.6196 337.473 93.433 337.086 93.3836 336.679C93.3341 336.272 93.4242 335.864 93.6422 335.507C93.8603 335.149 94.1965 334.859 94.6084 334.671C95.0204 334.484 95.4894 334.409 95.9561 334.455C96.2654 334.484 96.5663 334.566 96.8416 334.696C97.1168 334.826 97.3609 335.002 97.5598 335.214C97.7587 335.425 97.9085 335.667 98.0006 335.927C98.0927 336.187 98.1253 336.459 98.0965 336.728Z" fill="white"/>
<path d="M51.3299 326.628C51.2907 327.034 51.1136 327.419 50.8209 327.733C50.5282 328.047 50.1331 328.276 49.6859 328.392C49.2386 328.507 48.7593 328.503 48.3089 328.381C47.8584 328.259 47.457 328.023 47.1557 327.705C46.8543 327.386 46.6667 326.999 46.6164 326.591C46.5662 326.184 46.6556 325.776 46.8734 325.418C47.0913 325.06 47.4276 324.769 47.8398 324.581C48.2521 324.393 48.7216 324.318 49.1887 324.364C49.4971 324.393 49.7972 324.475 50.0717 324.604C50.3462 324.734 50.5899 324.909 50.7887 325.119C50.9876 325.329 51.1377 325.571 51.2306 325.83C51.3234 326.088 51.3572 326.36 51.3299 326.628Z" fill="white"/>
<path d="M108.185 93.1938C108.652 93.2382 109.096 93.402 109.461 93.6645C109.826 93.9271 110.096 94.2765 110.236 94.6685C110.376 95.0606 110.38 95.4776 110.248 95.8668C110.116 96.256 109.853 96.5999 109.493 96.8548C109.133 97.1098 108.692 97.2643 108.226 97.299C107.76 97.3336 107.29 97.2467 106.875 97.0493C106.46 96.852 106.119 96.5529 105.895 96.1902C105.672 95.8274 105.576 95.4172 105.619 95.0116C105.676 94.4695 105.979 93.9738 106.46 93.6331C106.941 93.2924 107.561 93.1345 108.185 93.1938Z" fill="white"/>
<path d="M62.3145 89.4277C62.2711 89.8325 62.0908 90.2146 61.7962 90.5257C61.5016 90.8368 61.106 91.063 60.6593 91.1758C60.2125 91.2886 59.7347 91.2828 59.2861 91.1593C58.8375 91.0358 58.4382 90.8001 58.1386 90.4819C57.839 90.1636 57.6525 89.7772 57.6026 89.3713C57.5527 88.9653 57.6418 88.5581 57.8584 88.201C58.0751 87.8439 58.4097 87.5529 58.82 87.3647C59.2303 87.1765 59.698 87.0995 60.164 87.1436C60.4748 87.1729 60.7771 87.2554 61.0536 87.3862C61.3302 87.5171 61.5754 87.6937 61.7752 87.906C61.9751 88.1182 62.1256 88.362 62.2182 88.6231C62.3107 88.8843 62.3435 89.1577 62.3145 89.4277Z" fill="white"/>
<path d="M135.989 18.8566C135.948 19.2625 135.769 19.646 135.475 19.9587C135.181 20.2713 134.786 20.499 134.338 20.6129C133.891 20.7268 133.412 20.7218 132.963 20.5985C132.513 20.4752 132.113 20.2392 131.812 19.9204C131.512 19.6015 131.326 19.2141 131.276 18.8073C131.227 18.4006 131.317 17.9926 131.535 17.6353C131.753 17.2779 132.089 16.9871 132.501 16.7998C132.913 16.6125 133.382 16.5371 133.849 16.5831C134.472 16.6446 135.048 16.9183 135.449 17.3444C135.85 17.7706 136.045 18.3143 135.989 18.8566Z" fill="white"/>
<path d="M303.545 117.224C303.629 116.089 304.544 115.232 305.588 115.31C306.632 115.388 307.41 116.371 307.326 117.506C307.241 118.64 306.327 119.497 305.283 119.42C304.239 119.342 303.461 118.359 303.545 117.224Z" fill="white"/>
<path d="M163.679 148.657C167.83 148.753 171.155 151.907 171.105 155.701C171.056 159.494 167.651 162.492 163.499 162.395C159.348 162.299 156.024 159.145 156.073 155.352C156.123 151.558 159.528 148.561 163.679 148.657Z" fill="white"/>
<path d="M99.6283 334.47C95.6266 334.573 95.1248 334.952 94.2455 338.486C94.071 334.824 93.6587 334.361 89.7726 333.509C93.7838 333.399 94.2761 333.027 95.1649 329.486C95.3305 333.147 95.7263 333.592 99.6283 334.47Z" fill="white"/>
<path d="M72.0727 60.4563C67.852 60.5452 67.3509 60.9006 66.4144 64.4656C66.2241 60.7967 65.8026 60.3928 61.6925 59.4629C65.9024 59.3632 66.3574 59.0043 67.34 55.4427C67.541 59.1226 67.925 59.5639 72.0727 60.4563Z" fill="white"/>
<path d="M173.248 169.641C169.418 169.759 169.002 170.12 168.074 173.686C167.925 170.02 167.545 169.619 163.813 168.708C167.653 168.59 168.111 168.232 168.987 164.662C169.135 168.338 169.512 168.779 173.248 169.641Z" fill="white"/>
<path d="M197.821 5.32879C193.991 5.45679 193.574 5.81851 192.646 9.38415C192.498 5.7083 192.121 5.26741 188.385 4.40569C192.225 4.28848 192.683 3.92989 193.559 0.360349C193.708 4.02619 194.085 4.46707 197.821 5.32879Z" fill="white"/>
<path d="M168.743 326.361C168.994 323.896 171.387 322.111 174.086 322.374C176.786 322.636 178.771 324.847 178.52 327.312C178.269 329.777 175.877 331.562 173.177 331.299C170.477 331.037 168.492 328.825 168.743 326.361Z" fill="white"/>
<path d="M333.364 240.22C329.143 240.319 328.7 240.679 327.705 244.24C327.516 240.561 327.097 240.117 322.984 239.227C327.193 239.137 327.648 238.778 328.643 235.218C328.833 238.887 329.251 239.33 333.364 240.22Z" fill="white"/>
<path d="M329.535 67H57C51.4772 67 47 71.4771 47 77V250.838C47 256.361 51.4771 260.838 57 260.838H329.535C335.058 260.838 339.535 256.361 339.535 250.838V77C339.535 71.4772 335.058 67 329.535 67Z" stroke="white" stroke-width="0.950299" stroke-linecap="round" stroke-linejoin="round"/>
<path d="M334.436 250.63H52.0993C49.283 250.63 47 252.913 47 255.729C47 258.545 49.283 260.828 52.0993 260.828H334.436C337.252 260.828 339.535 258.545 339.535 255.729C339.535 252.913 337.252 250.63 334.436 250.63Z" fill="#969696" stroke="white" stroke-width="0.950299" stroke-linecap="round" stroke-linejoin="round"/>
<path d="M336.27 260.726H50.2654C48.462 260.726 47 262.188 47 263.991C47 265.794 48.462 267.256 50.2654 267.256H336.27C338.073 267.256 339.535 265.794 339.535 263.991C339.535 262.188 338.073 260.726 336.27 260.726Z" fill="#263238" stroke="white" stroke-width="0.950299" stroke-miterlimit="10"/>
<path d="M303.8 187.596C303.8 187.596 300.531 187.296 293.056 177.827C285.581 168.359 291.92 152.078 306.228 151.236C320.535 150.394 327.906 166.628 323.319 176.097C318.732 185.565 311.439 188.531 311.439 188.531" stroke="white" stroke-width="0.950299" stroke-linecap="round" stroke-linejoin="round"/>
<path d="M314.102 189.963C314.102 189.963 299.361 189.373 300.618 190.898C301.875 192.423 316.755 191.787 313.4 192.966C310.044 194.145 297.791 192.966 302.049 195.043C306.306 197.12 316.894 194.444 314.64 195.633C312.385 196.821 301.156 196.522 304.355 198.299" stroke="white" stroke-width="0.950299" stroke-linecap="round" stroke-linejoin="round"/>
<path d="M307.477 185.518C307.477 185.518 302.89 173.355 301.156 169.837C299.421 166.319 296.872 162.464 297.236 166.581C297.6 170.697 300.878 170.426 303.809 166.88C306.74 163.334 303.011 160.957 302.769 165.692C302.526 170.426 306.645 170.426 307.919 166.88C309.194 163.334 306.489 162.735 306.827 166.88C307.165 171.025 310.226 170.136 311.162 167.17C312.099 164.204 310.373 161.257 310.139 165.692C309.905 170.127 311.258 170.726 313.495 169.837C315.732 168.948 316.33 162.735 314.501 166.281C312.671 169.827 308.587 185.228 308.587 185.228" stroke="white" stroke-width="0.950299" stroke-linecap="round" stroke-linejoin="round"/>
<path d="M306.489 140.832L306.15 147.344" stroke="white" stroke-width="0.950299" stroke-linecap="round" stroke-linejoin="round"/>
<path d="M284.94 149.122L292.363 154.156" stroke="white" stroke-width="0.950299" stroke-linecap="round" stroke-linejoin="round"/>
<path d="M282.469 175.76L286.917 174.571" stroke="white" stroke-width="0.950299" stroke-linecap="round" stroke-linejoin="round"/>
<path d="M324.021 157.112L328.964 151.788" stroke="white" stroke-width="0.950299" stroke-linecap="round" stroke-linejoin="round"/>
<path d="M325.825 175.46L332.632 176.349" stroke="white" stroke-width="0.950299" stroke-linecap="round" stroke-linejoin="round"/>
<path d="M245.165 114.016L243.412 100.44C242.746 95.2872 246.138 90.4829 251.216 89.385L252.016 89.2122" stroke="white" stroke-width="0.950299" stroke-linecap="round" stroke-linejoin="round"/>
<path d="M243.214 100.823L251.53 97.6516" stroke="white" stroke-width="0.950299" stroke-linecap="round" stroke-linejoin="round"/>
<path d="M257.886 101.347L269.132 100.29" stroke="white" stroke-width="0.950299" stroke-linecap="round" stroke-linejoin="round"/>
<path d="M257.886 106.1L268.153 104.51" stroke="white" stroke-width="0.950299" stroke-linecap="round" stroke-linejoin="round"/>
<path d="M246.145 118.235L275.488 114.54" stroke="white" stroke-width="0.950299" stroke-linecap="round" stroke-linejoin="round"/>
<path d="M285.756 89.736C285.756 89.736 283.804 84.4683 281.845 89.212C279.885 93.9557 279.885 101.871 282.33 98.7088V98.7088C283.175 97.5801 285.676 98.3342 285.552 99.7387L284.29 114.007" stroke="white" stroke-width="0.950299" stroke-linecap="round" stroke-linejoin="round"/>
<path d="M296.022 88.6883C296.022 88.6883 294.071 83.4112 292.111 88.1549C290.152 92.8987 290.16 100.824 292.606 97.6518V97.6518C293.446 96.5301 295.943 97.2818 295.819 98.6778L294.557 112.959" stroke="white" stroke-width="0.950299" stroke-linecap="round" stroke-linejoin="round"/>
<path d="M301.893 93.4319C301.893 93.4319 299.447 95.5465 299.933 93.4319C300.419 91.3173 302.69 89.4273 303.852 92.9079C304.954 96.2108 304.824 103.462 301.407 103.462C297.991 103.462 300.427 99.7194 307.763 101.347" stroke="white" stroke-width="0.950299" stroke-linecap="round" stroke-linejoin="round"/>
<path d="M315.593 111.724C315.593 111.724 313.928 113.156 314.266 111.724C314.604 110.292 316.13 109.011 316.919 111.368C317.709 113.726 317.587 118.536 315.263 118.536C312.939 118.536 314.596 116.028 319.599 117.104" stroke="white" stroke-width="0.950299" stroke-linecap="round" stroke-linejoin="round"/>
<path d="M280.379 117.703L312.159 112.959" stroke="white" stroke-width="0.950299" stroke-linecap="round" stroke-linejoin="round"/>
<path d="M286.241 119.817L285.722 122.064C284.989 125.231 287.395 128.256 290.646 128.256V128.256" stroke="white" stroke-width="0.950299" stroke-linecap="round" stroke-linejoin="round"/>
<path d="M292.607 121.398L289.667 134.057" stroke="white" stroke-width="0.950299" stroke-linecap="round" stroke-linejoin="round"/>
<path d="M293.577 127.199L301.312 125.562" stroke="white" stroke-width="0.950299" stroke-linecap="round" stroke-linejoin="round"/>
<path d="M294.748 133.534C294.887 133.094 295.979 126.891 295.979 126.891" stroke="white" stroke-width="0.950299" stroke-linecap="round" stroke-linejoin="round"/>
<path d="M299.127 126.002L297.618 133.833" stroke="white" stroke-width="0.950299" stroke-linecap="round" stroke-linejoin="round"/>
<path d="M309.861 118.208C309.861 118.208 304.953 119.022 305.335 121.015V121.015C305.502 121.886 305.749 124.645 305.075 125.222C303.474 126.59 302.144 128.594 303.063 131.204C304.945 136.546 310.997 129.567 310.997 129.567" stroke="white" stroke-width="0.950299" stroke-linecap="round" stroke-linejoin="round"/>
<path d="M314.77 123.916C314.77 123.916 313.643 135.321 313.261 131.251C312.88 127.181 316.279 123.504 317.415 124.318" stroke="white" stroke-width="0.950299" stroke-linecap="round" stroke-linejoin="round"/>
<path d="M241.644 176.585C237.953 174.167 233.115 174.454 229.735 177.29L224.394 181.773C222.003 183.779 220.686 186.787 220.833 189.905L221.438 202.706C221.597 206.06 223.427 209.11 226.312 210.827L231.679 214.022C235.259 216.153 239.785 215.841 243.039 213.24L248.354 208.991C250.924 206.936 252.318 203.75 252.084 200.469L251.162 187.53C250.941 184.417 249.278 181.586 246.667 179.876L241.644 176.585Z" stroke="white" stroke-width="0.950299" stroke-linecap="round" stroke-linejoin="round"/>
<path d="M234.881 165.402V178.435" stroke="white" stroke-width="0.950299" stroke-linecap="round" stroke-linejoin="round"/>
<path d="M251.365 192.068H257.4" stroke="white" stroke-width="0.950299" stroke-linecap="round" stroke-linejoin="round"/>
<path d="M215.102 196.222L223.894 195.034" stroke="white" stroke-width="0.950299" stroke-linecap="round" stroke-linejoin="round"/>
<path d="M237.63 214.598V225.265" stroke="white" stroke-width="0.950299" stroke-linecap="round" stroke-linejoin="round"/>
<path d="M235.428 154.436C235.428 157.87 234.075 160.658 232.41 160.658C230.745 160.658 229.384 157.851 229.384 154.436C229.384 151.021 230.737 148.204 232.41 148.204C234.084 148.204 235.428 150.993 235.428 154.436Z" stroke="white" stroke-width="0.950299" stroke-linecap="round" stroke-linejoin="round"/>
<path d="M195.47 203.37C197.136 203.37 198.487 200.585 198.487 197.148C198.487 193.712 197.136 190.926 195.47 190.926C193.803 190.926 192.452 193.712 192.452 197.148C192.452 200.585 193.803 203.37 195.47 203.37Z" stroke="white" stroke-width="0.950299" stroke-linecap="round" stroke-linejoin="round"/>
<path d="M275.81 187.623C275.81 191.066 274.457 193.855 272.783 193.855C271.11 193.855 269.766 191.048 269.766 187.623C269.766 184.199 271.118 181.401 272.783 181.401C274.448 181.401 275.81 184.189 275.81 187.623Z" stroke="white" stroke-width="0.950299" stroke-linecap="round" stroke-linejoin="round"/>
<path d="M237.63 160.059L237.402 154.944C237.326 153.236 239.631 152.628 240.408 154.151V154.151C241.148 155.603 243.333 155.135 243.413 153.507L243.674 148.204" stroke="white" stroke-width="0.950299" stroke-linecap="round" stroke-linejoin="round"/>
<path d="M205.902 202.481L205.677 197.356C205.602 195.648 207.906 195.041 208.683 196.564V196.564C209.424 198.017 211.61 197.547 211.689 195.919L211.946 190.627" stroke="white" stroke-width="0.950299" stroke-linecap="round" stroke-linejoin="round"/>
<path d="M260.704 193.845L260.476 188.726C260.4 187.018 262.703 186.41 263.48 187.933V187.933C264.219 189.384 266.404 188.915 266.483 187.288L266.74 181.991" stroke="white" stroke-width="0.950299" stroke-linecap="round" stroke-linejoin="round"/>
<path d="M245.59 235.052C245.59 238.486 244.237 241.274 242.572 241.274C240.907 241.274 239.546 238.467 239.546 235.052C239.546 231.637 240.899 228.82 242.572 228.82C244.246 228.82 245.59 231.609 245.59 235.052Z" stroke="white" stroke-width="0.950299" stroke-linecap="round" stroke-linejoin="round"/>
<path d="M230.485 241.274L230.26 236.139C230.185 234.431 232.489 233.824 233.266 235.347V235.347C234.007 236.8 236.193 236.33 236.272 234.702L236.529 229.419" stroke="white" stroke-width="0.950299" stroke-linecap="round" stroke-linejoin="round"/>
<path d="M280.336 188.475C280.336 188.475 278.68 189.907 279.009 188.475C279.339 187.043 280.874 185.762 281.663 188.119C282.452 190.477 282.33 195.287 280.006 195.287C277.682 195.287 279.339 192.779 284.342 193.855" stroke="white" stroke-width="0.950299" stroke-linecap="round" stroke-linejoin="round"/>
<path d="M201.367 201.854C201.367 201.854 199.711 203.286 200.04 201.854C200.37 200.423 201.913 199.132 202.703 201.489C203.492 203.847 203.362 208.657 201.038 208.657C198.714 208.657 200.379 206.149 205.373 207.225" stroke="white" stroke-width="0.950299" stroke-linecap="round" stroke-linejoin="round"/>
<path d="M64.3247 101.085L63.8564 121.829" stroke="white" stroke-width="0.950299" stroke-linecap="round" stroke-linejoin="round"/>
<path d="M63.3894 103.612C63.3894 103.612 76.986 102.583 73.24 104.622V104.622C69.9479 106.62 75.7699 113.073 72.7481 115.46C72.4316 115.709 71.9763 115.968 71.3584 116.234C64.3173 119.265 59.6348 116.739 59.6348 116.739" stroke="white" stroke-width="0.950299" stroke-linecap="round" stroke-linejoin="round"/>
<path d="M77.2707 112.977C77.2707 112.977 75.8572 114.203 76.1347 112.977C76.4122 111.752 77.7302 110.666 78.4066 112.678C79.083 114.69 78.9702 118.797 76.9845 118.797C74.9988 118.797 76.4209 116.617 80.6698 117.553" stroke="white" stroke-width="0.950299" stroke-linecap="round" stroke-linejoin="round"/>
<path d="M91.5274 104.622C91.5274 104.622 82.1451 105.314 84.0268 108.065C85.9084 110.816 95.7504 113.23 93.4004 115.251C90.7297 117.676 87.4822 119.245 84.0268 119.78" stroke="white" stroke-width="0.950299" stroke-linecap="round" stroke-linejoin="round"/>
<path d="M99.9635 111.705C99.9635 115.345 98.8102 118.255 97.3621 118.255C95.914 118.255 94.7607 115.307 94.7607 111.705C94.7607 108.103 95.9227 105.156 97.3621 105.156C98.8016 105.156 99.9635 108.075 99.9635 111.705Z" stroke="white" stroke-width="0.950299" stroke-linecap="round" stroke-linejoin="round"/>
<path d="M205.641 143.208C212.097 143.208 217.33 129.552 217.33 112.706C217.33 95.8601 212.097 82.2039 205.641 82.2039C199.185 82.2039 193.952 95.8601 193.952 112.706C193.952 129.552 199.185 143.208 205.641 143.208Z" stroke="white" stroke-width="0.950299" stroke-linecap="round" stroke-linejoin="round"/>
<path d="M205.641 125.319C221.254 125.319 233.91 119.672 233.91 112.706C233.91 105.741 221.254 100.094 205.641 100.094C190.029 100.094 177.373 105.741 177.373 112.706C177.373 119.672 190.029 125.319 205.641 125.319Z" stroke="white" stroke-width="0.950299" stroke-linecap="round" stroke-linejoin="round"/>
<path d="M213.904 121.626C224.944 109.714 230.192 96.0643 225.628 91.1388C221.063 86.2133 208.413 91.8769 197.374 103.789C186.334 115.701 181.085 129.35 185.65 134.275C190.215 139.201 202.865 133.537 213.904 121.626Z" stroke="white" stroke-width="0.950299" stroke-linecap="round" stroke-linejoin="round"/>
<path d="M225.628 134.276C230.192 129.35 224.944 115.701 213.904 103.789C202.865 91.8772 190.215 86.2137 185.65 91.1392C181.085 96.0647 186.334 109.714 197.374 121.626C208.413 133.538 221.063 139.201 225.628 134.276Z" stroke="white" stroke-width="0.950299" stroke-linecap="round" stroke-linejoin="round"/>
<path d="M330.917 61.4513C323.116 51.3664 309.261 49.2974 299.971 56.83C290.682 64.3626 289.476 78.6443 297.277 88.7291C305.078 98.814 318.933 100.883 328.222 93.3504C337.512 85.8178 338.718 71.5361 330.917 61.4513Z" fill="white"/>
<path d="M312.776 52.3014L299.495 76.9163L305.532 53.6307C305.109 53.7873 304.694 53.9655 304.281 54.1529L294.091 83.3124C294.803 84.9886 295.702 86.5815 296.768 88.0572L300.429 81.3688L298.555 90.2675L304.411 80.9615L303.324 94.2829C303.6 94.4599 303.876 94.6279 304.157 94.7938L313.852 66.0983L310.998 86.3625L316.027 77.086L315.048 87.3245L325.629 56.4151C323.082 54.6285 320.237 53.3853 317.271 52.7628L313.005 60.1526L315.428 52.4628C314.545 52.3552 313.659 52.3013 312.776 52.3014Z" fill="#5EBACE"/>
<path d="M329.293 59.5701L320.314 84.5651L326.908 72.1113L323.142 96.3601C328.283 94.2597 332.333 90.1367 334.452 84.8464C336.571 79.5561 336.596 73.5047 334.522 67.9479L332.543 77.0072L332.862 64.3763C331.872 62.6308 330.672 61.0149 329.293 59.5701Z" fill="#5EBACE"/>
<path d="M292.317 76.6421L297.428 62.5924L294.642 66.3457L295.231 62.35C292.727 66.5508 291.701 71.5824 292.317 76.6421Z" fill="#5EBACE"/>
<path d="M318.3 89.751L314.55 97.8578C316.848 97.942 319.125 97.6544 321.298 97.0054L318.3 89.751Z" fill="#5EBACE"/>
<path d="M330.917 61.4513C323.116 51.3664 309.261 49.2974 299.971 56.83C290.682 64.3626 289.476 78.6443 297.277 88.7291C305.078 98.814 318.933 100.883 328.222 93.3504C337.512 85.8178 338.718 71.5361 330.917 61.4513Z" stroke="#263238" stroke-width="1.04814" stroke-linecap="round" stroke-linejoin="round"/>
<path d="M285.479 51.1873C283.194 54.2608 286.21 61.0909 292.642 68.9243C292.815 68.1362 293.029 67.3603 293.281 66.5999C288.459 60.7544 286.148 56.0011 287.616 54.0196C290.228 50.5041 303.763 57.0385 317.843 68.6211C331.922 80.2037 341.229 92.4411 338.617 95.9566C337.271 97.7678 333.023 96.9056 327.294 94.0638C326.665 94.5161 326.011 94.9319 325.335 95.3092C333.318 99.2809 339.601 100.34 341.734 97.4668C345.35 92.5971 335.684 78.2952 320.148 65.5177C304.611 52.7401 289.091 46.3159 285.479 51.1873Z" fill="#5EBACE" stroke="#263238" stroke-width="1.04814" stroke-linecap="round" stroke-linejoin="round"/>
<path d="M155.732 447.766H134.012C133.392 447.766 132.89 448.285 132.89 448.924V452.843C132.89 453.482 133.392 454 134.012 454H155.732C156.352 454 156.854 453.482 156.854 452.843V448.924C156.854 448.285 156.352 447.766 155.732 447.766Z" fill="#263238"/>
<path d="M166.008 328.219C166.008 328.219 158.223 353.601 158.223 359.692C158.223 365.784 158.223 381.236 154.473 395.074C150.723 408.912 145.744 423.694 145.439 425.298C145.243 426.359 145.138 427.436 145.124 428.516C145.124 428.516 155.723 444.273 155.723 446.527C155.723 448.781 153.538 449.42 152.298 449.42H134.209C134.209 449.42 132.969 448.781 132.339 442.984C131.709 437.187 133.323 426.587 133.323 425.298C133.323 424.009 131.454 406.648 128.649 396.678C125.844 386.708 125.844 369.987 126.159 365.804C126.474 361.621 128.029 354.87 128.029 352.606V335.245L166.008 328.219Z" fill="white" stroke="#263238" stroke-width="0.950299" stroke-linecap="round" stroke-linejoin="round"/>
<path d="M145.262 442.294C145.262 442.294 148.214 445.34 147.83 446.923C147.606 447.791 147.243 448.615 146.758 449.36" stroke="#263238" stroke-width="0.950299" stroke-linecap="round" stroke-linejoin="round"/>
<path d="M149.325 442.294C149.325 442.294 152.11 443.837 151.677 446.263C151.521 447.307 151.307 448.341 151.038 449.36" stroke="#263238" stroke-width="0.950299" stroke-linecap="round" stroke-linejoin="round"/>
<path d="M152.317 442.071C152.317 442.071 155.536 445.604 154.286 447.371C153.777 448.201 153.107 448.913 152.317 449.462" stroke="#263238" stroke-width="0.950299" stroke-linecap="round" stroke-linejoin="round"/>
<path d="M132.773 341.703C132.773 341.703 157.377 343.733 163.036 337.763L164.305 332.504L130.844 336.119L132.773 341.703Z" fill="#263238" stroke="#263238" stroke-width="0.950299" stroke-linecap="round" stroke-linejoin="round"/>
<path d="M140.508 443.147C140.508 443.147 141.403 442.913 143.195 444.294C144.986 445.674 145.665 447.989 143.647 448.913" stroke="#263238" stroke-width="0.950299" stroke-linecap="round" stroke-linejoin="round"/>
<path d="M152.957 440.862C151.973 439.248 150.91 437.481 149.847 435.786C144.114 434.296 138.122 434.205 132.349 435.522C132.26 436.882 132.201 438.253 132.201 439.583C139.085 437.824 146.325 438.271 152.957 440.862Z" fill="#263238"/>
<path d="M123.038 447.766H99.7528C99.1332 447.766 98.6309 448.285 98.6309 448.924V452.843C98.6309 453.482 99.1332 454 99.7528 454H123.038C123.658 454 124.16 453.482 124.16 452.843V448.924C124.16 448.285 123.658 447.766 123.038 447.766Z" fill="#263238"/>
<path d="M95.0098 327.306C95.0098 327.306 104.704 349.51 103.621 357.652C102.539 365.794 97.5292 383.561 101.476 396.516C105.422 409.471 110.087 424.649 110.806 426.872C111.524 429.095 102.194 442.832 100.442 445.746C98.6905 448.659 103.316 449.807 106.19 449.807H121.208C121.208 449.807 123.364 449.066 123.364 445.746C123.364 442.426 120.135 428.72 121.927 420.212C123.718 411.704 127.664 392.8 131.611 375.053C135.557 357.307 134.485 335.814 134.485 335.814L95.0098 327.306Z" fill="white" stroke="#263238" stroke-width="0.950299" stroke-linecap="round" stroke-linejoin="round"/>
<path d="M104.587 444.578C104.587 444.578 101.428 448.111 102.412 449.218" stroke="#263238" stroke-width="0.950299" stroke-linecap="round" stroke-linejoin="round"/>
<path d="M107.587 444.802C107.587 444.802 104.802 447.675 105.875 449.441" stroke="#263238" stroke-width="0.950299" stroke-linecap="round" stroke-linejoin="round"/>
<path d="M111.268 444.578C111.268 444.578 108.316 447.888 109.989 449.441" stroke="#263238" stroke-width="0.950299" stroke-linecap="round" stroke-linejoin="round"/>
<path d="M99.6351 339.408C99.6351 339.408 122.891 345.317 134.356 340.424L134.484 335.845L98.0703 333.814L99.6351 339.408Z" fill="#263238" stroke="#263238" stroke-width="0.950299" stroke-linecap="round" stroke-linejoin="round"/>
<path d="M115.648 443.147C114.85 443.915 114.237 444.864 113.857 445.918C112.961 447.949 113.63 448.913 115.205 449.38" stroke="#263238" stroke-width="0.950299" stroke-linecap="round" stroke-linejoin="round"/>
<path d="M122.782 440.853C122.595 439.573 122.379 438.142 122.182 436.609C115.067 434.446 110.008 434.812 106.691 435.786C105.422 437.888 104.064 440.02 102.902 441.817C103.391 441.818 103.861 441.621 104.211 441.269C104.27 441.218 109.477 436.213 122.782 440.853Z" fill="#263238"/>
<path d="M77.4721 250.228C77.4721 250.228 71.8623 263.254 74.6672 283.996C77.4721 304.737 86.8315 332.24 86.8315 332.24C101.335 336.125 116.263 338.069 131.247 338.027C156.5 338.027 168.645 331.753 168.645 331.753C168.645 331.753 177.995 295.092 177.995 274.828C177.995 254.563 172.847 243 172.847 243C172.847 243 127.96 253.152 86.3394 238.654L77.4721 250.228Z" fill="#FF5555" stroke="#FF5555" stroke-width="0.950299" stroke-linecap="round" stroke-linejoin="round"/>
<path d="M136.157 311.083L137.752 313.448" stroke="#787878" stroke-width="0.950299" stroke-linecap="round" stroke-linejoin="round"/>
<path d="M116.002 281.275L134.288 308.331" stroke="#787878" stroke-width="0.950299" stroke-linecap="round" stroke-linejoin="round"/>
<path d="M131.738 296.026L142.328 310.494" stroke="#787878" stroke-width="0.950299" stroke-linecap="round" stroke-linejoin="round"/>
<path d="M101.427 335.58C101.427 335.58 129.17 341.479 163.222 334.402" stroke="#787878" stroke-width="0.950299" stroke-linecap="round" stroke-linejoin="round"/>
<path d="M122.832 146.033L101.791 144.581C101.791 144.581 106.938 179.8 99.4485 201.506C91.959 223.212 86.3591 238.654 86.3591 238.654L81.2119 248.807C92.1144 252.786 103.403 255.533 114.88 257C132.192 258.929 148.086 259.903 156.5 257.964C162.22 256.581 167.845 254.811 173.34 252.665C173.34 252.665 157.435 210.674 157.435 188.003C157.474 174.559 155.783 161.17 152.406 148.185L144.307 147.17L122.832 146.033Z" fill="white" stroke="#263238" stroke-width="0.950299" stroke-linecap="round" stroke-linejoin="round"/>
<path d="M143.795 171.921L137.319 258.898L142.988 259.731L143.795 171.921Z" fill="#263238" stroke="#263238" stroke-width="0.950299" stroke-linecap="round" stroke-linejoin="round"/>
<path d="M121.435 121.667C122.419 123.302 121.376 137.911 121.229 140.845C121.081 143.779 119.811 145.921 116.76 145.069C110.196 143.16 111.613 147.718 111.613 147.718C111.613 147.718 110.678 158.338 115.816 167.008C120.953 175.678 134.761 177.374 141.069 173.282C147.378 169.191 148.323 149.262 148.323 149.262L144.307 147.231C143.271 146.697 142.404 145.868 141.807 144.843C141.211 143.818 140.911 142.639 140.941 141.444L141.542 129.901C141.542 129.901 127.744 131.799 121.435 121.667Z" fill="white" stroke="#263238" stroke-width="0.950299" stroke-linecap="round" stroke-linejoin="round"/>
<path d="M141.54 129.87C141.54 129.87 127.762 131.799 121.434 121.667C122.359 123.17 121.542 135.495 121.276 139.85C123.128 141.414 125.337 142.462 127.693 142.896C132.348 143.444 137.23 141.434 141.078 138.906L141.54 129.87Z" fill="#263238" stroke="#263238" stroke-width="0.950299" stroke-linecap="round" stroke-linejoin="round"/>
<path d="M119.339 144.347C119.339 144.347 107.637 143.87 97.1162 143.627C86.5955 143.383 81.4483 144.358 77.4329 146.53C73.4175 148.703 47.5045 173.536 45.8707 177.638C44.237 181.739 42.5541 186.623 52.6123 186.866C62.6704 187.11 83.515 180.531 83.515 180.531C83.515 180.531 91.2702 201.506 90.601 210.918C89.9318 220.329 83.8201 234.553 78.6729 243C73.5258 251.447 73.5258 255.294 73.5258 255.294C73.5258 255.294 79.1453 264.706 93.8684 268.32C102.536 270.477 111.385 271.769 120.293 272.178L117.951 217.913L119.339 144.347Z" fill="#5EBACE" stroke="#263238" stroke-width="0.950299" stroke-linecap="round" stroke-linejoin="round"/>
<path d="M79.8237 169.607L83.5537 180.521L77.9932 173.374" stroke="#263238" stroke-width="0.950299" stroke-linecap="round" stroke-linejoin="round"/>
<path d="M74.6674 169.191L45.5361 184.765C46.5892 185.963 48.7248 186.795 52.6516 186.856C55.8865 186.82 59.1115 186.48 62.2866 185.841L74.6674 169.191Z" fill="#263238" stroke="#263238" stroke-width="0.950299" stroke-linecap="round" stroke-linejoin="round"/>
<path d="M109.989 144.286C109.989 151.393 109.989 176.835 111.141 189.445C112.125 200.044 115.953 213.131 118.03 219.639L117.951 217.913L119.339 144.347C119.339 144.347 115.382 144.347 109.989 144.286Z" fill="#5EBACE" stroke="#263238" stroke-width="0.950299" stroke-linecap="round" stroke-linejoin="round"/>
<path d="M144.306 147.2C144.306 147.2 142.712 202.714 142.239 210.674C141.767 218.633 139.198 272.899 139.198 272.899C146.647 272.89 154 271.155 160.712 267.822C171.932 262.269 178.014 258.167 179.411 255.761C180.809 253.355 178.24 248.766 176.134 241.771C174.028 234.776 170.987 224.156 170.288 220.542C169.589 216.928 170.052 208.004 170.052 208.004C170.052 208.004 181.281 219.334 184.549 218.369C187.816 217.405 209.802 223.923 210.275 222.227C210.747 220.532 192.028 185.81 185.483 170.612C178.939 155.414 169.589 151.424 163.271 149.972C156.953 148.52 144.306 147.2 144.306 147.2Z" fill="#5EBACE" stroke="#263238" stroke-width="0.950299" stroke-linecap="round" stroke-linejoin="round"/>
<path d="M152.406 148.185C148.007 147.596 144.306 147.17 144.306 147.17C144.306 147.17 142.712 202.684 142.239 210.644C142.121 212.613 141.875 217.426 141.58 223.558C143.667 216.979 148.469 201.07 149.955 190.379C151.432 179.546 152.091 156.429 152.406 148.185Z" fill="#5EBACE" stroke="#263238" stroke-width="0.950299" stroke-linecap="round" stroke-linejoin="round"/>
<path d="M159.778 162.429L142.938 217.192L145.743 219.354L163.281 164.124L159.778 162.429Z" fill="#263238" stroke="#263238" stroke-width="0.950299" stroke-linecap="round" stroke-linejoin="round"/>
<path d="M163.282 164.125L195.316 176.186L176.844 225.152L145.744 219.355L163.282 164.125Z" fill="white" stroke="#263238" stroke-width="0.950299" stroke-linecap="round" stroke-linejoin="round"/>
<path d="M161.175 170.632L144.346 225.385L147.151 227.558L164.688 172.328L161.175 170.632Z" fill="#263238" stroke="#263238" stroke-width="0.950299" stroke-linecap="round" stroke-linejoin="round"/>
<path d="M164.689 172.327L196.724 184.378L178.251 233.344L147.151 227.557L164.689 172.327Z" fill="white" stroke="#263238" stroke-width="0.950299" stroke-linecap="round" stroke-linejoin="round"/>
<path d="M160.477 187.516C160.477 187.516 154.169 183.658 152.063 183.455C151.602 183.371 151.129 183.389 150.675 183.506C150.222 183.624 149.797 183.84 149.43 184.139C149.063 184.438 148.761 184.814 148.545 185.242C148.329 185.67 148.203 186.141 148.175 186.622C148.136 187.658 148.29 188.692 148.628 189.668C148.628 189.668 146.345 190.298 145.282 196.531C144.908 198.724 143.874 200.389 145.282 202.085C147.525 204.652 150.603 206.281 153.932 206.664C157.414 207.206 160.851 208.013 164.217 209.08C169.206 214.393 174.532 219.359 180.16 223.943C188.575 230.695 196.055 238.411 202.373 237.202C208.691 235.994 212.658 228.522 210.325 222.248C207.993 215.973 174.551 201.993 173.38 201.506C172.283 200.914 171.261 200.184 170.338 199.333C170.338 199.333 170.338 194.034 169.167 191.617C167.996 189.201 164.246 185.587 164.246 182.216C164.246 178.846 164.483 177.384 162.613 177.871C160.743 178.358 159.542 184.379 160.477 187.516Z" fill="white" stroke="#263238" stroke-width="0.950299" stroke-linecap="round" stroke-linejoin="round"/>
<path d="M115.933 101.311C115.933 101.311 112.981 93.6354 110.806 98.7523C108.148 105.087 113.286 111.372 114.614 112.225C115.943 113.078 115.933 101.311 115.933 101.311Z" fill="white" stroke="#263238" stroke-width="0.950299" stroke-linecap="round" stroke-linejoin="round"/>
<path d="M158.626 106.783C158.626 106.783 162.415 101.971 163.547 106.184C164.678 110.397 161.214 114.611 158.626 116.418C156.037 118.225 155.122 120.631 155.122 117.321C155.122 114.012 158.626 106.783 158.626 106.783Z" fill="white" stroke="#263238" stroke-width="0.950299" stroke-linecap="round" stroke-linejoin="round"/>
<path d="M136.768 42.1318C136.768 42.1318 130.646 37.5327 126.513 42.812C122.379 48.0913 126.68 52.0305 123.698 53.2184C120.716 54.4062 118.777 48.9543 112.626 54.2336C106.475 59.5129 110.481 63.7872 110.806 65.6552C111.13 67.5233 109.979 67.5334 105.353 69.5843C100.728 71.6351 98.2476 76.5692 104.369 81.6861C110.491 86.803 113.463 79.4728 114.289 82.8841C115.116 86.2953 114.289 89.199 118.423 88.9756C122.556 88.7522 130.823 81.8079 135.951 85.0466C141.078 88.2852 146.688 96.4783 150.497 93.9199C154.306 91.3614 155.624 86.9248 158.931 89.1482C162.238 91.3716 166.864 92.3868 169.511 85.3918C172.158 78.3967 166.864 76.0108 167.69 72.2645C168.517 68.5182 173.143 63.5638 169.176 57.7667C165.21 51.9696 161.244 58.1017 157.11 52.6904C152.977 47.2791 157.278 41.6039 151.983 38.5276C150.712 37.7731 149.309 37.2856 147.854 37.0931C146.4 36.9007 144.923 37.0071 143.508 37.4064C142.094 37.8056 140.77 38.4897 139.613 39.4192C138.456 40.3487 137.489 41.5053 136.768 42.8222" fill="black"/>
<path d="M122.448 81.1478C122.448 81.1478 116.317 86.5692 115.736 93.4933C115.156 100.417 112.528 116.966 115.441 123.291C118.354 129.616 125.637 138.52 132.073 139.241C141.118 140.317 151.038 131.718 152.495 128.408C153.951 125.098 161.864 101.615 160.083 91.077C157.75 77.239 135.282 68.2033 122.448 81.1478Z" fill="white" stroke="#263238" stroke-width="0.950299" stroke-linecap="round" stroke-linejoin="round"/>
<path d="M160.082 91.077C157.75 77.239 135.281 68.2033 122.448 81.1478C122.448 81.1478 116.316 86.5692 115.736 93.4933C115.568 95.4527 115.244 98.1837 114.919 101.24C116.728 99.6735 117.864 97.4326 118.078 95.006C118.413 90.7419 121.887 86.3053 135.114 84.427C148.341 82.5488 155.781 92.6201 156.933 96.1938C158.084 99.7675 156.441 104.549 157.268 106.945C157.341 107.286 157.482 107.607 157.682 107.889C157.882 108.17 158.136 108.405 158.429 108.58C159.885 102.092 160.82 95.4629 160.082 91.077Z" fill="#263238"/>
<path d="M133.638 64.2947C133.499 64.441 133.371 64.597 133.254 64.7618C132.161 66.3659 131.285 66.4674 129.484 65.8379C125.548 64.4775 122.211 66.3557 122.379 69.767C122.546 73.1782 124.032 72.6604 121.06 74.8432C118.088 77.026 115.598 78.5997 117.251 82.6911C118.905 86.7826 123.078 84.5998 123.078 87.4933C123.078 90.3868 122.91 94.1432 127.014 94.1432C131.118 94.1432 133.962 89.0669 135.124 91.7573C136.285 94.4478 137.604 98.4073 141.235 97.7169C144.867 97.0265 146.855 91.067 150.496 93.9706C154.138 96.8742 156.116 99.4225 158.104 97.0164C160.092 94.6102 157.937 91.0467 160.584 89.5136C163.231 87.9806 165.702 87.3004 164.216 82.1835C162.73 77.0666 160.584 79.6251 158.931 75.696C157.277 71.767 157.602 67.5131 154.463 66.8329C151.323 66.1527 149.837 68.3659 146.855 68.0309C144.316 67.7364 143.312 64.5486 141.166 63.4825C139.021 62.4165 135.429 62.4673 133.638 64.2947Z" fill="black" stroke="#263238" stroke-width="0.950299" stroke-linecap="round" stroke-linejoin="round"/>
<path d="M138.273 105.555C138.273 105.555 136.816 109.768 137.397 112.479C137.978 115.19 139.444 117.555 137.102 117.9C134.76 118.245 133.018 116.692 133.018 115.19" stroke="#263238" stroke-width="0.950299" stroke-linecap="round" stroke-linejoin="round"/>
<path d="M127.724 118.966C128.656 120.221 129.845 121.249 131.206 121.977C132.566 122.705 134.065 123.116 135.597 123.18C138.614 123.157 141.558 122.218 144.061 120.479" stroke="#263238" stroke-width="0.950299" stroke-linecap="round" stroke-linejoin="round"/>
<path d="M131.433 105.494C131.296 106.905 130.577 107.991 129.829 107.91C129.081 107.829 128.579 106.631 128.717 105.22C128.855 103.808 129.573 102.732 130.321 102.803C131.069 102.874 131.571 104.083 131.433 105.494Z" fill="#263238"/>
<path d="M144.819 107.971C144.681 109.382 143.963 110.458 143.215 110.387C142.467 110.316 141.965 109.098 142.103 107.687C142.241 106.276 142.959 105.199 143.707 105.27C144.455 105.342 144.957 106.56 144.819 107.971Z" fill="#263238"/>
<path d="M136.462 102.397C136.497 104.298 135.985 106.167 134.989 107.767C133.994 109.367 132.56 110.626 130.87 111.385C129.181 112.144 127.311 112.368 125.497 112.03C123.684 111.692 122.008 110.806 120.683 109.484C119.358 108.163 118.443 106.466 118.054 104.607C117.665 102.749 117.819 100.813 118.497 99.0455C119.175 97.2777 120.346 95.7572 121.862 94.6766C123.379 93.5961 125.172 93.0041 127.015 92.9756C129.476 92.9402 131.852 93.9112 133.622 95.6764C135.392 97.4417 136.413 99.8578 136.462 102.397V102.397Z" stroke="#263238" stroke-width="0.950299" stroke-linecap="round" stroke-linejoin="round"/>
<path d="M157.15 106.469C157.185 108.368 156.673 110.235 155.679 111.834C154.685 113.433 153.254 114.692 151.567 115.452C149.879 116.212 148.011 116.438 146.199 116.103C144.386 115.768 142.711 114.886 141.385 113.569C140.058 112.252 139.14 110.558 138.746 108.703C138.353 106.847 138.501 104.913 139.173 103.145C139.845 101.376 141.011 99.853 142.522 98.7677C144.033 97.6823 145.822 97.0836 147.663 97.0471C150.131 97.0009 152.517 97.967 154.296 99.7334C156.074 101.5 157.101 103.922 157.15 106.469Z" stroke="#263238" stroke-width="0.950299" stroke-linecap="round" stroke-linejoin="round"/>
<path d="M136.483 103.423L138.658 103.94" stroke="#263238" stroke-width="0.950299" stroke-linecap="round" stroke-linejoin="round"/>
<path d="M117.971 99.8666L115.067 99.1788" stroke="#263238" stroke-width="0.950299" stroke-linecap="round" stroke-linejoin="round"/>
<path d="M157.15 106.468L159.325 106.884" stroke="#263238" stroke-width="0.950299" stroke-linecap="round" stroke-linejoin="round"/>
<path d="M124.929 98.6613C125.985 97.7182 127.255 97.0655 128.621 96.7638C129.987 96.4621 131.405 96.5211 132.743 96.9353" stroke="#263238" stroke-width="0.950299" stroke-linecap="round" stroke-linejoin="round"/>
<path d="M151.304 104.631C150.642 103.36 149.68 102.282 148.507 101.498C147.333 100.713 145.987 100.247 144.592 100.143" stroke="#263238" stroke-width="0.950299" stroke-linecap="round" stroke-linejoin="round"/>
<path d="M105.718 105.768C107.743 102.818 109.983 100.031 112.42 97.4328C115.963 93.7677 120.697 92.1433 120.697 94.387C120.697 96.6308 117.547 97.0267 115.372 99.8694C113.197 102.712 108.08 110.245 107.883 112.276C107.686 114.306 107.883 117.768 111.436 117.159C114.988 116.55 118.925 113.098 120.697 111.87C122.468 110.641 127.399 111.87 125.617 113.504C123.836 115.139 120.697 115.941 118.128 118.174C115.559 120.408 111.426 124.885 109.27 126.114C107.115 127.342 105.531 128.144 105.531 128.144C105.531 128.144 104.743 128.956 101.978 133.84C99.2122 138.723 90.5417 152.754 85.2469 158.856C79.9521 164.957 60.0129 185.252 55.0921 187.12C50.1713 188.988 38.1349 187.323 36.393 180.816C34.651 174.308 38.755 166.785 47.6223 160.277C56.4896 153.769 81.7334 138.713 87.2546 135.667C92.7758 132.621 94.9409 130.987 95.1279 129.363C95.3149 127.738 97.8836 117.179 100.255 112.885C101.725 110.247 103.566 107.849 105.718 105.768Z" fill="white" stroke="#263238" stroke-width="0.950299" stroke-linecap="round" stroke-linejoin="round"/>
<path d="M99.3506 116.154C99.3506 116.154 100.335 108.915 101.378 107.951C102.421 106.986 108.7 107.149 109.95 107.788C111.2 108.428 111.19 114.225 110.728 115.514C110.265 116.804 109.478 117.596 109.015 117.118C108.553 116.641 107.608 111.809 107.608 111.809L104.34 111.331L103.248 116.154" fill="white"/>
<path d="M99.3506 116.154C99.3506 116.154 100.335 108.915 101.378 107.951C102.421 106.986 108.7 107.149 109.95 107.788C111.2 108.428 111.19 114.225 110.728 115.514C110.265 116.804 109.478 117.596 109.015 117.118C108.553 116.641 107.608 111.809 107.608 111.809L104.34 111.331L103.248 116.154" stroke="#263238" stroke-width="0.950299" stroke-linecap="round" stroke-linejoin="round"/>
<path d="M98.7197 118.408C98.7197 118.408 99.7039 111.169 100.747 110.205C101.79 109.24 108.079 109.403 109.319 110.042C110.559 110.682 110.569 116.479 110.107 117.758C109.644 119.037 108.857 119.849 108.384 119.372C107.912 118.895 106.987 114.063 106.987 114.063L103.709 113.575L102.617 118.408" fill="white"/>
<path d="M98.7197 118.408C98.7197 118.408 99.7039 111.169 100.747 110.205C101.79 109.24 108.079 109.403 109.319 110.042C110.559 110.682 110.569 116.479 110.107 117.758C109.644 119.037 108.857 119.849 108.384 119.372C107.912 118.895 106.987 114.063 106.987 114.063L103.709 113.575L102.617 118.408" stroke="#263238" stroke-width="0.950299" stroke-linecap="round" stroke-linejoin="round"/>
<path d="M98.415 121.352C98.415 121.352 99.3008 114.499 100.383 113.585C101.466 112.672 107.273 112.824 108.503 113.433C109.733 114.042 109.684 119.525 109.241 120.743C108.798 121.961 108.06 122.723 107.617 122.266C107.174 121.809 106.288 117.24 106.288 117.24L103.188 116.784L102.204 121.352" fill="white"/>
<path d="M98.415 121.352C98.415 121.352 99.3008 114.499 100.383 113.585C101.466 112.672 107.273 112.824 108.503 113.433C109.733 114.042 109.684 119.525 109.241 120.743C108.798 121.961 108.06 122.723 107.617 122.266C107.174 121.809 106.288 117.24 106.288 117.24L103.188 116.784L102.204 121.352" stroke="#263238" stroke-width="0.950299" stroke-linecap="round" stroke-linejoin="round"/>
<path d="M104.665 118.621C104.665 118.621 105.511 124.611 103.946 127.758C102.381 130.905 100.561 130.875 100.561 130.875" fill="white"/>
<path d="M104.665 118.621C104.665 118.621 105.511 124.611 103.946 127.758C102.381 130.905 100.561 130.875 100.561 130.875" stroke="#263238" stroke-width="0.950299" stroke-linecap="round" stroke-linejoin="round"/>
</svg>
