<svg width="386" height="372" viewBox="0 0 386 372" fill="none" xmlns="http://www.w3.org/2000/svg">
<g filter="url(#filter0_d)">
<g filter="url(#filter1_d)">
<path d="M135.5 247.187C193.766 247.187 241 196.329 241 133.593C241 70.8575 193.766 20 135.5 20C77.234 20 30 70.8575 30 133.593C30 196.329 77.234 247.187 135.5 247.187Z" fill="black"/>
<path d="M231.319 133.593C231.319 191.669 187.758 237.505 135.5 237.505C83.2422 237.505 39.6813 191.669 39.6813 133.593C39.6813 75.518 83.2422 29.6813 135.5 29.6813C187.758 29.6813 231.319 75.518 231.319 133.593Z" stroke="#ABC06D" stroke-width="19.3625"/>
</g>
<g filter="url(#filter2_d)">
<path d="M135.5 247.187C193.766 247.187 241 196.329 241 133.593C241 70.8575 193.766 20 135.5 20C77.234 20 30 70.8575 30 133.593C30 196.329 77.234 247.187 135.5 247.187Z" fill="#FAD57A"/>
<path d="M231.319 133.593C231.319 191.669 187.758 237.505 135.5 237.505C83.2422 237.505 39.6813 191.669 39.6813 133.593C39.6813 75.518 83.2422 29.6813 135.5 29.6813C187.758 29.6813 231.319 75.518 231.319 133.593Z" stroke="#ABC06D" stroke-width="19.3625"/>
</g>
</g>
<g filter="url(#filter3_d)">
<circle cx="230.5" cy="216.5" r="113.5" fill="#494DB0"/>
</g>
<path d="M243.119 266.624C262.509 262.953 277.917 248.104 282.5 228.673C277.826 231.97 272.494 234.195 266.874 235.193C244.938 239.563 223.553 225.099 219.071 202.862C216.275 187.772 221.703 172.37 233.276 162.544C229.674 162.795 226.094 163.301 222.565 164.06C194.639 169.657 176.603 197.153 182.279 225.475C187.955 253.798 215.193 272.221 243.119 266.624Z" fill="white"/>
<defs>
<filter id="filter0_d" x="11" y="1" width="249" height="265.187" filterUnits="userSpaceOnUse" color-interpolation-filters="sRGB">
<feFlood flood-opacity="0" result="BackgroundImageFix"/>
<feColorMatrix in="SourceAlpha" type="matrix" values="0 0 0 0 0 0 0 0 0 0 0 0 0 0 0 0 0 0 127 0"/>
<feOffset/>
<feGaussianBlur stdDeviation="9.5"/>
<feColorMatrix type="matrix" values="0 0 0 0 0.670588 0 0 0 0 0.752941 0 0 0 0 0.427451 0 0 0 1 0"/>
<feBlend mode="normal" in2="BackgroundImageFix" result="effect1_dropShadow"/>
<feBlend mode="normal" in="SourceGraphic" in2="effect1_dropShadow" result="shape"/>
</filter>
<filter id="filter1_d" x="0.956177" y="0.63745" width="269.088" height="285.274" filterUnits="userSpaceOnUse" color-interpolation-filters="sRGB">
<feFlood flood-opacity="0" result="BackgroundImageFix"/>
<feColorMatrix in="SourceAlpha" type="matrix" values="0 0 0 0 0 0 0 0 0 0 0 0 0 0 0 0 0 0 127 0"/>
<feOffset dy="9.68127"/>
<feGaussianBlur stdDeviation="14.5219"/>
<feColorMatrix type="matrix" values="0 0 0 0 0 0 0 0 0 0 0 0 0 0 0 0 0 0 0.341967 0"/>
<feBlend mode="normal" in2="BackgroundImageFix" result="effect1_dropShadow"/>
<feBlend mode="normal" in="SourceGraphic" in2="effect1_dropShadow" result="shape"/>
</filter>
<filter id="filter2_d" x="19" y="9" width="233" height="249.187" filterUnits="userSpaceOnUse" color-interpolation-filters="sRGB">
<feFlood flood-opacity="0" result="BackgroundImageFix"/>
<feColorMatrix in="SourceAlpha" type="matrix" values="0 0 0 0 0 0 0 0 0 0 0 0 0 0 0 0 0 0 127 0"/>
<feOffset/>
<feGaussianBlur stdDeviation="5.5"/>
<feColorMatrix type="matrix" values="0 0 0 0 0.670588 0 0 0 0 0.752941 0 0 0 0 0.427451 0 0 0 0.25 0"/>
<feBlend mode="normal" in2="BackgroundImageFix" result="effect1_dropShadow"/>
<feBlend mode="normal" in="SourceGraphic" in2="effect1_dropShadow" result="shape"/>
</filter>
<filter id="filter3_d" x="75" y="61" width="311" height="311" filterUnits="userSpaceOnUse" color-interpolation-filters="sRGB">
<feFlood flood-opacity="0" result="BackgroundImageFix"/>
<feColorMatrix in="SourceAlpha" type="matrix" values="0 0 0 0 0 0 0 0 0 0 0 0 0 0 0 0 0 0 127 0"/>
<feMorphology radius="7" operator="dilate" in="SourceAlpha" result="effect1_dropShadow"/>
<feOffset/>
<feGaussianBlur stdDeviation="17.5"/>
<feColorMatrix type="matrix" values="0 0 0 0 0.286275 0 0 0 0 0.301961 0 0 0 0 0.690196 0 0 0 1 0"/>
<feBlend mode="normal" in2="BackgroundImageFix" result="effect1_dropShadow"/>
<feBlend mode="normal" in="SourceGraphic" in2="effect1_dropShadow" result="shape"/>
</filter>
</defs>
</svg>
