<svg width="500" height="450" viewBox="0 0 500 450" fill="none" xmlns="http://www.w3.org/2000/svg">
<path d="M56.8836 450H62.8418L62.8418 283.162H56.8836L56.8836 450Z" fill="#F0F0F0"/>
<path d="M0 395.437H500V395.739H0V395.437Z" fill="#EBEBEB"/>
<path d="M50.0997 414.871H83.2197V415.173H50.0997V414.871Z" fill="#EBEBEB"/>
<path d="M168.78 418.156H177.47V418.458H168.78V418.156Z" fill="#EBEBEB"/>
<path d="M84.2202 403.663H103.41V403.964H84.2202V403.663Z" fill="#EBEBEB"/>
<path d="M404.35 405.692H447.54V405.994H404.35V405.692Z" fill="#EBEBEB"/>
<path d="M389.11 405.692H395.44V405.994H389.11V405.692Z" fill="#EBEBEB"/>
<path d="M274.85 410.789H368.53V411.091H274.85V410.789Z" fill="#EBEBEB"/>
<path d="M263 341.569H456.09C457.603 341.566 459.052 340.838 460.121 339.545C461.19 338.252 461.79 336.499 461.79 334.672V6.83621C461.777 5.01969 461.171 3.28281 460.104 2.00282C459.036 0.722825 457.594 0.00311179 456.09 0H263C261.486 0 260.033 0.726605 258.962 2.01997C257.892 3.31333 257.29 5.06751 257.29 6.8966V334.672C257.29 336.502 257.892 338.256 258.962 339.549C260.033 340.842 261.486 341.569 263 341.569ZM456.09 0.241563C457.536 0.244763 458.923 0.940964 459.944 2.17735C460.966 3.41374 461.54 5.08929 461.54 6.83621V334.672C461.54 336.419 460.966 338.095 459.944 339.331C458.923 340.568 457.536 341.264 456.09 341.267H263C261.553 341.264 260.166 340.568 259.142 339.332C258.119 338.096 257.543 336.421 257.54 334.672V6.83621C257.543 5.08818 258.119 3.41266 259.142 2.17662C260.166 0.940571 261.553 0.244756 263 0.241563H456.09Z" fill="#EBEBEB"/>
<path d="M46.69 341.569H239.79C241.304 341.566 242.754 340.838 243.825 339.546C244.895 338.253 245.497 336.501 245.5 334.672V6.83621C245.484 5.01859 244.876 3.28172 243.807 2.00206C242.738 0.722403 241.295 0.00307785 239.79 0H46.69C45.1877 0.00628605 43.748 0.727403 42.6829 2.00705C41.6178 3.2867 41.0132 5.02178 41 6.83621V334.672C41 336.497 41.5988 338.248 42.6653 339.541C43.7319 340.833 45.1791 341.563 46.69 341.569ZM239.79 0.241563C241.237 0.244756 242.625 0.940571 243.648 2.17662C244.671 3.41266 245.247 5.08818 245.25 6.83621V334.672C245.247 336.421 244.671 338.096 243.648 339.332C242.625 340.568 241.237 341.264 239.79 341.267H46.69C45.2427 341.264 43.8555 340.568 42.8321 339.332C41.8087 338.096 41.2327 336.421 41.23 334.672V6.83621C41.2327 5.08818 41.8087 3.41266 42.8321 2.17662C43.8555 0.940571 45.2427 0.244756 46.69 0.241563H239.79Z" fill="#EBEBEB"/>
<path d="M439.14 171.376H365.82V24.9534H439.14V171.376Z" fill="#F5F5F5"/>
<path d="M439.151 24.9413H440.601V171.364H439.151V24.9413Z" fill="#E0E0E0"/>
<path d="M431.7 164.927H373.25V31.3911H431.7V164.927Z" fill="#FAFAFA"/>
<path d="M348.52 222.769H275.2V76.3458H348.52V222.769Z" fill="#F5F5F5"/>
<path d="M348.52 76.3577H349.97V222.781H348.52V76.3577Z" fill="#E0E0E0"/>
<path d="M341.08 216.331H282.63V82.7955H341.08V216.331Z" fill="#FAFAFA"/>
<path d="M395.8 357.597C393.98 317.739 398.8 253.725 404.01 231.513C404.7 228.578 405.48 225.172 406.67 224.725C410.07 223.421 411.6 229.859 411.18 232.081C409.18 242.782 407.31 269.342 405.48 315.541C404.57 338.489 405.48 354.287 403.04 357.609L395.8 357.597Z" fill="#E6E6E6"/>
<path d="M401.22 268.762C396.44 250.102 335.22 230.934 352.87 251.008C357.26 256.008 377.7 269.185 386.09 283.039C392.61 293.8 399.2 311.905 400.94 321.942C401.7 300.83 404.4 281.203 401.22 268.762Z" fill="#E6E6E6"/>
<path d="M394.25 292.423C383.59 264.027 349.5 258.93 358.66 273.919C362.26 279.801 375.46 286.517 383.86 300.37C390.38 311.132 396.97 329.225 398.7 339.274C399.47 318.149 398.7 304.284 394.25 292.423Z" fill="#E6E6E6"/>
<path d="M407.65 290.008C420.27 253.483 465.86 250.573 453.73 267.542C449.12 274.004 433.01 285.829 420.84 301.071C411.38 312.908 400.72 332.474 397.09 343.344C399.44 320.94 402.56 304.743 407.65 290.008Z" fill="#E6E6E6"/>
<path d="M402.35 249.135C391.05 224.121 356.85 221.44 366.62 235.124C370.45 240.511 382.91 247.335 391.05 260.778C397.38 271.214 404.98 284.838 406.67 294.597C407.41 274.088 407.36 260.235 402.35 249.135Z" fill="#E6E6E6"/>
<path d="M412.19 249.63C421.1 234.074 461 216.971 450.64 231.054C439.73 245.826 431.98 243.289 421.64 256.189C413.64 266.214 404.64 282.833 401.54 291.94C403.55 272.965 405.81 260.742 412.19 249.63Z" fill="#E6E6E6"/>
<path d="M401.6 231.719C395.94 219.423 372.6 210.377 378.69 219.81C382.94 226.356 388.04 230.849 393.45 239.763C397.64 246.696 403.34 255.404 404.45 261.866C404.95 248.278 405 239.05 401.6 231.719Z" fill="#E6E6E6"/>
<path d="M410.81 235.439C416.51 227.805 447 209.688 440 221.319C437.27 225.897 425.64 237.021 417.81 246.852C411.72 254.462 405.04 260.67 402.71 267.591C404.25 253.206 405.1 243.06 410.81 235.439Z" fill="#E6E6E6"/>
<path d="M403 262.228C411.33 251.092 472.06 236.743 456.45 249.039C451.11 253.242 427.63 260.465 416.18 274.801C407.29 285.925 404.09 304.381 400.68 314.49C391.7 296.723 394.66 273.376 403 262.228Z" fill="#E6E6E6"/>
<path d="M413.4 355.978L412.62 389.302C412.54 395.631 411.32 395.438 409.84 395.438H390.21C388.74 395.438 387.52 395.631 387.43 389.302L386.65 355.978C386.56 349.118 387.83 343.333 389.43 343.333H410.62C412.22 343.333 413.49 349.118 413.4 355.978Z" fill="#F5F5F5"/>
<path d="M414.57 349.408H385.48C385.289 349.422 385.1 349.352 384.948 349.213C384.796 349.073 384.69 348.873 384.65 348.647L383.96 342.27C383.955 342.139 383.974 342.008 384.014 341.886C384.055 341.765 384.116 341.655 384.195 341.564C384.274 341.474 384.367 341.405 384.47 341.362C384.573 341.319 384.682 341.303 384.79 341.315H415.27C415.378 341.305 415.486 341.322 415.588 341.366C415.69 341.41 415.783 341.479 415.861 341.569C415.939 341.659 416.001 341.768 416.042 341.889C416.083 342.009 416.103 342.139 416.1 342.27L415.41 348.647C415.367 348.873 415.26 349.075 415.106 349.214C414.952 349.353 414.762 349.422 414.57 349.408Z" fill="#F5F5F5"/>
<path d="M209.13 208.42H231.15V387.369H209.13V208.42Z" fill="#F0F0F0"/>
<path d="M59.9999 387.369H226.92V395.437H59.9999V387.369Z" fill="#F0F0F0"/>
<path d="M209.13 387.369H55.77L55.77 208.42L209.13 208.42L209.13 387.369Z" fill="#F5F5F5"/>
<path d="M211.41 201.378H233.92V208.42H211.41V201.378Z" fill="#F0F0F0"/>
<path d="M211.41 208.42L53 208.42V201.378L211.41 201.378V208.42Z" fill="#FAFAFA"/>
<path d="M63.7996 292.906H201.1V223.324H63.7996V292.906ZM199.8 291.384H65.0596V224.846H199.84L199.8 291.384Z" fill="#E0E0E0"/>
<path d="M63.7996 372.465H201.1V303.849H63.7996V372.465ZM199.8 370.943H65.0596V305.371H199.84L199.8 370.943Z" fill="#E0E0E0"/>
<path d="M105.72 237.009H159.18C159.808 237.006 160.409 236.703 160.853 236.167C161.297 235.631 161.548 234.904 161.55 234.146C161.548 233.388 161.297 232.662 160.853 232.126C160.409 231.59 159.808 231.287 159.18 231.284H105.72C105.093 231.287 104.491 231.59 104.047 232.126C103.603 232.662 103.353 233.388 103.35 234.146C103.353 234.904 103.603 235.631 104.047 236.167C104.491 236.703 105.093 237.006 105.72 237.009Z" fill="#E0E0E0"/>
<path d="M105.71 311.809H159.18C160.489 311.809 161.55 313.09 161.55 314.671C161.55 316.252 160.489 317.534 159.18 317.534H105.71C104.401 317.534 103.34 316.252 103.34 314.671C103.34 313.09 104.401 311.809 105.71 311.809Z" fill="#E0E0E0"/>
<path d="M139.59 201.306H75.9903L70.8303 132.811H134.43L139.59 201.306Z" fill="#E6E6E6"/>
<path d="M141.75 201.306H78.15L72.99 132.811H136.59L141.75 201.306Z" fill="#F0F0F0"/>
<path d="M83.8599 193.721L79.8399 140.396H130.88L134.9 193.721H83.8599Z" fill="white"/>
<path d="M154.32 151.291L158.09 201.306H127.61L123.84 151.291H154.32Z" fill="#E6E6E6"/>
<path d="M155.9 151.291L159.67 201.306H129.19L125.42 151.291H155.9Z" fill="#F0F0F0"/>
<path d="M151.73 156.822L154.67 195.774H133.35L130.42 156.822H151.73Z" fill="white"/>
<path d="M250 449.982C142.918 449.982 56.1101 443.861 56.1101 436.31C56.1101 428.759 142.918 422.637 250 422.637C357.083 422.637 443.89 428.759 443.89 436.31C443.89 443.861 357.083 449.982 250 449.982Z" fill="#F5F5F5"/>
<path d="M203.68 70.9229C204.6 68.1069 205.982 65.5446 207.743 63.3899C209.503 61.2351 211.606 59.5324 213.926 58.384C216.245 57.2356 218.732 56.6651 221.238 56.707C223.745 56.7488 226.218 57.402 228.51 58.6274C237.03 63.1688 241.65 76.3702 238.44 86.9144C236.837 92.2382 233.62 96.6284 229.44 99.1978C227.701 100.204 226.227 101.772 225.18 103.727L222.54 108.824C221.674 110.492 220.353 111.743 218.805 112.36C217.256 112.978 215.578 112.923 214.06 112.206L207.4 109.029C205.885 108.3 204.629 106.955 203.847 105.226C203.066 103.498 202.809 101.494 203.12 99.5601L204.12 93.4486C204.441 91.2849 204.257 89.0561 203.59 87.011C201.965 81.8208 201.997 76.0861 203.68 70.9229Z" fill="#263238"/>
<path d="M213.18 122.376C213.607 122.374 214.029 122.267 214.42 122.062C214.798 121.869 215.139 121.587 215.424 121.232C215.709 120.877 215.932 120.457 216.08 119.996C216.373 119.075 216.353 118.051 216.025 117.147C215.698 116.243 215.089 115.531 214.33 115.165L205.5 110.95C204.738 110.594 203.889 110.616 203.14 111.012C202.391 111.408 201.802 112.145 201.5 113.063C201.342 113.518 201.26 114.007 201.26 114.501C201.26 114.994 201.342 115.483 201.5 115.938C201.829 116.853 202.444 117.573 203.21 117.943L212 122.11C212.375 122.294 212.776 122.384 213.18 122.376ZM204.36 111.856C204.625 111.854 204.886 111.916 205.13 112.037L214 116.252C214.39 116.434 214.726 116.751 214.965 117.165C215.205 117.578 215.337 118.068 215.344 118.573C215.352 119.077 215.235 119.573 215.008 119.996C214.781 120.42 214.454 120.752 214.07 120.95C213.814 121.082 213.539 121.15 213.26 121.15C212.982 121.15 212.707 121.082 212.45 120.95L203.62 116.747C203.364 116.623 203.13 116.438 202.932 116.204C202.735 115.97 202.578 115.691 202.47 115.382C202.359 115.076 202.301 114.745 202.301 114.41C202.301 114.075 202.359 113.744 202.47 113.438C202.63 112.956 202.906 112.543 203.263 112.255C203.62 111.966 204.041 111.814 204.47 111.819L204.36 111.856Z" fill="#263238"/>
<path d="M208.681 128.874C208.948 128.87 209.213 128.805 209.461 128.681C209.917 128.418 210.275 127.956 210.461 127.388L210.611 126.917C210.705 126.632 210.751 126.327 210.747 126.02C210.743 125.713 210.689 125.409 210.587 125.128C210.486 124.846 210.34 124.591 210.157 124.378C209.974 124.165 209.757 123.998 209.521 123.886L204.011 121.253C203.531 121.042 203.003 121.061 202.534 121.306C202.066 121.551 201.692 122.003 201.491 122.569L201.341 123.04C201.156 123.617 201.167 124.258 201.371 124.826C201.575 125.393 201.956 125.84 202.431 126.072L208.001 128.705C208.217 128.811 208.447 128.868 208.681 128.874ZM203.331 122.291C203.447 122.295 203.562 122.324 203.671 122.376L209.181 125.009C209.295 125.062 209.4 125.143 209.489 125.245C209.577 125.348 209.648 125.47 209.698 125.606C209.747 125.742 209.774 125.888 209.776 126.037C209.778 126.185 209.756 126.332 209.711 126.47L209.561 126.941C209.515 127.08 209.448 127.207 209.362 127.314C209.276 127.422 209.174 127.507 209.06 127.567C208.947 127.626 208.825 127.658 208.702 127.661C208.578 127.663 208.456 127.636 208.341 127.582L202.831 124.948C202.715 124.894 202.61 124.813 202.521 124.709C202.432 124.606 202.36 124.482 202.311 124.345C202.264 124.209 202.239 124.063 202.239 123.916C202.239 123.769 202.264 123.623 202.311 123.487L202.461 123.016C202.535 122.809 202.656 122.632 202.81 122.503C202.964 122.375 203.144 122.302 203.331 122.291Z" fill="#263238"/>
<path d="M225.09 92.3492C225.772 92.3507 226.442 92.1276 227.026 91.704C227.611 91.2803 228.089 90.672 228.409 89.9447C228.729 89.2173 228.878 88.3984 228.842 87.576C228.805 86.7536 228.583 85.9589 228.2 85.2773C227.818 84.5957 227.288 84.0531 226.669 83.7078C226.05 83.3626 225.365 83.2277 224.687 83.3178C224.009 83.4079 223.365 83.7195 222.822 84.2191C222.28 84.7187 221.861 85.3874 221.61 86.1532L220.23 90.3684L223.72 92.0231C224.156 92.2367 224.621 92.3474 225.09 92.3492ZM225.09 84.4985C225.497 84.4932 225.9 84.5971 226.269 84.8025C226.639 85.008 226.966 85.3099 227.227 85.6865C227.489 86.0631 227.677 86.505 227.78 86.9804C227.883 87.4557 227.897 87.9528 227.822 88.4356C227.746 88.9184 227.583 89.375 227.344 89.7724C227.105 90.1699 226.796 90.4983 226.439 90.7341C226.082 90.9698 225.686 91.1069 225.28 91.1356C224.874 91.1642 224.468 91.0837 224.09 90.8998L221.53 89.692L222.53 86.6121C222.737 85.9958 223.093 85.4691 223.552 85.1007C224.01 84.7323 224.55 84.5393 225.1 84.5468L225.09 84.4985Z" fill="white"/>
<path d="M214.03 112.616L221.52 89.6801L214.63 86.3948L207.14 109.331L208.07 109.778L215.2 87.965L220.23 90.3685L213.1 112.17L214.03 112.616Z" fill="white"/>
<path d="M215.2 87.9651L216.57 83.7499C216.843 82.9165 216.905 82.0042 216.749 81.1281C216.592 80.2521 216.224 79.4519 215.691 78.8287C215.158 78.2055 214.483 77.7874 213.753 77.6272C213.023 77.467 212.27 77.572 211.59 77.9289C210.909 78.2858 210.331 78.8786 209.93 79.6321C209.528 80.3857 209.321 81.2662 209.334 82.1623C209.346 83.0583 209.579 83.9296 210.002 84.6658C210.425 85.4021 211.02 85.9702 211.71 86.2984L215.2 87.9651ZM213.09 78.7616C213.433 78.7672 213.772 78.8491 214.09 79.0032C214.426 79.163 214.733 79.4015 214.993 79.7051C215.252 80.0087 215.46 80.3713 215.603 80.7721C215.746 81.1728 215.822 81.6039 215.827 82.0403C215.831 82.4767 215.765 82.91 215.63 83.3151L214.63 86.395L212.08 85.1872C211.484 84.9047 210.988 84.3799 210.678 83.7032C210.368 83.0266 210.263 82.2404 210.382 81.4805C210.5 80.7205 210.835 80.0343 211.327 79.5401C211.82 79.046 212.44 78.7749 213.08 78.7737L213.09 78.7616Z" fill="white"/>
<path d="M199.67 145.529C203.426 145.535 207.175 145.168 210.88 144.43L210.71 143.222C207.074 143.947 203.395 144.311 199.71 144.309L199.67 145.529Z" fill="#263238"/>
<path d="M179 158.042L178.47 156.738C176.626 151.779 176.255 146.203 177.42 140.952C181.311 142.636 185.331 143.85 189.42 144.575L189.57 143.367C185.379 142.61 181.264 141.331 177.29 139.55L176.79 139.333L176.64 139.937C175.371 145.178 175.536 150.774 177.11 155.892C164.82 149.986 151.99 129.018 151.99 104.041C151.99 81.8654 173.4 63.8207 199.72 63.8207C226.04 63.8207 247.44 81.8654 247.44 104.041C247.44 120.165 236.07 134.695 218.44 141.048L218.73 142.256C236.73 135.746 248.41 120.769 248.41 104.089C248.41 81.2494 226.55 62.6612 199.69 62.6612C172.83 62.6612 150.96 81.2494 150.96 104.089C150.96 130.347 164.96 152.293 177.86 157.571L179 158.042Z" fill="#263238"/>
<path d="M151.239 72.8602L184.551 80.0489C186.944 80.5652 188.536 83.3259 188.109 86.2152L184.563 110.185C184.136 113.074 181.85 114.998 179.458 114.482L146.145 107.293C143.753 106.777 142.16 104.016 142.588 101.127L146.134 77.1571C146.561 74.2678 148.847 72.344 151.239 72.8602Z" fill="#263238"/>
<path d="M163.872 86.6612L160.908 99.4075L172.269 95.9986L163.872 86.6612Z" fill="white"/>
<path d="M284.741 291.892H369.701C371.462 291.892 372.891 293.617 372.891 295.745V301.216C372.891 303.344 371.462 305.069 369.701 305.069H284.741C282.979 305.069 281.551 303.344 281.551 301.216V295.745C281.551 293.617 282.979 291.892 284.741 291.892Z" fill="#263238"/>
<path d="M285.7 429.063H283.17L286.08 305.069H289.59L285.7 429.063Z" fill="#263238"/>
<path opacity="0.3" d="M285.7 429.063H283.17L286.08 305.069H289.59L285.7 429.063Z" fill="white"/>
<path d="M309.03 429.063H311.56L308.64 305.069H305.14L309.03 429.063Z" fill="#263238"/>
<path opacity="0.3" d="M309.03 429.063H311.56L308.64 305.069H305.14L309.03 429.063Z" fill="white"/>
<path d="M345.41 429.063H342.87L345.79 305.069H349.3L345.41 429.063Z" fill="#263238"/>
<path opacity="0.3" d="M345.41 429.063H342.87L345.79 305.069H349.3L345.41 429.063Z" fill="white"/>
<path d="M368.73 429.063H371.27L368.35 305.069H364.85L368.73 429.063Z" fill="#263238"/>
<path opacity="0.3" d="M368.73 429.063H371.27L368.35 305.069H364.85L368.73 429.063Z" fill="white"/>
<path d="M258.691 397.551L249.671 393.867L257.091 368.431L266.101 372.115L258.691 397.551Z" fill="#FFC3BD"/>
<path d="M250.34 389.664L260.22 394.954C260.302 394.989 260.377 395.044 260.439 395.117C260.501 395.19 260.55 395.278 260.581 395.376C260.612 395.473 260.626 395.578 260.62 395.682C260.615 395.787 260.591 395.889 260.55 395.981L256.8 405.184C256.565 405.667 256.195 406.031 255.756 406.211C255.317 406.39 254.839 406.373 254.41 406.163C251 404.266 249.47 403.167 245.12 400.86C242.44 399.447 237.05 396.923 233.71 394.326C230.37 391.729 232.99 387.985 234.63 388.734C238.52 390.521 244.99 390.449 248.53 389.531C249.13 389.349 249.763 389.395 250.34 389.664Z" fill="#263238"/>
<path opacity="0.2" d="M266.101 372.127L257.081 368.431L252.851 382.985L262.021 386.149L266.101 372.127Z" fill="black"/>
<path d="M322.58 257.493C322.58 257.493 277.58 267.301 273.95 285.152C266.82 320.444 250.74 375.641 250.74 375.641L267.86 381.68C267.86 381.68 292.34 318.379 295.42 297.073C320.67 297.073 351.42 299.489 355.42 286.589C358.93 275.139 357.68 257.542 357.68 257.542L322.58 257.493Z" fill="#263238"/>
<path d="M268.8 385.292L248.8 377.32L250.51 366.413L272.32 375.689L268.8 385.292Z" fill="#263238"/>
<path d="M297.89 401.416L287.93 402.334L293.78 372.646L303.07 375.182L297.89 401.416Z" fill="#FFC3BD"/>
<path d="M288.18 399.435L298.91 397.998C298.996 397.979 299.085 397.982 299.17 398.008C299.255 398.034 299.335 398.082 299.403 398.149C299.471 398.215 299.527 398.299 299.566 398.393C299.605 398.488 299.627 398.592 299.63 398.698L300.19 408.94C300.171 409.495 299.995 410.024 299.69 410.44C299.386 410.856 298.973 411.132 298.52 411.223C294.79 411.646 293 411.61 288.28 412.238C285.38 412.624 279.66 413.699 275.69 413.446C271.72 413.192 272.44 408.373 274.18 408.047C278.29 407.237 283.85 403.276 286.54 400.341C286.994 399.838 287.568 399.521 288.18 399.435Z" fill="#263238"/>
<path opacity="0.2" d="M303.07 375.194L293.78 372.658L290.83 387.659L300.22 389.652L303.07 375.194Z" fill="black"/>
<path d="M346 257.493C346 257.493 291.29 267.385 293.8 292.399C297.41 328.464 288.14 380.63 288.14 380.63L305.69 384.422C305.69 384.422 318.59 319.587 318.69 297.955C336.49 297.955 367.59 299.489 371.57 286.541C375.08 275.091 373.83 257.493 373.83 257.493H346Z" fill="#263238"/>
<path d="M306.9 387.949L286.31 382.538L287.07 371.486L309.57 377.948L306.9 387.949Z" fill="#263238"/>
<path d="M317.14 187.983C315.68 194.892 314.25 201.861 312.85 208.806C311.45 215.751 310.08 222.708 308.63 229.568L307.54 234.677L306.98 237.19L306.69 238.397V238.554V238.627C306.69 238.627 306.69 238.518 306.74 238.47C306.816 238.223 306.909 237.984 307.02 237.757L307.17 237.479L307.28 237.298L307.48 237.033C307.69 236.791 307.72 236.827 307.67 236.888C307.562 237.022 307.441 237.139 307.31 237.238C306.87 237.596 306.409 237.915 305.93 238.192C304.85 238.832 303.59 239.4 302.3 240.028C297.1 242.359 291.36 244.34 285.78 246.478L286.66 254.183C289.731 254.226 292.801 254.081 295.86 253.749C298.972 253.439 302.067 252.915 305.13 252.178C306.775 251.793 308.398 251.285 309.99 250.657C310.909 250.302 311.808 249.874 312.68 249.376C313.216 249.075 313.734 248.728 314.23 248.338C314.92 247.807 315.554 247.178 316.12 246.466C316.3 246.224 316.47 245.994 316.67 245.68L316.95 245.221L317.23 244.654C317.436 244.229 317.613 243.785 317.76 243.325L317.92 242.77L318.31 241.441L319.06 238.808C319.55 237.057 320.06 235.305 320.47 233.566C322.28 226.585 323.93 219.64 325.47 212.647C327.01 205.654 328.47 198.672 329.81 191.595L317.14 187.983Z" fill="#FFC3BD"/>
<path d="M331.2 179.625C325.71 172.234 317.01 177.403 313.34 193.95C311.56 201.994 312.12 206.197 312.12 206.197L331.06 213.251C335.13 202.381 338.67 189.699 331.2 179.625Z" fill="#407BFF"/>
<path d="M275.85 243.374L277.55 242.746C278.58 242.37 279.662 242.251 280.73 242.396L284.38 242.915C285.557 243.253 286.662 243.886 287.621 244.775C288.581 245.664 289.375 246.787 289.95 248.072L291.19 250.995C290.57 256.382 281.53 254.619 281.53 254.619H273L273.28 247.299C273.323 246.405 273.593 245.549 274.053 244.847C274.513 244.145 275.14 243.63 275.85 243.374Z" fill="#FFC3BD"/>
<path d="M270 231.585C270.242 233.569 270.935 235.434 272 236.972C272.91 238.579 273.85 240.173 274.8 241.803C276.71 244.956 278.66 248.06 280.8 251.019C280.894 251.147 281.023 251.229 281.163 251.25C281.303 251.271 281.445 251.23 281.562 251.133C281.679 251.037 281.762 250.892 281.797 250.727C281.831 250.561 281.815 250.386 281.75 250.234C280.27 246.731 278.6 243.398 276.89 240.088C276.03 238.438 275.15 236.799 274.25 235.173C273.473 233.394 272.307 231.907 270.88 230.873C270.774 230.795 270.653 230.754 270.529 230.756C270.405 230.757 270.284 230.801 270.18 230.881C270.075 230.962 269.992 231.076 269.939 231.212C269.886 231.347 269.866 231.497 269.88 231.646L270 231.585Z" fill="#263238"/>
<path d="M329.93 172.463L340.6 168.84L354.33 168.067C356.412 167.949 358.469 168.66 360.183 170.092C361.898 171.523 363.176 173.596 363.82 175.99C366.44 185.653 368.82 199.567 370.6 211.608C372.712 226.775 373.786 242.126 373.81 257.505H322.58C321.53 223.143 318.18 206.354 316.2 194.192C315.619 190.588 316.046 186.854 317.412 183.575C318.779 180.296 321.008 177.658 323.75 176.075L329.93 172.463Z" fill="#407BFF"/>
<path d="M344.24 174.879C342.94 178.913 337.91 187.537 332.06 190.906C328.81 188.068 328.11 181.872 327.62 178.973L344.24 174.879Z" fill="white"/>
<path d="M327.62 178.973C327.241 177.379 327.399 175.668 328.06 174.215C328.89 172.644 328.68 170.845 327.85 168.997C327.192 167.525 326.367 166.172 325.4 164.975L332.11 155.493L337.58 147.836C338.05 154.998 338.51 163.876 343.19 169.432C344.84 171.4 345.19 171.992 344.24 174.879C342.94 178.913 338.24 184.541 332.44 187.911C331.184 186.885 330.11 185.566 329.282 184.031C328.454 182.496 327.889 180.776 327.62 178.973Z" fill="#FFC3BD"/>
<path opacity="0.2" d="M327.46 163.344L331.25 155.916C331.32 156.109 331.41 156.315 331.5 156.532C331.841 157.452 332.116 158.405 332.32 159.383C333.01 162.68 330.69 167.39 328.15 169.637C328.04 169.432 327.95 169.214 327.85 168.997C327.203 167.602 326.436 166.294 325.56 165.095C325.51 165.049 325.457 165.009 325.4 164.975L327.46 163.344Z" fill="black"/>
<path d="M314.22 145.589C313.34 152.437 305.22 134.815 309.76 130.95C315.3 126.216 315.88 132.557 314.22 145.589Z" fill="#263238"/>
<path d="M337.33 136.651C337.85 147.775 338.64 154.237 334.41 160.663C328.05 170.325 315.84 167.137 312.47 156.496C309.47 146.906 309.1 130.335 317.95 124.465C326.8 118.595 336.81 125.54 337.33 136.651Z" fill="#FFC3BD"/>
<path d="M319.18 129.972C319.18 129.972 313.29 136.953 309.09 134.067C304.89 131.18 304.04 123.704 309.09 117.157C311.52 114.005 315.2 110.925 322.42 111.118C321.85 111.789 321.168 112.303 320.42 112.628C320.42 112.628 329.58 110.78 335.96 113.957C335.449 114.885 334.764 115.655 333.96 116.203C340.17 115.636 346.21 118.619 341.96 125.66C347.59 126.325 348.85 135.021 345.85 140.758C342.85 146.495 342.32 150.795 338.31 153.404C338.31 145.589 336.82 143.741 336.82 143.741C333.93 142.256 330.6 134.816 331.27 131.059C325.09 134.067 318.5 135.057 319.18 129.972Z" fill="#263238"/>
<path d="M340.48 125.407C342.439 123.72 343.962 121.395 344.87 118.703C345.59 122.593 342.26 127.025 342.26 127.025L340.48 125.407Z" fill="#263238"/>
<path d="M341.93 142.727C341.861 145.274 341.034 147.706 339.6 149.575C337.69 151.991 335.09 149.938 334.6 146.833C334.2 144.043 335.18 139.78 337.6 138.524C340.02 137.268 342 139.611 341.93 142.727Z" fill="#FFC3BD"/>
<path d="M322.251 142.389C322.401 143.307 322.131 144.164 321.641 144.309C321.151 144.454 320.641 143.826 320.471 142.908C320.301 141.99 320.591 141.133 321.081 140.988C321.571 140.843 322.101 141.483 322.251 142.389Z" fill="#263238"/>
<path d="M313.75 144.84C313.91 145.758 313.63 146.604 313.14 146.749C312.65 146.894 312.14 146.266 311.97 145.348C311.8 144.43 312.1 143.572 312.59 143.439C313.08 143.307 313.6 143.922 313.75 144.84Z" fill="#263238"/>
<path d="M316.58 144.768C316.359 147.399 315.848 149.982 315.06 152.45C316.46 153.307 318.22 152.015 318.22 152.015L316.58 144.768Z" fill="#ED847E"/>
<path d="M319.79 157.148C320.671 156.925 321.505 156.49 322.242 155.867C322.979 155.244 323.605 154.447 324.08 153.525C324.099 153.493 324.112 153.456 324.119 153.418C324.125 153.379 324.125 153.339 324.118 153.301C324.111 153.263 324.097 153.226 324.077 153.195C324.058 153.164 324.033 153.137 324.004 153.118C323.976 153.1 323.944 153.088 323.912 153.085C323.879 153.082 323.847 153.087 323.816 153.1C323.785 153.114 323.757 153.135 323.734 153.162C323.71 153.189 323.692 153.222 323.68 153.259C323.15 154.245 322.44 155.071 321.604 155.674C320.769 156.277 319.83 156.641 318.86 156.737C318.83 156.739 318.802 156.748 318.775 156.763C318.749 156.779 318.725 156.801 318.706 156.829C318.688 156.856 318.674 156.888 318.666 156.922C318.658 156.956 318.656 156.992 318.66 157.027C318.661 157.063 318.668 157.099 318.681 157.131C318.694 157.164 318.712 157.193 318.735 157.216C318.757 157.24 318.783 157.258 318.812 157.269C318.84 157.28 318.87 157.284 318.9 157.281C319.198 157.258 319.496 157.214 319.79 157.148Z" fill="#263238"/>
<path d="M323.37 138.693C323.44 138.659 323.502 138.605 323.55 138.536C323.626 138.423 323.662 138.279 323.65 138.135C323.639 137.99 323.582 137.857 323.49 137.763C322.949 137.198 322.3 136.804 321.603 136.614C320.905 136.425 320.179 136.446 319.49 136.676C319.376 136.722 319.282 136.821 319.228 136.952C319.175 137.082 319.167 137.233 319.205 137.37C319.243 137.508 319.326 137.622 319.433 137.686C319.541 137.751 319.666 137.761 319.78 137.714C320.323 137.548 320.891 137.543 321.436 137.698C321.981 137.854 322.486 138.166 322.91 138.608C322.973 138.672 323.049 138.713 323.13 138.728C323.211 138.743 323.294 138.731 323.37 138.693Z" fill="#263238"/>
<path d="M312.7 138.898C312.715 138.81 312.715 138.72 312.7 138.632C312.665 138.494 312.587 138.377 312.483 138.305C312.379 138.233 312.256 138.212 312.14 138.246C311.451 138.468 310.817 138.889 310.295 139.475C309.772 140.06 309.375 140.791 309.14 141.604C309.123 141.673 309.118 141.745 309.124 141.816C309.131 141.888 309.149 141.957 309.178 142.02C309.207 142.083 309.246 142.138 309.292 142.183C309.339 142.228 309.393 142.261 309.45 142.28C309.507 142.3 309.567 142.307 309.626 142.299C309.685 142.291 309.742 142.269 309.795 142.234C309.847 142.199 309.892 142.152 309.929 142.096C309.966 142.039 309.994 141.975 310.01 141.906C310.202 141.27 310.521 140.701 310.937 140.248C311.354 139.795 311.856 139.473 312.4 139.309C312.474 139.275 312.54 139.221 312.593 139.149C312.645 139.077 312.682 138.991 312.7 138.898Z" fill="#263238"/>
<path d="M352.19 184.65C354.11 191.269 356.03 198.165 357.74 204.929C358.61 208.311 359.4 211.705 360.11 215.051C360.798 218.264 361.332 221.522 361.71 224.81C361.71 225.172 361.79 225.571 361.8 225.921V226.452C361.8 226.622 361.8 226.875 361.8 226.791C361.8 226.706 361.88 226.863 361.8 227.117C361.546 228.04 361.134 228.888 360.59 229.605C358.872 231.901 356.924 233.93 354.79 235.644C349.974 239.565 344.946 243.092 339.74 246.2L341.88 253.64C344.979 252.824 348.034 251.783 351.03 250.524C354.082 249.261 357.062 247.756 359.95 246.019C363.117 244.153 366.047 241.749 368.65 238.881C370.304 237.04 371.637 234.818 372.57 232.347C373.152 230.759 373.491 229.056 373.57 227.322C373.57 226.779 373.57 226.585 373.57 226.295V225.45C373.57 224.882 373.57 224.363 373.57 223.819C373.398 219.798 372.98 215.797 372.32 211.85C371.72 208.033 370.97 204.337 370.16 200.666C368.537 193.373 366.598 186.189 364.35 179.142L352.19 184.65Z" fill="#FFC3BD"/>
<path d="M355 167.994C345.22 167.885 343.37 177.077 348.69 191.643C350.726 196.907 353.213 201.898 356.11 206.535L372.28 196.16C370.12 184.529 366.17 168.115 355 167.994Z" fill="#407BFF"/>
<path d="M328 245.04L331.58 242.625C332.166 242.237 332.838 242.085 333.5 242.19L337.8 242.915C340.69 243.277 342.8 245.946 344.37 248.265L346.2 250.971C346.29 256.43 334.87 255.15 334.87 255.15L324.87 254.993L325.18 250.234C325.259 249.155 325.558 248.116 326.05 247.209C326.542 246.303 327.212 245.558 328 245.04Z" fill="#FFC3BD"/>
<path d="M114.66 252.3H385.35V267.603H114.66V252.3Z" fill="#263238"/>
<path opacity="0.3" d="M297.55 252.3H385.35V267.603H297.55V252.3Z" fill="white"/>
<path d="M378.1 267.603H382.24V436.31H378.1V267.603Z" fill="#263238"/>
<path opacity="0.7" d="M378.1 267.603H382.24V436.31H378.1V267.603Z" fill="white"/>
<path d="M300.65 267.603H304.79V436.31H300.65V267.603Z" fill="#263238"/>
<path opacity="0.7" d="M300.65 267.603H304.79V436.31H300.65V267.603Z" fill="white"/>
<path d="M195.211 267.603H199.351V436.31H195.211V267.603Z" fill="#263238"/>
<path opacity="0.7" d="M195.211 267.603H199.351V436.31H195.211V267.603Z" fill="white"/>
<path d="M117.76 267.603H121.9V436.31H117.76V267.603Z" fill="#263238"/>
<path opacity="0.7" d="M117.76 267.603H121.9V436.31H117.76V267.603Z" fill="white"/>
<path d="M144 184.663H218C219.269 184.718 220.484 185.292 221.447 186.29C222.41 187.288 223.063 188.652 223.3 190.158L231.02 246.792C231.138 247.468 231.128 248.166 230.991 248.836C230.853 249.506 230.592 250.129 230.226 250.659C229.86 251.189 229.4 251.612 228.879 251.896C228.359 252.181 227.791 252.319 227.22 252.3H153.22C151.949 252.247 150.73 251.673 149.765 250.672C148.8 249.671 148.146 248.302 147.91 246.792L140.19 190.158C140.072 189.483 140.082 188.783 140.22 188.113C140.358 187.443 140.621 186.82 140.988 186.29C141.355 185.761 141.817 185.339 142.339 185.057C142.861 184.775 143.429 184.64 144 184.663Z" fill="#263238"/>
<path d="M190.99 248.604H260.66C261.119 248.604 261.49 249.053 261.49 249.606V251.297C261.49 251.851 261.119 252.3 260.66 252.3H190.99C190.532 252.3 190.16 251.851 190.16 251.297V249.606C190.16 249.053 190.532 248.604 190.99 248.604Z" fill="#263238"/>
<path opacity="0.2" d="M144 184.663H216.38C217.649 184.718 218.864 185.292 219.827 186.29C220.79 187.289 221.443 188.653 221.68 190.158L229.4 246.793C229.52 247.468 229.512 248.168 229.375 248.838C229.238 249.509 228.977 250.133 228.611 250.664C228.244 251.195 227.783 251.618 227.262 251.901C226.74 252.185 226.172 252.321 225.6 252.3H153.27C151.999 252.247 150.78 251.673 149.815 250.672C148.85 249.671 148.196 248.303 147.96 246.793L140.24 190.158C140.123 189.488 140.132 188.794 140.268 188.129C140.403 187.463 140.661 186.843 141.022 186.315C141.384 185.787 141.839 185.364 142.355 185.078C142.871 184.792 143.433 184.65 144 184.663Z" fill="white"/>
<path d="M335.54 248.604C335.54 248.604 311.71 252.892 300.21 247.227C294.83 250.355 275.67 251.901 269 248.604C271.06 251.491 275.9 252.3 275.9 252.3H326.17C331 252.3 334.69 249.752 335.54 248.604Z" fill="#263238"/>
<path opacity="0.7" d="M335.54 248.604C335.54 248.604 311.71 252.892 300.21 247.227C294.83 250.355 275.67 251.901 269 248.604C271.06 251.491 275.9 252.3 275.9 252.3H326.17C331 252.3 334.69 249.752 335.54 248.604Z" fill="white"/>
</svg>
