<svg width="500" height="450" viewBox="0 0 500 450" fill="none" xmlns="http://www.w3.org/2000/svg">
<path d="M476.924 156.237H479.027V21.5137H476.924V156.237Z" fill="#E6E6E6"/>
<path d="M416.17 404.524H376.815V404.826H416.17V404.524Z" fill="#EBEBEB"/>
<path d="M313.446 414.743H261.128V415.045H313.446V414.743Z" fill="#EBEBEB"/>
<path d="M470.579 415.733H417.37V416.035H470.579V415.733Z" fill="#EBEBEB"/>
<path d="M69.7142 404.222H18.394V404.524H69.7142V404.222Z" fill="#EBEBEB"/>
<path d="M87.8233 404.222H80.3018V404.524H87.8233V404.222Z" fill="#EBEBEB"/>
<path d="M223.591 409.319H112.277V409.621H223.591V409.319Z" fill="#EBEBEB"/>
<path d="M236.21 341.583H6.77297C4.97558 341.579 3.25288 340.851 1.98304 339.558C0.713198 338.265 -2.75639e-06 336.513 0 334.686V6.83648C0.0156467 5.01989 0.735751 3.28294 2.0039 2.00289C3.27205 0.722853 4.98582 0.00311191 6.77297 0H236.21C238.01 0 239.736 0.726633 241.008 2.02005C242.28 3.31346 242.995 5.06771 242.995 6.89688V334.686C242.995 336.515 242.28 338.269 241.008 339.563C239.736 340.856 238.01 341.583 236.21 341.583ZM6.77297 0.241573C5.05436 0.244772 3.40722 0.941001 2.19309 2.17744C0.978961 3.41388 0.297057 5.0895 0.29706 6.83648V334.686C0.297057 336.433 0.978961 338.108 2.19309 339.345C3.40722 340.581 5.05436 341.277 6.77297 341.281H236.21C237.93 341.277 239.579 340.582 240.795 339.346C242.011 338.109 242.695 336.434 242.698 334.686V6.83648C242.695 5.08839 242.011 3.4128 240.795 2.1767C239.579 0.940609 237.93 0.244766 236.21 0.241573H6.77297Z" fill="#EBEBEB"/>
<path d="M493.239 341.583H263.79C261.991 341.579 260.267 340.852 258.996 339.559C257.724 338.266 257.008 336.514 257.005 334.686V6.83648C257.024 5.01879 257.746 3.28185 259.016 2.00214C260.286 0.722431 262.001 0.00307798 263.79 0H493.239C495.024 0.0062863 496.735 0.727432 498.001 2.00713C499.266 3.28683 499.985 5.02198 500 6.83648V334.686C500 336.511 499.289 338.261 498.021 339.554C496.754 340.847 495.034 341.576 493.239 341.583ZM263.79 0.241573C262.07 0.244766 260.422 0.940609 259.206 2.1767C257.99 3.4128 257.305 5.08839 257.302 6.83648V334.686C257.305 336.434 257.99 338.109 259.206 339.346C260.422 340.582 262.07 341.277 263.79 341.281H493.239C494.959 341.277 496.607 340.582 497.823 339.346C499.039 338.109 499.724 336.434 499.727 334.686V6.83648C499.724 5.08839 499.039 3.4128 497.823 2.1767C496.607 0.940609 494.959 0.244766 493.239 0.241573H263.79Z" fill="#EBEBEB"/>
<path d="M200.741 277.723H57.0947V71.0462C57.0947 54.5831 200.741 54.5831 200.741 71.0462V277.723Z" fill="#E0E0E0"/>
<path d="M197.438 277.723H53.8037V71.0462C53.8037 54.5831 197.45 54.5831 197.438 71.0462V277.723Z" fill="#EBEBEB"/>
<path d="M60.9331 267.348V75.129C60.9304 74.4845 61.1243 73.8549 61.4882 73.3271C61.8521 72.7993 62.3681 72.3992 62.965 72.1818C70.9381 69.2588 92.671 65.9493 125.621 65.9493C158.571 65.9493 180.28 69.2588 188.277 72.1818C188.874 72.3992 189.39 72.7993 189.754 73.3271C190.118 73.8549 190.312 74.4845 190.309 75.129V267.348C190.31 267.758 190.232 268.165 190.079 268.544C189.926 268.923 189.7 269.268 189.415 269.559C189.13 269.85 188.792 270.08 188.419 270.238C188.046 270.395 187.647 270.476 187.243 270.476H63.9988C63.5952 270.476 63.1956 270.395 62.8229 270.238C62.4501 270.08 62.1117 269.85 61.8268 269.559C61.542 269.268 61.3164 268.923 61.1631 268.544C61.0097 268.165 60.9316 267.758 60.9331 267.348Z" fill="#FAFAFA"/>
<path d="M91.2449 67.3383L68.894 270.476H101.606L124.183 65.9493C111.445 65.9855 100.442 66.5291 91.2449 67.3383Z" fill="white"/>
<path d="M133.594 66.0215L111.018 270.476H129.091L151.572 66.71C146.118 66.4322 140.106 66.1302 133.594 66.0215Z" fill="white"/>
<path d="M153.283 273.157V62.8208H147.009V273.157H153.283Z" fill="#EBEBEB"/>
<path d="M102.759 273.157L102.759 62.8208H96.4849L96.4849 273.157H102.759Z" fill="#EBEBEB"/>
<path d="M103.888 273.17L103.888 62.8329H102.759L102.759 273.17H103.888Z" fill="#E0E0E0"/>
<path d="M154.412 273.169V62.8329H153.283V273.169H154.412Z" fill="#E0E0E0"/>
<path d="M192.614 109.166H57.1543V115.544H192.614V109.166Z" fill="#EBEBEB"/>
<path d="M193.802 275.779H47.2563V282.82H193.802V275.779Z" fill="#F5F5F5"/>
<path d="M193.802 282.82H200.741V275.778H193.802V282.82Z" fill="#E0E0E0"/>
<path d="M456.035 277.723H312.412V71.0462C312.412 54.5831 456.059 54.5831 456.059 71.0462L456.035 277.723Z" fill="#E0E0E0"/>
<path d="M452.756 277.723H309.121V71.0462C309.121 54.5831 452.756 54.5831 452.756 71.0462V277.723Z" fill="#EBEBEB"/>
<path d="M316.25 267.348V75.129C316.247 74.4845 316.441 73.8549 316.805 73.3271C317.169 72.7993 317.685 72.3992 318.282 72.1818C326.255 69.2588 347.988 65.9493 380.938 65.9493C413.888 65.9493 435.597 69.2588 443.594 72.1818C444.191 72.3992 444.707 72.7993 445.071 73.3271C445.435 73.8549 445.628 74.4845 445.626 75.129V267.348C445.627 267.758 445.549 268.165 445.396 268.544C445.242 268.923 445.017 269.268 444.732 269.559C444.447 269.85 444.109 270.08 443.736 270.238C443.363 270.395 442.964 270.476 442.56 270.476H319.316C318.912 270.476 318.512 270.395 318.14 270.238C317.767 270.08 317.429 269.85 317.144 269.559C316.859 269.268 316.633 268.923 316.48 268.544C316.327 268.165 316.248 267.758 316.25 267.348Z" fill="#FAFAFA"/>
<path d="M346.61 67.3383L324.212 270.476H356.924L379.501 65.9493C366.763 65.9855 355.76 66.5291 346.61 67.3383Z" fill="white"/>
<path d="M388.912 66.0215L366.335 270.476H384.408L406.89 66.71C401.436 66.4322 395.435 66.1302 388.912 66.0215Z" fill="white"/>
<path d="M408.589 273.157V62.8208H402.315V273.157H408.589Z" fill="#EBEBEB"/>
<path d="M358.077 273.157V62.8208H351.803V273.157H358.077Z" fill="#EBEBEB"/>
<path d="M359.205 273.169V62.8329H358.076V273.169H359.205Z" fill="#E0E0E0"/>
<path d="M409.729 273.17V62.8329H408.601V273.17H409.729Z" fill="#E0E0E0"/>
<path d="M447.931 109.166H312.472V115.544H447.931V109.166Z" fill="#EBEBEB"/>
<path d="M449.119 275.779H302.574V282.82H449.119V275.779Z" fill="#F5F5F5"/>
<path d="M449.119 282.82H456.059V275.778H449.119V282.82Z" fill="#E0E0E0"/>
<path d="M57.0955 26.8386H21.27V37.1296H57.0955V26.8386Z" fill="#F0F0F0"/>
<path d="M75.0135 37.1295H39.188V47.4205H75.0135V37.1295Z" fill="#E6E6E6"/>
<path d="M297.738 170.767H261.912V181.058H297.738V170.767Z" fill="#F5F5F5"/>
<path d="M349.272 311.458H313.446V321.749H349.272V311.458Z" fill="#F5F5F5"/>
<path d="M60.9211 324.975H96.7466V314.684H60.9211V324.975Z" fill="#E6E6E6"/>
<path d="M203.142 16.5476H167.316V26.8386H203.142V16.5476Z" fill="#F0F0F0"/>
<path d="M210.532 304.393H174.707V314.684H210.532V304.393Z" fill="#F5F5F5"/>
<path d="M473.978 299.247H438.152V309.538H473.978V299.247Z" fill="#F5F5F5"/>
<path d="M192.614 314.684H156.788V324.975H192.614V314.684Z" fill="#F0F0F0"/>
<path d="M302.574 47.4326L338.399 47.4326V37.1417L302.574 37.1417V47.4326Z" fill="#F0F0F0"/>
<path d="M461.679 42.4078C465.924 42.4078 469.995 40.6936 472.997 37.6424C475.998 34.5912 477.684 30.4529 477.684 26.1379C477.684 21.8229 475.998 17.6846 472.997 14.6334C469.995 11.5822 465.924 9.86804 461.679 9.86804H459.754V42.4078H461.679Z" fill="#E0E0E0"/>
<path d="M459.754 42.4078C468.594 42.4078 475.76 35.1235 475.76 26.1379C475.76 17.1523 468.594 9.86804 459.754 9.86804C450.914 9.86804 443.749 17.1523 443.749 26.1379C443.749 35.1235 450.914 42.4078 459.754 42.4078Z" fill="#EBEBEB"/>
<path opacity="0.6" d="M456.498 22.2005C453.718 25.7395 449.975 27.4063 448.181 25.9328C446.386 24.4592 447.147 20.3766 449.927 16.8376C452.708 13.2985 456.451 11.6317 458.245 13.1053C460.039 14.5789 459.279 18.6494 456.498 22.2005Z" fill="#F5F5F5"/>
<path d="M459.755 28.4209C460.995 28.4209 462 27.3988 462 26.138C462 24.8772 460.995 23.8552 459.755 23.8552C458.514 23.8552 457.509 24.8772 457.509 26.138C457.509 27.3988 458.514 28.4209 459.755 28.4209Z" fill="#E0E0E0"/>
<path d="M468.226 54.3536H455.762C454.501 54.3536 453.292 53.8446 452.401 52.9385C451.51 52.0324 451.009 50.8036 451.009 49.5222C451.009 48.2408 451.51 47.0119 452.401 46.1058C453.292 45.1998 454.501 44.6907 455.762 44.6907H468.226C469.487 44.6907 470.696 45.1998 471.587 46.1058C472.479 47.0119 472.979 48.2408 472.979 49.5222C472.979 50.8036 472.479 52.0324 471.587 52.9385C470.696 53.8446 469.487 54.3536 468.226 54.3536Z" fill="#E0E0E0"/>
<path d="M465.98 54.3536H453.516C452.255 54.3536 451.046 53.8446 450.155 52.9385C449.263 52.0324 448.763 50.8036 448.763 49.5222C448.763 48.2408 449.263 47.0119 450.155 46.1058C451.046 45.1998 452.255 44.6907 453.516 44.6907H465.98C467.241 44.6907 468.45 45.1998 469.341 46.1058C470.233 47.0119 470.733 48.2408 470.733 49.5222C470.733 50.8036 470.233 52.0324 469.341 52.9385C468.45 53.8446 467.241 54.3536 465.98 54.3536Z" fill="#F5F5F5"/>
<path d="M471.91 48.6888L471.482 47.4085C472.396 47.1145 473.244 46.6403 473.978 46.0132C474.711 45.386 475.316 44.618 475.757 43.7532C476.198 42.8884 476.468 41.9436 476.55 40.9729C476.632 40.0022 476.525 39.0246 476.235 38.0959L477.495 37.6973C478.182 39.9077 477.981 42.3049 476.934 44.3647C475.888 46.4245 474.081 47.9792 471.91 48.6888Z" fill="#E0E0E0"/>
<path d="M477.53 39.8595C477.209 39.9584 476.862 39.9252 476.565 39.7671C476.267 39.6091 476.042 39.3387 475.938 39.014L475.487 37.5645C475.389 37.2378 475.422 36.8853 475.577 36.5827C475.733 36.2801 475.999 36.0515 476.318 35.946C476.478 35.8937 476.645 35.8742 476.812 35.8885C476.979 35.9029 477.141 35.9508 477.289 36.0295C477.437 36.1082 477.568 36.2161 477.675 36.3469C477.782 36.4778 477.862 36.6289 477.911 36.7915L478.362 38.2409C478.463 38.5677 478.432 38.9216 478.276 39.2251C478.12 39.5285 477.852 39.7567 477.53 39.8595Z" fill="#E0E0E0"/>
<path d="M251.658 450C378.898 450 482.046 443.878 482.046 436.327C482.046 428.776 378.898 422.654 251.658 422.654C124.418 422.654 21.27 428.776 21.27 436.327C21.27 443.878 124.418 450 251.658 450Z" fill="#F5F5F5"/>
<path d="M78.9707 59.0405C78.8516 59.041 78.7349 59.0073 78.6339 58.9432C78.533 58.879 78.452 58.7871 78.4003 58.6781C77.3784 56.516 78.6142 54.813 79.9094 53.0012C81.7749 50.4043 84.092 47.1793 81.6442 40.9226C77.319 29.7136 80.7768 23.1912 80.9313 22.9255C81.0198 22.7918 81.1547 22.6969 81.309 22.6599C81.4632 22.6228 81.6256 22.6463 81.7636 22.7256C81.9017 22.8049 82.0052 22.9342 82.0535 23.0877C82.1019 23.2411 82.0915 23.4075 82.0245 23.5536C82.0245 23.6139 78.7211 29.8465 82.8206 40.4636C85.5179 47.4329 82.8206 51.1169 80.9194 53.75C79.5529 55.6585 78.8756 56.7214 79.5291 58.1225C79.5654 58.1986 79.5865 58.2812 79.5912 58.3656C79.5958 58.45 79.584 58.5345 79.5564 58.6142C79.5288 58.6939 79.4859 58.7673 79.4302 58.8301C79.3746 58.8929 79.3072 58.9439 79.2321 58.9801C79.1496 59.0171 79.0608 59.0376 78.9707 59.0405Z" fill="#407BFF"/>
<path d="M81.5133 24.9788C81.1621 24.9812 80.8182 24.8773 80.5252 24.6805C80.2322 24.4837 80.0035 24.2027 79.868 23.8734C79.7325 23.544 79.6965 23.1812 79.7644 22.831C79.8323 22.4807 80.0012 22.1589 80.2495 21.9065C80.4978 21.6541 80.8144 21.4824 81.1589 21.4134C81.5035 21.3443 81.8604 21.381 82.1844 21.5187C82.5084 21.6564 82.7848 21.889 82.9785 22.1868C83.1721 22.4846 83.2742 22.8342 83.2719 23.1911C83.2688 23.6643 83.0825 24.1171 82.7534 24.4517C82.4242 24.7863 81.9787 24.9756 81.5133 24.9788ZM81.5133 22.6718C81.4405 22.6604 81.3661 22.6651 81.2953 22.6857C81.2244 22.7063 81.1588 22.7422 81.1029 22.7909C81.047 22.8397 81.0021 22.9001 80.9713 22.9682C80.9406 23.0362 80.9246 23.1102 80.9246 23.1851C80.9246 23.26 80.9406 23.334 80.9713 23.402C81.0021 23.4701 81.047 23.5305 81.1029 23.5793C81.1588 23.6281 81.2244 23.6639 81.2953 23.6845C81.3661 23.7051 81.4405 23.7098 81.5133 23.6984C81.6339 23.6796 81.7439 23.6174 81.8234 23.5233C81.9028 23.4291 81.9465 23.3092 81.9465 23.1851C81.9465 23.061 81.9028 22.9411 81.8234 22.8469C81.7439 22.7528 81.6339 22.6906 81.5133 22.6718Z" fill="#407BFF"/>
<path d="M101.476 47.7831L102.07 48.7856L43.1928 85.3475L42.5986 84.345L66.4585 56.7817L101.476 47.7831Z" fill="#263238"/>
<path d="M102.07 48.7856L78.2103 76.349L43.1929 85.3475L67.0528 57.7842L102.07 48.7856Z" fill="#407BFF"/>
<path d="M97.6972 70.1165C85.3708 75.6043 73.8346 82.7679 63.4045 91.4111C63.2598 91.5406 63.0896 91.6373 62.9052 91.6946C62.7208 91.7519 62.5265 91.7686 62.3353 91.7434C62.1441 91.7183 61.9603 91.6519 61.7964 91.5488C61.6324 91.4456 61.492 91.3081 61.3845 91.1454L55.0868 80.6611C54.9277 80.3758 54.8749 80.0418 54.9382 79.7202C55.0015 79.3986 55.1766 79.1109 55.4314 78.9098C66.0445 70.0559 77.813 62.7392 90.4014 57.1683C90.6925 57.0274 91.024 56.9987 91.3343 57.0876C91.6447 57.1764 91.9127 57.3768 92.0887 57.6514L98.3864 68.1357C98.4854 68.3084 98.5463 68.501 98.5648 68.7001C98.5833 68.8991 98.5589 69.0999 98.4933 69.2884C98.4277 69.4769 98.3225 69.6487 98.185 69.7917C98.0475 69.9347 97.8811 70.0455 97.6972 70.1165Z" fill="#407BFF"/>
<path opacity="0.3" d="M97.6972 70.1165C85.3708 75.6043 73.8346 82.7679 63.4045 91.4111C63.2598 91.5406 63.0896 91.6373 62.9052 91.6946C62.7208 91.7519 62.5265 91.7686 62.3353 91.7434C62.1441 91.7183 61.9603 91.6519 61.7964 91.5488C61.6324 91.4456 61.492 91.3081 61.3845 91.1454L55.0868 80.6611C54.9277 80.3758 54.8749 80.0418 54.9382 79.7202C55.0015 79.3986 55.1766 79.1109 55.4314 78.9098C66.0445 70.0559 77.813 62.7392 90.4014 57.1683C90.6925 57.0274 91.024 56.9987 91.3343 57.0876C91.6447 57.1764 91.9127 57.3768 92.0887 57.6514L98.3864 68.1357C98.4854 68.3084 98.5463 68.501 98.5648 68.7001C98.5833 68.8991 98.5589 69.0999 98.4933 69.2884C98.4277 69.4769 98.3225 69.6487 98.185 69.7917C98.0475 69.9347 97.8811 70.0455 97.6972 70.1165Z" fill="#263238"/>
<path d="M427.981 175.551C427.845 175.55 427.711 175.519 427.588 175.461C427.465 175.403 427.356 175.318 427.268 175.212C425.058 172.555 426.08 169.68 427.149 166.649C428.753 162.107 430.559 156.986 423.24 149.884C408.767 135.897 417.738 122.103 417.833 122.03C417.975 121.823 418.192 121.68 418.436 121.632C418.68 121.585 418.933 121.637 419.14 121.777C419.346 121.923 419.486 122.145 419.533 122.395C419.58 122.646 419.528 122.905 419.39 123.117C419.045 123.613 411.25 135.655 424.535 148.482C432.758 156.418 430.536 162.699 428.92 167.289C427.826 170.393 427.268 172.229 428.706 173.956C428.786 174.053 428.847 174.164 428.884 174.285C428.922 174.405 428.936 174.532 428.924 174.658C428.913 174.784 428.878 174.906 428.82 175.018C428.762 175.13 428.683 175.229 428.587 175.309C428.422 175.464 428.206 175.551 427.981 175.551Z" fill="#407BFF"/>
<path d="M418.653 125.243C418.16 125.243 417.677 125.102 417.259 124.837C416.841 124.571 416.504 124.192 416.287 123.742C416.07 123.292 415.981 122.789 416.031 122.291C416.081 121.792 416.267 121.318 416.569 120.921C416.87 120.525 417.275 120.222 417.738 120.048C418.2 119.873 418.701 119.834 419.184 119.935C419.667 120.035 420.113 120.271 420.47 120.616C420.828 120.96 421.084 121.4 421.208 121.885C421.382 122.574 421.281 123.304 420.927 123.918C420.573 124.531 419.995 124.977 419.319 125.159C419.101 125.216 418.878 125.244 418.653 125.243ZM418.653 121.789H418.463C418.365 121.812 418.273 121.856 418.193 121.918C418.113 121.981 418.047 122.06 418 122.151C417.948 122.237 417.913 122.332 417.899 122.432C417.885 122.532 417.891 122.633 417.917 122.731C417.942 122.829 417.985 122.922 418.045 123.003C418.105 123.084 418.181 123.152 418.267 123.204C418.353 123.255 418.448 123.289 418.547 123.303C418.646 123.318 418.747 123.312 418.843 123.286C419.037 123.232 419.203 123.104 419.305 122.928C419.407 122.752 419.437 122.543 419.39 122.344C419.337 122.146 419.209 121.977 419.034 121.873C418.917 121.811 418.785 121.782 418.653 121.789Z" fill="#407BFF"/>
<path d="M462.511 223.551L461.311 224.493L405.855 151.031L407.056 150.089L445.994 178.075L462.511 223.551Z" fill="#263238"/>
<path d="M461.311 224.493L422.372 196.507L405.855 151.031L444.794 179.017L461.311 224.493Z" fill="#407BFF"/>
<path d="M433.15 221.63C424.336 205.955 413.471 191.567 400.853 178.86C400.665 178.685 400.516 178.47 400.416 178.231C400.315 177.993 400.266 177.735 400.272 177.475C400.278 177.216 400.338 176.96 400.448 176.726C400.559 176.492 400.717 176.285 400.913 176.118L413.567 166.25C413.912 165.997 414.334 165.879 414.758 165.917C415.181 165.954 415.577 166.146 415.873 166.455C428.78 179.383 439.865 194.065 448.811 210.083C449.033 210.454 449.116 210.895 449.044 211.323C448.972 211.752 448.75 212.139 448.419 212.414L435.764 222.246C435.558 222.397 435.322 222.502 435.073 222.553C434.824 222.604 434.567 222.6 434.319 222.541C434.072 222.483 433.839 222.372 433.637 222.214C433.436 222.057 433.269 221.858 433.15 221.63Z" fill="#407BFF"/>
<path opacity="0.3" d="M433.15 221.63C424.336 205.955 413.471 191.567 400.853 178.86C400.665 178.685 400.516 178.47 400.416 178.231C400.315 177.993 400.266 177.735 400.272 177.475C400.278 177.216 400.338 176.96 400.448 176.726C400.559 176.492 400.717 176.285 400.913 176.118L413.567 166.25C413.912 165.997 414.334 165.879 414.758 165.917C415.181 165.954 415.577 166.146 415.873 166.455C428.78 179.383 439.865 194.065 448.811 210.083C449.033 210.454 449.116 210.895 449.044 211.323C448.972 211.752 448.75 212.139 448.419 212.414L435.764 222.246C435.558 222.397 435.322 222.502 435.073 222.553C434.824 222.604 434.567 222.6 434.319 222.541C434.072 222.483 433.839 222.372 433.637 222.214C433.436 222.057 433.269 221.858 433.15 221.63Z" fill="#263238"/>
<path d="M98.565 198.464C106.166 201.674 114.161 203.819 122.33 204.841C122.446 204.852 122.559 204.888 122.661 204.947C122.763 205.005 122.852 205.085 122.922 205.181C122.991 205.277 123.04 205.386 123.065 205.503C123.09 205.619 123.09 205.739 123.067 205.856L121.177 213.103C121.122 213.295 121 213.461 120.834 213.57C120.669 213.679 120.47 213.723 120.274 213.695C111.926 212.672 103.757 210.481 95.9984 207.184C95.8133 207.113 95.6602 206.976 95.5682 206.798C95.4762 206.62 95.4517 206.413 95.4994 206.218L97.3887 198.971C97.4221 198.851 97.4815 198.74 97.5626 198.647C97.6437 198.553 97.7444 198.479 97.8573 198.431C97.9702 198.382 98.0923 198.36 98.2148 198.365C98.3373 198.371 98.457 198.405 98.565 198.464Z" fill="#407BFF"/>
<path d="M90.3662 195.625L90.5563 194.937L131.265 205.892L131.087 206.58L109.057 207.522L90.3662 195.625Z" fill="#263238"/>
<path d="M90.5557 194.937L112.574 193.994L131.265 205.892L109.235 206.834L90.5557 194.937Z" fill="#407BFF"/>
<g opacity="0.4">
<path opacity="0.4" d="M90.5557 194.937L112.574 193.994L131.265 205.892L109.235 206.834L90.5557 194.937Z" fill="#263238"/>
</g>
<path d="M112.039 200.746C111.985 200.764 111.927 200.764 111.873 200.746C111.798 200.701 111.743 200.628 111.721 200.542C111.699 200.456 111.711 200.364 111.754 200.287C112.158 199.575 111.849 198.983 111.196 197.872C110.438 196.856 109.992 195.636 109.914 194.364C109.836 193.092 110.129 191.825 110.756 190.721C113.382 185.274 111.944 181.856 111.944 181.819C111.908 181.738 111.905 181.645 111.937 181.561C111.968 181.477 112.03 181.409 112.111 181.372C112.15 181.352 112.193 181.341 112.237 181.339C112.282 181.337 112.326 181.344 112.367 181.36C112.408 181.375 112.446 181.4 112.477 181.431C112.509 181.462 112.534 181.5 112.55 181.541C112.622 181.686 114.178 185.286 111.422 191.023C110.841 192.021 110.568 193.173 110.64 194.33C110.713 195.486 111.125 196.594 111.826 197.509C112.443 198.524 113.014 199.478 112.384 200.577C112.352 200.639 112.301 200.689 112.239 200.72C112.177 200.75 112.107 200.76 112.039 200.746Z" fill="#407BFF"/>
<path d="M112.17 182.629H112.099C111.85 182.604 111.62 182.483 111.457 182.29C111.379 182.196 111.319 182.086 111.283 181.968C111.246 181.85 111.233 181.725 111.243 181.602C111.251 181.477 111.283 181.355 111.338 181.242C111.393 181.13 111.47 181.031 111.564 180.95C111.757 180.789 112.005 180.711 112.253 180.732C112.375 180.739 112.493 180.772 112.602 180.828C112.71 180.884 112.806 180.963 112.883 181.058C112.998 181.197 113.072 181.366 113.096 181.546C113.12 181.726 113.093 181.909 113.018 182.074C112.944 182.239 112.824 182.379 112.674 182.477C112.523 182.575 112.349 182.628 112.17 182.629ZM112.17 181.421C112.14 181.419 112.109 181.423 112.081 181.434C112.052 181.444 112.026 181.46 112.004 181.481C111.975 181.502 111.952 181.529 111.935 181.56C111.919 181.592 111.91 181.627 111.909 181.662C111.902 181.734 111.923 181.806 111.967 181.862C112.012 181.919 112.076 181.955 112.146 181.964C112.182 181.968 112.218 181.964 112.253 181.953C112.287 181.942 112.319 181.924 112.347 181.9C112.374 181.877 112.397 181.848 112.414 181.815C112.43 181.783 112.44 181.747 112.443 181.711C112.447 181.639 112.423 181.569 112.376 181.515C112.33 181.46 112.264 181.427 112.194 181.421H112.17Z" fill="#407BFF"/>
<path d="M250.196 79.912C241.605 77.4963 236.793 91.2417 234.488 102.741C233.944 105.94 232.479 108.904 230.277 111.257C228.074 113.609 225.235 115.244 222.118 115.955C222.118 115.955 252.383 135.969 274.935 124.905C293.092 115.991 287.293 94.9136 279.118 85.2145C270.943 75.5154 255.436 71.5657 250.196 79.912Z" fill="#263238"/>
<path d="M266.938 425.553L256.672 426.58L245.989 401.746L256.256 400.732L266.938 425.553Z" fill="#FF8B7B"/>
<path d="M332.018 394.946L323.736 401.613L308.681 381.672L316.975 375.004L332.018 394.946Z" fill="#FF8B7B"/>
<path d="M320.481 397.797L327.123 387.723C327.235 387.547 327.407 387.418 327.606 387.36C327.804 387.302 328.017 387.32 328.204 387.409L336.807 391.612C337.019 391.726 337.206 391.885 337.354 392.077C337.502 392.269 337.609 392.491 337.668 392.728C337.726 392.965 337.734 393.212 337.692 393.453C337.651 393.693 337.559 393.922 337.425 394.125C335.048 397.591 333.729 399.149 330.806 403.582C329.012 406.312 325.424 412.605 322.94 416.373C320.457 420.142 316.666 417.835 317.367 416.047C320.516 408.003 320.433 403.365 320.029 399.669C319.959 399.01 320.119 398.348 320.481 397.797Z" fill="#263238"/>
<path d="M255.306 423.355H267.913C268.14 423.359 268.36 423.438 268.54 423.579C268.719 423.721 268.85 423.917 268.911 424.14L271.644 434.274C271.711 434.513 271.721 434.765 271.675 435.009C271.629 435.253 271.528 435.483 271.379 435.68C271.23 435.877 271.038 436.036 270.818 436.144C270.598 436.252 270.356 436.307 270.111 436.303C265.667 436.303 263.564 436.303 258.027 436.303H241.082C236.472 436.303 235.509 431.58 237.423 431.145C245.966 429.225 250.885 426.568 253.523 424.043C254.009 423.591 254.647 423.344 255.306 423.355Z" fill="#263238"/>
<path opacity="0.2" d="M246.001 401.758L251.503 414.549H262.209L256.267 400.732L246.001 401.758Z" fill="black"/>
<path opacity="0.2" d="M316.975 375.004L308.693 381.684L316.452 391.963L324.734 385.283L316.975 375.004Z" fill="black"/>
<path d="M236.21 203.319C236.21 203.319 216.296 267.263 222.177 314.043C226.11 345.363 246.905 410.841 246.905 410.841L265.239 410.37C265.239 410.37 250.386 343.853 248.853 317.884C246.227 273.471 267.865 203.247 267.865 203.247L236.21 203.319Z" fill="#407BFF"/>
<path d="M244.278 411.808L266.938 411.228L265.619 404.15H242.662L244.278 411.808Z" fill="#263238"/>
<path d="M245.597 203.428C245.597 203.428 248.39 273.278 263.706 312.582C276.064 344.337 312.198 391.093 312.198 391.093L323.237 381.321C323.237 381.321 300.304 331.872 290.917 310.686C267.889 258.748 293.198 222.729 279.331 203.186L245.597 203.428Z" fill="#407BFF"/>
<path d="M311.058 392.446L325.234 380.584L321.384 374.195L305.865 387.324L311.058 392.446Z" fill="#263238"/>
<path d="M317.985 403.304C317.65 403.267 317.337 403.118 317.094 402.882C316.979 402.79 316.891 402.669 316.839 402.531C316.787 402.392 316.772 402.242 316.797 402.097C317.023 400.756 320.528 399.222 320.92 399.053C320.953 399.03 320.993 399.018 321.033 399.018C321.073 399.018 321.112 399.03 321.146 399.053C321.168 399.087 321.18 399.127 321.18 399.167C321.18 399.208 321.168 399.248 321.146 399.282C320.647 400.623 319.637 402.906 318.342 403.232C318.227 403.273 318.107 403.298 317.985 403.304ZM320.623 399.681C319.435 400.248 317.343 401.384 317.213 402.205C317.203 402.279 317.214 402.354 317.243 402.422C317.273 402.49 317.32 402.549 317.379 402.592C317.491 402.721 317.635 402.818 317.796 402.871C317.957 402.924 318.129 402.932 318.294 402.894C319.031 402.676 319.886 401.493 320.575 399.645L320.623 399.681Z" fill="#407BFF"/>
<path d="M317.747 399.934C317.21 399.941 316.686 399.762 316.262 399.427C316.13 399.287 316.049 399.106 316.032 398.913C316.015 398.719 316.062 398.526 316.167 398.364C316.25 398.194 316.368 398.044 316.514 397.925C316.659 397.806 316.829 397.721 317.01 397.676C318.484 397.289 321.015 398.992 321.122 399.065C321.151 399.088 321.174 399.117 321.19 399.151C321.207 399.184 321.216 399.221 321.217 399.258C321.212 399.296 321.199 399.332 321.179 399.363C321.158 399.394 321.13 399.421 321.098 399.439C320.032 399.86 318.887 400.03 317.747 399.934ZM317.688 398.05C317.499 398.019 317.306 398.019 317.117 398.05C316.992 398.079 316.874 398.136 316.773 398.218C316.672 398.3 316.591 398.403 316.535 398.521C316.381 398.835 316.464 398.992 316.535 399.089C317.117 399.681 319.351 399.56 320.528 399.173C319.663 398.612 318.698 398.23 317.688 398.05Z" fill="#407BFF"/>
<path d="M249.721 425.432C248.868 425.493 248.018 425.287 247.285 424.841C247.097 424.702 246.943 424.52 246.836 424.311C246.728 424.101 246.671 423.869 246.667 423.633C246.649 423.505 246.667 423.374 246.72 423.256C246.772 423.139 246.857 423.039 246.964 422.968C248.152 422.171 252.679 424.321 253.202 424.575C253.243 424.593 253.276 424.624 253.298 424.663C253.319 424.702 253.327 424.748 253.321 424.792C253.315 424.836 253.296 424.877 253.266 424.909C253.236 424.942 253.197 424.964 253.155 424.973C252.029 425.247 250.878 425.4 249.721 425.432ZM247.701 423.222C247.524 423.213 247.348 423.25 247.19 423.331C247.147 423.364 247.114 423.409 247.095 423.46C247.076 423.511 247.072 423.567 247.083 423.621C247.086 423.793 247.128 423.963 247.206 424.116C247.285 424.269 247.397 424.401 247.534 424.502C248.568 425.288 251.099 424.961 252.442 424.696C250.946 423.957 249.347 423.46 247.701 423.222Z" fill="#407BFF"/>
<path d="M253.107 424.985H253.036C251.657 424.418 248.77 422.062 248.924 420.891C248.924 420.649 249.126 420.335 249.756 420.251C252.216 419.961 253.321 424.551 253.321 424.744C253.328 424.781 253.325 424.82 253.312 424.856C253.3 424.892 253.278 424.924 253.25 424.949C253.229 424.965 253.206 424.976 253.182 424.982C253.157 424.988 253.132 424.989 253.107 424.985ZM249.982 420.649H249.804C249.376 420.71 249.352 420.867 249.34 420.927C249.245 421.676 251.301 423.584 252.798 424.382C252.489 423.319 251.562 420.649 249.982 420.649Z" fill="#407BFF"/>
<path d="M171.843 100.144L168.195 92.0027L192.008 81.9533L215.083 70.2492L218.731 78.3902L194.919 88.4396L171.843 100.144Z" fill="#407BFF"/>
<path opacity="0.5" d="M171.843 100.144L168.195 92.0027L192.008 81.9533L215.083 70.2492L218.731 78.3902L194.919 88.4396L171.843 100.144Z" fill="#FAFAFA"/>
<path d="M196.677 78.6209L196.404 78.7057C195.695 78.9262 195.296 79.6893 195.513 80.4102L197.515 87.0631C197.732 87.7839 198.483 88.1895 199.192 87.969L199.465 87.8842C200.174 87.6637 200.573 86.9005 200.356 86.1797L198.354 79.5268C198.137 78.806 197.386 78.4004 196.677 78.6209Z" fill="#407BFF"/>
<path d="M186.45 83.4674L186.218 83.6353C185.613 84.0717 185.471 84.9238 185.9 85.5384L189.863 91.2108C190.293 91.8254 191.131 91.9699 191.735 91.5334L191.968 91.3656C192.573 90.9291 192.715 90.0771 192.285 89.4625L188.322 83.79C187.893 83.1754 187.055 83.031 186.45 83.4674Z" fill="#407BFF"/>
<path d="M196.404 96.0854L198.923 86.7849L188.003 88.8624C188.003 88.8624 188.146 95.409 193.326 98.7547L196.404 96.0854Z" fill="#FF8B7B"/>
<path d="M195.228 78.064L187.409 81.1441L188.003 88.8623L198.923 86.7848L195.228 78.064Z" fill="#FF8B7B"/>
<path d="M187.267 117.162C187.54 107.258 191.521 93.4763 191.521 93.4763L197.046 92.7757C196.187 99.7946 196 106.882 196.487 113.937L187.267 117.162Z" fill="#FF8B7B"/>
<path d="M240.619 159.739C239.93 159.933 239.526 160.029 238.991 160.162L237.506 160.5L234.582 161.141C232.646 161.551 230.709 161.95 228.736 162.264C224.724 162.982 220.672 163.457 216.604 163.689C212.038 163.997 207.451 163.66 202.975 162.687C200.217 162.063 197.569 161.016 195.121 159.582C194.456 159.196 193.778 158.701 193.125 158.23L192.875 158.048L192.543 157.771L191.865 157.191C191.473 156.804 191.069 156.406 190.677 155.983C189.518 154.653 188.528 153.18 187.73 151.598C186.572 149.291 185.667 146.86 185.033 144.351C184.451 142.117 184.07 140.003 183.738 137.938C183.048 133.819 182.74 129.857 182.419 125.956C182.098 122.054 181.955 118.201 181.836 114.36L181.658 108.599L181.575 105.7C181.575 104.697 181.516 103.803 181.516 102.68L205.28 104.83C205.126 105.519 204.96 106.437 204.817 107.246L204.425 109.807C204.175 111.522 203.997 113.249 203.807 114.976C203.486 118.419 203.26 121.873 203.225 125.255C203.16 128.533 203.291 131.813 203.617 135.075C203.783 136.528 204.021 137.971 204.33 139.399C204.54 140.422 204.851 141.422 205.257 142.382C205.387 142.636 205.471 142.709 205.257 142.515C205.043 142.322 205.138 142.382 205.055 142.322C205.009 142.271 204.957 142.227 204.9 142.189L204.817 142.117C204.912 142.117 204.948 142.225 205.067 142.286C205.738 142.662 206.464 142.927 207.217 143.071C209.793 143.52 212.42 143.577 215.012 143.24C218.102 142.891 221.158 142.285 224.15 141.428C225.683 140.981 227.227 140.51 228.748 139.955C229.509 139.677 230.257 139.387 231.006 139.085L232.087 138.626C232.408 138.481 232.848 138.288 233.014 138.191L240.619 159.739Z" fill="#263238"/>
<g opacity="0.2">
<path opacity="0.2" d="M229.83 351.137C231.505 357.756 233.287 364.423 235.046 370.789C240.227 369.327 247.594 367.165 255.769 364.448C254.379 357.104 253.036 349.603 251.895 342.573L229.83 351.137Z" fill="black"/>
<path opacity="0.2" d="M297.322 324.914L274.068 333.925C277.633 340.302 281.542 346.752 285.475 352.9C293.08 349.374 299.948 345.557 304.915 341.547L297.322 324.914Z" fill="black"/>
</g>
<path d="M229.603 143.735C230.293 160.319 209.106 228.479 218.981 367.661C228.891 369.931 300.292 339.264 308.693 330.519C307.968 313.838 277.858 205.687 285.296 144.508C285.772 140.631 283.597 136.959 279.783 136.392C276.563 135.909 272.547 135.425 268.495 135.184C261.972 134.711 255.424 134.711 248.901 135.184C244.005 135.655 238.634 136.585 234.998 137.273C233.485 137.511 232.107 138.296 231.116 139.482C230.125 140.669 229.588 142.179 229.603 143.735Z" fill="#263238"/>
<path d="M266.498 112.874C265.31 119.288 264.122 130.992 268.495 135.292C268.495 135.292 262.209 145.281 251.491 150.209C242.959 142.866 248.901 135.341 248.901 135.341C255.923 133.626 255.733 128.323 254.497 123.347L266.498 112.874Z" fill="#FF8B7B"/>
<path d="M251.04 151.695L252.37 143.965L266.831 132.067L271.786 134.966C271.786 134.966 258.787 152.118 251.04 151.695Z" fill="#E6E6E6"/>
<path d="M251.04 151.695L252.371 143.965L250.469 134.072L245.871 134.93C245.871 134.93 243.34 152.118 251.04 151.695Z" fill="#E6E6E6"/>
<path d="M252.37 143.965C252.37 143.965 258.585 150.197 258.894 155.838C263.088 151.683 273.152 138.372 273.354 134.531C271.156 132.671 266.7 131.536 266.7 131.536L252.37 143.965Z" fill="white"/>
<path d="M252.37 143.965C252.37 143.965 246.334 148.796 246.013 154.485C241.819 150.33 243.791 138.566 244.314 135.317C246.512 133.456 250.897 132.901 250.897 132.901L252.37 143.965Z" fill="white"/>
<path opacity="0.2" d="M261.603 117.162L254.474 123.347C254.781 124.506 254.988 125.69 255.092 126.886C257.777 126.487 261.817 124.023 262.09 121.173C262.168 119.817 262.003 118.458 261.603 117.162Z" fill="black"/>
<path d="M272.939 103.248C269.374 113.358 268.186 117.742 261.555 121.499C251.645 127.212 240.167 120.629 240.666 109.65C241.082 99.7813 246.75 84.9126 257.812 83.6927C260.248 83.4137 262.714 83.772 264.976 84.7336C267.237 85.6951 269.22 87.228 270.735 89.1869C272.25 91.1457 273.248 93.4656 273.633 95.9264C274.019 98.3872 273.78 100.907 272.939 103.248Z" fill="#FF8B7B"/>
<path d="M268.78 91.4834C262.53 93.718 263.076 106.4 269.279 110.809C275.482 115.218 282.896 86.4467 268.78 91.4834Z" fill="#263238"/>
<path d="M250.469 86.966C256.767 92.5825 265.809 94.7567 268.982 93.126C271.287 94.9499 278.963 98.646 274.389 89.8407C269.814 81.0354 261.71 79.9 256.434 79.9724C251.158 80.0449 245.11 82.1345 250.469 86.966Z" fill="#263238"/>
<path d="M272.974 112.766C271.8 114.598 269.973 115.897 267.877 116.389C265.168 116.981 264.169 114.324 265.215 111.679C266.154 109.263 268.697 106.135 271.275 106.739C273.854 107.342 274.448 110.447 272.974 112.766Z" fill="#FF8B7B"/>
<path d="M256.779 101.666C256.541 102.499 255.912 103.055 255.377 102.874C254.842 102.692 254.593 101.919 254.83 101.074C255.068 100.228 255.686 99.6848 256.232 99.866C256.779 100.047 257.017 100.832 256.779 101.666Z" fill="#263238"/>
<path d="M247.463 98.9599C247.225 99.8054 246.595 100.361 246.061 100.168C245.526 99.9745 245.276 99.2015 245.514 98.368C245.752 97.5346 246.369 96.979 246.916 97.1602C247.463 97.3414 247.7 98.1265 247.463 98.9599Z" fill="#263238"/>
<path d="M247.142 97.2811L245.324 96.0732C245.324 96.0732 245.895 97.9937 247.142 97.2811Z" fill="#263238"/>
<path d="M249.519 101.122C248.249 102.818 246.758 104.33 245.086 105.615C245.422 106.041 245.844 106.389 246.324 106.633C246.804 106.877 247.33 107.012 247.867 107.029L249.519 101.122Z" fill="#FF5652"/>
<path d="M251.396 111.413C250.873 111.37 250.355 111.273 249.851 111.123C249.824 111.116 249.799 111.104 249.776 111.086C249.754 111.069 249.736 111.047 249.722 111.022C249.709 110.997 249.701 110.97 249.698 110.941C249.696 110.913 249.7 110.884 249.709 110.857C249.715 110.831 249.727 110.807 249.744 110.785C249.76 110.764 249.78 110.745 249.804 110.732C249.827 110.719 249.852 110.71 249.879 110.707C249.905 110.703 249.932 110.705 249.958 110.713C250.984 111.035 252.07 111.108 253.129 110.925C254.188 110.743 255.19 110.31 256.054 109.662C256.094 109.623 256.147 109.601 256.202 109.601C256.258 109.601 256.311 109.623 256.351 109.662C256.389 109.702 256.411 109.756 256.411 109.813C256.411 109.869 256.389 109.923 256.351 109.964C254.943 111.073 253.169 111.592 251.396 111.413Z" fill="#263238"/>
<path d="M261.864 96.7497C261.793 96.7431 261.724 96.7173 261.666 96.6748C261.607 96.6324 261.561 96.5748 261.532 96.5081C261.263 95.9101 260.858 95.3863 260.349 94.9807C259.841 94.575 259.244 94.2994 258.609 94.1769C258.498 94.159 258.399 94.0991 258.33 94.0094C258.262 93.9197 258.23 93.8068 258.24 93.6938C258.258 93.5849 258.315 93.4869 258.402 93.4196C258.488 93.3523 258.596 93.3208 258.704 93.3314C259.476 93.4732 260.202 93.8019 260.823 94.2896C261.443 94.7774 261.939 95.4099 262.268 96.1337C262.314 96.235 262.32 96.3505 262.285 96.4562C262.25 96.5618 262.176 96.6496 262.078 96.7014C262.011 96.7338 261.938 96.7503 261.864 96.7497Z" fill="#263238"/>
<path d="M244.207 93.6696C244.133 93.6652 244.062 93.6404 244.002 93.5978C243.941 93.5552 243.893 93.4965 243.862 93.4281C243.817 93.3253 243.813 93.2087 243.851 93.1028C243.888 92.9969 243.965 92.91 244.064 92.8604C244.772 92.5144 245.551 92.3449 246.336 92.3659C247.122 92.3869 247.891 92.5978 248.58 92.9812C248.671 93.045 248.735 93.1414 248.759 93.2511C248.783 93.3608 248.766 93.4757 248.71 93.573C248.65 93.6679 248.555 93.7349 248.446 93.7597C248.337 93.7845 248.223 93.7652 248.128 93.7059C247.561 93.3919 246.929 93.2213 246.283 93.2087C245.638 93.1961 244.999 93.3418 244.421 93.6334C244.355 93.6686 244.28 93.6813 244.207 93.6696Z" fill="#263238"/>
<path d="M325.328 141.851L326.516 132.285L335.797 138.469C335.797 138.469 333.194 144.508 327.146 145.511L325.328 141.851Z" fill="#FF8B7B"/>
<path d="M333.242 125.678L339.302 131.572L335.82 138.469L326.54 132.285L333.242 125.678Z" fill="#FF8B7B"/>
<path d="M325.804 164.861C329.297 155.621 330.842 141.344 330.842 141.344L326.006 138.542C324.134 145.334 321.624 151.927 318.508 158.23L325.804 164.861Z" fill="#FF8B7B"/>
<path d="M284.595 140.221C285.225 141.573 286.033 143.192 286.817 144.665C287.602 146.139 288.445 147.649 289.289 149.123C290.988 152.07 292.782 154.944 294.66 157.698C296.476 160.394 298.432 162.991 300.518 165.477C301.528 166.685 302.538 167.772 303.548 168.786C304.447 169.684 305.408 170.516 306.423 171.275C306.617 171.424 306.819 171.561 307.029 171.685L307.291 171.866C307.374 171.866 307.291 171.866 307.291 171.866H307.196C306.727 171.656 306.223 171.537 305.71 171.516C305.22 171.495 304.729 171.56 304.261 171.709C303.988 171.806 303.988 171.83 304.106 171.709C304.728 171.172 305.279 170.555 305.746 169.874C306.504 168.801 307.199 167.684 307.826 166.528C309.231 163.788 310.423 160.941 311.39 158.012C311.937 156.49 312.377 154.92 312.828 153.35L313.422 150.934C313.517 150.536 313.6 150.137 313.672 149.726C313.743 149.316 313.85 148.905 313.862 148.688L336.771 155.814C336.533 156.454 336.355 156.853 336.141 157.336L335.547 158.713L334.359 161.431C333.575 163.23 332.719 165.054 331.876 166.806C330.123 170.503 328.171 174.1 326.029 177.58C324.851 179.513 323.55 181.365 322.132 183.124C320.422 185.281 318.445 187.206 316.25 188.849C314.785 189.924 313.187 190.797 311.497 191.446C309.37 192.242 307.108 192.603 304.843 192.509C302.558 192.409 300.317 191.834 298.26 190.818L297.583 190.468C297.369 190.359 297.108 190.214 297.001 190.141L296.133 189.61C295.539 189.26 295.028 188.897 294.529 188.535C291.035 185.931 287.817 182.964 284.928 179.681C282.255 176.686 279.795 173.702 277.466 170.671C275.137 167.639 272.915 164.631 270.741 161.527L267.509 156.901L265.916 154.606C265.358 153.797 264.859 153.072 264.265 152.19L284.595 140.221Z" fill="#263238"/>
<path d="M256.411 99.9866L254.604 98.7788C254.604 98.7788 255.222 100.699 256.411 99.9866Z" fill="#263238"/>
<path d="M299.591 83.898L299.401 84.6589L232.479 67.5919L232.67 66.8309L267.877 68.2804L299.591 83.898Z" fill="#263238"/>
<path d="M299.401 84.6589L264.194 83.2095L232.479 67.5919L267.687 69.0534L299.401 84.6589Z" fill="#407BFF"/>
<path d="M282.552 92.7638C269.958 88.0097 256.888 84.6761 243.578 82.8231C242.746 82.7144 242.128 82.0501 242.283 81.422L244.659 71.7591C244.764 71.4805 244.966 71.2511 245.227 71.1151C245.488 70.9791 245.789 70.946 246.073 71.0223C259.653 72.8808 272.985 76.28 285.82 81.1562C286.103 81.2279 286.35 81.4029 286.514 81.6479C286.679 81.8929 286.749 82.1908 286.711 82.4849L284.334 92.1478C284.26 92.3095 284.154 92.4542 284.023 92.5733C283.892 92.6924 283.738 92.7834 283.572 92.8409C283.406 92.8984 283.23 92.9212 283.054 92.908C282.879 92.8947 282.708 92.8457 282.552 92.7638Z" fill="#407BFF"/>
<path opacity="0.3" d="M282.552 92.7638C269.958 88.0097 256.888 84.6761 243.578 82.8231C242.746 82.7144 242.128 82.0501 242.283 81.422L244.659 71.7591C244.764 71.4805 244.966 71.2511 245.227 71.1151C245.488 70.9791 245.789 70.946 246.073 71.0223C259.653 72.8808 272.985 76.28 285.82 81.1562C286.103 81.2279 286.35 81.4029 286.514 81.6479C286.679 81.8929 286.749 82.1908 286.711 82.4849L284.334 92.1478C284.26 92.3095 284.154 92.4542 284.023 92.5733C283.892 92.6924 283.738 92.7834 283.572 92.8409C283.406 92.8984 283.23 92.9212 283.054 92.908C282.879 92.8947 282.708 92.8457 282.552 92.7638Z" fill="#263238"/>
<path d="M288.493 120.581C288.346 120.581 288.203 120.53 288.089 120.436C287.964 120.324 287.886 120.167 287.873 119.997C287.859 119.828 287.911 119.661 288.018 119.53C293.84 112.56 290.608 109.408 286.128 105.036C283.562 102.523 280.639 99.6726 279.165 95.6384C275.09 84.514 287.542 77.1702 287.661 77.0977C287.806 77.015 287.978 76.9939 288.138 77.0392C288.298 77.0844 288.434 77.1923 288.517 77.3393C288.559 77.4112 288.587 77.491 288.599 77.574C288.61 77.657 288.605 77.7415 288.584 77.8225C288.563 77.9035 288.526 77.9795 288.476 78.0459C288.426 78.1122 288.363 78.1677 288.291 78.2089C287.804 78.4868 276.646 85.0937 280.342 95.1915C281.72 98.96 284.524 101.702 287.008 104.118C291.404 108.418 295.563 112.476 288.98 120.351C288.921 120.424 288.846 120.482 288.762 120.521C288.678 120.561 288.586 120.581 288.493 120.581Z" fill="#407BFF"/>
<path d="M288.493 121.74C288.142 121.743 287.799 121.639 287.506 121.443C287.213 121.246 286.984 120.966 286.849 120.638C286.713 120.309 286.676 119.947 286.743 119.597C286.81 119.247 286.978 118.925 287.225 118.672C287.472 118.419 287.787 118.247 288.131 118.176C288.475 118.106 288.831 118.141 289.156 118.277C289.48 118.412 289.757 118.643 289.952 118.939C290.147 119.236 290.251 119.584 290.251 119.94C290.251 120.416 290.066 120.872 289.737 121.209C289.408 121.546 288.96 121.737 288.493 121.74ZM288.493 119.433C288.391 119.431 288.29 119.46 288.205 119.516C288.119 119.572 288.051 119.653 288.011 119.748C287.971 119.844 287.96 119.949 287.979 120.051C287.999 120.153 288.048 120.246 288.12 120.32C288.192 120.393 288.284 120.443 288.384 120.462C288.484 120.482 288.588 120.471 288.682 120.43C288.776 120.389 288.855 120.321 288.911 120.233C288.966 120.146 288.994 120.044 288.992 119.94C288.992 119.806 288.939 119.677 288.846 119.582C288.752 119.487 288.625 119.433 288.493 119.433Z" fill="#407BFF"/>
</svg>
