<svg width="480" height="520" viewBox="0 0 480 520" fill="none" xmlns="http://www.w3.org/2000/svg">
<path d="M259.095 519.407C148.586 519.407 59.0004 513.496 59.0004 506.204C59.0004 498.911 148.586 493 259.095 493C369.604 493 459.189 498.911 459.189 506.204C459.189 513.496 369.604 519.407 259.095 519.407Z" fill="#F5F5F5"/>
<path d="M422.281 316.146C396.873 369.448 348.472 412.237 294.288 426.43C263.509 434.487 226.895 433.301 200.458 416.061C174.434 399.073 162.999 373.071 157.586 341.194C151.634 306.116 146.692 274.218 122.569 248.637C95.5936 220.047 62.9461 205.259 54.8504 160.71C49.0242 128.438 58.2034 92.4686 79.0226 66.0587C91.975 49.636 110.004 36.5947 129.522 34.4347C147.516 32.4349 164.716 39.6907 179.91 48.85C201.724 61.9593 224.979 83.4023 252.327 82.1096C297.795 79.9528 339.757 56.6913 398.134 105.715C443.294 143.669 457.173 203.973 441.373 263.494C436.626 281.626 430.231 299.263 422.281 316.146Z" fill="#263238" fill-opacity="0.85"/>
<path d="M80.1813 143.66C79.3888 143.47 78.6714 143.044 78.1198 142.436C77.5682 141.827 77.2073 141.063 77.0825 140.241C76.9578 139.419 77.0749 138.575 77.419 137.817C77.7631 137.058 78.3189 136.418 79.0159 135.979C79.7129 135.539 80.52 135.32 81.3351 135.347C82.1501 135.375 82.9366 135.649 83.5951 136.134C84.2535 136.62 84.7543 137.296 85.0343 138.075C85.3142 138.855 85.3607 139.705 85.1678 140.516C85.0397 141.055 84.809 141.564 84.489 142.014C84.169 142.463 83.766 142.845 83.3029 143.137C82.8398 143.429 82.3258 143.626 81.7902 143.716C81.2546 143.805 80.7079 143.786 80.1813 143.66Z" fill="white"/>
<path d="M275.435 355.523C274.643 355.331 273.932 354.875 273.391 354.214C272.851 353.553 272.505 352.717 272.399 351.81C272.292 350.903 272.429 349.967 272.791 349.12C273.154 348.273 273.727 347.553 274.437 347.051C275.148 346.549 275.963 346.288 276.782 346.3C277.6 346.312 278.384 346.598 279.035 347.12C279.685 347.642 280.173 348.378 280.437 349.235C280.701 350.091 280.728 351.03 280.516 351.932C280.375 352.531 280.132 353.099 279.801 353.604C279.469 354.109 279.055 354.541 278.583 354.874C278.112 355.208 277.591 355.436 277.051 355.548C276.51 355.659 275.961 355.651 275.435 355.523Z" fill="white"/>
<path d="M337.556 137.811C336.763 137.62 336.05 137.167 335.508 136.507C334.966 135.847 334.619 135.01 334.511 134.103C334.403 133.197 334.538 132.26 334.9 131.412C335.262 130.564 335.834 129.843 336.545 129.339C337.255 128.836 338.071 128.574 338.89 128.586C339.708 128.597 340.493 128.882 341.144 129.404C341.796 129.927 342.284 130.663 342.548 131.52C342.812 132.376 342.84 133.315 342.628 134.218C342.488 134.817 342.246 135.385 341.915 135.89C341.585 136.395 341.172 136.827 340.701 137.16C340.23 137.494 339.709 137.723 339.17 137.835C338.63 137.947 338.082 137.938 337.556 137.811Z" fill="white"/>
<path d="M417.298 248.577C416.426 248.37 415.636 247.899 415.028 247.226C414.421 246.552 414.024 245.705 413.887 244.792C413.75 243.879 413.879 242.941 414.258 242.097C414.638 241.252 415.25 240.539 416.018 240.049C416.786 239.558 417.675 239.311 418.573 239.339C419.47 239.367 420.335 239.669 421.06 240.207C421.784 240.745 422.334 241.494 422.641 242.36C422.947 243.226 422.997 244.169 422.782 245.071C422.496 246.279 421.757 247.326 420.729 247.984C419.7 248.641 418.467 248.854 417.298 248.577Z" fill="white"/>
<path d="M274.721 106.304C273.847 106.099 273.056 105.63 272.447 104.957C271.838 104.285 271.439 103.438 271.3 102.525C271.161 101.611 271.289 100.673 271.668 99.8275C272.046 98.9822 272.658 98.2683 273.426 97.7763C274.194 97.2843 275.083 97.0363 275.981 97.0637C276.879 97.0911 277.745 97.3927 278.47 97.9303C279.195 98.4679 279.745 99.2173 280.052 100.084C280.359 100.95 280.409 101.894 280.195 102.796C280.054 103.394 279.801 103.959 279.45 104.459C279.098 104.959 278.656 105.384 278.148 105.709C277.639 106.035 277.075 106.255 276.487 106.357C275.899 106.459 275.299 106.441 274.721 106.304Z" fill="white"/>
<path d="M397.545 140.934C396.753 140.742 396.041 140.287 395.501 139.626C394.96 138.965 394.615 138.128 394.508 137.221C394.401 136.315 394.538 135.378 394.901 134.531C395.264 133.684 395.836 132.964 396.547 132.462C397.257 131.96 398.073 131.699 398.891 131.711C399.709 131.724 400.493 132.009 401.144 132.531C401.795 133.054 402.283 133.79 402.547 134.646C402.81 135.503 402.838 136.441 402.626 137.343C402.486 137.943 402.243 138.512 401.912 139.018C401.581 139.523 401.167 139.955 400.695 140.289C400.223 140.623 399.701 140.852 399.161 140.962C398.62 141.073 398.071 141.063 397.545 140.934Z" fill="white"/>
<path d="M196.443 396.273C195.571 396.064 194.783 395.592 194.177 394.917C193.572 394.242 193.176 393.395 193.041 392.482C192.905 391.57 193.036 390.632 193.417 389.789C193.797 388.945 194.41 388.234 195.178 387.744C195.946 387.254 196.835 387.008 197.732 387.037C198.629 387.066 199.493 387.369 200.217 387.907C200.94 388.445 201.49 389.194 201.796 390.059C202.103 390.925 202.152 391.868 201.938 392.769C201.796 393.368 201.541 393.934 201.187 394.434C200.834 394.935 200.39 395.36 199.88 395.685C199.369 396.01 198.803 396.23 198.214 396.331C197.624 396.431 197.022 396.412 196.443 396.273Z" fill="white"/>
<path d="M230.753 227.157C225.665 229.486 221.998 223.347 226.309 219.724C231.387 217.443 235.056 223.572 230.753 227.157Z" fill="white"/>
<path d="M99.1136 184.073C100.227 184.309 100.912 185.526 100.644 186.792C100.376 188.058 99.2562 188.893 98.1429 188.657C97.0295 188.422 96.3443 187.204 96.6123 185.938C96.8804 184.673 98.0003 183.838 99.1136 184.073Z" fill="white"/>
<path d="M193.533 198.619C193.057 198.956 192.491 199.072 191.96 198.944C191.429 198.815 190.976 198.451 190.701 197.933C190.426 197.414 190.351 196.783 190.494 196.178C190.636 195.573 190.983 195.044 191.46 194.708C191.695 194.541 191.956 194.426 192.226 194.371C192.496 194.315 192.77 194.319 193.033 194.383C193.296 194.447 193.543 194.569 193.759 194.742C193.975 194.916 194.156 195.137 194.292 195.394C194.428 195.651 194.517 195.938 194.552 196.239C194.588 196.54 194.57 196.849 194.499 197.148C194.429 197.448 194.307 197.732 194.141 197.984C193.976 198.236 193.769 198.452 193.533 198.619Z" fill="white"/>
<path d="M193.714 290.086C188.11 292.674 184.092 285.882 188.833 281.86C194.437 279.272 198.465 286.066 193.714 290.086Z" fill="white"/>
<path d="M156.781 260.767C156.305 261.104 155.739 261.22 155.208 261.092C154.677 260.963 154.224 260.599 153.949 260.081C153.674 259.562 153.599 258.931 153.742 258.326C153.884 257.721 154.231 257.192 154.708 256.856C155.184 256.519 155.75 256.402 156.281 256.531C156.812 256.659 157.265 257.023 157.54 257.542C157.815 258.06 157.89 258.692 157.747 259.296C157.605 259.901 157.258 260.43 156.781 260.767Z" fill="white"/>
<path d="M285.561 174.699C285.164 174.604 284.808 174.377 284.537 174.047C284.266 173.716 284.092 173.298 284.039 172.844C283.985 172.39 284.053 171.922 284.234 171.498C284.415 171.074 284.702 170.713 285.057 170.462C285.413 170.211 285.821 170.08 286.231 170.086C286.64 170.093 287.033 170.236 287.358 170.498C287.684 170.76 287.927 171.129 288.059 171.558C288.19 171.987 288.203 172.457 288.096 172.908C287.953 173.511 287.606 174.038 287.131 174.374C286.656 174.709 286.091 174.826 285.561 174.699Z" fill="white"/>
<path d="M296.2 247.841C295.803 247.748 295.445 247.522 295.172 247.193C294.9 246.864 294.725 246.446 294.669 245.992C294.614 245.538 294.681 245.069 294.861 244.644C295.042 244.219 295.328 243.857 295.683 243.604C296.039 243.352 296.447 243.22 296.857 243.226C297.267 243.232 297.66 243.374 297.986 243.636C298.312 243.898 298.556 244.267 298.688 244.696C298.82 245.126 298.833 245.596 298.726 246.048C298.583 246.649 298.238 247.174 297.765 247.51C297.292 247.846 296.729 247.965 296.2 247.841Z" fill="white"/>
<path d="M192.311 320.679C191.913 320.585 191.555 320.36 191.283 320.031C191.01 319.701 190.835 319.283 190.78 318.829C190.724 318.376 190.791 317.906 190.972 317.481C191.152 317.056 191.438 316.695 191.794 316.442C192.149 316.19 192.558 316.058 192.968 316.064C193.378 316.069 193.771 316.212 194.097 316.474C194.423 316.736 194.667 317.105 194.798 317.534C194.93 317.963 194.943 318.434 194.836 318.885C194.693 319.486 194.348 320.012 193.875 320.348C193.402 320.684 192.84 320.803 192.311 320.679Z" fill="white"/>
<path d="M250.198 285.997C249.801 285.901 249.445 285.674 249.174 285.344C248.903 285.014 248.729 284.595 248.675 284.142C248.621 283.688 248.689 283.219 248.871 282.795C249.052 282.371 249.339 282.011 249.694 281.759C250.05 281.508 250.458 281.378 250.868 281.384C251.277 281.39 251.67 281.534 251.995 281.796C252.32 282.057 252.564 282.426 252.695 282.855C252.827 283.284 252.84 283.754 252.732 284.205C252.589 284.808 252.242 285.335 251.767 285.671C251.292 286.007 250.728 286.124 250.198 285.997Z" fill="white"/>
<path d="M108.82 118.113C108.423 118.018 108.067 117.791 107.796 117.46C107.525 117.13 107.351 116.712 107.297 116.258C107.243 115.804 107.311 115.336 107.493 114.912C107.674 114.488 107.961 114.127 108.316 113.876C108.672 113.625 109.08 113.494 109.49 113.501C109.899 113.507 110.292 113.65 110.617 113.912C110.942 114.174 111.186 114.543 111.317 114.972C111.449 115.401 111.462 115.871 111.355 116.322C111.285 116.621 111.164 116.905 110.999 117.157C110.833 117.409 110.627 117.625 110.391 117.791C110.156 117.958 109.896 118.072 109.626 118.127C109.356 118.182 109.083 118.177 108.82 118.113Z" fill="white"/>
<path d="M124.988 73.6394C124.59 73.5462 124.232 73.3207 123.96 72.9915C123.687 72.6622 123.512 72.2441 123.456 71.7902C123.401 71.3364 123.468 70.8671 123.648 70.4421C123.829 70.0171 124.115 69.6555 124.47 69.4031C124.826 69.1507 125.234 69.019 125.644 69.0247C126.054 69.0304 126.447 69.1731 126.773 69.4349C127.099 69.6966 127.344 70.0656 127.475 70.4949C127.607 70.9242 127.62 71.3946 127.513 71.8462C127.443 72.1445 127.323 72.4276 127.158 72.6791C126.994 72.9307 126.788 73.146 126.554 73.3125C126.319 73.479 126.06 73.5936 125.791 73.6497C125.523 73.7058 125.25 73.7023 124.988 73.6394Z" fill="white"/>
<path d="M348.785 160.843C348.68 161.295 348.459 161.708 348.151 162.03C347.843 162.353 347.461 162.57 347.054 162.654C346.647 162.739 346.233 162.686 345.865 162.504C345.497 162.322 345.191 162.018 344.986 161.631C344.781 161.244 344.685 160.791 344.713 160.33C344.74 159.868 344.888 159.419 345.138 159.039C345.388 158.659 345.729 158.365 346.118 158.195C346.507 158.025 346.926 157.986 347.322 158.083C347.852 158.212 348.303 158.575 348.577 159.093C348.852 159.61 348.926 160.239 348.785 160.843Z" fill="white"/>
<path d="M358.559 116.395C358.163 116.297 357.808 116.069 357.539 115.738C357.27 115.408 357.098 114.99 357.045 114.537C356.992 114.083 357.06 113.616 357.242 113.193C357.423 112.77 357.71 112.41 358.064 112.16C358.419 111.909 358.827 111.778 359.235 111.784C359.644 111.79 360.036 111.932 360.361 112.193C360.686 112.453 360.931 112.82 361.063 113.248C361.195 113.675 361.21 114.144 361.105 114.595C361.035 114.896 360.914 115.181 360.747 115.434C360.581 115.687 360.374 115.904 360.137 116.071C359.901 116.238 359.639 116.353 359.369 116.409C359.098 116.464 358.822 116.459 358.559 116.395Z" fill="white"/>
<path d="M418.775 198.119C418.378 198.024 418.022 197.796 417.751 197.466C417.48 197.136 417.306 196.718 417.252 196.264C417.198 195.81 417.266 195.341 417.448 194.917C417.629 194.493 417.916 194.133 418.271 193.882C418.627 193.63 419.035 193.5 419.445 193.506C419.854 193.513 420.247 193.656 420.572 193.918C420.897 194.18 421.141 194.548 421.272 194.977C421.404 195.406 421.417 195.876 421.31 196.327C421.167 196.93 420.82 197.457 420.344 197.793C419.869 198.129 419.305 198.246 418.775 198.119Z" fill="white"/>
<path d="M299.239 349.07C300.352 349.306 301.081 350.318 300.866 351.33C300.652 352.343 299.576 352.973 298.462 352.737C297.349 352.501 296.62 351.489 296.835 350.477C297.049 349.464 298.125 348.834 299.239 349.07Z" fill="white"/>
<path d="M286.521 207.752C285.879 211.807 282.316 214.64 278.564 214.08C274.811 213.52 272.29 209.778 272.933 205.723C273.575 201.668 277.138 198.834 280.89 199.395C284.642 199.955 287.163 203.696 286.521 207.752Z" fill="white"/>
<path d="M300.833 380.164C303.797 380.876 305.585 384.056 304.827 387.267C304.069 390.479 301.053 392.505 298.089 391.793C295.126 391.082 293.338 387.901 294.096 384.69C294.853 381.479 297.87 379.452 300.833 380.164Z" fill="white"/>
<path d="M110.854 119.918C111.28 115.983 110.97 115.44 107.585 114.101C111.235 114.424 111.749 114.082 113.105 110.389C112.685 114.335 112.989 114.867 116.381 116.216C112.732 115.885 112.238 116.212 110.854 119.918Z" fill="white"/>
<path d="M385.979 129.865C386.447 125.717 386.161 125.178 382.752 123.779C386.413 124.087 386.868 123.729 388.331 119.826C387.875 123.965 388.171 124.46 391.57 125.903C387.898 125.604 387.41 125.921 385.979 129.865Z" fill="white"/>
<path d="M264.47 214.299C264.858 210.531 264.554 210.074 261.144 208.683C264.796 209.032 265.243 208.713 266.638 205.179C266.248 208.958 266.543 209.455 269.964 210.795C266.303 210.444 265.816 210.755 264.47 214.299Z" fill="white"/>
<path d="M424.033 260.542C424.411 256.771 424.107 256.314 420.697 254.924C424.358 255.275 424.845 254.964 426.191 251.419C425.801 255.198 426.096 255.696 429.517 257.035C425.865 256.687 425.379 256.997 424.033 260.542Z" fill="white"/>
<path d="M109.784 188.75C112.193 189.329 113.647 191.914 113.031 194.525C112.415 197.135 109.962 198.783 107.553 198.204C105.144 197.626 103.691 195.04 104.307 192.43C104.923 189.819 107.375 188.172 109.784 188.75Z" fill="white"/>
<path d="M173.446 361.708C173.904 357.557 173.606 357.074 170.209 355.619C173.879 355.93 174.374 355.58 175.798 351.668C175.332 355.806 175.628 356.3 179.025 357.755C175.365 357.446 174.87 357.797 173.446 361.708Z" fill="white"/>
<path d="M260.2 257.397C259.144 255.662 257.634 254.418 255.452 254.834C253.605 255.187 251.578 257.266 249.898 256.661C247.901 255.94 247.967 255.255 246.201 255.683C245.702 255.798 245.195 256.066 244.733 256.46C244.271 256.854 243.871 257.359 243.574 257.923C243.574 257.923 246.141 256.372 247.444 257.727C247.632 257.866 247.75 258.096 247.779 258.378C246.305 258.199 245.075 257.23 243.574 257.923C242.018 258.723 240.492 259.721 239.029 260.895C237.786 261.864 237.12 260.564 234.979 261.207C232.837 261.849 231.85 262.029 230.314 263.605C228.779 265.181 227.687 265.846 226.063 265.97C225.054 266.042 224.077 265.987 223.145 265.806C223.145 265.806 224.382 267.847 226.003 267.721C227.625 267.595 228.53 267.035 230.558 265.816C232.585 264.598 235.694 266.782 235.694 266.782C235.694 266.782 232.962 266.506 230.577 267.951C228.193 269.396 227.073 270.94 224.887 270.329C223.041 269.804 222.239 268.665 220.92 269.002C219.932 268.814 218.809 269.059 217.725 269.698C215.171 271.227 214.661 271.476 212.678 270.934C210.694 270.392 207.701 271.798 205.38 273.666C203.059 275.534 202.225 276.705 199.237 276.644C196.248 276.583 194.795 276.355 192.425 277.693C191.264 278.319 190.118 279.043 189 279.858C189 279.858 193.776 277.742 197.461 278.823C201.147 279.904 205.92 277.792 207.821 275.782C209.722 273.772 211.325 276.141 214.585 275.637C215.048 275.559 215.518 275.44 215.988 275.28C216.206 275.236 216.428 275.152 216.646 275.031C218.172 274.401 219.382 273.528 220.482 273.197C221.064 273.259 221.602 273.441 222.074 273.736C225.337 275.619 228.003 276.58 230.494 274.639C232.985 272.699 234.449 271.811 235.752 273.167C237.055 274.523 238.529 274.702 239.197 274.942C239.866 275.182 240.453 275.037 237.665 276.514C234.877 277.991 233.671 276.14 232.577 276.81L229.644 278.588C229.644 278.588 232.211 277.03 233.735 278.467C235.259 279.903 238.332 280.834 239.798 279.941C241.265 279.049 243.725 277.993 244.981 278.087C246.236 278.181 248.561 278.493 249.485 277.932C250.038 277.564 250.605 277.254 251.177 277.008C249.97 279.072 247.652 280.637 245.809 281.267C247.756 281.257 249.831 280.645 251.845 279.486C252.702 278.996 253.541 278.408 254.344 277.734C260.69 272.416 263.583 262.964 260.2 257.397Z" fill="white" fill-opacity="0.85"/>
<path d="M259.48 260.088C259.48 260.088 258.136 257.591 256.249 256.975C254.361 256.358 252.755 257.731 250.459 259.176C248.164 260.62 246.921 260.137 245.152 260.215C243.987 260.225 242.727 260.748 241.597 261.691C241.279 262.026 242.155 261.424 243.13 261.535C243.895 261.689 244.596 261.994 245.209 262.44C244.013 263.351 242.707 263.806 241.527 263.722C239.47 263.635 238.168 263.354 237.273 263.646C236.653 263.887 236.041 264.258 235.469 264.739C235.087 264.98 236.956 263.981 237.866 265.303C238.776 266.625 240.788 267.44 240.788 267.44C240.788 267.44 238.026 266.603 236.304 267.283C234.582 267.964 233.202 269.416 231.869 270.658C230.536 271.901 229.782 271.072 228.505 271.604C227.597 272.032 226.712 272.635 225.892 273.384C227.368 272.87 228.827 272.656 230.202 272.751C232.336 272.94 232.5 272.113 234.785 270.687C237.07 269.26 238.756 270.077 239.661 271.407C240.566 272.738 243.413 273.157 243.413 273.157C243.413 273.157 242.183 274.293 241.476 274.06C240.769 273.827 241.1 275.109 242.363 275.08C243.625 275.051 244.576 274.049 245.289 275.091C246.002 276.133 245.92 276.546 247.177 276.519C248.434 276.492 250.992 275.429 252.563 275.559C254.135 275.688 258.112 271.648 259.335 267.886C260.557 264.123 259.48 260.088 259.48 260.088Z" fill="#5EBACE" fill-opacity="0.85"/>
<path d="M258.462 261.337L257.189 259.542C256.707 258.866 255.962 258.514 255.096 258.555L252.442 258.7C251.75 258.738 251.023 258.96 250.313 259.35C249.603 259.741 248.926 260.29 248.329 260.961L245.298 264.375C245.298 264.375 243.688 269.644 244.239 271.348C244.79 273.053 248.421 274.717 250.159 275.163C251.897 275.608 254.686 274.138 255.959 272.291C257.233 270.445 259.053 268.269 259.213 266.025C259.373 263.782 258.462 261.337 258.462 261.337Z" fill="#263238" fill-opacity="0.85"/>
<path d="M255.989 265.941C255.738 266.094 255.476 266.165 255.237 266.146C254.998 266.127 254.793 266.019 254.648 265.835C254.502 265.651 254.423 265.399 254.42 265.112C254.417 264.825 254.491 264.515 254.631 264.221C254.772 263.928 254.973 263.664 255.21 263.463C255.446 263.262 255.707 263.134 255.96 263.093C256.213 263.053 256.446 263.103 256.63 263.236C256.814 263.37 256.94 263.581 256.993 263.844C257.029 264.018 257.031 264.21 257 264.41C256.969 264.61 256.905 264.813 256.812 265.008C256.718 265.203 256.598 265.386 256.456 265.546C256.315 265.706 256.157 265.841 255.989 265.941Z" fill="white" fill-opacity="0.85" stroke="#263238" stroke-opacity="0.85" stroke-width="1.04814" stroke-linecap="round" stroke-linejoin="round"/>
<path d="M252.609 263.065C252.412 263.185 252.207 263.241 252.02 263.226C251.833 263.212 251.672 263.127 251.558 262.983C251.444 262.839 251.382 262.642 251.38 262.417C251.377 262.192 251.435 261.949 251.545 261.719C251.655 261.489 251.813 261.282 251.998 261.125C252.184 260.968 252.388 260.867 252.586 260.836C252.784 260.804 252.967 260.844 253.111 260.948C253.255 261.053 253.354 261.219 253.395 261.425C253.423 261.561 253.424 261.712 253.4 261.868C253.376 262.024 253.325 262.183 253.252 262.336C253.179 262.488 253.085 262.631 252.975 262.756C252.864 262.881 252.74 262.986 252.609 263.065Z" fill="white" fill-opacity="0.85" stroke="#263238" stroke-opacity="0.85" stroke-width="1.04814" stroke-linecap="round" stroke-linejoin="round"/>
<path d="M251.653 269.089C251.467 269.202 251.274 269.255 251.097 269.242C250.921 269.228 250.769 269.148 250.661 269.013C250.554 268.877 250.495 268.691 250.492 268.479C250.49 268.267 250.544 268.038 250.647 267.821C250.751 267.604 250.899 267.409 251.074 267.261C251.248 267.112 251.441 267.016 251.628 266.986C251.815 266.956 251.987 266.992 252.124 267.09C252.26 267.188 252.354 267.344 252.393 267.538C252.42 267.666 252.421 267.808 252.398 267.956C252.375 268.104 252.328 268.254 252.259 268.398C252.191 268.542 252.102 268.677 251.998 268.796C251.894 268.915 251.777 269.014 251.653 269.089Z" fill="white" fill-opacity="0.85" stroke="#263238" stroke-opacity="0.85" stroke-width="1.04814" stroke-linecap="round" stroke-linejoin="round"/>
<path d="M256.536 268.333C256.449 268.387 256.357 268.412 256.274 268.406C256.19 268.4 256.118 268.363 256.067 268.299C256.016 268.235 255.988 268.148 255.986 268.048C255.985 267.947 256.01 267.839 256.059 267.737C256.107 267.634 256.177 267.542 256.26 267.471C256.342 267.401 256.434 267.355 256.522 267.341C256.61 267.326 256.692 267.343 256.756 267.39C256.821 267.436 256.865 267.51 256.884 267.601C256.909 267.724 256.887 267.869 256.821 268.006C256.756 268.144 256.654 268.261 256.536 268.333Z" fill="white" fill-opacity="0.85" stroke="#263238" stroke-opacity="0.85" stroke-width="1.04814" stroke-linecap="round" stroke-linejoin="round"/>
<path d="M249.162 267.23C249.019 267.316 248.871 267.356 248.736 267.345C248.601 267.334 248.485 267.272 248.403 267.168C248.321 267.064 248.276 266.921 248.275 266.759C248.273 266.596 248.315 266.421 248.395 266.255C248.474 266.089 248.588 265.939 248.722 265.826C248.856 265.712 249.004 265.64 249.147 265.617C249.29 265.594 249.422 265.622 249.526 265.698C249.63 265.774 249.701 265.894 249.731 266.042C249.77 266.242 249.732 266.479 249.626 266.701C249.519 266.923 249.352 267.113 249.162 267.23Z" fill="white" fill-opacity="0.85" stroke="#263238" stroke-opacity="0.85" stroke-width="1.04814" stroke-linecap="round" stroke-linejoin="round"/>
<path d="M255.078 261.843C254.931 261.932 254.778 261.956 254.652 261.91C254.527 261.865 254.439 261.753 254.409 261.6C254.378 261.447 254.407 261.265 254.489 261.094C254.571 260.923 254.7 260.777 254.846 260.688C254.919 260.645 254.994 260.616 255.067 260.605C255.14 260.593 255.209 260.599 255.271 260.621C255.334 260.644 255.387 260.683 255.429 260.736C255.471 260.789 255.5 260.856 255.515 260.932C255.53 261.007 255.531 261.091 255.517 261.178C255.504 261.265 255.476 261.353 255.435 261.438C255.394 261.522 255.342 261.602 255.28 261.671C255.219 261.741 255.15 261.799 255.078 261.843Z" fill="white" fill-opacity="0.85" stroke="#263238" stroke-opacity="0.85" stroke-width="1.04814" stroke-linecap="round" stroke-linejoin="round"/>
<path d="M389.944 88.99C382.668 78.6011 368.943 75.7987 359.288 82.7307C349.632 89.6627 347.703 103.704 354.978 114.093C362.253 124.482 375.979 127.284 385.634 120.352C395.29 113.42 397.219 99.3789 389.944 88.99Z" fill="white"/>
<path d="M372.3 78.9581L357.792 102.545L365.001 79.8745C364.571 80.006 364.148 80.1594 363.726 80.3218L352.073 108.567C352.699 110.262 353.515 111.885 354.504 113.401L358.499 106.995L356.177 115.682L362.495 106.81L360.733 119.91C361 120.1 361.267 120.281 361.538 120.46L372.674 92.6455L368.796 112.506L374.286 103.618L372.79 113.678L384.921 83.7253C382.469 81.8211 379.692 80.4373 376.764 79.6599L372.13 86.726L374.939 79.2628C374.063 79.1081 373.182 79.0063 372.3 78.9581Z" fill="#5EBACE"/>
<path d="M388.419 87.0427L378.186 111.241L385.401 99.3002L380.41 123.047C385.649 121.254 389.901 117.403 392.285 112.293C394.669 107.183 395.001 101.207 393.213 95.6046L390.777 104.445L391.737 91.9857C390.837 90.2072 389.722 88.5454 388.419 87.0427Z" fill="#5EBACE"/>
<path d="M350.641 101.881L356.457 88.2829L353.485 91.8379L354.275 87.9231C351.563 91.9356 350.283 96.8495 350.641 101.881Z" fill="#5EBACE"/>
<path d="M375.912 116.252L371.757 124.055C374.047 124.264 376.334 124.104 378.536 123.582L375.912 116.252Z" fill="#5EBACE"/>
<path d="M389.944 88.99C382.668 78.6011 368.943 75.7987 359.288 82.7307C349.632 89.6627 347.703 103.704 354.978 114.093C362.253 124.482 375.979 127.284 385.634 120.352C395.29 113.42 397.219 99.3789 389.944 88.99Z" stroke="#263238" stroke-width="1.04814" stroke-linecap="round" stroke-linejoin="round"/>
<path d="M345.109 76.3633C342.672 79.2743 345.335 86.1861 351.359 94.2762C351.572 93.5071 351.824 92.7524 352.115 92.0151C347.598 85.9769 345.532 81.155 347.099 79.2781C349.884 75.9485 363.064 83.1444 376.53 95.3565C389.997 107.569 398.666 120.166 395.88 123.496C394.445 125.211 390.247 124.127 384.673 121.006C384.022 121.419 383.348 121.793 382.654 122.129C390.421 126.489 396.639 127.879 398.915 125.158C402.772 120.546 393.849 105.889 378.989 92.4171C364.129 78.9448 348.962 71.7492 345.109 76.3633Z" fill="#5EBACE" stroke="#263238" stroke-width="1.04814" stroke-linecap="round" stroke-linejoin="round"/>
<path d="M132.646 96.4852C154.738 96.4852 172.646 78.5766 172.646 56.4852C172.646 34.3938 154.738 16.4852 132.646 16.4852C110.555 16.4852 92.6465 34.3938 92.6465 56.4852C92.6465 78.5766 110.555 96.4852 132.646 96.4852Z" fill="white"/>
<path d="M108.287 504.294L173.393 447.059C173.773 446.771 174.205 446.569 174.661 446.466C175.118 446.362 175.589 446.359 176.046 446.457C176.503 446.555 176.937 446.752 177.321 447.035C177.705 447.319 178.031 447.683 178.279 448.106C180.222 451.219 176.337 473.08 176.337 473.08L187.027 474.127L188.969 481.4L195.774 488.687L196.74 504.294H108.287Z" fill="#2E353A" stroke="#2E353A" stroke-miterlimit="10"/>
<path d="M362.134 161.156L271.491 155.254C265.652 154.874 260.63 159.634 260.275 165.887L254.195 272.951C253.84 279.203 258.285 284.58 264.125 284.961L354.768 290.863C360.607 291.243 365.628 286.483 365.983 280.23L372.064 173.166C372.419 166.914 367.973 161.537 362.134 161.156Z" fill="#FF5555" stroke="#2E353A" stroke-miterlimit="10"/>
<path d="M250.204 211.72C250.204 211.72 243.277 220.878 222.923 227.419C202.569 233.96 197.67 237.453 197.67 237.453C197.67 237.453 185.856 241.809 181.788 252.707C177.719 263.604 180.163 269.282 203.779 267.542C227.394 265.802 276.263 245.302 276.263 245.302C276.263 245.302 285.231 227.85 283.19 213.028C281.15 198.206 254.272 205.611 250.204 211.72Z" fill="white"/>
<g style="mix-blend-mode:multiply" opacity="0.49">
<path d="M195.728 257.809C195.728 257.809 196.204 262.793 196.632 267.843C198.77 267.843 201.128 267.738 203.779 267.542C227.395 265.789 276.263 245.302 276.263 245.302C279.738 238.198 282.079 230.522 283.19 222.591L280.442 214.193C280.442 214.193 266.587 230.768 253.564 240.357C240.54 249.946 195.728 257.809 195.728 257.809Z" fill="#FF5555"/>
</g>
<path d="M250.204 211.72C250.204 211.72 243.277 220.878 222.923 227.419C202.569 233.96 197.67 237.453 197.67 237.453C197.67 237.453 185.856 241.809 181.788 252.707C177.719 263.604 180.163 269.282 203.779 267.542C227.394 265.802 276.263 245.302 276.263 245.302C276.263 245.302 285.231 227.85 283.19 213.028C281.15 198.206 254.272 205.611 250.204 211.72Z" stroke="#2E353A" stroke-miterlimit="10"/>
<path d="M198.513 260.53C198.513 260.53 247.149 252.445 271.229 237.78" stroke="#2E353A" stroke-width="0.5" stroke-miterlimit="10"/>
<path d="M239.441 258.973C240.882 253.923 242.422 245.041 239.208 236.145C237.52 231.328 234.291 227.308 230.094 224.802C227.908 225.705 225.525 226.581 222.923 227.419L221.029 228.034C225.305 230.846 232.135 236.903 232.697 247.042C233.046 251.753 232.969 256.489 232.465 261.184C234.798 260.465 237.132 259.732 239.441 258.973Z" fill="#2E353A" stroke="#2E353A" stroke-miterlimit="10"/>
<path d="M283.289 190.317C281.292 188.213 278.925 186.554 276.325 185.438C258.842 178.321 249.447 199.71 246.197 214.336C246.197 214.336 250.266 217.829 260.443 216.076C270.619 214.323 285.28 206.919 286.917 200.809C287.87 197.002 285.989 193.248 283.289 190.317Z" fill="#2E353A" stroke="#2E353A" stroke-miterlimit="10"/>
<path d="M200.933 242.241C200.933 242.241 200.933 252.275 194.409 254.892C187.885 257.508 181.788 252.707 181.788 252.707C181.788 252.707 180.567 233.528 182.192 230.035C183.816 226.542 198.074 233.96 200.933 242.241Z" fill="white" stroke="#2E353A" stroke-miterlimit="10"/>
<path d="M294.064 186.589C294.064 186.589 283.068 188.211 280.381 191.822C277.693 195.433 262.898 281.357 262.14 283.803C261.383 286.25 264.413 293.981 273.918 304.971C283.423 315.96 295.2 319.217 306.599 320.028C317.997 320.839 344.985 314.795 351.448 308.254C357.911 301.713 357.153 284.641 357.153 275.287C357.153 265.933 360.574 201.62 358.29 195.93C356.005 190.239 341.186 185.346 338.913 185.346C336.641 185.346 296.727 186.183 294.064 186.589Z" fill="white"/>
<g style="mix-blend-mode:multiply" opacity="0.49">
<path d="M357.154 275.313C357.154 265.946 360.574 201.647 358.29 195.943C356.005 190.239 341.186 185.372 338.913 185.372C336.641 185.372 296.715 186.183 294.064 186.589C292.061 186.913 290.075 187.35 288.114 187.897C293.001 197.055 303.703 210.451 324.424 211.589C332.514 212.136 340.631 211.207 348.431 208.842L343.971 262.165L309.421 258.685L335.004 273.508L336.641 296.179L355.089 301.608C357.569 293.563 357.154 282.299 357.154 275.313Z" fill="#FF5555"/>
</g>
<path d="M294.064 186.589C294.064 186.589 283.068 188.211 280.381 191.822C277.693 195.433 262.898 281.357 262.14 283.803C261.383 286.25 264.413 293.981 273.918 304.971C283.423 315.96 295.2 319.217 306.599 320.028C317.997 320.839 344.985 314.795 351.448 308.254C357.911 301.713 357.153 284.641 357.153 275.287C357.153 265.933 360.574 201.62 358.29 195.93C356.005 190.239 341.186 185.346 338.913 185.346C336.641 185.346 296.727 186.183 294.064 186.589Z" stroke="#2E353A" stroke-miterlimit="10"/>
<path d="M311.693 276.909C294.308 276.909 272.879 248.128 271.975 246.951L274.846 244.517C275.066 244.805 296.079 272.984 311.693 272.984C316.225 272.984 319.255 271.82 320.697 269.518C322.896 266.011 320.929 260.609 320.904 260.556L324.301 259.065C324.411 259.366 327.05 266.43 323.739 271.715C321.576 275.156 317.496 276.909 311.693 276.909Z" fill="#2E353A" stroke="#2E353A" stroke-miterlimit="10"/>
<path d="M256.177 286.315C257.24 285.308 258.621 284.013 259.842 283.005C258.865 282.875 253.612 282.037 252.146 278.1C250.679 274.162 252.976 268.379 258.608 260.857C275.798 237.937 303.189 233.11 303.47 233.07L302.92 229.002C301.698 229.198 273.904 234.078 255.798 258.228C249.116 267.137 246.758 274.358 248.774 279.696C249.475 281.316 250.503 282.749 251.783 283.894C253.063 285.038 254.563 285.865 256.177 286.315Z" fill="#2E353A" stroke="#2E353A" stroke-miterlimit="10"/>
<path d="M307.58 226.675L301.883 226.347L301.413 235.7L307.11 236.029L307.58 226.675Z" fill="white" stroke="#2E353A" stroke-miterlimit="10"/>
<path d="M318.391 256.463L318.047 262.561L326.778 263.126L327.123 257.028L318.391 256.463Z" fill="white" stroke="#2E353A" stroke-miterlimit="10"/>
<path d="M306.612 217.542L304.327 252.354C304.229 253.914 304.709 255.453 305.662 256.638C306.615 257.823 307.966 258.558 309.422 258.685L341.443 261.393C342.193 261.456 342.948 261.354 343.66 261.094C344.372 260.835 345.028 260.422 345.587 259.883C346.146 259.343 346.596 258.687 346.911 257.955C347.226 257.223 347.398 256.43 347.417 255.624L348.272 219.308C348.309 217.747 347.768 216.234 346.768 215.097C345.769 213.96 344.391 213.292 342.933 213.238L312.39 212.034C310.946 211.962 309.533 212.498 308.453 213.527C307.373 214.556 306.712 215.997 306.612 217.542Z" fill="white" stroke="#2E353A" stroke-miterlimit="10"/>
<path d="M321.234 212.374L320.281 234.614L330.544 235.425L331.863 212.793L321.234 212.374Z" fill="#FF5555" stroke="#2E353A" stroke-miterlimit="10"/>
<path d="M345.363 245.603C345.363 246.972 344.984 248.311 344.273 249.449C343.563 250.588 342.552 251.475 341.371 251.998C340.189 252.522 338.889 252.658 337.635 252.39C336.381 252.122 335.229 251.461 334.326 250.492C333.423 249.523 332.808 248.289 332.56 246.945C332.312 245.602 332.442 244.21 332.933 242.946C333.424 241.681 334.254 240.601 335.319 239.843C336.383 239.084 337.634 238.68 338.913 238.683C339.761 238.683 340.601 238.862 341.384 239.21C342.167 239.558 342.879 240.068 343.478 240.71C344.077 241.353 344.552 242.116 344.876 242.956C345.199 243.795 345.365 244.695 345.363 245.603Z" fill="#FF5555" stroke="#2E353A" stroke-miterlimit="10"/>
<path d="M179.955 272.553C179.955 272.553 189.118 274.293 195.434 269.282C201.751 264.272 198.281 255.323 192.576 250.313C186.87 245.302 175.276 243.772 170.585 246.166C165.893 248.56 168.349 257.94 169.778 262.963C171.208 267.987 173.639 271.676 179.955 272.553Z" fill="white" stroke="#2E353A" stroke-miterlimit="10"/>
<path d="M133.676 111.222C133.676 111.222 139.431 130.61 119.077 141.952C98.7231 153.295 88.9371 152.418 65.3213 168.98C41.7054 185.542 36 222.186 36 222.186C36 222.186 41.6932 206.487 68.571 204.747C95.4489 203.007 122.327 201.856 132.919 201.254C148.398 200.378 156.535 190.788 156.535 190.788L133.676 111.222Z" fill="#FF5555" stroke="#2E353A" stroke-miterlimit="10"/>
<path d="M226.099 433.321L133.676 111.222C133.557 110.811 133.516 110.38 133.554 109.952C133.591 109.524 133.708 109.108 133.897 108.729C134.085 108.35 134.342 108.014 134.652 107.741C134.962 107.468 135.32 107.264 135.704 107.14C136.477 106.89 137.31 106.977 138.024 107.381C138.738 107.785 139.274 108.474 139.516 109.299L231.976 431.424L226.099 433.321Z" fill="#2E353A" stroke="#2E353A" stroke-miterlimit="10"/>
<path d="M169.778 272.553C169.778 272.553 168.752 276.477 173.235 277.563C177.719 278.649 185.453 276.255 185.049 272.121C184.646 267.987 181.58 267.097 178.33 267.542C175.08 267.987 169.778 270.59 169.778 272.553Z" fill="white" stroke="#2E353A" stroke-miterlimit="10"/>
<path d="M173.639 259.039C173.639 259.039 162.289 260.949 161.813 263.565C161.337 266.182 162.228 272.278 165.258 273.194C168.288 274.109 178.318 273.037 180.127 269.57C181.935 266.103 179.442 259.483 177.109 258.764C176.55 258.52 175.946 258.418 175.344 258.465C174.742 258.513 174.159 258.709 173.639 259.039Z" fill="white" stroke="#2E353A" stroke-miterlimit="10"/>
<path d="M170.45 250.666C170.45 250.666 159.088 252.576 158.612 255.206C158.135 257.835 159.027 263.905 162.069 264.821C165.111 265.737 175.117 264.677 176.938 261.21C178.758 257.743 176.241 251.124 173.92 250.404C173.362 250.159 172.758 250.055 172.157 250.101C171.555 250.146 170.971 250.34 170.45 250.666Z" fill="white" stroke="#2E353A" stroke-miterlimit="10"/>
<path d="M168.069 238.081C168.069 238.081 155.644 237.322 154.63 239.991C153.616 242.66 153.2 249.292 156.218 251.006C159.236 252.72 170.06 254.054 172.723 250.823C175.387 247.592 174.153 239.991 171.844 238.656C171.3 238.251 170.676 237.988 170.02 237.888C169.365 237.789 168.696 237.854 168.069 238.081Z" fill="white" stroke="#2E353A" stroke-miterlimit="10"/>
<path d="M185.295 243.523C185.295 243.523 188.349 236.838 186.162 231.854C183.975 226.869 179.186 227.929 177.158 229.512C175.849 230.578 174.787 231.952 174.055 233.528C174.055 233.528 179.186 233.41 181.385 235.739C183.584 238.068 185.295 243.523 185.295 243.523Z" fill="#2E353A" stroke="#2E353A" stroke-miterlimit="10"/>
<path d="M184.33 235.085C184.18 234.434 183.876 233.834 183.449 233.344C183.021 232.854 182.483 232.49 181.886 232.285C179.443 231.435 175.411 230.546 174.03 233.594C171.99 237.95 171.99 249.292 178.099 251.464C184.207 253.636 185.832 248.416 185.429 242.751C185.253 240.169 184.885 237.605 184.33 235.085Z" fill="white" stroke="#2E353A" stroke-miterlimit="10"/>
<path d="M357.043 288.251C349.713 282.678 336.091 277.341 323.507 285.857C310.923 294.374 310.728 313.396 311.094 320.094C323.935 319.479 345.73 314.037 351.411 308.32C355.467 304.225 356.689 296.075 357.043 288.251Z" fill="#2E353A" stroke="#2E353A" stroke-miterlimit="10"/>
<path d="M321.81 377.865C320.791 379.057 320.053 380.492 319.655 382.05C319.258 383.608 319.213 385.246 319.525 386.827C320.661 392.059 319.525 438.096 319.525 438.096C319.525 438.096 319.904 449.085 337.765 451.937C355.627 454.789 361.711 449.491 361.711 449.491C361.711 449.491 361.332 391.706 360.954 385.191C360.77 381.388 359.584 377.718 357.533 374.608L321.81 377.865Z" fill="white"/>
<g style="mix-blend-mode:multiply" opacity="0.49">
<path d="M357.533 374.673L321.81 377.931C320.791 379.122 320.053 380.557 319.655 382.115C319.258 383.674 319.213 385.311 319.525 386.892C319.94 388.789 320.05 395.945 320.026 404.331L354.344 452.29C359.622 451.361 361.674 449.556 361.674 449.556C361.674 449.556 361.296 391.772 360.917 385.257C360.744 381.457 359.571 377.788 357.533 374.673Z" fill="#FF5555"/>
</g>
<path d="M321.81 377.865C320.791 379.057 320.053 380.492 319.655 382.05C319.258 383.608 319.213 385.246 319.525 386.827C320.661 392.059 319.525 438.096 319.525 438.096C319.525 438.096 319.904 449.085 337.765 451.937C355.627 454.789 361.711 449.491 361.711 449.491C361.711 449.491 361.332 391.706 360.954 385.191C360.77 381.388 359.584 377.718 357.533 374.608L321.81 377.865Z" stroke="#2E353A" stroke-miterlimit="10"/>
<path d="M356.775 294.034C356.775 294.034 352.596 288.33 337.044 289.141C321.491 289.952 314.625 309.903 315.053 313.997C315.481 318.092 317.704 372.606 319.231 377.08C320.758 381.554 338.229 385.623 351.155 383.19C364.081 380.756 365.217 368.537 363.702 359.982C362.187 351.426 359.902 301.386 359.902 299.803C359.902 298.22 358.668 296.467 356.775 294.034Z" fill="white"/>
<g style="mix-blend-mode:multiply" opacity="0.49">
<path d="M363.617 359.955C362.09 351.413 359.817 301.36 359.817 299.777C359.817 298.194 358.669 296.519 356.775 294.086C355.97 293.177 355.007 292.444 353.941 291.928L352.108 292.739C352.108 292.739 352.927 301.465 352.927 312.807C352.927 324.149 350.483 362.52 350.483 362.52L316.275 321.52L315.921 332.103C316.825 349.751 318.144 374.176 319.146 377.106C320.661 381.58 338.144 385.649 351.07 383.216C363.996 380.782 365.144 368.511 363.617 359.955Z" fill="#FF5555"/>
</g>
<path d="M356.775 294.034C356.775 294.034 352.596 288.33 337.044 289.141C321.491 289.952 314.625 309.903 315.053 313.997C315.481 318.092 317.704 372.606 319.231 377.08C320.758 381.554 338.229 385.623 351.155 383.19C364.081 380.756 365.217 368.537 363.702 359.982C362.187 351.426 359.902 301.386 359.902 299.803C359.902 298.22 358.668 296.467 356.775 294.034Z" stroke="#2E353A" stroke-miterlimit="10"/>
<path d="M320.281 378.676C320.281 378.676 331.277 389.26 344.227 388.449C357.177 387.638 360.574 378.676 360.574 378.676C360.574 378.676 361.71 374.608 346.89 370.945C332.071 367.282 320.281 378.676 320.281 378.676Z" fill="#2E353A" stroke="#2E353A" stroke-miterlimit="10"/>
<path d="M314.772 201.594C334.764 201.594 350.971 182.851 350.971 159.731C350.971 136.611 334.764 117.868 314.772 117.868C294.779 117.868 278.572 136.611 278.572 159.731C278.572 182.851 294.779 201.594 314.772 201.594Z" fill="#2E353A" stroke="#2E353A" stroke-miterlimit="10"/>
<path d="M314.772 196.937C337.362 196.937 355.675 178.194 355.675 155.074C355.675 131.953 337.362 113.21 314.772 113.21C292.182 113.21 273.869 131.953 273.869 155.074C273.869 178.194 292.182 196.937 314.772 196.937Z" fill="white"/>
<g style="mix-blend-mode:multiply" opacity="0.49">
<path d="M330.422 116.402C331.815 135.607 327.344 167.894 287.063 185.869C294.733 193.049 304.585 196.985 314.772 196.937C337.362 196.937 355.675 178.203 355.675 155.074C355.675 137.635 345.242 122.682 330.422 116.402Z" fill="#FF5555"/>
</g>
<path d="M314.772 196.937C337.362 196.937 355.675 178.194 355.675 155.074C355.675 131.953 337.362 113.21 314.772 113.21C292.182 113.21 273.869 131.953 273.869 155.074C273.869 178.194 292.182 196.937 314.772 196.937Z" stroke="#2E353A" stroke-miterlimit="10"/>
<path d="M273.319 152.745C275.816 152.745 277.84 150.578 277.84 147.905C277.84 145.231 275.816 143.064 273.319 143.064C270.823 143.064 268.799 145.231 268.799 147.905C268.799 150.578 270.823 152.745 273.319 152.745Z" fill="white" stroke="#2E353A" stroke-miterlimit="10"/>
<path d="M273.319 150.809C274.817 150.809 276.031 149.509 276.031 147.905C276.031 146.301 274.817 145 273.319 145C271.821 145 270.606 146.301 270.606 147.905C270.606 149.509 271.821 150.809 273.319 150.809Z" fill="white" stroke="#2E353A" stroke-miterlimit="10"/>
<path d="M314.222 190.343C332.716 190.343 347.709 176.895 347.709 160.307C347.709 143.718 332.716 130.27 314.222 130.27C295.727 130.27 280.734 143.718 280.734 160.307C280.734 176.895 295.727 190.343 314.222 190.343Z" fill="#2E353A" stroke="#2E353A" stroke-miterlimit="10"/>
<path d="M287.234 145.877V159.836L289.324 149.226L295.053 162.073V147.551L317.496 182.167L301.858 143.64H309.189L303.972 138.616L313.355 135.83L301.37 134.718C301.37 134.718 291.926 137.504 287.234 145.877Z" fill="#FF5555"/>
<path d="M382.761 212.27L383.75 212.871C388.955 216.011 413.071 230.781 418.862 237.492C425.289 245.028 410.31 256.174 397.446 259.444C384.581 262.715 359.817 239.468 356.139 234.876C352.462 230.284 349.102 205.715 357.666 201.137C366.231 196.558 382.761 212.27 382.761 212.27Z" fill="white"/>
<g style="mix-blend-mode:multiply" opacity="0.49">
<path d="M418.899 237.492C413.169 230.781 388.991 216.011 383.787 212.871L382.797 212.27C382.797 212.27 366.267 196.571 357.703 201.137C349.139 205.702 352.511 230.297 356.176 234.876C360.039 239.133 364.233 243.033 368.711 246.532L392.021 224.658L419.779 244.282C420.311 243.193 420.512 241.953 420.354 240.736C420.197 239.519 419.688 238.385 418.899 237.492Z" fill="#FF5555"/>
</g>
<path d="M382.761 212.27L383.75 212.871C388.955 216.011 413.071 230.781 418.862 237.492C425.289 245.028 410.31 256.174 397.446 259.444C384.581 262.715 359.817 239.468 356.139 234.876C352.462 230.284 349.102 205.715 357.666 201.137C366.231 196.558 382.761 212.27 382.761 212.27Z" stroke="#2E353A" stroke-miterlimit="10"/>
<path d="M348.552 190.317C350.551 188.216 352.917 186.557 355.516 185.438C373.011 178.321 382.394 199.71 385.656 214.336C385.656 214.336 381.575 217.829 371.398 216.076C361.222 214.323 346.561 206.919 344.924 200.809C343.91 197.002 345.791 193.248 348.552 190.317Z" fill="#2E353A" stroke="#2E353A" stroke-miterlimit="10"/>
<path d="M382.455 252.89C382.455 252.89 399.278 231.605 411.214 231.278C423.151 230.951 428.673 240.776 427.451 248.638C426.229 256.501 417.054 265.344 417.054 265.344C417.054 265.344 423.48 241.796 413.988 241.796C404.495 241.796 382.455 252.89 382.455 252.89Z" fill="#2E353A" stroke="#2E353A" stroke-miterlimit="10"/>
<path d="M376.334 257.809C376.334 257.809 396.529 240.122 410.909 237.832C425.289 235.543 430.456 254.211 417.017 265.305C403.579 276.399 394.672 281.004 385.192 279.696C375.711 278.387 368.075 268.301 376.334 257.809Z" fill="white"/>
<g style="mix-blend-mode:multiply" opacity="0.49">
<path d="M419.058 239.114C419.266 242.921 418.203 252.668 403.42 259.549C384.691 268.275 380.928 268.301 380.928 268.301C381.484 271.54 380.965 274.886 379.462 277.76C381.243 278.802 383.191 279.481 385.204 279.761C394.685 281.069 403.53 276.491 417.03 265.371C427.451 256.697 426.669 243.51 419.058 239.114Z" fill="#FF5555"/>
</g>
<path d="M376.334 257.809C376.334 257.809 396.529 240.122 410.909 237.832C425.289 235.543 430.456 254.211 417.017 265.305C403.579 276.399 394.672 281.004 385.192 279.696C375.711 278.387 368.075 268.301 376.334 257.809Z" stroke="#2E353A" stroke-miterlimit="10"/>
<path d="M390.689 276.203C390.689 276.203 420.011 263.12 425.154 244.347" stroke="#2E353A" stroke-width="0.5" stroke-miterlimit="10"/>
<path d="M368.992 264.69C368.992 264.69 372.657 259.457 377.862 258.79C383.066 258.123 388.576 265.999 390.409 272.553C392.242 279.107 389.798 282.378 387.037 283.359C384.276 284.34 368.992 264.69 368.992 264.69Z" fill="#2E353A" stroke="#2E353A" stroke-miterlimit="10"/>
<path d="M387.036 283.359C387.036 283.359 388.881 277.145 380.928 268.301C372.974 259.457 370.213 264.376 363.176 268.628C356.139 272.88 353.695 280.402 356.75 285.635C359.804 290.868 361.038 294.151 370.189 295.787C379.339 297.422 384.568 287.27 384.568 287.27C385.798 286.321 386.673 284.935 387.036 283.359Z" fill="white"/>
<g style="mix-blend-mode:multiply" opacity="0.49">
<path d="M374.098 282.22C368.608 284.167 362.971 285.607 357.251 286.525C359.975 291.26 361.551 294.269 370.213 295.813C379.389 297.448 384.593 287.296 384.593 287.296C385.816 286.34 386.682 284.949 387.037 283.372C387.037 283.372 388.881 277.158 380.928 268.314C380.928 268.301 383.066 278.741 374.098 282.22Z" fill="#FF5555"/>
</g>
<path d="M387.036 283.359C387.036 283.359 388.881 277.145 380.928 268.301C372.974 259.457 370.213 264.376 363.176 268.628C356.139 272.88 353.695 280.402 356.75 285.635C359.804 290.868 361.038 294.151 370.189 295.787C379.339 297.422 384.568 287.27 384.568 287.27C385.798 286.321 386.673 284.935 387.036 283.359Z" stroke="#2E353A" stroke-miterlimit="10"/>
<path d="M384.594 287.296C384.594 287.296 377.557 291.888 373.269 292.215L384.594 287.296Z" fill="white"/>
<path d="M384.594 287.296C384.594 287.296 377.557 291.888 373.269 292.215" stroke="#2E353A" stroke-miterlimit="10"/>
<path d="M180.969 501.27C180.969 501.27 169.57 492.558 180.163 481.215C190.755 469.873 198.073 472.489 202.154 462.024C206.234 451.558 210.29 432.379 240.43 421.037C270.57 409.694 300.697 419.297 315.358 430.626C330.019 441.955 356.897 449.818 371.557 448.078C386.218 446.338 404.14 462.024 406.584 475.982C409.027 489.941 413.914 491.681 416.358 494.298C418.801 496.914 421.245 503.887 421.245 503.887H199.71C199.71 503.887 186.674 505.64 180.969 501.27Z" fill="#2E353A" stroke="#2E353A" stroke-miterlimit="10"/>
<path d="M389.993 462.181C389.993 462.181 396.957 473.353 392.608 482.68C388.258 492.008 380.391 491.995 380.391 491.995" stroke="white" stroke-miterlimit="10"/>
<path d="M376.946 486.409C376.946 486.409 376.946 490.124 364.729 494.795" stroke="white" stroke-miterlimit="10"/>
<path d="M262.519 498.497C258.67 499.661 255.982 500.381 255.982 500.381" stroke="white" stroke-miterlimit="10"/>
<path d="M302.213 456.934C298.181 460.545 293.832 465.438 292.524 470.566C289.922 480.81 294.271 482.68 287.308 488.267C283.435 491.38 274.186 494.808 266.746 497.176" stroke="white" stroke-miterlimit="10"/>
<path d="M309.933 450.995C309.933 450.995 308.272 452.042 305.963 453.808" stroke="white" stroke-miterlimit="10"/>
<path d="M272.513 483.609C272.513 483.609 260.296 491.995 249.887 495.723C239.478 499.452 215.947 492.924 215.947 492.924" stroke="white" stroke-miterlimit="10"/>
<path d="M212.6 486.527C208.37 484.41 204.725 481.156 202.02 477.081" stroke="white" stroke-miterlimit="10"/>
<path d="M224.645 490.124C222.307 489.901 219.998 489.414 217.755 488.672" stroke="white" stroke-miterlimit="10"/>
<path d="M286.856 282.364C276.996 273.482 268.469 274.515 263.57 276.412C262.788 280.703 262.263 283.45 262.14 283.856C261.371 286.302 264.413 294.034 273.918 305.023C279.992 312.018 287.975 316.78 296.727 318.628C299.085 308.804 299.562 293.824 286.856 282.364Z" fill="#2E353A" stroke="#2E353A" stroke-miterlimit="10"/>
<path d="M251.524 418.159C251.524 418.159 233.626 428.31 233.198 439.326C232.77 450.341 243.46 450.315 255.189 447.057C266.917 443.8 282.164 430.364 284.828 429.148C287.491 427.931 296.605 422.227 294.712 414.09C292.818 405.953 282.494 398.221 282.494 398.221L251.524 418.159Z" fill="white" stroke="#2E353A" stroke-miterlimit="10"/>
<path d="M294.944 414.914C284.706 422.855 261.957 439.888 251.878 442.989C248.763 444.059 245.456 444.332 242.224 443.784C238.993 443.236 235.926 441.884 233.271 439.836C233.271 450.302 243.705 450.302 255.262 447.057C267.04 443.8 282.238 430.364 284.901 429.148C287.565 427.931 296.068 422.607 294.944 414.914Z" fill="#FF5555" stroke="#2E353A" stroke-miterlimit="10"/>
<path d="M230.973 372.985C230.973 372.985 243.129 414.849 247.687 418.97C252.244 423.091 271.632 419.781 271.632 419.781C271.632 419.781 275.811 427.931 278.853 431.555C281.895 435.179 291.07 432.366 291.4 422.188C291.73 412.01 286.073 397.776 286.073 397.776L273.159 359.511C273.159 359.511 257.949 356.253 243.838 359.511C229.727 362.768 230.973 372.985 230.973 372.985Z" fill="white"/>
<g style="mix-blend-mode:multiply" opacity="0.49">
<path d="M291.401 422.227C291.78 412.049 286.074 397.816 286.074 397.816L273.161 359.55C265.095 358.024 256.868 357.733 248.726 358.686C245.652 359.772 242.497 360.573 239.295 361.08C236.828 362.095 234.669 363.814 233.052 366.052C236.289 367.164 239.979 368.341 243.827 369.44C256.045 372.933 260.113 367.7 262.556 378.166C265 388.632 267.761 409.956 271.67 419.781C271.67 419.781 275.849 427.931 278.891 431.555C281.933 435.179 291.022 432.405 291.401 422.227Z" fill="#FF5555"/>
</g>
<path d="M230.973 372.985C230.973 372.985 243.129 414.849 247.687 418.97C252.244 423.091 271.632 419.781 271.632 419.781C271.632 419.781 275.811 427.931 278.853 431.555C281.895 435.179 291.07 432.366 291.4 422.188C291.73 412.01 286.073 397.776 286.073 397.776L273.159 359.511C273.159 359.511 257.949 356.253 243.838 359.511C229.727 362.768 230.973 372.985 230.973 372.985Z" stroke="#2E353A" stroke-miterlimit="10"/>
<path d="M286.453 417.962C286.842 420.235 286.961 422.552 286.807 424.857" stroke="#2E353A" stroke-width="0.5" stroke-miterlimit="10"/>
<path d="M268.871 369.244C268.871 369.244 281.54 395.408 285.633 413.724" stroke="#2E353A" stroke-width="0.5" stroke-miterlimit="10"/>
<path d="M229.447 353.454C229.447 353.454 223.753 361.185 227.174 370.539C230.595 379.893 244.278 382.313 256.056 377.865C267.833 373.417 274.296 362.402 272.781 356.711C271.266 351.02 229.447 353.454 229.447 353.454Z" fill="#2E353A" stroke="#2E353A" stroke-miterlimit="10"/>
<path d="M295.579 315.607C295.579 315.607 280.381 353.048 270.498 360.78C260.614 368.511 238.574 368.917 230.596 359.55C222.618 350.183 232.111 328.218 241.995 311.145C251.879 294.073 256.814 279.408 267.834 280.219C278.854 281.03 297.107 295.656 295.579 315.607Z" fill="white"/>
<g style="mix-blend-mode:multiply" opacity="0.49">
<path d="M261.701 351.125C253.149 358.83 241.64 361.211 233.027 361.8C242.386 368.786 261.493 367.818 270.497 360.78C280.381 353.048 295.579 315.606 295.579 315.606C295.902 311.311 295.322 306.993 293.881 302.969C289.593 311.368 274.737 339.351 261.701 351.125Z" fill="#FF5555"/>
</g>
<path d="M295.579 315.607C295.579 315.607 280.381 353.048 270.498 360.78C260.614 368.511 238.574 368.917 230.596 359.55C222.618 350.183 232.111 328.218 241.995 311.145C251.879 294.073 256.814 279.408 267.834 280.219C278.854 281.03 297.107 295.656 295.579 315.607Z" stroke="#2E353A" stroke-miterlimit="10"/>
<path d="M261.444 362.376C260.065 363.316 258.594 364.093 257.058 364.691" stroke="#2E353A" stroke-width="0.5" stroke-miterlimit="10"/>
<path d="M290.704 318.969C285.989 329.735 277.143 347.75 266.783 357.941" stroke="#2E353A" stroke-width="0.5" stroke-miterlimit="10"/>
<path d="M294.37 310.086C294.37 310.086 293.539 312.31 292.036 315.881" stroke="#2E353A" stroke-width="0.5" stroke-miterlimit="10"/>
</svg>
